<?xml version="1.0" encoding="utf-8"?>
<!-- Generator: Adobe Illustrator 26.0.1, SVG Export Plug-In . SVG Version: 6.00 Build 0)  -->
<svg version="1.1" id="Layer_1" xmlns="http://www.w3.org/2000/svg" xmlns:xlink="http://www.w3.org/1999/xlink" x="0px" y="0px"
	 viewBox="15.2788 14.5249 19.8169 20.6177" style="enable-background:new 15.2788 14.5249 19.8169 20.6177;" xml:space="preserve">
<style type="text/css">
	.st0{fill:#27662F;}
	.st1{fill:#FFFFFF;}
</style>
<g>
	<path class="st0" d="M15.2788,14.5391c0.0293-0.0093,0.0391-0.0162,0.043-0.0132c1.0312,0.7173,2.2363,0.6592,3.4023,0.772
		c0.4707,0.0458,0.938,0.1093,1.4029,0.185c0.2988,0.0493,0.4951,0.2803,0.7509,0.4053c0.6392,0.313,1.1822,0.7759,1.7583,1.185
		c0.2007,0.1416,0.231,0.4039,0.3247,0.6167c0.209,0.4771,0.2041,0.479,0.7071,0.3999c1.083-0.1718,2.1611-0.146,3.2285,0.1021
		c0.1738,0.04,0.2627,0.0112,0.3037-0.1587c0.1494-0.6343,0.5635-1.04,1.0879-1.4023c0.5322-0.3677,1.0986-0.6788,1.6533-1.003
		c0.3281-0.1919,0.7402-0.187,1.1231-0.227c0.6865-0.0689,1.375-0.0928,2.0634-0.1709c0.5674-0.063,1.0909-0.2193,1.5801-0.5078
		c0.1025-0.0611,0.2119-0.1084,0.3877-0.1973c-0.2715,0.4761-0.4023,0.9199-0.6836,1.3232
		c-0.4375,0.6338-1.0859,0.9029-1.708,1.2359c-0.4385,0.2348-0.8955,0.4409-1.2783,0.7671c-0.0723,0.063-0.1436,0.124-0.1807,0.2197
		c-0.2256,0.5684-0.4795,1.125-0.6494,1.7153c-0.0371,0.1348-0.0371,0.2198,0.0791,0.315c0.3652,0.3027,0.6963,0.6401,0.9854,1.0151
		c0.1171,0.1509,0.1914,0.1118,0.3076,0.0156c0.29-0.2397,0.5683-0.4907,0.8203-0.771c0.0498-0.0556,0.0898-0.1626,0.1787-0.1128
		c0.1182,0.066,0.002,0.1529-0.0215,0.2242c-0.1601,0.5346-0.3252,1.0688-0.5019,1.601c-0.043,0.1348,0.0371,0.2168,0.0898,0.3116
		c0.8145,1.4873,1.1875,3.0761,1.0703,4.7695c-0.2871,4.1348-3.4463,7.4922-7.5762,7.9277
		c-3.4663,0.3653-6.2822-0.9238-8.1792-3.8496c-1.914-2.9512-1.8911-6.0425-0.1601-9.1094c0.084-0.1469,0.1162-0.269,0.062-0.437
		c-0.1382-0.4238-0.2349-0.8579-0.396-1.2749c-0.019-0.0459-0.0659-0.101-0.0142-0.144c0.0704-0.0571,0.1104,0.0141,0.148,0.0571
		c0.2314,0.2617,0.4814,0.5049,0.7524,0.7276c0.0948,0.0781,0.148,0.08,0.229-0.0186c0.3477-0.418,0.7339-0.7993,1.1587-1.1372
		c0.0933-0.0708,0.0992-0.1362,0.0669-0.2451c-0.1699-0.5801-0.4316-1.126-0.6489-1.687c-0.04-0.104-0.123-0.167-0.2051-0.2339
		c-0.3769-0.3042-0.8086-0.5152-1.2368-0.732c-0.373-0.1889-0.7422-0.392-1.1099-0.5898c-0.208-0.1113-0.3061-0.3281-0.4589-0.4893
		C15.6621,15.5229,15.48,15.0371,15.2788,14.5391"/>
	<path class="st1" d="M27.4043,31.14648c-0.08978-0.81836-0.05469-1.35938,0.54102-1.97266
		c0.03522,0.45709,0.00287,0.91205,0.18457,1.3418c0.12402,0.29095,0.03424,0.54688-0.15717,0.77539
		c-0.0899,0.10938-0.20514,0.16406-0.34772,0.12311C27.49323,31.375,27.41888,31.27338,27.4043,31.14648z M25.87207,30.44733
		c-0.11224,0-0.22559,0.00189-0.33789,0.00385c-0.07227,0.00195-0.12598,0.03125-0.10107,0.11133
		c0.10498,0.3418,0.24658,0.66022,0.59418,0.84772c-0.05457-0.28723-0.04877-0.56842-0.04486-0.85162
		C25.98242,30.48053,25.94531,30.44733,25.87207,30.44733z M26.65723,29.84772c-0.46771,0.45697-0.58203,0.37689-0.01465,0.91211
		c0.04291,0.039,0.08203,0.10345,0.15045,0.08197c0.08197-0.02338,0.08295-0.10938,0.08099-0.17188
		c-0.00781-0.30084-0.02631-0.59961-0.04205-0.93555C26.75293,29.78522,26.69733,29.80859,26.65723,29.84772z M22.95697,31.98633
		c0.03711,0.18945,0.14514,0.3067,0.3399,0.34955c0.1499,0.0332,0.24023-0.04486,0.29291-0.1601
		c0.1153-0.25195,0.18311-0.5166,0.19342-0.86719c-0.24408,0.18939-0.45312,0.29102-0.66699,0.38873
		C22.98578,31.75391,22.93018,31.8457,22.95697,31.98633z M25.72662,32.35742c0.01746,0.17377,0.05066,0.3418,0.10345,0.50775
		c0.0293,0.09961,0.09961,0.13684,0.21295,0.12891c0.10925-0.01556,0.21869-0.05267,0.27338-0.18549
		c0.03711-0.09381,0.06451-0.19141-0.01758-0.26556c-0.12115-0.10754-0.25-0.21295-0.38861-0.30084
		C25.80469,32.17682,25.70801,32.18359,25.72662,32.35742z M26.77539,32.23438c0.07031,0.11914,0.17969,0.11523,0.29779,0.08014
		c0.17004-0.04889,0.25494-0.16803,0.28424-0.336c0.02148-0.11523-0.01172-0.20312-0.12109-0.25781
		c-0.2207-0.11328-0.44141-0.22852-0.70111-0.36328C26.5625,31.68359,26.61908,31.97272,26.77539,32.23438z M28.22461,30.08789
		c-0.08789,0.07422,0,0.23828,0.05859,0.35742c0.1582,0.32416-0.02441,0.89648-0.31842,1.0957
		c-0.17566,0.1192-0.35736-0.00391-0.54187,0.04297c0.0224,0.08014,0.0498,0.1543,0.06537,0.2265
		c0.05273,0.31061-0.19037,0.6582-0.48627,0.6524c-0.2832-0.00592-0.44733,0.11133-0.57043,0.35944
		c-0.14447,0.29486-0.38177,0.3418-0.67566,0.20306c-0.3999-0.19141-0.83502-0.13281-1.229-0.04102
		c-0.41614,0.09961-0.48694,0.1308-0.68073-0.25195c-0.09027-0.17773-0.22412-0.27545-0.43121-0.27344
		c-0.36615,0-0.59906-0.25391-0.57709-0.62109c0.00488-0.08789,0.02393-0.17578,0.03809-0.26556
		c-0.44086,0.01947-0.69775-0.0567-0.75391-0.28522c-0.06494-0.26953-0.26996-0.54492-0.10107-0.83014
		c0.09521-0.1601,0.10303-0.32214,0.14008-0.49609c-0.48724,0.16211-0.55316,0.29895-0.43304,0.76373
		c0.13477,0.52637,0.27875,1.05078,0.28076,1.59857c0.00104,0.15735,0.04932,0.23541,0.18024,0.30475
		c0.33099,0.17865,0.65179,0.36914,0.98187,0.54889c0.15332,0.08386,0.29688,0.21381,0.32318,0.35925
		c0.06689,0.38873,0.32574,0.70715,0.36279,1.12311c0.24036-0.60938,0.65533-0.98236,1.30133-0.98438
		c0.64258-0.00391,1.05859,0.36328,1.26947,0.96582c0.09381-0.0625,0.07526-0.1308,0.08795-0.18945
		c0.17578-0.72455,0.49805-1.33984,1.23926-1.63867C27.88379,32.75983,28,32.67578,28.125,32.61719
		c0.125-0.0567,0.16992-0.13281,0.17578-0.2793c0.02539-0.63281,0.16113-1.24811,0.36523-1.84381
		c0.05078-0.15039,0.03131-0.2226-0.0957-0.29095C28.45612,30.14447,28.31641,30.00983,28.22461,30.08789z M22.33789,31.29102
		c0.08789,0.11517,0.20801,0.15631,0.34808,0.12891c0.1358-0.0293,0.20715-0.13672,0.229-0.2597
		c0.13684-0.75-0.08197-1.4024-0.54779-2.02539c-0.02441,0.48236,0.00781,0.92767-0.16602,1.33588
		C22.06299,30.79102,22.14697,31.04303,22.33789,31.29102z M23.49408,29.72272c-0.02527,0.44916-0.0473,0.85541-0.07025,1.29675
		c0.30615-0.15814,0.461-0.39447,0.60748-0.63855c0.03851-0.06451,0.02386-0.11725-0.0235-0.16412
		C23.85303,30.05469,23.7168,29.875,23.49408,29.72272z M24.77881,30.86823c0.19-0.37891,0.16699-0.40631-0.24658-0.42291
		c-0.15131-0.0058-0.22601,0.01367-0.21045,0.18951c0.02002,0.24219,0.0141,0.48724-0.07178,0.75775
		C24.55713,31.30469,24.67188,31.08588,24.77881,30.86823z M24.00781,32.83398c0.06097,0.12689,0.1792,0.1582,0.30518,0.16602
		c0.13519,0.00781,0.17383-0.08978,0.20209-0.19733c0.04694-0.17767,0.09674-0.35345,0.12891-0.4765
		c0.01813-0.19727-0.00775-0.22656-0.12585-0.15729c-0.1709,0.10651-0.33301,0.22559-0.48932,0.3526
		C23.92291,32.60742,23.95697,32.72662,24.00781,32.83398z M32.69733,20.65619c-0.22955,0.97369-0.48254,1.90393-0.98254,2.7417
		c-0.1875,0.31299-0.40027,0.62109-0.65228,0.88092c-0.35248,0.36621-0.46973,0.79932-0.4375,1.271
		c0.03607,0.55182-0.24017,0.94342-0.60553,1.35248c-0.09857-0.3847-0.125-0.7392-0.0683-1.0976
		c0.0459-0.2998,0.09863-0.6026,0.22852-0.88477c0.04303-0.08881,0.1142-0.20312,0.02643-0.29291
		c-0.08502-0.08789-0.17004,0.04388-0.27063,0.039c0-0.1582-0.00189-0.36084,0.12311-0.43024
		c0.13281-0.07367,0.17773,0.14801,0.2793,0.2251c0.04004-0.10486-0.00879-0.20105-0.06641-0.2627
		c-0.21289-0.22211-0.0918-0.40619,0.039-0.59906c0.20514-0.30225,0.53229-0.4751,0.77454-0.74023
		c0.11615-0.12701,0.2724-0.21777,0.41107-0.32367l-0.09772-0.09723c-0.48816,0.5141-1.2373,0.74902-1.49017,1.52289
		c-0.13092,0.3941-0.34772,0.75934-0.53998,1.17291c0.22455-0.04688,0.34265-0.20801,0.50189-0.29486
		c0.06348-0.03375,0.125-0.13281,0.1983-0.06403c0.05951,0.05518-0.01373,0.12787-0.03619,0.19092
		c-0.21191,0.58685-0.39355,1.17676-0.27545,1.81537c0.04303,0.23828,0.1319,0.44342,0.29303,0.63092
		c0.24811,0.2832,0.24512,0.43158,0.03607,0.74811c-0.14056,0.21277-0.23627,0.45496-0.57416,0.4472
		c-0.23834-0.00781-0.42584-0.09863-0.57422-0.25391c-0.20117-0.20905-0.17383-0.31152,0.07617-0.52051
		c-0.2666-0.0166-0.38574,0.04877-0.80469,0.32422c-0.65039,0.4278-1.16309,1.00385-1.67969,1.5733
		c-0.3418,0.37885-0.75592,0.50879-1.25153,0.54486c-0.66595,0.0517-1.185-0.14056-1.61078-0.66406
		c-0.51611-0.6308-1.10498-1.18842-1.81299-1.61035c-0.14789-0.0899-0.29883-0.18066-0.521-0.1778
		c0.14801,0.13684,0.271,0.25793,0.12598,0.45221c-0.15576,0.21094-0.35297,0.3183-0.61176,0.33594
		c-0.44141,0.0293-0.5484-0.33795-0.71442-0.61426c-0.14703-0.24414,0.00342-0.45319,0.16602-0.63574
		c0.29639-0.32715,0.31195-0.73145,0.29199-1.13281c-0.021-0.43652-0.1377-0.86029-0.3056-1.26764
		c-0.02539-0.06299-0.09534-0.13568-0.03522-0.19086c0.07709-0.07269,0.13818,0.02881,0.20117,0.06195
		c0.15875,0.08112,0.27594,0.23206,0.49072,0.29596c-0.24609-0.53516-0.47711-1.04004-0.71088-1.54205
		c-0.0528-0.11176-0.13293-0.20306-0.23199-0.27966c-0.35693-0.2793-0.71295-0.56299-1.08301-0.83112
		c0.21881,0.28082,0.46289,0.53809,0.74707,0.75391c0.17773,0.13379,0.31982,0.29877,0.43604,0.48389
		c0.08789,0.13922,0.16211,0.29004-0.01221,0.43799c-0.07812,0.06689-0.10199,0.17822-0.12109,0.30322
		c0.12695-0.07617,0.17627-0.31097,0.30707-0.229c0.12701,0.08008,0.11719,0.28998,0.1402,0.45172
		c-0.11517,0.01508-0.20612-0.14905-0.29486-0.03284c-0.0694,0.09094,0.0058,0.19971,0.04199,0.29694
		c0.23578,0.63141,0.31781,1.27301,0.14789,1.99457c-0.32031-0.4082-0.6543-0.74207-0.61133-1.27051
		c0.01324-0.17377-0.01166-0.3501-0.03076-0.52289c-0.03119-0.26221-0.1098-0.49707-0.29199-0.70801
		c-0.5752-0.6651-0.99805-1.41309-1.3042-2.24707c-0.17975-0.49323-0.27881-1.00293-0.48871-1.56494
		c0.3457,0.35504,0.646,0.64606,0.97406,0.90771c0.20551,0.16504,0.42383,0.30219,0.67584,0.39111
		c0.45496,0.16107,0.92816,0.31842,1.29095,0.62701c0.40186,0.34131,0.82812,0.67621,1.13824,1.1181
		c0.0498,0.06891,0.10791,0.13477,0.18158,0.19189c-0.11182-0.2627-0.14893-0.56104-0.36768-0.771
		c-0.07812-0.07568-0.11334-0.12891-0.039-0.23779c0.33588-0.49414,0.80896-0.81592,1.33386-1.06793
		c0.18799-0.09027,0.19189,0.03961,0.19293,0.1817c0.00391,0.56592-0.00293,1.13519,0.14801,1.76514
		c-0.25592-0.37012-0.4751-0.68311-0.70514-1.01611c-0.08789,0.23486-0.05078,0.45697-0.02881,0.68506
		c0.04004,0.45605,0.14111,0.89795,0.26611,1.33405c0.05078,0.18109,0.15973,0.3432,0.38483,0.31976
		c0.39496-0.0401,0.5351-0.15765,0.55505-0.43561c0.01324-0.17816,0.03912-0.34705,0.26184-0.38025
		c0.01801-0.00305,0.0332-0.0127,0.04932-0.02014c0.54486-0.24799,0.51898-0.24609,0.46289-0.84857
		c-0.02893-0.33301-0.14209-0.59229-0.34619-0.84808c-0.1709-0.21631-0.27692-0.48206-0.4209-0.72223
		c-0.12115-0.20068-0.03815-0.30908,0.15326-0.375c0.31592-0.11078,0.64789-0.146,0.979-0.17188
		c0.60693-0.0498,1.20459,0.0108,1.78864,0.1861c0.31335,0.09265,0.33978,0.15668,0.18359,0.43787
		c-0.11633,0.21393-0.21289,0.45514-0.37891,0.625c-0.34772,0.35803-0.33398,0.80182-0.37903,1.24078
		c-0.01556,0.16602,0.04694,0.26611,0.19342,0.32715c0.06451,0.02686,0.12109,0.07806,0.1875,0.09515
		c0.30566,0.07385,0.44037,0.26715,0.41992,0.57574c-0.00781,0.104,0.0459,0.16107,0.14258,0.19
		c0.13477,0.03998,0.26556,0.08929,0.40039,0.12396c0.18359,0.0473,0.32233-0.03857,0.37299-0.20166
		c0.20905-0.69293,0.41614-1.39014,0.19733-2.18414C27.6875,23,27.54303,23.28522,27.2793,23.56488
		c0.05963-0.5708,0.10742-1.09369,0.08691-1.6181c-0.00684-0.12695,0.10449-0.146,0.21088-0.09766
		c0.54199,0.25,1.05573,0.54199,1.49323,0.95605c0.11127,0.1059,0.01166,0.15381-0.03711,0.20905
		c-0.2207,0.24646-0.4707,0.47156-0.57812,0.79877c-0.01367,0.04004-0.0459,0.07709,0.00293,0.146
		c0.27441-0.43121,0.65137-0.75287,1.00201-1.10596c0.31726-0.32184,0.6806-0.56696,1.09076-0.70111
		C31.41412,21.87402,32.08502,21.33893,32.69733,20.65619z M21.33301,25.39893c0.07422,0.10785,0.14801,0.21729,0.22021,0.32568
		c0.0459,0.07422,0.10309,0.12701,0.19,0.06842c0.11859-0.08301,0.16156-0.01575,0.20795,0.08398
		c0.04004,0.08691,0.08881,0.16986,0.14606,0.24799c0.5,0.69342,0.77576,0.99609,1.60394,0.78119
		c0.0058-0.00391,0.01465,0.00592,0.0376,0.01569c-0.81396,0.56641-1.39069,0.13672-1.95996-0.49805
		c0.02301,0.21289,0.25,0.3067,0.18512,0.41595c-0.10504,0.17389,0.03607,0.1817,0.10486,0.23053
		c0.37701,0.2608,0.7793,0.3877,1.23004,0.18848c0.2403-0.1084,0.46539-0.0752,0.70215,0.03711
		c0.28711,0.13568,0.59424,0.23138,0.94092,0.36328c-0.09277-0.17676-0.23682-0.19525-0.3291-0.2793
		c-0.10889-0.10449-0.15869-0.15326,0.01611-0.26166c0.35211-0.22375,0.68121-0.336,1.02832-0.00885
		c0.0127,0.01172,0.03229,0.01562,0.04785,0.02155c0.15234,0.05267,0.1347,0.14838,0.04199,0.23627
		c-0.09479,0.08978-0.20898,0.1601-0.31494,0.24023c0.30029-0.07623,0.59326-0.16211,0.86279-0.30084
		c0.27539-0.14246,0.53217-0.1308,0.80078-0.02539c0.57617,0.22473,0.99219-0.07422,1.44342-0.4082
		c-0.2002-0.02338-0.21881-0.04388-0.14465-0.14838c0.08014-0.11719,0.19342-0.21478,0.21686-0.39453
		c-0.98242,0.9707-1.24805,1.04883-1.99805,0.57611c0.5683,0.23053,0.98242-0.00781,1.35254-0.41107
		c0.14355-0.15619,0.24316-0.34082,0.35736-0.5166c0.0733-0.1084,0.10364-0.30371,0.31354-0.1543
		c0.0401,0.0293,0.08105-0.01562,0.10345-0.05273c0.16614-0.25586,0.3692-0.4873,0.4668-0.78467
		c0.02155-0.06793,0.04596-0.13281-0.01556-0.19482c-0.17773-0.18408-0.35162-0.37207-0.67194-0.4751
		c0.20905,0.17328,0.33606,0.3291,0.4082,0.521c0.07825,0.21289,0.00592,0.37891-0.15619,0.53809
		c-0.16211,0.16211-0.2774,0.039-0.4082-0.02588c-0.0625-0.03027-0.11816-0.07318-0.17969-0.10791
		c-0.26367-0.16107-0.40631-0.14008-0.61041,0.08978c-0.38959,0.4375-0.7959,0.85553-1.09265,1.37115
		c-0.15631,0.27539-0.35162,0.32227-0.6192,0.21289c-0.31445-0.12689-0.43311-0.32422-0.39655-0.62109
		c0.01709-0.1347,0.10162-0.26764,0.0332-0.4433c-0.12006,0.18359-0.2251,0.34369-0.3432,0.52136
		c-0.13666-0.2793-0.23096-0.55457-0.48291-0.8125c0.0932,0.31158,0.164,0.55469,0.19635,0.80469
		c0.0127,0.09485,0.0166,0.18665-0.04504,0.27545c-0.29437,0.43359-0.75916,0.44049-1.03119,0.00195
		c-0.23682-0.3819-0.50977-0.7276-0.81891-1.0528c-0.50189-0.5307-0.5-0.53461-1.1333-0.16156
		c-0.06,0.03467-0.09857,0.0874-0.18347,0.04199c-0.2652-0.1391-0.35944-0.40723-0.2403-0.68903
		c0.05908-0.14197,0.15918-0.25726,0.26996-0.39551C21.06879,24.64313,20.98877,24.88922,21.33301,25.39893z M26.0625,27.99017
		c-0.58643,0.2832-1.17529,0.30084-1.79248-0.00385c0.24219,0.37885,0.58789,0.30078,0.89307,0.31445
		C25.49017,28.31641,25.81842,28.2832,26.0625,27.99017z M26.05658,28.51172c-0.25391,0.30469-0.49017,0.63086-0.56439,1.04877
		c0.15619-0.37689,0.51373-0.5293,0.80762-0.75391c0.05573-0.04095,0.20117-0.09961,0.08691-0.1875
		C26.29883,28.55267,26.16498,28.37891,26.05658,28.51172z M24.31488,28.57233c-0.03711-0.0567-0.08386-0.13483-0.164-0.08215
		c-0.08398,0.05475-0.2207,0.0625-0.2417,0.17584c-0.01318,0.07416,0.08405,0.125,0.146,0.16986
		c0.2876,0.20325,0.6167,0.3623,0.76465,0.7207C24.76898,29.16412,24.51611,28.88281,24.31488,28.57233z M29.18359,27.14838
		C29,26.97272,28.8125,26.95312,28.59277,27.07812c-0.2959,0.16595-0.58105,0.35938-0.93848,0.41406
		c0.07623,0.07623,0.16602,0.00879,0.24609,0.06439c-0.06061,0.04504-0.11517,0.086-0.16986,0.12701
		c-0.15533,0.12299-0.32623,0.35742-0.4649,0.33978c-0.16791-0.02136-0.31055-0.25391-0.46295-0.39636
		c-0.0918-0.086-0.18939-0.17389-0.32214-0.12903c-0.22955,0.08014-0.45325,0.17194-0.67584,0.34772
		c0.2334,0,0.40619-0.0918,0.58789-0.14648c0.18555-0.05664,0.30664,0,0.39264,0.1582
		c0.08777,0.16205,0.27338,0.29297,0.09656,0.52435c-0.31146,0.41022-0.6416,0.80371-0.97748,1.19531
		c-0.30469,0.3526-1.11823,0.40533-1.43121,0.06354c-0.37299-0.4043-0.72308-0.82812-1.04926-1.27344
		c-0.16895-0.23047,0.01904-0.34772,0.10394-0.5c0.07721-0.14056,0.1792-0.25586,0.37854-0.17969
		c0.1767,0.06543,0.36267,0.1084,0.54486,0.16211c-0.60938-0.46393-0.6861-0.45898-1.20795,0.04102
		c-0.02405,0.02246-0.05725,0.04486-0.0752,0.0733c-0.08112,0.1377-0.15485,0.10059-0.22711-0.00781
		c-0.1059-0.16614-0.29102-0.25-0.39893-0.42682c-0.10687-0.16992-0.34912-0.1543-0.51318-0.26172
		c-0.05078-0.0332-0.10303-0.06641-0.15582-0.0957c-0.46277-0.26959-0.92279-0.08209-1.11078,0.45905
		c0.10791-0.07623,0.20898-0.14075,0.30078-0.2149c0.37299-0.30469,0.37109-0.30664,0.77203-0.06439
		c0.08197,0.04877,0.1582,0.10925,0.24115,0.1582c0.94092,0.55066,1.60504,1.39636,2.28564,2.20886
		c0.3252,0.39069,1.21826,0.39069,1.50439,0.09772c0.26172-0.26758,0.53217-0.53223,0.75-0.83588
		c0.52826-0.73932,1.27441-1.20905,2.00488-1.70514c0.2041-0.13477,0.37598-0.09857,0.53998,0.05963
		c0.12805,0.12109,0.25983,0.2334,0.45801,0.30945C29.5,27.4209,29.33301,27.29303,29.18359,27.14838z M26.9668,24.84277
		c0.14062,0.14844,0.42188,0.1181,0.51562-0.06787c0.25879-0.50592,0.30469-1.05713,0.3457-1.62299
		c-0.14062,0.02191-0.15131,0.125-0.1933,0.1933c-0.18463,0.29791-0.38385,0.586-0.66412,0.80267
		c-0.18463,0.1441-0.21393,0.31604-0.15039,0.55029c0.08008-0.0542,0.13867-0.0932,0.20117-0.13416
		C27.05658,24.67291,26.85938,24.729,26.9668,24.84277z M26.16888,22.9751c-0.10248,0.15192-0.10046,0.38177-0.05756,0.61078
		c0.07227-0.08588,0.12109-0.14301,0.19727-0.23285c-0.00391,0.19287-0.08197,0.30316-0.12701,0.42285
		c-0.02051,0.0542-0.06439,0.09912-0.00189,0.16211c0.32422,0.3252,0.71869,0.2309,0.8476-0.21289
		c0.11139-0.396,0.19733-0.79828,0.2149-1.20898c0.01953-0.40619,0.0332-0.81494-0.1123-1.26221
		C26.89258,21.91211,26.52728,22.44092,26.16888,22.9751z M34.01562,15.25201c-0.78711,0.104-1.57031,0.24408-2.36914,0.25092
		c-0.86127,0.00586-1.67969,0.13818-2.3916,0.68695c-0.2998,0.23199-0.63971,0.41119-0.9541,0.6792
		c0.2226,0.03082,0.41602-0.0683,0.60553,0.01373c-0.35944,0.09521-0.71881,0.16309-1.05469,0.31396
		c-0.125,0.05914-0.2149,0.13721-0.26965,0.26801c-0.47845,1.146-0.85535,2.32623-1.20795,3.51624
		c-0.02051,0.0722-0.05762,0.16211,0.05078,0.1972c0.16498,0.05176,0.33691,0.13666,0.5,0.12891
		c0.11719-0.00531,0.14362-0.1972,0.21777-0.30121c0.00781-0.01184,0.02734-0.01471,0.04492-0.02301
		c0.07617,0.11328,0.08197,0.24811,0.11908,0.37207c0.01862,0.06689,0.03235,0.13184,0.10651,0.16791
		c0.26849,0.12799,0.53223,0.26031,0.79694,0.396c0.08301,0.04303,0.11908,0.03229,0.14551-0.06488
		c0.13464-0.49713,0.28894-0.98779,0.4101-1.48779c0.19727-0.80811,0.50586-1.57709,0.8067-2.34808
		c0.23816-0.61823,0.75476-1.03711,1.18939-1.51422c0.1817-0.20209,0.375-0.32709,0.64258-0.354
		c0.14648-0.0127,0.29102-0.03998,0.4375-0.06403c0.67969-0.11566,1.36517-0.2099,2.02338-0.4248
		c0.39655-0.12885,0.70123-0.37585,0.87994-0.75916C34.51947,15.06403,34.28711,15.21582,34.01562,15.25201z M22.08398,29.70697
		c0.12891-0.0293,0.14789-0.10345,0.13483-0.20496c-0.02979-0.23834-0.065-0.47272-0.10059-0.72662
		c0.20697,0.05469,0.2998,0.23053,0.46185,0.30859c-0.12799-0.30078-0.32806-0.5332-0.6153-0.69727
		c-0.1167-0.06641-0.18701-0.05273-0.289,0.04486c-0.28369,0.27155-0.625,0.34772-1.01471,0.28131
		c-0.53217-0.08789-1-0.28522-1.37787-0.73828c0.00201,0.20898,0.06488,0.35352,0.11871,0.49811
		C19.70117,29.2793,21.04492,29.95312,22.08398,29.70697z M28.59961,28.41107c-0.04303-0.04199-0.07422-0.08295-0.15228-0.06335
		c-0.24036,0.05658-0.64941,0.5-0.6944,0.7597c0.06348-0.05951,0.12695-0.1308,0.20215-0.19043
		c0.0722-0.05566,0.125-0.14941,0.24609-0.14551c0.01953,0.0976-0.02148,0.1875-0.03809,0.27832
		c-0.02051,0.10248-0.04102,0.20508-0.05566,0.30762c-0.039,0.28705,0.00391,0.33398,0.2793,0.37109
		c0.80469,0.1026,1.4942-0.16602,2.10345-0.66992c0.31641-0.26068,0.4776-0.61328,0.54895-1.08789
		c-0.37311,0.44818-0.80859,0.62891-1.3028,0.73138C29.29688,28.79199,28.92578,28.71191,28.59961,28.41107z M30.44531,17.07812
		c-0.26764,0.4248-0.64349,0.78076-0.8457,1.25488c-0.43158,1.00781-0.71094,2.06201-0.97662,3.12109
		c-0.10352,0.41888-0.08777,0.79297,0.36334,1.01367c0.05365,0.02545,0.10059,0.0683,0.14545,0.11035
		c0.11432,0.10699,0.21783,0.09375,0.31354-0.01904c0.22949-0.26996,0.5166-0.46729,0.8125-0.65527
		c0.06641-0.03949,0.10547-0.08398,0.09961-0.16602c-0.04291-0.62891,0.0567-1.28857-0.414-1.8208
		c-0.01373-0.01807-0.04895-0.05518,0.01166-0.08691c0.10541,0.08203,0.21484,0.16699,0.32623,0.25293
		c0.08197-0.06982,0.09167-0.17194,0.12592-0.25879c0.23535-0.60114,0.46875-1.2041,0.7002-1.80713
		c0.04486-0.11621,0.10651-0.20898,0.21576-0.2832c0.71289-0.4751,1.45612-0.89697,2.2168-1.28906
		c0.3194-0.16504,0.49609-0.43604,0.75201-0.74805c-0.79102,0.21924-1.51471,0.42432-2.26471,0.4873
		C31.35553,16.24017,30.8252,16.47803,30.44531,17.07812z M19.20898,17.99323c0.23389,0.6059,0.47803,1.2099,0.72614,1.8349
		c0.12689-0.16211,0.23969-0.30524,0.35297-0.4472c-0.05811,0.31586-0.2373,0.59515-0.23486,0.91107
		c0.0069,0.52203,0.05176,1.0459,0.08057,1.56879c0.00629,0.08844,0.03119,0.1582,0.11523,0.22034
		c0.2608,0.1889,0.5108,0.39398,0.76605,0.5918c0.0528,0.04187,0.0957,0.10101,0.1817,0.0722
		c0.17432-0.06,0.56445-0.6059,0.5683-0.7959c0.00781-0.58014-0.2251-1.1084-0.36316-1.65723
		c-0.34869-1.40088-0.90393-2.69678-1.93073-3.75201c-0.146-0.15179-0.29437-0.25677-0.50342-0.29877
		c-0.97455-0.19629-1.96185-0.32709-2.92865-0.60114c0.19086,0.23492,0.32166,0.51715,0.60297,0.66614
		c0.76422,0.40466,1.53174,0.7998,2.24414,1.29681C19.03809,17.71002,19.14398,17.82178,19.20898,17.99323z M23.5332,24.56299
		c0.01172-0.16602-0.0293-0.30518-0.17432-0.41022c-0.24811-0.185-0.4248-0.43408-0.5957-0.68799
		c-0.08936-0.13281-0.146-0.289-0.31836-0.45056c0.065,0.61755,0.13037,1.17377,0.34821,1.69867
		c0.01898,0.04779,0.04285,0.09912,0.0752,0.13818C23,25.00879,23.14893,24.9248,23.29688,24.875
		c0.164-0.0542,0.039-0.1499,0.0332-0.25488c0.05713,0.0401,0.10205,0.09668,0.13672,0.0918
		C23.54102,24.70117,23.52777,24.62109,23.5332,24.56299z M24.26709,23.68903c-0.03522-0.25305,0.00391-0.52203-0.10687-0.69196
		c-0.3501-0.54889-0.7251-1.08008-0.9751-1.7569c-0.20709,0.91602-0.11334,1.74475,0.13275,2.56305
		c0.08844,0.29297,0.25,0.38086,0.479,0.29297c0.37305-0.14307,0.37305-0.14307,0.229-0.51611
		c-0.01709-0.0401-0.03711-0.0791-0.0069-0.12109C24.10602,23.51611,24.12402,23.64008,24.26709,23.68903z M19.00293,16.11908
		c0.12408,0.02405,0.25195,0.0528,0.33398,0.13873c0.43701,0.4624,0.95697,0.86328,1.24017,1.44531
		c0.40393,0.83209,0.71289,1.70306,0.95898,2.59766c0.15094,0.5542,0.31696,1.10541,0.48004,1.67145
		c0.1651-0.08942,0.31891-0.17041,0.46881-0.25354c0.26996-0.14551,0.60199-0.23682,0.55316-0.65381
		c-0.00391-0.04779,0.02289-0.11176,0.08014-0.12299c0.06488-0.00977,0.08978,0.0542,0.10059,0.1001
		c0.07611,0.2998,0.25,0.29388,0.47406,0.16498c0.04492-0.02484,0.09711-0.03809,0.14893-0.0459
		c0.12842-0.01996,0.14697-0.07996,0.11029-0.20105c-0.3681-1.19391-0.7583-2.37994-1.24121-3.5332
		c-0.06-0.14264-0.14886-0.2276-0.29285-0.27203c-0.26526-0.08057-0.52795-0.16547-0.79205-0.2486
		c0.00104-0.01019,0.00293-0.02136,0.00391-0.03119h0.43414c-0.42395-0.35107-0.86725-0.59619-1.2749-0.89008
		c-0.43024-0.30914-0.93225-0.3941-1.41614-0.46985c-0.85297-0.1333-1.71918-0.18005-2.57996-0.26508
		c-0.44-0.04303-0.86823-0.12299-1.22321-0.42291c0.15625,0.41223,0.57227,0.72174,1.09515,0.82672
		C17.44379,15.81201,18.22308,15.96777,19.00293,16.11908z M23.2051,26.7402c0.3091-0.0039,0.3559-0.0722,0.2251-0.3047
		c-0.1641-0.289-0.377-0.5429-0.627-0.7626c-0.082-0.0713-0.1802-0.1065-0.2851-0.1182c-0.105-0.0098-0.2193-0.0137-0.2842,0.0879
		c-0.0557,0.0859-0.023,0.1875,0.0249,0.2724c0.1343,0.2471,0.291,0.4756,0.5083,0.6573
		C22.9063,26.6895,23.0698,26.7363,23.2051,26.7402 M27.0732,26.7324c-0.247-0.0019-0.3017-0.0762-0.1826-0.289
		c0.166-0.2989,0.3848-0.5586,0.6455-0.7803c0.1084-0.0928,0.2491-0.1182,0.3936-0.1006c0.123,0.0176,0.1797,0.0879,0.168,0.2168
		C28.0605,26.1738,27.4561,26.7383,27.0732,26.7324"/>
</g>
</svg>
