<?xml version="1.0" encoding="utf-8"?>
<!-- Generator: Adobe Illustrator 26.0.1, SVG Export Plug-In . SVG Version: 6.00 Build 0)  -->
<svg version="1.1" id="Layer_1" xmlns="http://www.w3.org/2000/svg" xmlns:xlink="http://www.w3.org/1999/xlink" x="0px" y="0px"
	 viewBox="16.5894 16.022 17.0141 19.1186" style="enable-background:new 16.5894 16.022 17.0141 19.1186;" xml:space="preserve">
<style type="text/css">
	.st0{fill:#27662F;}
	.st1{fill:#FFFFFF;}
</style>
<path class="st0" d="M18.9888,20.4409c0.1513,0.1089,0.2592,0.065,0.3633-0.0517c0.0859-0.0972,0.1899-0.1763,0.2919-0.2583
	c0.105-0.087,0.2422-0.1548,0.0738-0.315c-0.0718-0.0688,0.0093-0.147,0.0483-0.208c0.27-0.4111,0.5601-0.811,0.773-1.2568
	c0.063-0.1299,0.1938-0.1709,0.3047-0.23c0.3613-0.1919,0.6894-0.4243,0.9794-0.7149c0.251-0.2524,0.5479-0.4453,0.858-0.6201
	c0.4047-0.228,0.8027-0.4712,1.2036-0.708c0.1201-0.0713,0.2251-0.0781,0.3554,0.002c0.2647,0.1621,0.5728,0.2431,0.8179,0.4419
	c0.0757,0.061,0.168,0.0278,0.252,0.0239c0.517-0.0259,1.0337-0.0488,1.5512-0.0147c0.1436,0.0098,0.2627,0.0538,0.3858,0.1299
	c0.5302,0.3301,0.9912,0.7461,1.457,1.1577c0.4072,0.3604,0.7969,0.7203,1.0713,1.2041c0.1787,0.316,0.4697,0.5582,0.8057,0.712
	c0.2041,0.0942,0.2851,0.2353,0.2685,0.4409c-0.0156,0.1821,0.0674,0.3022,0.1885,0.4282c2.373,2.4849,3.167,5.4028,2.0986,8.6733
	c-1.0683,3.2676-3.414,5.2315-6.8105,5.7598c-4.916,0.7637-9.2051-2.7988-9.6861-7.4863c-0.2612-2.5298,0.4927-4.7446,2.188-6.6377
	C18.9541,20.7749,18.9629,20.625,18.9888,20.4409"/>
<path class="st1" d="M25.77148,31.78998c0.00391,0.1123,0,0.22565,0,0.38483c-0.0332,0.12701,0.02344,0.31152-0.08008,0.48242
	c-0.12891,0.211-0.30859,0.2666-0.52832,0.22559c-0.20117-0.03711-0.25488-0.1875-0.28906-0.37689
	c-0.0459-0.25104-0.02191-0.5-0.02393-0.74915c-0.00098-0.10059,0.03271-0.18158,0.14209-0.2226
	c0.104-0.03906,0.17969-0.01855,0.25104,0.06543c0.104,0.125,0.20697,0.23151,0.38666,0.08588
	C25.7207,31.61133,25.76562,31.70612,25.77148,31.78998z M26.74512,29.57031c-0.36719-0.08594-0.73834-0.09369-1.10449-0.00781
	c-0.42285,0.09857-0.83441,0.09369-1.25684-0.01862c-0.35986-0.09467-0.71967-0.08099-1.05182,0.12024
	c-0.0752,0.04486-0.14496,0.08386-0.1709,0.18158C23.04199,30.29791,23.37109,30.89258,23.8208,31
	c0.16309,0.03912,0.24799,0.11328,0.30029,0.27539c0.08978,0.27539,0.42194,0.36908,0.67194,0.22168
	c0.19916-0.11719,0.40619-0.211,0.58978,0.04004c0.04932,0.06641,0.13867,0.08398,0.2149,0.0625
	c0.27136-0.07623,0.33978,0.06537,0.33197,0.29688c-0.00391,0.07623,0,0.1543,0,0.28033
	c0.16113-0.10065,0.23138-0.17975,0.16803-0.33789c-0.05182-0.12805-0.0567-0.27252-0.10754-0.39941
	c-0.1084-0.27252,0.0166-0.39648,0.22864-0.56744c0.30457-0.24414,0.76752-0.3526,0.80066-0.875
	C27.03809,29.70508,27.04492,29.63867,26.74512,29.57031z M24.70898,31.97852c-0.01221-0.19043-0.30707-0.37891-0.48291-0.30273
	c-0.0249,0.0097-0.05127,0.04883-0.05316,0.07623c-0.01813,0.27136-0.08893,0.5459,0.00391,0.81641
	c0.0791,0.22845,0.32416,0.31641,0.49207,0.18158c0.13531-0.10938,0.0293-0.25983,0.06793-0.38379
	C24.72803,32.23438,24.71777,32.10553,24.70898,31.97852z M23.38379,26.93951c-0.02002-0.19049-0.09277-0.36719-0.19092-0.5274
	c-0.06195-0.10352-0.19879-0.14453-0.3208-0.12988c-0.12109,0.0127-0.15088,0.12885-0.18018,0.2276
	c-0.07178,0.24695-0.00977,0.46088,0.18408,0.62885C22.9458,27.19531,23,27.37701,23.08789,27.29388
	C23.1958,27.19342,23.40631,27.1543,23.38379,26.93951z M25.83197,32.75983c0.00696,0.02539,0.04205,0.05469,0.07031,0.06439
	c0.14264,0.04486,0.48834-0.25781,0.46783-0.4082c-0.01074-0.08405-0.07129-0.11133-0.14349-0.12109
	C26.08301,32.29102,25.79791,32.62299,25.83197,32.75983z M23.67822,31.0752c-0.0874-0.02637-0.14502-0.16022-0.2641-0.1084
	c-0.14313,0.06439-0.05725,0.19629-0.0733,0.29883c-0.00885,0.05859-0.00104,0.1192,0.00439,0.17969
	c0.03571,0.37701,0.14056,0.72168,0.43256,0.98828c0.07031,0.06439,0.14606,0.08978,0.23541,0.05859
	c0.10504-0.03906,0.05762-0.12891,0.06104-0.20117C24.0791,32.19733,24.0752,32.10352,24.0752,32
	C24.02588,31.66211,24.18597,31.23828,23.67822,31.0752z M20.74512,19.58893c-0.35791,0.2099-0.72699,0.45496-0.64789,0.97595
	c0.0976-0.01508,0.15955-0.09619,0.2417-0.14008c0.28314-0.15381,0.521-0.40582,0.87689-0.40479
	c1.146,0.00195,2.211-0.30914,3.25641-0.87012c-0.6524-0.38568-1.29742-0.60687-2.01611-0.35687
	C21.85992,18.99902,21.28809,19.271,20.74512,19.58893z M22.68121,18.50201c0.6167,0.00476,1.27386-0.0249,1.80756,0.39886
	c0.19434,0.1543,0.40521,0.14301,0.57135,0.01904c0.23676-0.17584,0.46918-0.12305,0.70935-0.0708
	c0.29504,0.06299,0.58795,0.14209,0.88092,0.21777c0.98633,0.25488,1.92194,0.65088,2.87891,1.02203
	c-0.2002-0.29102-0.33008-0.62024-0.52148-0.91071c-0.25488-0.3891-0.6601-0.5791-1.08691-0.7041
	c-0.58978-0.17529-1.10638-0.46735-1.58789-0.84424c-0.65918-0.51367-1.31592-1.03619-2.08502-1.39209
	c-0.12299-0.05658-0.22308-0.08398-0.32996-0.00488c-0.58215,0.42188-1.2749,0.66699-1.83014,1.12109
	c-0.30658,0.25-0.5708,0.58112-0.93066,0.72797c-0.64111,0.26324-0.71631,0.88672-1.06744,1.40735
	c0.60114-0.16754,1.09332-0.42145,1.604-0.6275C22.021,18.73102,22.35211,18.50098,22.68121,18.50201z M26.87598,32.08197
	c0.10455-0.20795,0.10645-0.43359,0.09473-0.61719c0-0.12787,0.00983-0.21576-0.00391-0.2998
	C26.93951,31,26.99219,30.7793,26.83588,30.69141c-0.17865-0.10162-0.23425,0.15137-0.36127,0.21881
	c-0.00684,0.00476-0.01459,0.01068-0.02148,0.01556c-0.38281,0.29291-0.39062,0.32623-0.21875,0.789
	c0.0556,0.1485,0.13281,0.28131,0.22174,0.4082C26.60742,32.33691,26.75592,32.32422,26.87598,32.08197z M29.41888,28.51947
	c0.04199,0.10846,0.03912,0.21295-0.00476,0.32623c-0.40533,1.03607-0.8291,2.06537-1.33704,3.05859
	c-0.17279,0.33789-0.3017,0.69922-0.41986,1.06049c-0.28815,0.87311-0.9433,1.27155-1.8017,1.3067
	c-0.90436,0.0351-1.81946,0.00391-2.62842-0.5567c0.00677,0.125,0.09607,0.1543,0.14587,0.211
	c0.04889,0.05859,0.13684,0.0722,0.18121,0.20312c-0.44733-0.19141-0.80811-0.41602-0.97119-0.86133
	c-0.15088-0.41406-0.30713-0.82806-0.43213-1.25c-0.31006-1.04688-0.91699-1.92969-1.53711-2.8028
	c-0.35156-0.49609-0.4917-0.80859-0.51367-1.3476c-0.146,0.16602-0.05707,0.36334-0.11432,0.55084
	c-0.20697-0.1582-0.271-0.35754-0.19867-0.5899c0.13672-0.43945,0.31976-0.8476,0.69867-1.15045
	c0.7984-0.63464,1.56842-1.30267,2.49323-1.7558c0.29492-0.14496,0.604-0.25488,0.91699-0.35596
	c0.29883-0.09723,0.57178-0.03369,0.84912,0.10211h-0.3252c0.28027,0.10687,0.54297,0.21088,0.84326,0.25677
	c0.89111,0.13721,1.58453,0.64551,2.11572,1.36908c0.06061,0.08209,0.1582,0.1983,0.08502,0.29889
	c-0.04504,0.06445-0.17584,0.0556-0.27051,0.0224c-0.12311-0.03998-0.25592-0.06726-0.26373-0.23724
	c-0.02148-0.36914-0.17871-0.60254-0.57227-0.68451c-0.10645-0.02252-0.12891-0.00391-0.18359,0.04779
	c-0.11914,0.11041-0.20905,0.15326-0.29883-0.0517c-0.11328-0.25934-0.396-0.32233-0.74017-0.16223
	c-0.14703,0.06842-0.24664,0.05469-0.375-0.02136c-0.28375-0.16803-0.48004-0.14075-0.73206,0.0957
	c-0.07568,0.07318-0.1377,0.05945-0.1958-0.00201c-0.05316-0.05371-0.08978-0.1225-0.14685-0.20264
	c-0.04303,0.09521,0.01697,0.15771,0.02679,0.22314c0.01611,0.10059,0.22217,0.20306-0.00781,0.2998
	c-0.18988,0.08008-0.375,0.1485-0.53809-0.04883c-0.0752-0.0918-0.07623-0.20898-0.10791-0.34381
	c-0.15723,0.25,0.01898,0.44141,0.06396,0.64563c-0.36719-0.03229-0.53125,0.06927-0.55518,0.40228
	c-0.01709,0.24323-0.09668,0.30273-0.31488,0.19043c-0.00494,0.13477,0.06201,0.2168,0.14789,0.27045
	c0.13428,0.0791,0.04388,0.18463,0.04388,0.27643c-0.00092,0.05573-0.04291,0.0918-0.104,0.0918
	c-0.10687,0.00189-0.146-0.08112-0.18597-0.15723c-0.18701-0.36328-0.25684-0.72949-0.0166-1.10449
	c0.10986-0.17188,0.21002-0.35059,0.3457-0.58008c-0.27002,0.22461-0.45068,0.44531-0.60791,0.68951
	c-0.06592,0.10352-0.02979,0.21667-0.01709,0.32806c0.1001,0.74225,0.41406,1.42194,0.64111,2.12689
	c0.22809,0.7149,0.44287,1.43365,0.6582,2.15045c0.03564,0.12109,0.04785,0.25391,0.01758,0.42969
	c-0.05182-0.12891-0.08301-0.20514-0.11383-0.2832c0.04303,0.4375,0.22223,0.82806,0.38824,1.22662
	c0.1568,0.37689,0.5249,0.49609,0.78955,0.74017c0.04254,0.03912,0.09521,0.04102,0.14606,0.03711
	c0.4184-0.0293,0.82605,0.05469,1.23627,0.11328c0.12988,0.01953,0.25879,0.01953,0.38568-0.02539
	c-0.03998-0.08789-0.13275-0.02728-0.2041-0.0957c0.33405-0.09772,0.61145-0.27728,0.86823-0.49017
	c0.24408-0.19934,0.41992-0.45123,0.40228-0.7774c-0.0459-0.84375,0.16119-1.64655,0.38971-2.44244
	c0.14648-0.51849,0.2168-1.0498,0.33398-1.5722c0.05475-0.24316,0.14453-0.47455,0.22852-0.711
	C28.6875,27.33893,29.1543,27.83502,29.41888,28.51947z M21.94818,30.28998c-0.17719-0.47357-0.34607-0.94916-0.5332-1.41986
	c-0.11176-0.2851-0.289-0.5351-0.49695-0.79303c-0.04504,0.19238,0.01605,0.33313,0.06195,0.47949
	c0.20599,0.66211,0.6391,1.211,0.914,1.8399C21.99408,30.4043,21.95209,30.33789,21.94818,30.28998z M22.5249,29.88867
	c-0.15283-0.8418-0.45312-1.625-0.83789-2.36719c-0.17279-0.33398-0.37891-0.62701-0.3252-1.02637
	c0.01221-0.09082,0.0542-0.25494-0.11859-0.25879c-0.14941-0.00391-0.22815,0.1153-0.24713,0.25385
	c-0.03711,0.26575,0.00488,0.5166,0.18988,0.72662c0.24811,0.28223,0.42682,0.60938,0.58405,0.94427
	C22.03998,28.72852,22.2749,29.31049,22.5249,29.88867z M27.04199,32.64838c-0.10248,0.13873-0.20612,0.27545-0.30762,0.41211
	c-0.13275,0.17969-0.3028,0.3233-0.5166,0.37311c-0.67865,0.15533-1.3609,0.2373-2.04785,0.02441
	c-0.2627-0.08203-0.4848-0.19818-0.604-0.47559c-0.0849-0.19824-0.18109-0.40332-0.39404-0.58594
	c0.12793,0.31543,0.21191,0.60059,0.354,0.85059c0.20905,0.37115,0.50934,0.61426,0.9809,0.59375
	c0.5733-0.0224,1.13971-0.07324,1.68854-0.2392C26.66309,33.46088,26.89648,33.08691,27.04199,32.64838z M27.88092,29.96191
	c-0.00983-0.04694-0.00592-0.1142-0.0625-0.12994c-0.07623-0.01947-0.10162,0.05475-0.125,0.10754
	c-0.07434,0.16791-0.0899,0.33978-0.0694,0.52728c0.0332,0.32318,0.09668,0.64648,0.05756,0.98242
	c0.10651-0.25104,0.14075-0.52344,0.1778-0.79492C27.89062,30.4248,27.93359,30.19342,27.88092,29.96191z M28.67578,27.61328
	c-0.0293-0.11035-0.11328-0.19238-0.21967-0.19238c-0.12311,0-0.10651,0.1377-0.1416,0.21777
	c-0.0293,0.07135-0.03723,0.15131-0.0528,0.2265c-0.12109,0.56451-0.05475,1.13385-0.03711,1.70123
	c0.13477-0.02252,0.02832-0.14838,0.08789-0.20508c0.05469-0.35352,0.24799-0.67584,0.2207-1.04492
	c-0.00098-0.02051,0.01758-0.05573,0.03711-0.06543C28.89838,28.08691,28.73633,27.84082,28.67578,27.61328z M27.10938,27.83502
	c0.0957,0.0351,0.16992-0.05774,0.24414-0.1123c0.13281-0.09973,0.20697-0.2276,0.18359-0.39655
	c0-0.03809,0.00201-0.07227-0.00189-0.1084c-0.01184-0.14935-0.03815-0.29974-0.2002-0.3584
	c-0.1778-0.0625-0.28033,0.0722-0.39752,0.17383c-0.16022,0.13971-0.02148,0.24219,0.0332,0.35742
	c0.03607,0.07715,0.07129,0.15527,0.09961,0.23535C27.09277,27.69342,27.02148,27.80469,27.10938,27.83502z M23.91803,21.58301
	c-0.52014,0.229-1.04102,0.45801-1.63824,0.59717c0.44141,0.15381,1.09424,0.20703,1.3642,0.12305
	c0.1568-0.1123,0.31604-0.00934,0.47321,0.00195c0.35382,0.02466,0.70905,0.05853,1.06323,0.0896
	c0.03833-0.00085,0.07611,0.00378,0.1145,0.0022c0.00586-0.00098,0.0152,0.0058,0.02197,0.00922
	c0.13922,0.00592,0.17432,0.13379,0.23578,0.21783c0.57825,0.78516,1.40735,1.20709,2.26764,1.59375
	c-0.41803-0.70068-0.71869-1.45795-1.18854-2.11865c-0.12299-0.1723-0.27625-0.27203-0.47748-0.32812
	c-0.43359-0.12311-0.89307-0.10889-1.32318-0.22998C24.51123,21.45209,24.23187,21.44482,23.91803,21.58301z M21.83301,22.51318
	c-0.68024-0.23438-1.07812,0.02679-1.30908,0.59082c-0.05811,0.13818-0.00885,0.22607,0.1153,0.29877
	c0.24359,0.14215,0.50867,0.21155,0.79877,0.25c0.16803,0.00342,0.31982-0.08099,0.4668-0.17279
	c0.20209-0.125,0.51123-0.2442,0.48633-0.47607C22.36621,22.76068,22.08197,22.59912,21.83301,22.51318z M20.79102,22.30078
	c-0.29395,0.11029-0.5639,0.26611-0.8042,0.46344c-0.22699,0.18396-0.39404,0.41791-0.39404,0.72357
	c0.00104,0.27002-0.01855,0.5332-0.11768,0.78711c-0.04199,0.10889-0.0249,0.21729,0.02197,0.32617
	c0.039,0.0918,0.09375,0.12012,0.18115,0.0791c0.28467-0.1333,0.5708-0.26807,0.8858-0.4151
	c-0.26422-0.16205-0.51422-0.27576-0.6778-0.54388c0.28955,0.10889,0.54889,0.19971,0.81989,0.24902
	c0.06201,0.0108,0.15277,0.0459,0.185-0.03119c0.0401-0.0899-0.06201-0.10895-0.11523-0.13922
	c-0.30365-0.1748-0.60297-0.36078-0.9649-0.42279c0.211-0.04303,0.32281-0.17194,0.4248-0.34924
	c0.15924-0.27679,0.35944-0.52576,0.66211-0.66888C20.90381,22.26318,20.84723,22.2832,20.79102,22.30078z M27.52539,18.1709
	c0.4043,0.16699,0.81641,0.32031,1.21289,0.51123c0.14349,0.06989,0.24609,0.15869,0.3222,0.31006
	c0.36041,0.72363,0.89069,1.27979,1.69049,1.61084c0-0.125-0.00977-0.22021,0.00195-0.31201
	c0.03125-0.23291-0.0498-0.36719-0.2724-0.4809c-0.45325-0.23102-0.81946-0.56689-1.04102-1.04114
	c-0.06653-0.14008-0.12701-0.30219-0.26471-0.37787c-0.54492-0.3042-0.9248-0.79834-1.40143-1.18024
	c-0.25391-0.20306-0.48236-0.479-0.81641-0.52875c-0.53705-0.0791-1.07806,0.01709-1.6709,0
	c0.25,0.1861,0.4483,0.33496,0.64941,0.48199C26.44342,17.53418,26.93951,17.93018,27.52539,18.1709z M31.55658,23.52002
	c-0.16986,0.35791-0.47357,0.60596-0.71869,0.95508c-0.05658-0.19287-0.10352-0.34521-0.14447-0.49902
	c-0.14264-0.55029-0.48151-0.93304-0.91412-1.30029c-0.69733-0.5899-1.54492-0.90381-2.28912-1.396
	c-0.03998-0.02588-0.0976-0.03656-0.11316-0.1109h0.69141c0-0.0127,0.00189-0.02576,0.00391-0.03998
	c-0.4707-0.06982-0.93951-0.14209-1.41022-0.20801c-0.42773-0.06097-0.85553-0.11182-1.2832-0.1748
	c-0.146-0.021-0.26172,0.0127-0.38873,0.08893c-0.81335,0.48676-1.67529,0.85297-2.60394,1.05219
	c-0.46631,0.09961-0.9472,0.00201-1.41846,0.10602c-0.27399,0.06097-0.57568,0.11566-0.75098,0.31775
	c-0.20557,0.23785-0.48187,0.3609-0.68799,0.5791c-0.11572-0.06097-0.02002-0.16699-0.0957-0.26898
	c-0.08301,0.48578-0.51508,0.73779-0.66022,1.23682c-0.10791-0.43604-0.3017-0.80078-0.03796-1.18604
	c0.27386-0.40375,0.21429-0.87988,0.28796-1.32568c0.03033-0.18701,0.04303-0.37842,0.0542-0.56842
	c0.00793-0.146,0.05573-0.16498,0.16803-0.07568c0.09467,0.07568,0.21185,0.1109,0.32275,0.15784
	c0.18701,0.07709,0.34625,0.0473,0.51123-0.06403c0.29388-0.19678,0.6001-0.37598,0.896-0.56982
	c0.10791-0.07129,0.22168-0.09229,0.34473-0.08398c0.67627,0.03912,1.31299-0.09131,1.93896-0.35602
	c0.62604-0.26605,1.29541-0.42719,1.90143-0.75085c0.164-0.08844,0.34271-0.09143,0.5293-0.04504
	c0.77826,0.19495,1.539,0.44781,2.28119,0.75983c0.67767,0.28522,1.3623,0.54492,2.04877,0.80908
	c0.25983,0.1001,0.48151,0.26514,0.72272,0.39893c0.09369,0.05182,0.10352,0.15088,0.10352,0.25
	c0,0.23779-0.01172,0.47711,0.06451,0.75201c-0.28723-0.23492-0.46881-0.51715-0.75-0.69495
	c0.2998,0.39111,0.5722,0.79895,0.84961,1.20514c0.1601,0.23486,0.33398,0.46289,0.51947,0.67767
	C31.64258,23.27777,31.62299,23.37891,31.55658,23.52002z M23.0708,21.09277c0.27643-0.23285,0.61719-0.28076,0.90918-0.44
	c-0.88275,0.23291-1.81195,0.34332-2.53711,0.99811c0.70605-0.06006,1.375-0.21289,1.99902-0.62109
	C23.29883,21.03119,23.2041,21.11908,23.0708,21.09277z M25.52539,25.57031c-0.18951-0.00781-0.32227,0.09076-0.40918,0.25781
	c-0.06934,0.13086-0.125,0.26465-0.10498,0.4024c-0.01416,0.41595,0.03668,0.46869,0.43359,0.50879
	c0.1275,0.01166,0.25336,0.04187,0.38135,0.0625c0.10352,0.01849,0.20905,0.10437,0.30371-0.02063
	c0.08789-0.11517,0.0517-0.22937-0.00098-0.33978c-0.08691-0.1875-0.18158-0.36908-0.26758-0.55762
	C25.79303,25.73242,25.7207,25.58008,25.52539,25.57031z M26.53912,26.83588c0.0957,0.01965,0.14056-0.04486,0.15619-0.12891
	c0.01862-0.10144,0.03131-0.20306,0.03906-0.25385c0-0.43555-0.23047-0.65723-0.53229-0.55865
	c-0.10046,0.03522-0.19037,0.0733-0.10638,0.21881c0.1084,0.18555,0.19238,0.38672,0.22748,0.59961
	C26.34772,26.85938,26.45697,26.81641,26.53912,26.83588z M30.0293,25.56049c-0.47272-0.49359-0.95221-0.98529-1.69238-1.06537
	c-0.41699-0.04395-0.8056-0.18701-1.1806-0.37012c-0.15039-0.07422-0.30469-0.14209-0.45422-0.21289
	c-0.00677,0.0108-0.01257,0.02197-0.01849,0.03369c0.11621,0.10303,0.23242,0.20612,0.37689,0.33539
	c-0.1474,0.00299-0.20496-0.07031-0.26849-0.11908c-0.44238-0.34033-0.81927-0.74121-1.14551-1.19189
	c-0.3067-0.42529-0.30859-0.42432-0.62158-0.02344c-0.03998,0.05225-0.10687,0.08929-0.11078,0.16943
	c0.0957,0.06396,0.21967-0.021,0.3349,0.07568c-0.10895,0.12299-0.21381,0.24121-0.31885,0.35992
	c0.13574-0.28674-0.05719-0.30774-0.271-0.31995c0.15381-0.25085,0.34674-0.44965,0.43994-0.72308
	c-0.12109-0.01758-0.21429-0.03168-0.30713-0.0459c-0.00006,0-0.00006-0.00006-0.00012-0.00006
	c-0.36774,0.01782-0.72021-0.11542-1.08649-0.10272c-0.00037,0.00037-0.00092,0.00031-0.00128,0.00067
	c-0.03998,0.11041-0.11908,0.18311-0.20801,0.25641c-1.07617,0.87299-2.29199,1.50488-3.54102,2.08203
	c-0.45508,0.211-0.91119,0.42578-1.43219,0.40381c-0.12891-0.0058-0.1181,0.0708-0.1391,0.16119
	c-0.11377,0.50336-0.30267,0.96631-0.75201,1.28369c0.315,0.24799,0.66901,0.42078,1.01422,0.61707
	c0.07281-0.14935,0.07623-0.32416,0.24609-0.45209c-0.08398,0.26172-0.08398,0.49609-0.04688,0.72662
	c0.04486,0.27136,0.1358,0.53711,0.1709,0.80951c0.02692,0.21777,0.1109,0.3252,0.35498,0.31549
	c-0.15918-0.25-0.09717-0.46289,0.05811-0.6778c0.10602-0.14551,0.1958-0.30475,0.27979-0.46484
	c0.31299-0.59869,0.72314-1.13477,1.06879-1.71387c0.03815-0.06354,0.07135-0.14551,0.18414-0.17682
	c-0.07269,0.14264-0.1377,0.26184-0.19379,0.3858c-0.05231,0.11719-0.11334,0.23138-0.125,0.40332
	c0.10297-0.08398,0.16888-0.13672,0.23578-0.19141c0.92822-0.74902,1.90918-1.40088,3.07617-1.72272
	c0.21191-0.05811,0.41895-0.08929,0.63574-0.02136c1.01855,0.31726,1.9502,0.77728,2.71185,1.55066
	c0.48053,0.48444,0.94141,0.9942,1.50391,1.38293c0.23645,0.164,0.42004,0.34857,0.54303,0.60541
	c0.1582,0.33398,0.41986,0.586,0.6875,0.83295c0.11719,0.11041,0.21967,0.08893,0.25098-0.0498
	c0.11029-0.50189,0.50104-0.97644,0.16699-1.52728c-0.00195-0.00391,0.01562-0.01862,0.02545-0.0293
	c0.1308,0.08014,0.19714,0.21783,0.30554,0.33014c0.16125-0.18463,0.32135-0.3623,0.47375-0.54895
	c0.04486-0.05267,0.10638-0.10925-0.00201-0.18646C30.78998,26.41211,30.42291,25.97272,30.0293,25.56049z M24.76318,26.59082
	c0.104-0.00684,0.15283-0.06744,0.13184-0.14941c-0.03125-0.24219-0.08594-0.44818-0.16315-0.65039
	c-0.05609-0.14062-0.08875-0.30084-0.31299-0.26373c-0.21191,0.03723-0.41595,0.11139-0.435,0.33405
	c-0.02386,0.27435-0.02386,0.58209,0.20514,0.79297C24.37988,26.83301,24.56879,26.60553,24.76318,26.59082z M27.03607,21.31012
	c-0.40125-0.20709-0.82025-0.29944-1.25879-0.36432c-0.40326-0.06012-0.75336-0.01367-1.0434,0.33398
	c0.50391,0.13232,0.99854,0.28119,1.50439,0.38623c0.21783,0.04486,0.35742,0.146,0.47174,0.31891
	c0.32416,0.49115,0.63568,0.9873,0.93256,1.49506c0.22565,0.38721,0.46484,0.79004,0.91211,0.95215
	c0.60742,0.21979,1.11621,0.5708,1.56439,1.02588c0.0791,0.08008,0.1582,0.15918,0.2403,0.23541
	c0.04102,0.039,0.08594,0.10345,0.15045,0.05658c0.04877-0.03522,0.0224-0.09381,0.00775-0.14447
	c-0.06445-0.22375-0.13275-0.44055-0.2627-0.64264c-0.39355-0.60986-0.7608-1.23389-1.04877-1.90277
	c-0.0899-0.20905-0.24133-0.37994-0.40729-0.5332C28.26758,22.03998,27.67682,21.64209,27.03607,21.31012z M28.80658,22.14398
	c0.6485,0.89514,0.92395,1.97321,1.76575,2.729C30.67578,23.89008,29.9209,22.65619,28.80658,22.14398z"/>
</svg>
