<?xml version="1.0" encoding="utf-8"?>
<!-- Generator: Adobe Illustrator 26.0.1, SVG Export Plug-In . SVG Version: 6.00 Build 0)  -->
<svg version="1.1" id="Layer_1" xmlns="http://www.w3.org/2000/svg" xmlns:xlink="http://www.w3.org/1999/xlink" x="0px" y="0px"
	 viewBox="16.2314 16.1709 17.7364 17.9053" style="enable-background:new 16.2314 16.1709 17.7364 17.9053;" xml:space="preserve">
<style type="text/css">
	.st0{fill:#27662F;}
	.st1{fill:#FFFFFF;}
</style>
<path class="st0" d="M25.2349,34.0723c-5.0367,0.0019-8.979-4.2188-8.628-9.1592c0.041-0.5762,0.0952-1.1611,0.3052-1.6983
	c0.2149-0.5439,0.106-1.0468,0.002-1.58c-0.1431-0.7149-0.4629-1.3741-0.604-2.086c-0.042-0.209-0.169-0.479,0.0307-0.6089
	c0.2002-0.1298,0.3653,0.1221,0.5191,0.2491c0.434,0.3549,0.8833,0.6821,1.3789,0.9467c0.122,0.0655,0.1841,0.0645,0.2754-0.0488
	c0.643-0.7969,1.4038-1.4609,2.291-1.9751c0.2319-0.1338,0.3208-0.3877,0.521-0.5459c0.6606-0.522,1.354-0.959,2.1919-1.1777
	c1.5171-0.397,2.9731-0.2334,4.395,0.3589c0.5732,0.2387,1.0244,0.6601,1.4219,1.1347c0.1025,0.1231,0.2168,0.2232,0.3525,0.3062
	c0.8047,0.4951,1.5107,1.103,2.1055,1.8359c0.1035,0.1289,0.1709,0.1382,0.3144,0.0493c0.2764-0.1713,0.5352-0.3613,0.7793-0.5742
	c0.2246-0.1958,0.4961-0.3208,0.7617-0.4482c0.2168-0.1026,0.295-0.0347,0.3155,0.208c0.0224,0.2554-0.0674,0.4863-0.1534,0.7124
	c-0.2666,0.7046-0.4062,1.4429-0.5781,2.1719c-0.0371,0.1577-0.0234,0.2998,0.0313,0.456
	c1.7246,4.898-1.1543,10.1255-6.2032,11.2749C26.4355,34.0176,25.8027,34.0957,25.2349,34.0723"/>
<path class="st1" d="M26.08008,30.22852c0.0058,0.21289-0.1875-0.0166-0.24896,0.0957
	c-0.10651-0.07812-0.27063,0.0528-0.31165-0.1181c-0.02728-0.1153,0.2149-0.43073,0.28522-0.39563
	C25.97272,29.89447,26.07617,30.0625,26.08008,30.22852z M27.09082,30.44733c0.10736,0.15228,0.3194,0.13464,0.48151,0.1308
	c0.11908-0.00391,0.07806-0.16791,0.0957-0.28125c-0.02356-0.30078-0.06451-0.61139-0.18951-0.90625
	c-0.10449-0.24225-0.17584-0.25-0.33594-0.04492C26.94818,29.58789,26.90228,30.17969,27.09082,30.44733z M27.8125,30.24121
	c-0.0293,0.20612,0.07129,0.24707,0.24219,0.21387c0.44733-0.08887,0.82324-0.30078,1.05664-0.69727
	c0.45709-0.77344,0.62695-1.63672,0.73438-2.43463c-0.01068-0.2998-0.02539-0.51849-0.10938-0.72156
	c-0.03125-0.07623-0.06744-0.18463-0.16992-0.16803c-0.08588,0.01172-0.08978,0.11823-0.10742,0.19238
	c-0.23236,1.07422-0.8125,1.93451-1.63867,2.6377c-0.10944,0.0957-0.13873,0.17181-0.10638,0.30865
	C27.76562,29.79303,27.84381,30.01172,27.8125,30.24121z M24.36823,28.2002c-0.05035-0.0293-0.11621-0.03027-0.1123,0.0752
	c0.00629,0.1601,0.22595,0.52728,0.34131,0.52051c0.22455-0.01172,0.20795-0.21881,0.27777-0.3877
	C24.7998,28.13867,24.52692,28.28912,24.36823,28.2002z M25.06097,29.92383c-0.18005,0.01758-0.20496,0.22656-0.29974,0.4375
	c0.20996-0.07812,0.42578,0.03906,0.50586-0.14844C25.29791,30.13672,25.16888,29.91412,25.06097,29.92383z M26.11328,28.31451
	c0.04102,0.14349,0.01764,0.32611,0.20123,0.3974c0.11517,0.04486,0.20306-0.0058,0.27051-0.09674
	c0.13568-0.18359,0.22546-0.38666,0.28217-0.64056c-0.22461,0.0625-0.41602,0.11517-0.6084,0.16797
	C26.16803,28.16699,26.08008,28.20209,26.11328,28.31451z M24.04199,29.91888C24.01709,30.01947,24,30.12207,23.979,30.23053
	c0.04199,0.04486-0.05219,0.16394,0.06982,0.15619c0.19336-0.01562,0.43799,0.04095,0.56299-0.10254
	c0.11719-0.13379-0.06879-0.29785-0.14404-0.43457c-0.0567-0.10254-0.13965-0.24023-0.25977-0.22662
	C24.07178,29.64062,24.07178,29.80469,24.04199,29.91888z M22.64502,30.56451c0.20117,0.039,0.23981-0.00201,0.211-0.15533
	c-0.05914-0.29401-0.0528-0.59467,0.0351-0.88379c0.05078-0.16602,0.00098-0.24316-0.14502-0.32227
	c-0.74017-0.39844-1.36621-0.9375-1.88617-1.5957c-0.42291-0.53711-0.74915-1.13672-1.11584-1.71094
	c-0.06488-0.10059-0.11707-0.28906-0.27527-0.22559c-0.15393,0.06152-0.07483,0.24512-0.08258,0.37701
	c-0.0014,0.01849,0.0069,0.0351,0.01166,0.0517c0.26624,1.16406,0.73004,2.24408,1.40094,3.22656
	C21.25592,29.99408,21.77692,30.60553,22.64502,30.56451z M26.31049,30.06451c-0.02441,0.10352-0.05847,0.23041,0.0625,0.27631
	c0.16022,0.06146,0.33313,0.10059,0.50793,0.08209c0.05066-0.0069,0.0293-0.0733,0.02136-0.11243
	c-0.05658-0.3017-0.13281-0.59467-0.34369-0.875C26.42682,29.64838,26.35938,29.85352,26.31049,30.06451z M23.87891,30.58197
	c-0.64111,0.11823-1.26514,0.45801-1.9541,0.17291c0.38721,0.29779,0.75201,0.6142,1.28711,0.36523
	c0.18506-0.0849,0.40186-0.1123,0.60791-0.1474c1.20605-0.20325,2.39307-0.15631,3.56299,0.2373
	c0.53131,0.17865,1.27148-0.24915,1.44727-0.7959c-0.9043,0.50476-1.0459,0.53406-1.94916,0.27539
	C25.88672,30.40619,24.89008,30.39648,23.87891,30.58197z M27.71289,27.74609c-0.50287-0.03027-0.68359,0.13873-0.68359,0.64258
	c0,0.0097,0,0.01752,0,0.02631c0,0.10449-0.00201,0.20801,0.00201,0.31165c0.00476,0.10638,0.07422,0.125,0.13568,0.06049
	c0.25781-0.26953,0.49512-0.55658,0.6601-0.89453C27.87299,27.79791,27.8125,27.75201,27.71289,27.74609z M25.81641,28.26947
	c-0.1123,0.00781-0.22461,0.01764-0.33929,0.02252c-0.39124,0.01849-0.41119,0.05573-0.20221,0.38379
	c0.02832,0.04492,0.05518,0.0918,0.09332,0.12604c0.13177,0.12299,0.26355,0.125,0.38177-0.02063
	c0.0957-0.11908,0.14648-0.25781,0.17578-0.40417C25.94141,28.2959,25.91888,28.23633,25.81641,28.26947z M31.52338,22.56299
	c-0.4306,0.49219-0.62689,1.0542-0.4834,1.77783c0.06354-0.27783,0.09674-0.49561,0.16119-0.70599
	c0.13965-0.4649,0.37592-0.53473,0.76465-0.23694c0.06348-0.33777-0.0918-0.40466-0.49701-0.375
	c0.53711-0.70599,1.13672-1.3042,1.7265-2.00781c-0.0332,0.25983-0.05273,0.4527-0.08398,0.64313
	c-0.1582,0.93988-0.3125,1.88281-0.99225,2.62598c-0.10541,0.11572-0.12689,0.26904-0.14636,0.414
	c-0.06451,0.52301-0.41412,0.7818-0.86139,0.95221c-0.21295,0.08203-0.31445-0.10547-0.44531-0.20117
	c-0.13184-0.09619-0.00879-0.19244,0.0401-0.26801c0.1416-0.22119,0.1767-0.41803,0.04681-0.6792
	c-0.20905-0.41901-0.24902-0.87024-0.04883-1.31689c0.01862-0.04199,0.05957-0.09235,0.00983-0.14313
	c-0.3399,0.24609-0.48932,0.98389-0.27051,1.3042c0.12976,0.18701,0.14246,0.39062,0.04486,0.5957
	c-0.1153,0.24512-0.2207,0.49512-0.37695,0.71832c-0.06445,0.08978-0.12695,0.18549-0.14062,0.32806
	c0.17188-0.0332,0.22748-0.2168,0.40228-0.2774c-0.00287,0.56842,0.08502,1.10944,0.15833,1.65045
	c0.02051,0.1543,0.0351,0.31348,0.07806,0.46484c0.33984,1.1972-0.4707,2.50195-1.25977,2.96973
	c-0.75189,0.44427-1.44531,0.94629-1.95312,1.66803c-0.08197,0.1142-0.18848,0.16107-0.32031,0.2002
	c-0.85345,0.25-1.69629,0.13666-2.54199-0.02155c-0.08398-0.01465-0.16406-0.06549-0.25287-0.02826
	c-0.00641,0.05457,0.0249,0.07709,0.06781,0.0976c0.03809,0.0166,0.07471,0.03711,0.10699,0.07227
	c-0.43121-0.0498-0.85889-0.10449-1.28033-0.20709c-0.1026-0.02441-0.1709-0.09857-0.21881-0.1767
	c-0.42377-0.69238-1.07074-1.13092-1.74408-1.54102c-0.28467-0.17389-0.5249-0.40326-0.75-0.6485
	c-0.25201-0.27728-0.40088-0.58881-0.354-0.9765c0.0141-0.11035,0.00293-0.22455,0.00293-0.36426
	c-0.15094,0.08789-0.08405,0.25781-0.17871,0.3418c-0.16412-0.23138-0.19818-0.76172-0.06793-1.16504
	c0.31403,0.74121,0.71594,1.42383,1.21393,2.04681c0.03168,0.04114,0.06012,0.0899,0.07367,0.13873
	c0.20325,0.72455,0.85944,0.93848,1.41803,1.26367c0.06012,0.0351,0.13037,0.0332,0.20117-0.00201
	c1.05121-0.5351,2.16602-0.5683,3.29834-0.39636c0.46576,0.0683,0.93262,0.1601,1.37311,0.33588
	c0.1972,0.07709,0.37109,0.02051,0.55267-0.05182c0.59772-0.2373,1.17194-0.55756,1.3125-1.21576
	c0.12891-0.60553,0.39941-1.16211,0.51172-1.77155c0.05566-0.30756,0.1524-0.60638,0.1875-0.92175
	c0.03809-0.34094-0.02148-0.66022-0.14453-0.97473c-0.0528-0.1347-0.11816-0.27136-0.2901-0.24799
	c-0.15326,0.01947-0.24408,0.13672-0.27136,0.28522c-0.07721,0.44531-0.27643,0.84369-0.4834,1.23816
	c-0.13684,0.25781-0.14551,0.26575-0.3418,0.04303c-0.15631-0.17383-0.41614-0.26172-0.46295-0.54102
	c-0.62695,0.3476-1.32227,0.4834-1.98828,0.70123c-0.0752-0.08795,0.07031-0.125-0.00977-0.22369
	c-0.65381,0.38965-1.30762,0.57617-1.78662-0.30762c-0.06299,0.20306,0.06403,0.33398,0.06787,0.5108
	c-0.4209-0.08789-0.815-0.18854-0.98199-0.65143c-0.11469,0.08789-0.03265,0.19043-0.09076,0.26562
	c-0.021-0.00189-0.04834,0.00201-0.06934-0.00781c-0.60596-0.24799-0.9668-0.14648-1.336,0.42188
	c-0.125,0.19244-0.19281,0.19922-0.35199,0.04492c-0.39258-0.38281-0.71088-0.81738-0.96478-1.30078
	c-0.10992-0.20905-0.1192-0.4433-0.13922-0.70905c0.22021,0.11432,0.37842,0.27252,0.66309,0.32623
	c-0.3999-0.39551-0.71576-0.77539-1.01996-1.1665c-0.17004-0.21729-0.25592-0.42529-0.10895-0.68988
	c0.21191-0.3833,0.11523-0.75439-0.08295-1.1192c0.05115,0.50391-0.06793,0.96967-0.26813,1.4278
	c-0.07367,0.16888,0.08691,0.32416,0.16888,0.47498c0.05914,0.10889,0.18799,0.18408,0.16803,0.34332
	c-0.35791-0.23633-0.35992-0.23828-0.72461,0.06738C19.08588,25.74408,19.04388,25.6875,19,25.6582
	c-0.30811-0.20801-0.59808-0.43018-0.63818-0.84418c-0.01904-0.1861-0.09961-0.34821-0.21484-0.49713
	c-0.63574-0.82178-0.89307-1.78711-1.03705-2.79102c-0.01715-0.10699-0.06604-0.21387-0.01575-0.36865
	c0.479,0.66797,1.11279,1.14899,1.67975,1.75c-0.1958,0.05469-0.3808,0.03656-0.48193,0.19086
	c-0.06891,0.10504-0.1001,0.2207-0.07281,0.354c0.3736-0.28796,0.69495-0.27917,0.84869,0.0401
	c0.10101,0.21094,0.16315,0.44293,0.125,0.68701c-0.00775,0.05573-0.04889,0.11182,0.00092,0.18073
	c0.17633-0.14313,0.15924-0.33893,0.146-0.52594c-0.03998-0.63086-0.39398-1.0918-0.8476-1.48096
	c-0.73926-0.63434-1.36719-1.35101-1.76221-2.25c-0.12598-0.28516-0.23779-0.57812-0.24707-0.89795
	c0.02301-0.00195,0.03711-0.0069,0.04102-0.00299c0.646,0.70068,1.58008,1.01184,2.25586,1.67389
	c0.15332,0.15094,0.354,0.2251,0.55713,0.28223c0.14697,0.04102,0.21387,0.10162,0.211,0.26562
	c-0.00299,0.14795-0.00201,0.30804,0.1084,0.48438c0.05762-0.36621,0.0976-0.68951,0.16156-1.0083
	c0.21344-1.06689,0.69336-2,1.40332-2.82471c0.7749-0.90228,1.75293-1.3623,2.92773-1.50537
	c1.14899-0.13861,2.26996-0.06305,3.36279,0.30615c0.9444,0.31885,1.5918,1.021,2.13666,1.81885
	c0.64075,0.93799,1.00983,1.96729,0.9444,3.12396c-0.00586,0.09039-0.02045,0.18903,0.07031,0.30719
	c0.09283-0.29785,0.11914-0.57617,0.1377-0.85309c0.01172-0.1391,0.02631-0.21967,0.20599-0.21478
	c0.19635,0.00592,0.3819-0.1001,0.5108-0.23932c0.4306-0.46478,1.01465-0.70599,1.51172-1.07269
	c0.18848-0.14008,0.36908-0.29199,0.54883-0.44427c0.04395-0.03571,0.08789-0.10992,0.1524-0.07574
	c0.07605,0.039,0.04877,0.12201,0.03119,0.18805c-0.14453,0.5097-0.375,0.97699-0.69922,1.396
	C32.58588,21.42578,32.03522,21.97711,31.52338,22.56299z M26.65039,31.61908c-0.3252-0.37109-1.83252-0.4707-2.36908-0.164
	C25.09912,31.43359,25.86133,31.40228,26.65039,31.61908z M29.52728,29.61719c-0.00391,0.36523-0.04486,0.71478-0.30457,1.00189
	C29.77338,30.29688,29.8457,29.98633,29.52728,29.61719z M26.39648,21.91412c0.47461,0.01166,0.9043-0.08795,1.2558-0.49323
	C27.21088,21.59369,26.80469,21.75391,26.39648,21.91412z M22.30322,21.31787c0.46875,0.11523,0.90088,0.31201,1.31885,0.54492
	C23.26318,21.49017,22.9209,21.07812,22.30322,21.31787z M24.89502,27.05078c-0.02594-0.07617-0.04291-0.1524-0.0752-0.21777
	c-0.0918-0.18854-0.17871-0.37891-0.28851-0.55762c-0.22711-0.36621-0.45953-0.38672-0.78522-0.09381
	c-0.07422,0.06451-0.104,0.125-0.02002,0.19141c0.0708,0.0567,0.1377,0.21594,0.2417,0.08398
	c0.1142-0.14246,0.19531-0.07214,0.2793,0.00104C24.46088,26.64648,24.66888,26.84277,24.89502,27.05078z M26.40039,26.32031
	c0.0918-0.1142,0.01373-0.21869-0.10449-0.29492c-0.15723-0.10248-0.29102-0.13867-0.42871,0.0351
	c-0.0918,0.11334-0.2207,0.19934-0.3125,0.3125c-0.13379,0.16223-0.27338,0.32721-0.2876,0.62024
	c0.20703-0.22174,0.33844-0.4444,0.57861-0.54205c0.06842-0.02734,0.14062-0.10156,0.21289-0.02734
	C26.23828,26.60553,26.32812,26.41107,26.40039,26.32031z M28.24512,26.75293c-0.07812-0.11426-0.1142-0.16504-0.1474-0.21582
	c-0.34094-0.5293-0.83789-0.90619-1.28723-1.33099c-0.12097-0.11432-0.22937-0.25403-0.40619-0.26233
	c-0.17969-0.00781-0.65631,0.29553-0.74512,0.4483c0.26074-0.0484,0.49902-0.27386,0.74902-0.17432
	c0.25488,0.10205,0.34473,0.40332,0.50201,0.62012c0.08386,0.11523,0.06049,0.19818-0.02643,0.29388
	c-0.15326,0.17004-0.2998,0.34875-0.4483,0.52252c0.01569,0.0166,0.03333,0.0332,0.04889,0.04883
	c0.2207-0.15723,0.44531-0.30664,0.6582-0.4707c0.09961-0.08014,0.1582-0.10645,0.28033-0.01373
	C27.66211,26.40228,27.92767,26.55078,28.24512,26.75293z M30.21191,22.85303c-0.10449-0.34814-0.32812-0.61182-0.58893-0.88623
	c-0.04681,0.13721,0.04114,0.18018,0.0752,0.24408c0.29889,0.55231,0.1651,0.91901-0.38568,1.10699
	c-0.18158,0.06201-0.30078-0.05176-0.44342-0.09668c-0.1347-0.04297,0.0069-0.16797-0.02826-0.25
	c-0.00885-0.02197-0.02631-0.03906-0.04291-0.06012c-0.33398,0.37213-0.67389,0.27405-1.03229-0.02826
	c0.0274,0.22711,0.18848,0.38428,0.04486,0.57031c-0.16602,0.21289-0.31146,0.44476-0.47748,0.65765
	c-0.33301,0.42834-0.68652,0.461-1.08691,0.11334c-0.02539-0.02295-0.05078-0.04932-0.07721-0.07135
	c-0.22156-0.18158-0.27631-0.4057-0.19617-0.67969c0.04675-0.15906,0.12891-0.31287,0.11127-0.52826
	c-0.26367,0.2832-0.33789,0.6192-0.45898,0.95306c-0.08502-0.1167,0.04199-0.21381-0.06451-0.31781
	c-0.06049,0.13574-0.15961,0.25885-0.1626,0.38385c-0.00391,0.18005-0.09076,0.11615-0.18988,0.12976
	c-0.3042,0.04352-0.37402-0.14252-0.41498-0.37891c-0.06403-0.36859-0.25305-0.67566-0.49811-0.95258
	c0.06586,0.2627,0.1333,0.51898,0.16699,0.7876c0.04199,0.32031-0.09082,0.49902-0.354,0.64008
	c-0.31299,0.16901-0.77002,0.07434-0.9707-0.22119c-0.15332-0.2226-0.31543-0.4375-0.49609-0.64056
	c-0.21533-0.24121-0.44434-0.37012-0.7793-0.26801c-0.27679,0.0849-0.53662,0.03711-0.73682-0.2002
	c-0.02979-0.03674-0.06403-0.08704-0.13281-0.06995c-0.05621,0.13922,0.1308,0.2149,0.0957,0.354
	c-0.16699,0.00879-0.30908-0.05505-0.45068-0.12109c-0.18408-0.08301-0.26813-0.19177-0.16412-0.41296
	c0.09094-0.19189,0.12415-0.41071,0.1817-0.61774c-0.2168,0.1767-0.29102,0.42969-0.42188,0.6499
	c-0.13281,0.2251-0.08893,0.3999,0.11621,0.56793c0.20898,0.17279,0.4209,0.33978,0.6499,0.48376
	c0.1358,0.08398,0.25391,0.17828,0.34479,0.31403c0.39398,0.59821,0.95941,0.72711,1.62299,0.57721
	c0.1001-0.02301,0.21002-0.06689,0.3291,0.03607c-0.60687,0.28998-1.18988,0.42682-1.79883,0.06012
	c0.17383,0.23682,0.38281,0.40381,0.62891,0.5307c0.16705,0.08789,0.33594,0.10791,0.50391,0.03131
	c0.25391-0.11725,0.52393-0.21204,0.74023-0.3902c0.19189-0.15723,0.38379-0.1499,0.61865-0.07324
	c-0.9068,0.56-1.47754,1.39502-2.02686,2.32764c0.315-0.30273,0.58691-0.55951,0.85211-0.8252
	c0.09906-0.09863,0.17615-0.10254,0.289-0.0166c0.15289,0.11615,0.30908,0.24115,0.57379,0.29095
	c-0.125-0.1543-0.21393-0.25867-0.29694-0.36908c-0.09277-0.12299-0.12891-0.25781-0.01471-0.38281
	c0.20465-0.22168,0.2959-0.57568,0.66901-0.60352c0.05963-0.00537,0.125,0.05664,0.18805,0.0849
	c0.12396,0.05573,0.23676,0.13971,0.41699,0.1568c-0.10114-0.18066-0.24524-0.25488-0.38141-0.34076
	c-0.04199-0.02692-0.11469-0.04199-0.0976-0.10413c0.0166-0.0639,0.08777-0.07117,0.15076-0.0791
	c0.10211-0.01166,0.211,0.06012,0.32721,0.00104c-0.18799-0.2041-0.18799-0.2041-0.09717-0.28271
	c0.45508-0.39502,1.1709-0.36621,1.61127,0.06689c-0.14636,0.11377-0.33197,0.18311-0.42566,0.36078
	c0.0683,0.0401,0.10925,0,0.15619-0.021c0.49896-0.21967,0.98926-0.34711,1.50201-0.00391
	c0.24017,0.16211,0.53809,0.125,0.81335,0.05621c0.2608-0.06396,0.4541-0.23541,0.63873-0.41937
	c-0.1123,0.01117-0.21191,0.04541-0.3017,0.09418c-0.29694,0.16412-0.60364,0.15283-0.9151,0.06592
	c-0.125-0.03613-0.33014-0.06982-0.28815-0.229c0.0332-0.12213,0.2149-0.021,0.3291-0.00293
	c0.50885,0.07623,0.94446-0.0401,1.28424-0.45508c0.10938-0.13379,0.14362-0.32672,0.31836-0.40582
	c0.34961-0.16107,0.58984-0.45886,0.86523-0.71185C30.18359,22.98492,30.23633,22.93408,30.21191,22.85303z M22.63721,27.72852
	c-0.1684-0.03711-0.27643,0.05566-0.21143,0.2442c0.05609,0.164,0.125,0.32611,0.20703,0.47845
	c0.04199,0.08002,0.1001,0.1875,0.21338,0.164c0.0976-0.02338,0.0918-0.13855,0.1167-0.21869
	c0.04102-0.13281,0.07422-0.26758,0.1123-0.40631C23.04688,27.70898,22.80182,27.76367,22.63721,27.72852z M23.7251,28.05469
	c-0.10107-0.02539-0.20117-0.05267-0.30127-0.07806c-0.08105-0.02155-0.12402,0.0058-0.09766,0.08978
	c0.10596,0.33978,0.22461,0.67578,0.48291,0.9375c0.07812,0.0791,0.14209,0.07129,0.2041-0.0332
	c0.08301-0.1377,0.05273-0.28522,0.06494-0.43073C24.09381,28.14648,24.09381,28.14648,23.7251,28.05469z M23.18701,29.23053
	C23.0752,29.52338,23,29.82812,22.98578,30.05658c-0.00476,0.51764,0.065,0.56744,0.48444,0.44141
	c0.04877-0.01556,0.09766-0.04486,0.14801-0.04486c0.15179,0.00098,0.19189-0.0752,0.17767-0.21381
	c-0.03998-0.4082-0.27692-0.7403-0.43903-1.09869C23.29883,29.01367,23.21191,29.16602,23.18701,29.23053z M22.4082,24.4121
	c0.1187-0.0151,0.2437,0.02,0.356-0.0542c0.0576-0.0391,0.1157-0.0679,0.1108-0.1567c-0.0229-0.4453-0.6631-0.8413-1.0811-0.67
	c-0.0981,0.0396-0.142,0.0967-0.1201,0.1978C21.7559,24.1011,21.9282,24.457,22.4082,24.4121 M27.957,24.4111
	c-0.3681,0.0088-0.4082-0.0522-0.2285-0.375c0.1035-0.187,0.1797-0.3989,0.3848-0.5141c0.2119-0.1182,0.4678-0.0699,0.5967,0.1318
	c0.1279,0.1983,0.0127,0.3482-0.126,0.479C28.3945,24.312,28.1738,24.4062,27.957,24.4111"/>
</svg>
