<?xml version="1.0" encoding="utf-8"?>
<!-- Generator: Adobe Illustrator 26.0.1, SVG Export Plug-In . SVG Version: 6.00 Build 0)  -->
<svg version="1.1" id="Layer_1" xmlns="http://www.w3.org/2000/svg" xmlns:xlink="http://www.w3.org/1999/xlink" x="0px" y="0px"
	 viewBox="16.5591 15.1719 18.4809 19.9004" style="enable-background:new 16.5591 15.1719 18.4809 19.9004;" xml:space="preserve">
<style type="text/css">
	.st0{fill:#27662F;}
	.st1{fill:#FFFFFF;}
</style>
<path class="st0" d="M35.04,24.9712c-0.3623,0.2226-0.6923,0.48-0.9609,0.812c-0.0781,0.0977-0.1113,0.1895-0.1025,0.3164
	c0.0752,0.9609-0.0391,1.9053-0.3096,2.8301c-0.0459,0.1572-0.0459,0.2685,0.0908,0.3662c0.0469,0.0332,0.082,0.082,0.1201,0.125
	c0.2217,0.2588,0.2159,0.3213-0.0117,0.5635c-0.3584,0.3818-0.7324,0.7441-1.125,1.0918c-0.0869,0.0742-0.1592,0.1689-0.2275,0.2627
	c-0.9795,1.3818-2.2627,2.3681-3.8467,2.9658c-0.1104,0.041-0.2109,0.0898-0.3096,0.1543c-0.6953,0.4599-1.4648,0.6484-2.291,0.6074
	c-0.168-0.0098-0.332-0.0039-0.4961,0.002c-0.8364,0.0312-1.6113-0.1592-2.3105-0.6368c-0.0806-0.0546-0.1739-0.0957-0.2666-0.1308
	c-1.5674-0.5899-2.8384-1.5664-3.814-2.9278c-0.0933-0.1279-0.1924-0.246-0.314-0.3496c-0.3823-0.3213-0.728-0.6806-1.0722-1.039
	c-0.2251-0.2354-0.2588-0.3282-0.021-0.5391c0.2651-0.2305,0.2578-0.4502,0.1679-0.7578c-0.2387-0.8281-0.3037-1.6807-0.2509-2.541
	c0.0112-0.1524-0.0269-0.2647-0.125-0.3828c-0.2681-0.3218-0.5928-0.5738-1.0049-0.8306c0.374-0.02,0.6831-0.043,0.9907-0.0503
	c0.2241-0.0039,0.335-0.0766,0.4033-0.3208c0.6768-2.4248,2.1519-4.1909,4.417-5.2949c0.083-0.04,0.1978-0.0484,0.1841-0.1939
	c-0.0083-0.082,0.0669-0.0893,0.124-0.06c0.146,0.0727,0.2739,0.0088,0.4058-0.0391c0.6601-0.2373,1.3389-0.3911,2.0381-0.4409
	c0.1699-0.0132,0.2368-0.0591,0.25-0.2441c0.0659-0.96,0.1494-1.919,0.2295-2.878c0.0078-0.104-0.0127-0.2319,0.1484-0.2392
	c0.1816-0.0069,0.1582,0.1362,0.1689,0.2461c0.0948,0.9409,0.1944,1.8818,0.2706,2.8242c0.0175,0.2168,0.0898,0.2729,0.291,0.2856
	c0.7754,0.0493,1.5224,0.2364,2.2558,0.4951c0.1973,0.0699,0.3838,0.1309,0.5782,0.23c2.2812,1.1563,3.7685,2.9419,4.4287,5.4131
	c0.04,0.1519,0.1142,0.2012,0.2568,0.2061c0.1738,0.0049,0.3477,0.0278,0.5215,0.0351c0.164,0.0059,0.3301,0.001,0.4961,0.001
	C35.0273,24.9302,35.0342,24.9502,35.04,24.9712"/>
<path class="st1" d="M32.70209,29.01562c-1.375-0.20514-2.56342-0.8222-3.68262-1.61133
	c-0.91205-0.64362-1.86719-1.17377-3.03705-1.16412c-0.65332,0.00494-1.29254,0.0459-1.89655,0.32623
	c-0.52777,0.24609-1.0307,0.5332-1.50189,0.87701c-1.08197,0.79095-2.2749,1.32806-3.6001,1.56439
	c-0.30707,0.0567-0.57758,0.20508-0.81201,0.41211c-0.22809,0.20117-0.22998,0.25195-0.04095,0.48236
	c0.4209,0.51959,0.9101,0.96881,1.42529,1.38873c1.22357,0.99506,2.53558,1.875,3.77966,2.8457
	c0.20905,0.16211,0.4361,0.29877,0.68225,0.40631c0.58295,0.25385,1.19666,0.25,1.81195,0.24017
	c0.21582,0,0.43164,0.00781,0.64844,0c0.5274-0.02148,1.05078-0.09772,1.48926-0.41412
	c1.50104-1.08301,3.01276-2.15039,4.44043-3.33301c0.41211-0.34467,0.80078-0.72357,1.13971-1.14545
	c0.125-0.1582,0.15326-0.289-0.02063-0.43854C33.28607,29.23932,33.01562,29.0625,32.70209,29.01562z M32.57318,29.8457
	c-0.05756-0.01172-0.1582-0.13092-0.12299,0.06348c0.00983,0.05859-0.07812,0.01373-0.12012,0.0097
	c-0.28809-0.02826-0.55078-0.14551-0.78516-0.29877c-0.4726-0.30963-1.02155-0.43262-1.53711-0.68652
	c0.0293,0.23633,0.13477,0.36523,0.3584,0.44043c0.41602,0.13965,0.82129,0.31146,1.22949,0.47369
	c0.08112,0.03217,0.17578,0.05066,0.24512,0.16791c-0.30273-0.00391-0.54694-0.17584-0.83301-0.18854
	c0.16309,0.34674,0.32031,0.68073,0.48926,1.04114c0.16602-0.20715,0.32135-0.40344,0.51172-0.64362
	c-0.00977,0.23828-0.11621,0.38477-0.19238,0.53711c-0.27148,0.53418-0.6875,0.95605-1.13873,1.33789
	c-0.68445,0.57721-1.38464,1.13672-2.15039,1.60547c-0.47937,0.29395-1.01166,0.44531-1.55847,0.46875
	c-0.85944,0.03809-1.72473,0.0791-2.586-0.0332c-0.75-0.09863-1.37689-0.4707-1.96289-0.9101
	c-0.7558-0.56744-1.52881-1.1192-2.14703-1.8457c-0.27087-0.31641-0.52289-0.64465-0.66888-1.04205
	c-0.02393-0.06158-0.05609-0.11816-0.03223-0.2334c0.21045,0.27051,0.39111,0.5058,0.59131,0.76562
	c0.15381-0.32812,0.29883-0.63867,0.44873-0.95898c-0.25684,0.0293-0.50781,0.05859-0.78662,0.09076
	c0.04688-0.1308,0.13568-0.13568,0.20898-0.15125c0.48871-0.11432,0.9267-0.3623,1.39264-0.53235
	c0.18835-0.06927,0.16211-0.24609,0.24701-0.3623c-0.87305,0.21594-1.59473,0.7735-2.45264,1.00592
	c-0.04736-0.10352,0.0498-0.12598,0.07373-0.20508c-0.17285,0.0694-0.33594,0.13477-0.49805,0.1983
	c-0.00775-0.01862-0.01605-0.03522-0.02295-0.0528c0.35986-0.22754,0.72217-0.45514,1.09717-0.69043
	c0.03711,0.14453-0.09131,0.21869-0.09717,0.39752c0.52197-0.5069,1.18896-0.60449,1.7832-0.8623
	c0.83105-0.36139,1.6167-0.80859,2.41168-1.23834c1.22937-0.66205,2.45697-0.67389,3.68842-0.01855
	c0.87006,0.46576,1.71979,0.96967,2.64746,1.31738c0.54694,0.20508,1.125,0.3418,1.57031,0.77051
	c0.00098-0.15332-0.13177-0.24408-0.08789-0.42194c0.32227,0.28033,0.66797,0.49121,1.01556,0.72375
	C32.69922,29.93359,32.64258,29.86133,32.57318,29.8457z M25.021,21.2749c0.13379,0.05621,0.146,0.16107,0.16888,0.26813
	c0.07825,0.36615,0.28619,0.54779,0.62061,0.55804c0.35449,0.0097,0.50793-0.104,0.59381-0.46185
	c0.03711-0.1543,0.10938-0.28619,0.21191-0.44c-0.09473,0.9707-0.2793,1.19-0.93073,1.13275
	C25.27197,22.2959,24.98492,21.8501,25.021,21.2749z M31.76947,25.09723c0.24811,0.01068,0.4942,0.04388,0.74225,0.05066
	c0.24811,0.0069,0.49811-0.0058,0.74609-0.02087c0.2373-0.0152,0.47272-0.04504,0.70898-0.06891
	c-1.60547-0.18988-2.38568-0.94379-1.94922-2.7583c-0.31146,0.2583-0.59955,0.49707-0.88666,0.73627
	C31.12109,23.02393,31.10938,23.01221,31.09961,23c0.23627-0.22412,0.4707-0.44678,0.72559-0.69092
	c-1.10742,0.06592-2.00879-0.45605-2.48438-1.41986c-0.19635-0.39703-0.3291-0.81842-0.3642-1.25934
	c-0.01764-0.25977-0.12109-0.27386-0.32825-0.19287c-0.25,0.09821-0.48035,0.22321-0.69427,0.38281
	c-0.65143,0.4903-1.03418,1.12109-1.16022,1.94525c-0.08197,0.53912-0.43451,0.81305-0.94617,0.8067
	c-0.53473-0.00488-0.88379-0.25-0.98779-0.75488c-0.08112-0.40088-0.2027-0.77979-0.37415-1.15381
	c-0.31-0.68018-0.87689-1.0274-1.53168-1.28027c-0.14398-0.05573-0.1792-0.0058-0.19531,0.13617
	C22.70612,20,22.59082,20.46869,22.36182,20.89893c-0.48389,0.91895-1.24664,1.39209-2.29303,1.39307
	c-0.04187,0-0.09857-0.03998-0.13281,0.03711c0.14313,0.13379,0.28625,0.271,0.43024,0.40668
	c0.15277,0.09723,0.26862,0.23199,0.37787,0.37701c-0.16699-0.07758-0.30219-0.1958-0.42621-0.32861
	c0.00037-0.00031,0.00067-0.00067,0.00098-0.00098h-0.00006c-0.19476-0.16022-0.39056-0.32031-0.62396-0.51031
	c0.0274,0.12109,0.04095,0.19293,0.05811,0.2652c0.09918,0.44379,0.125,0.88483-0.02783,1.32373
	c-0.1792,0.51807-0.48828,0.8902-1.05707,1.01221c-0.32825,0.06885-0.65582,0.12396-0.98785,0.1651
	c0.73682,0.10785,1.4707,0.16699,2.20905,0.0517c-0.7901,0.30231-1.60315,0.23627-2.42834,0.13629
	c0.5542,0.53851,0.81891,1.20648,1.02014,1.9057c0.125,0.43561,0.11908,0.43561,0.56488,0.36621
	c0.22223-0.0351,0.4292,0.01166,0.61133,0.14935c0.0528,0.03912,0.1167,0.086,0.09869,0.1582
	c-0.02014,0.086-0.09869,0.07623-0.1651,0.06165c-0.05371-0.0108-0.09863-0.0108-0.1167,0.05267
	c-0.08691,0.30371-0.32031,0.5166-0.51324,0.7998c0.27594-0.05658,0.51715-0.10162,0.75592-0.1582
	c0.97803-0.22559,1.82422-0.7334,2.65723-1.26862c0.5918-0.37891,1.1441-0.85248,1.81689-1.07117
	c1.48676-0.48151,2.9165-0.3877,4.25726,0.51746c0.92682,0.62701,1.84869,1.2666,2.91315,1.6543
	c0.42578,0.15436,0.8653,0.20905,1.3067,0.30084c-0.20221-0.23444-0.33014-0.49219-0.41901-0.77148
	c-0.01465-0.04492-0.01465-0.10931-0.08795-0.09375c-0.06726,0.0127-0.1601,0.08984-0.18835-0.00775
	c-0.0274-0.09772,0.08777-0.1485,0.16211-0.19733c0.18359-0.12299,0.38855-0.12299,0.59955-0.09772
	c0.2265,0.02539,0.36914-0.01361,0.43164-0.29675c0.13666-0.62701,0.36719-1.22272,0.79791-1.7207
	c0.07709-0.0899,0.18445-0.15875,0.23529-0.3208C33.36621,25.33978,32.55859,25.38568,31.76947,25.09723z M19.01813,27.18359
	c-0.07434-0.04492-0.13635-0.09381-0.10315-0.19922c0.18713-0.59375,0.45221-1.13666,0.94879-1.53857
	c0.01801-0.01367,0.04541-0.0166,0.09912-0.03662c-0.06299,0.17975-0.15381,0.31744-0.24896,0.4541
	c-0.18512,0.26373-0.35114,0.539-0.49713,0.82812c-0.0708,0.1416-0.06787,0.22748,0.08398,0.32031
	c0.271,0.16595,0.57715,0.28516,0.78613,0.54688C19.70209,27.50201,19.34723,27.37701,19.01813,27.18359z M19.63281,26.84961
	c-0.06793-0.05078-0.08594-0.11908-0.05469-0.19922c0.26166-0.67377,0.62305-1.2793,1.19678-1.73932
	c0.00928-0.00726,0.0293-0.00085,0.06787-0.00085c-0.27789,0.47357-0.54095,0.94141-0.7749,1.42279
	c-0.16064,0.33301-0.15088,0.39362,0.15332,0.625c0.1958,0.14941,0.41162,0.27832,0.61572,0.41901
	c0.02386,0.01556,0.04102,0.04486,0.08008,0.08978C20.396,27.4082,20.01422,27.12988,19.63281,26.84961z M24.02881,26.01172
	c-0.021-0.01373-0.04303-0.02155-0.04199-0.0293c0.00098-0.08594,0.08008-0.2002-0.01801-0.24609
	c-0.0899-0.04291-0.15479,0.07617-0.20898,0.14069c-0.10504,0.12689-0.20172,0.26361-0.28674,0.40417
	c-0.37097,0.6192-1.34607,1.08398-2.09906,0.9776c0.23676-0.08887,0.44775-0.16699,0.67188-0.25098
	c-0.03082-0.02539-0.04102-0.04102-0.05078-0.04102c-0.88519-0.02148-1.12891-0.57031-0.9043-1.41211
	c0.07806-0.29047,0.25726-0.56348,0.34131-0.8418c0.07178-0.23981,0.2251-0.48578,0.18994-0.75592
	c-0.02588-0.2099,0.09082-0.25189,0.25781-0.2641c0.20312-0.01465,0.38721-0.08887,0.55811-0.19489
	c0.354-0.2182,0.43213-0.4873,0.25879-0.86078c-0.02588-0.05713-0.07959-0.10742-0.04401-0.22119
	c0.60504,0.40277,0.99713,0.9668,1.39514,1.6109c0.0141-0.85114-0.19189-1.61383-0.3277-2.39703
	c0.12787,0.11719,0.12598,0.1181,0.17969,0.27002c0.3999,1.1333,0.46527,2.3042,0.39697,3.48828
	C24.2832,25.62299,24.19092,25.83502,24.02881,26.01172z M24.38177,26.00677c-0.04285,0.0069-0.08685,0.00885-0.11078-0.02826
	c-0.03607-0.04883-0.00201-0.08789,0.02881-0.12891c0.23828-0.33789,0.23828-0.33789,0.12939-0.72852
	c0.11871,0.03809,0.16992,0.11572,0.22559,0.18408C24.90631,25.61517,24.77777,25.93951,24.38177,26.00677z M27.39447,25.97662
	c-0.0351,0.04675-0.08588,0.03705-0.13568,0.02338c-0.39941-0.10553-0.49121-0.36328-0.25-0.6958
	c0.05573-0.07812,0.11133-0.16107,0.2392-0.20117c-0.17181,0.30176-0.12592,0.55127,0.12604,0.76318
	C27.40723,25.89258,27.42188,25.9375,27.39447,25.97662z M29.60938,26.98053c0.2168,0.12689,0.43164,0.1933,0.67383,0.27148
	c-0.1582,0.08197-0.29688,0.05847-0.42969,0.02728c-0.73053-0.16107-1.40143-0.41498-1.76562-1.15039
	c-0.06061-0.12213-0.1709-0.22168-0.26556-0.32623c-0.03625-0.039-0.0791-0.10925-0.14264-0.07416
	c-0.07617,0.04095-0.0332,0.11426-0.0127,0.17578c0.01459,0.03711,0.04102,0.07233-0.00201,0.125
	c-0.19617-0.15631-0.28217-0.375-0.2959-0.60547c-0.07117-1.16705-0.0351-2.32373,0.37604-3.43994
	c0.00134-0.00116,0.00208-0.00403,0.00336-0.00537c0.04669-0.27692,0.1781-0.51898,0.32184-0.75732
	c-0.0224,0.24658-0.07129,0.48578-0.17383,0.71289c-0.0166,0.02783-0.04095,0.05609-0.04688,0.08594
	c-0.07812,0.64886-0.25781,1.28516-0.23828,2.00287c0.3916-0.62891,0.78906-1.19476,1.39355-1.61182
	c0.0224,0.12604-0.03217,0.18512-0.05957,0.25c-0.14648,0.35114-0.07422,0.59961,0.24017,0.81305
	c0.1817,0.12311,0.38092,0.2041,0.60059,0.21875c0.18073,0.01324,0.29504,0.05615,0.25305,0.28223
	c-0.03619,0.18988,0.05859,0.36383,0.11517,0.54688c0.11908,0.39215,0.43073,0.70312,0.46088,1.12842
	c0.00305,0.04883,0.01862,0.09668,0.0235,0.14648C30.7207,26.59277,30.4707,26.88672,29.60938,26.98053z M30.73828,27.40039
	c0.19531-0.1192,0.39453-0.23236,0.58594-0.35736c0.4248-0.27356,0.44525-0.35553,0.22656-0.79895
	c-0.17578-0.35736-0.3653-0.70599-0.60345-1.02631c-0.06555-0.08887-0.14941-0.17676-0.13483-0.34375
	c0.26947,0.1441,0.44733,0.35889,0.60553,0.5791c0.2558,0.35547,0.53217,0.70117,0.65039,1.13666
	c0.02435,0.09973,0.0556,0.19342-0.04694,0.26959C31.63867,27.13281,31.25983,27.41803,30.73828,27.40039z M32.54492,27.24408
	c-0.32031,0.15039-0.64062,0.28912-1.05475,0.31842c0.19531-0.21478,0.42194-0.28131,0.61145-0.40039
	c0.52631-0.33203,0.4765-0.18158,0.20306-0.73053c-0.16406-0.33588-0.37109-0.65228-0.58398-1.01849
	c0.15527,0.06689,0.23932,0.15533,0.31537,0.24512c0.29694,0.35162,0.52252,0.74408,0.66412,1.18457
	C32.75983,27.02728,32.73828,27.15228,32.54492,27.24408z M25.38092,21.59369c-0.0249-0.27051-0.02881-0.54779-0.00983-0.81976
	c0.11279-1.49615,0.23633-2.99072,0.35553-4.48682c0.0058-0.06403,0.00189-0.13232,0.05658-0.20312
	c0.1543,1.58301,0.30859,3.15094,0.45801,4.71924c0.02051,0.22998,0.0166,0.46289,0.02826,0.69476
	c0.00983,0.23303-0.12885,0.41803-0.33978,0.44684C25.61133,21.98932,25.4082,21.87299,25.38092,21.59369z M23.6528,25.1802
	c0.0401,0.3159-0.2168,0.5327-0.3618,0.8061c-0.208,0.3926-0.5508,0.5567-0.9272,0.6953c-0.084,0.0303-0.1787,0.0528-0.2666,0.0508
	c-0.6353-0.0205-1.0264-0.3554-0.8384-1.0508c0.166-0.6147,0.5552-1.0727,1.1514-1.3237c0.3496-0.147,0.8486-0.0088,1.0947,0.2739
	C23.6348,24.7798,23.6621,24.958,23.6528,25.1802 M21.6738,24.4678c0.2281-0.106,0.3462-0.355,0.6094-0.3877
	c0.0137-0.001,0.0308-0.0132,0.0376-0.0249c0.0732-0.1304,0.0732-0.1304,0.1763-0.1304c0.7509,0.0034,1.2441,0.397,1.4389,1.1484
	c0.1358-0.518-0.3769-1.6333-0.9028-1.9643c-0.1382,0.4863-0.4902,0.7051-0.9653,0.7739c-0.0791,0.0112-0.1978-0.0356-0.2207,0.1001
	C21.8179,24.1538,21.7368,24.3062,21.6738,24.4678 M30.4434,25.9395c-0.002-0.6597-0.711-1.5127-1.3594-1.6333
	c-0.6729-0.125-1.1895,0.415-1.0606,1.083c0.0518,0.2651,0.2715,0.4096,0.377,0.6303c0.2197,0.4551,0.6387,0.6123,1.0801,0.7012
	C30.0137,26.8281,30.4434,26.457,30.4434,25.9395 M27.7129,25.061c0.0918-0.5219,0.415-0.8379,0.8789-1.0371
	c0.332-0.1421,0.5254-0.0781,0.7871,0.042c0.2383,0.1099,0.4141,0.2862,0.6572,0.4419c-0.1006-0.1836-0.1865-0.333-0.2119-0.5058
	c-0.0117-0.0791-0.0547-0.107-0.1347-0.1128c-0.5186-0.0401-0.9122-0.2613-1.0821-0.8311
	C28.1182,23.6748,27.6367,24.2422,27.7129,25.061 M27.4922,32.7031c-0.0215-0.6777-0.0215-0.6777-0.6309-0.8535
	c-0.5996-0.1699-1.2031-0.2051-1.8164-0.0664c-0.7871,0.1787-0.7881,0.1748-0.8681,0.9736c-0.001,0.0166-0.002,0.0332-0.0039,0.0498
	c-0.0137,0.1329-0.0298,0.252,0.1562,0.3008c0.1738,0.0469,0.2339-0.0254,0.2988-0.164c0.1553-0.3301,0.3223-0.6534,0.4883-0.9776
	c0.0278-0.0586,0.063-0.1289,0.147-0.1015c0.0679,0.0205,0.0659,0.0927,0.0688,0.1455c0.0118,0.1904,0.0161,0.3828,0.0201,0.5722
	c0.0131,0.7735,0.0117,0.7696,0.7905,0.6934c0.1328-0.0117,0.1679-0.0488,0.166-0.1758c-0.0059-0.3242,0-0.6475,0.0098-0.9697
	c0.0039-0.0938-0.0225-0.2315,0.0859-0.2637c0.127-0.0371,0.1504,0.1104,0.1914,0.1885c0.1611,0.3086,0.3154,0.6211,0.4629,0.9355
	c0.0547,0.1153,0.1103,0.1436,0.248,0.1192C27.6074,33.0547,27.4551,32.834,27.4922,32.7031 M26.8535,29.4668
	c0.1143-0.4824,0.2852-0.9375,0.502-1.375c0.0468-0.0977,0.1103-0.2031,0.0039-0.293c-0.127-0.1093-0.2725-0.1845-0.4522-0.1484
	c-0.1299,0.0234-0.1709,0.1172-0.1914,0.2285C26.6211,28.418,26.6709,28.9453,26.8535,29.4668 M24.813,29.4121
	c0.1538-0.416,0.2119-0.8379,0.165-1.2695c-0.0151-0.1289-0.0122-0.2637-0.0888-0.3828c-0.1211-0.1875-0.2793-0.1377-0.4351-0.0703
	c-0.1362,0.0566-0.27,0.1406-0.186,0.3164C24.4858,28.457,24.6709,28.9199,24.813,29.4121 M24.751,27.4121
	c0.7261,0.2188,1.4521,0.2051,2.1787,0.0039C26.2031,27.1621,25.4771,27.166,24.751,27.4121 M26.5,32.3906
	c-0.0586,0.4004-0.0234,0.793,0.0176,1.1826c0.0185,0.1807,0.1933,0.25,0.3847,0.1866c0.1641-0.0528,0.2364-0.1582,0.1543-0.3203
	C26.876,33.0869,26.6855,32.7412,26.5,32.3906 M25.1631,32.3828c-0.189,0.3613-0.3862,0.7188-0.565,1.0859
	c-0.0742,0.1534,0.023,0.2461,0.17,0.2911c0.1777,0.0547,0.3437,0.0214,0.3691-0.1719
	C25.1909,33.1953,25.2148,32.7949,25.1631,32.3828 M26.5254,33.9512c-0.1504-0.1153-0.2344-0.1992-0.2129-0.3418
	c0.0146-0.0977-0.043-0.1201-0.1387-0.1172c-0.2304,0.0098-0.4619,0.0098-0.6919,0.0078c-0.0737-0.002-0.1469,0.002-0.1308,0.0957
	c0.0259,0.1602-0.0879,0.2461-0.2032,0.3555H26.5254 M23.5981,29.3906c0-0.3515-0.0053-0.6386,0.002-0.9258
	c0.0029-0.1308-0.0669-0.1796-0.1782-0.1875c-0.145-0.0097-0.2818,0.0206-0.3789,0.1397c-0.0948,0.1152-0.0552,0.2422,0.0019,0.3506
	C23.1631,28.9951,23.3389,29.1758,23.5981,29.3906 M28.0625,29.1895c0.2422-0.1426,0.3984-0.334,0.5596-0.5196
	c0.0752-0.0879,0.0634-0.1699,0.0009-0.2461c-0.1113-0.1367-0.2617-0.164-0.4277-0.1396c-0.1152,0.0156-0.1348,0.0957-0.1328,0.2002
	C28.0664,28.709,28.0625,28.9316,28.0625,29.1895 M24.0459,32.0137c-0.2817,0.0019-0.5039,0.0371-0.7261,0.0058
	c-0.04-0.0058-0.0957-0.0039-0.101,0.045c-0.0147,0.1865-0.0948,0.3808,0.0053,0.5576c0.0449,0.08,0.1499,0.2216,0.2627,0.0634
	C23.644,32.4629,23.811,32.25,24.0459,32.0137 M27.6152,32.0234c0.208,0.1875,0.3379,0.3653,0.4717,0.5411
	c0.0537,0.0683,0.0635,0.2304,0.2236,0.166c0.1436-0.0596,0.1934-0.1719,0.1758-0.3194c-0.0078-0.082-0.0244-0.164-0.0254-0.2461
	c-0.0019-0.1181-0.0546-0.1728-0.1689-0.1435C28.0869,32.0723,27.8828,32.0137,27.6152,32.0234 M24.5708,33.9355
	c-0.1597-0.1171-0.2319-0.2636-0.208-0.4511c0.0122-0.0899-0.0396-0.1162-0.1108-0.1328c-0.0928-0.0196-0.0831,0.0488-0.0889,0.1054
	c-0.0112,0.1075-0.082,0.166-0.1773,0.1836c-0.2319,0.043-0.4448-0.0107-0.6298-0.1543c-0.146-0.1123-0.1148-0.2578-0.0459-0.4033
	c0.0258-0.0557,0.0039-0.0947-0.0479-0.1211c-0.0351-0.0185-0.0703-0.0078-0.0791,0.0264
	c-0.0483,0.1748-0.2222,0.1748-0.3662,0.2402C23.356,33.625,23.936,33.8379,24.5708,33.9355 M27.083,33.9355
	c0.6416-0.0966,1.2295-0.3046,1.7852-0.7334c-0.1866-0.0019-0.294-0.0576-0.3741-0.1582c-0.0312-0.039-0.0156-0.1269-0.1054-0.0791
	c-0.0703,0.0381-0.0489,0.0918-0.0235,0.1495c0.0625,0.1406,0.0664,0.2783-0.0673,0.3789
	c-0.1788,0.1318-0.3858,0.1865-0.6084,0.1513c-0.0938-0.0156-0.168-0.0683-0.1895-0.1718
	c-0.0117-0.0567,0.0195-0.1475-0.0977-0.1211c-0.0722,0.0195-0.1162,0.0488-0.1054,0.1377
	C27.3203,33.6768,27.2451,33.8232,27.083,33.9355 M29.3018,30.0312c0.2177-0.2851,0.4472-0.457,0.541-0.7343
	c0.0683-0.1953-0.0537-0.2754-0.2022-0.3242c-0.164-0.0547-0.2832,0.0058-0.2978,0.1875
	C29.3232,29.4258,29.3164,29.6934,29.3018,30.0312 M22.3569,29.9961c-0.0131-0.3125-0.021-0.5469-0.0381-0.7832
	c-0.0058-0.0967-0.0087-0.2041-0.1269-0.2422c-0.1231-0.041-0.2271,0.0059-0.3189,0.0811c-0.103,0.0839-0.0781,0.1845-0.0351,0.291
	C21.937,29.5889,22.1563,29.7324,22.3569,29.9961 M22.9868,31.8027c-0.0097-0.0058-0.022-0.0107-0.0337-0.0156
	c-0.1479,0.293-0.2968,0.5859-0.4443,0.8779c-0.0576,0.1143,0.0371,0.167,0.0952,0.2295c0.0698,0.0733,0.1572,0.1348,0.2651,0.0938
	c0.0889-0.0322,0.066-0.125,0.0699-0.1953C22.959,32.4629,22.9722,32.1318,22.9868,31.8027 M28.6797,31.8594
	c0.0156,0.3574,0.0273,0.6504,0.0449,0.9424c0.0039,0.0683-0.0225,0.1611,0.0723,0.1904c0.1094,0.0312,0.1953-0.0254,0.2656-0.0996
	c0.0576-0.0606,0.1514-0.1153,0.0898-0.2266C29.0156,32.415,28.9395,32.1299,28.6797,31.8594 M23.9688,32.4473
	c-0.21,0.1992-0.294,0.4355-0.4288,0.6406c-0.0561,0.085-0.1059,0.1758-0.0239,0.2715c0.0811,0.0918,0.188,0.1543,0.3071,0.1211
	c0.1226-0.0313,0.1456-0.1475,0.1456-0.2598C23.9688,32.9746,23.9688,32.7266,23.9688,32.4473 M27.7021,32.457
	c-0.038,0.3008-0.0185,0.5703,0.001,0.8389c0.0069,0.124,0.0801,0.2295,0.2324,0.1846c0.1377-0.0391,0.3116-0.1104,0.2334-0.2803
	C28.0527,32.9453,27.9297,32.6836,27.7021,32.457 M29.5176,31.2871c0.1172,0.2715,0.1387,0.5,0.1933,0.7227
	c0.0176,0.0683-0.0117,0.1894,0.1016,0.1992c0.1328,0.0137,0.2354-0.0606,0.3184-0.1602c0.0683-0.083,0.0449-0.1582-0.0069-0.247
	C29.9951,31.5762,29.7881,31.4473,29.5176,31.2871 M30.3555,32.0645c0.4179-0.2403,0.9511-0.8985,0.873-1.0977
	c-0.2109,0.2148-0.4277,0.418-0.6719,0.5898C30.3779,31.6836,30.3164,31.8516,30.3555,32.0645 M20.3711,31.0312
	c0.1899,0.4551,0.561,0.7422,0.9419,1.0313c-0.064-0.1211,0.0649-0.2695-0.0532-0.3594
	C20.9658,31.4805,20.6719,31.2559,20.3711,31.0312 M22.0879,31.377c-0.0127-0.0108-0.0249-0.0215-0.0381-0.0333
	c-0.1836,0.1817-0.3989,0.3379-0.5376,0.5469c-0.0972,0.1455,0.0859,0.2383,0.2119,0.2949c0.0938,0.043,0.1841,0.0665,0.21-0.0957
	C21.9722,31.8496,22.0352,31.6143,22.0879,31.377 M29.8906,32.4648c-0.1924-0.0253-0.3359-0.2382-0.5234-0.0429
	c-0.1387,0.1426,0.0937,0.2285,0.0137,0.4013C29.5762,32.6855,29.7207,32.584,29.8906,32.4648 M21.771,32.4648
	c0.1782,0.125,0.3228,0.2247,0.4678,0.3262c-0.0669-0.1445,0.2163-0.2246,0.0493-0.3789
	C22.0928,32.2344,21.9658,32.4375,21.771,32.4648 M22.104,28.7432c0.4702,0.1328,0.6841,0.0224,0.6919-0.3526
	C22.5679,28.5068,22.3408,28.623,22.104,28.7432 M28.333,28.0811c-0.2939-0.168-0.5361-0.3057-0.8037-0.4581
	C27.6719,28.0088,27.9023,28.1465,28.333,28.0811 M28.8457,28.3799c0.0674,0.4101,0.291,0.5146,0.7031,0.3564
	C29.3203,28.6201,29.0928,28.5049,28.8457,28.3799 M24.1011,27.6504c-0.251,0.1387-0.502,0.2461-0.732,0.4336
	C23.7588,28.1426,24.0151,27.9922,24.1011,27.6504 M20.4839,30.7598c0.2212,0.3808,0.5552,0.6093,0.9663,0.7353
	C21.1069,31.2754,20.7969,31.0156,20.4839,30.7598 M29.208,32.2051c0.0781,0.0049,0.3018-0.1719,0.2871-0.2285
	c-0.0166-0.0664,0.0166-0.2051-0.1084-0.1719c-0.1113,0.0303-0.2871,0.0117-0.3105,0.166
	C29.0645,32.041,29.1133,32.1602,29.208,32.2051 M22.606,31.9609c-0.0928-0.1015-0.231-0.1074-0.3438-0.1406
	c-0.0962-0.0264-0.0991,0.0986-0.0962,0.1602c0.0069,0.166,0.1792,0.1875,0.2788,0.2129
	C22.5391,32.2207,22.54,32.0488,22.606,31.9609 M30.8047,31.0937c-0.207,0.125-0.4141,0.25-0.6211,0.375
	c0.0117,0.0206,0.0234,0.0391,0.0371,0.0606C30.458,31.4541,30.6504,31.3047,30.8047,31.0937"/>
</svg>
