<?xml version="1.0" encoding="utf-8"?>
<!-- Generator: Adobe Illustrator 26.0.1, SVG Export Plug-In . SVG Version: 6.00 Build 0)  -->
<svg version="1.1" id="Layer_1" xmlns="http://www.w3.org/2000/svg" xmlns:xlink="http://www.w3.org/1999/xlink" x="0px" y="0px"
	 viewBox="14.8638 17.9746 21.3091 16.2988" style="enable-background:new 14.8638 17.9746 21.3091 16.2988;" xml:space="preserve">
<style type="text/css">
	.st0{fill:#27662F;}
	.st1{fill:#FFFFFF;}
</style>
<path class="st0" d="M25.4551,34.2734c-4.1861,0.002-7.6939-3.1738-8.104-7.3281c-0.107-1.0898-0.002-2.1562,0.3139-3.2012
	c0.0352-0.1142,0.0728-0.207-0.0449-0.309c-0.498-0.4283-0.8003-1-1.042-1.587c-0.3183-0.7729-0.7383-1.4633-1.3271-2.0532
	c-0.128-0.1289-0.2481-0.269-0.3291-0.4341c-0.0279-0.06-0.1011-0.1259-0.023-0.2016c0.0689-0.0684,0.1431-0.0235,0.209,0.0049
	c0.5361,0.2309,1.0322,0.5278,1.4932,0.8867c0.229,0.1782,0.4599,0.353,0.6391,0.5884c0.2969,0.3896,0.6856,0.6118,1.1739,0.7168
	c0.2851,0.062,0.4287,0.017,0.6069-0.2149c3.2822-4.2729,9.7856-4.2099,12.9927,0.1211c0.1181,0.1616,0.2226,0.2197,0.4043,0.1377
	c0.083-0.0371,0.1728-0.0669,0.2617-0.0737c0.5273-0.0474,0.8457-0.4014,1.1758-0.7583c0.584-0.6309,1.3066-1.0669,2.0859-1.4131
	c0.0723-0.0318,0.1475-0.0498,0.207,0.0132c0.0635,0.0669-0.0166,0.1211-0.0371,0.1748c-0.0703,0.1723-0.1953,0.311-0.3232,0.4384
	c-0.585,0.5831-1.0088,1.2637-1.3242,2.0259c-0.2608,0.628-0.5782,1.2339-1.1162,1.6822c-0.1299,0.1069-0.087,0.2075-0.0518,0.3305
	c1.1973,4.1011-0.9326,8.4009-4.917,9.9273C27.4355,34.1094,26.5234,34.2734,25.4551,34.2734"/>
<path class="st1" d="M33.06451,23.04791c0.04486-0.01569,0.06146,0.00531,0.04877,0.05219
	c-0.01648-0.01697-0.03229-0.034-0.0495-0.0517C33.06403,23.04822,33.06427,23.0481,33.06451,23.04791z M19.18018,25.9668
	c-0.37396-0.10547-0.52539-0.54688-0.27295-0.84772c0.12695-0.15228,0.09479-0.26605-0.02832-0.35297
	c-0.14502-0.10303-0.2627,0.02588-0.32178,0.13177c-0.09912,0.1792-0.18604,0.37213-0.16113,0.54791
	c0,0.22607,0.01422,0.40771,0.12012,0.56488c0.16986,0.2569,0.46289,0.31354,0.68799,0.13971
	c0.04388-0.03522,0.07281-0.06641,0.06299-0.12311C19.25879,25.97662,19.22308,25.97852,19.18018,25.9668z M32.12299,24.78607
	c-0.10736,0.10791-0.10931,0.2041,0.00299,0.33691c0.23145,0.27301,0.09473,0.72272-0.24609,0.85162
	c-0.0733,0.02539-0.08197,0.07422-0.09381,0.12701c-0.01459,0.05945,0.04205,0.08197,0.086,0.10248
	c0.14941,0.06927,0.2998,0.0752,0.44824-0.01459c0.2832-0.17004,0.3125-0.44629,0.31061-0.75354
	c-0.01959-0.20105,0.01746-0.44189-0.17975-0.60199C32.35938,24.76221,32.24609,24.66107,32.12299,24.78607z M35.94141,19.35303
	c-0.07318,0.09277-0.10352,0.14496-0.14648,0.18115c-0.54004,0.45905-0.88861,1.06592-1.26361,1.65094
	c-0.08014,0.125-0.15533,0.25867-0.20123,0.39886c-0.22845,0.70599-0.64459,1.28711-1.17969,1.78809
	c-0.26172,0.24512-0.42969,0.54492-0.57031,0.86371c-0.08398,0.19104-0.1485,0.3692-0.4209,0.38043
	c-0.19629,0.00677-0.35059,0.32666-0.22949,0.48779c0.13672,0.18311,0.01373,0.27393-0.07031,0.37598
	c-0.48639,0.5932-1.07129,1.0766-1.70709,1.50244c-0.18347,0.125-0.3642,0.25391-0.5625,0.40625
	c0.35162-0.13666,0.3028,0.08594,0.2832,0.27155c-0.03217,0.32996-0.0058,0.66211-0.02338,0.99017
	c-0.03119,0.55859-0.31543,1.00189-0.7168,1.37689c-0.48444,0.45325-1.0683,0.79114-1.51764,1.28723
	c-0.2002,0.2207-0.39636,0.4472-0.59955,0.664c-0.33203,0.35156-0.72955,0.53711-1.2207,0.58197
	c-0.83795,0.07819-1.5097-0.164-2.02203-0.84961c-0.45502-0.60925-1.10297-1.02539-1.64111-1.55365
	c-0.47986-0.47174-0.81879-0.99615-0.85687-1.68652c-0.021-0.4043-0.16602-0.79779-0.10791-1.21088
	c0.00983-0.06842-0.08301-0.0918-0.13477-0.13092c-0.66211-0.49609-1.33014-0.98633-1.85303-1.63873
	c-0.0874-0.10925-0.22711-0.19818-0.06738-0.38806c0.12311-0.14899-0.06201-0.48694-0.26904-0.49323
	c-0.23975-0.00586-0.31146-0.16406-0.37695-0.3277c-0.15179-0.375-0.36279-0.70306-0.65961-0.98236
	c-0.50934-0.48004-0.8443-1.06494-1.1192-1.71191c-0.31104-0.73291-0.76709-1.39209-1.34808-1.95123
	c-0.07672-0.07367-0.16412-0.13861-0.23291-0.28357c0.49799,0.21088,0.9209,0.46088,1.29675,0.79877
	c0.36145,0.3252,0.66412,0.69922,0.94733,1.08691c0.19482,0.26709,0.43512,0.47223,0.73187,0.62738
	c-0.10095-0.11517-0.20209-0.23035-0.32074-0.36615c0.20795-0.02594,0.38379,0.0401,0.55957,0.08398
	c0.61328,0.15277,1.19818,0.39008,1.78711,0.61279c0.10498,0.03998,0.1983,0.05621,0.30908,0.01422
	c0.354-0.13385,0.63092-0.0332,0.82709,0.28998c0.01715,0.02692,0.04401,0.04791,0.06689,0.0708
	c0.00391,0.00439,0.01324,0.00439,0.02203,0.00732c0.01807-0.09814-0.02002-0.19244-0.07178-0.25635
	c-0.26416-0.3208-0.09814-0.60596,0.06396-0.88477c0.75488-1.30133,1.93799-1.96924,3.36078-2.31403
	c0.94495-0.22797,1.80914-0.03711,2.68701,0.31213c0.8858,0.35297,1.54114,0.9541,2.11334,1.68207
	c0.16406,0.21094,0.27045,0.45599,0.40625,0.68262c0.06152,0.09912,0.02832,0.17627-0.03125,0.24811
	c-0.12695,0.15619-0.14355,0.3432-0.18164,0.5683c0.04883-0.06543,0.07623-0.09521,0.09369-0.13129
	c0.17871-0.3399,0.26184-0.396,0.6416-0.315c0.28033,0.0611,0.52454,0.03125,0.79114-0.0791
	c0.5517-0.229,1.1142-0.42871,1.70111-0.55664c0.1084-0.02435,0.22168-0.03906,0.38965-0.06738
	c-0.14648,0.16309-0.24805,0.2793-0.35156,0.39398c0.2442-0.12585,0.46576-0.27386,0.63477-0.50287
	c0.56055-0.75879,1.16315-1.4751,2.0498-1.87891c0.05963-0.02783,0.11914-0.05811,0.1806-0.08502
	C35.83112,19.38721,35.85352,19.38092,35.94141,19.35303z M17.91022,23.1001c0.01996-0.01898,0.03656-0.03711,0.0556-0.05621
	c-0.14404-0.16107-0.29102-0.31586-0.48584-0.42181C17.59277,22.81097,17.73578,22.96777,17.91022,23.1001z M33.54492,22.62402
	c-0.1875,0.11279-0.34375,0.2569-0.48444,0.4209c0.00116,0.00122,0.00214,0.00226,0.0033,0.00348
	c-0.5799,0.41669-1.17145,0.8125-1.81378,1.12543c-0.44733,0.21826-0.45209,0.20898-0.78607-0.16315
	c-0.00885-0.00775-0.03033-0.00476-0.06165-0.0097c-0.02435,0.09082-0.05267,0.18414-0.0791,0.27783
	c-0.08301,0.29297-0.48627,0.44238-0.75677,0.28906c-0.24408-0.1402-0.41992-0.36475-0.66211-0.51074
	c0.10742,0.16406,0.16803,0.36578,0.32812,0.48199c0.39056,0.27777,0.17188,0.99695-0.20111,1.15039
	c-0.6778,0.27917-1.30859,0.64246-1.88483,1.09961c-0.18256,0.14447-0.36719,0.28607-0.55469,0.42279
	c-0.23047,0.16602-0.53522,0.1709-0.70697-0.00879c-0.18274-0.19434-0.07825-0.4043,0.02148-0.5957
	c0.0722-0.13672,0.16986-0.26465,0.24799-0.40131c0.0293-0.04889,0.10938-0.08405,0.05762-0.18274
	c-0.27441,0.21295-0.4668,0.49609-0.68652,0.76862c-0.35059-0.52441-0.67139-1.05371-1.11908-1.48291
	c0.23291,0.4682,0.4765,0.9292,0.78851,1.34912c0.16016,0.21478,0.06396,0.38379-0.0376,0.56842
	c-0.10303,0.18646-0.27631,0.125-0.4223,0.11029c-0.1377-0.01373-0.2627-0.08301-0.37891-0.17194
	c-0.37024-0.28015-0.7442-0.55756-1.12604-0.82129c-0.43115-0.29779-0.91986-0.49017-1.38721-0.72357
	c-0.41455-0.20703-0.48285-0.6582-0.16156-0.9873c0.04779-0.04883,0.10101-0.0957,0.11182-0.16803
	c-0.27692,0-0.45612,0.2652-0.76813,0.17444c-0.35791-0.104-0.27289-0.43121-0.40973-0.64313
	c-0.09027,0.01459-0.11719,0.09369-0.1582,0.14893c-0.1308,0.16901-0.24896,0.21576-0.47797,0.12109
	c-0.73389-0.30713-1.33301-0.82812-2.01221-1.22021c-0.0498-0.0127-0.06689,0.00928-0.05469,0.05621
	c0.6167,0.60297,1.33008,1.0639,2.12207,1.40381c0.15869,0.06927,0.32373,0.1709,0.4848-0.0918
	c0.02014,0.42377,0.34619,0.41498,0.57184,0.51508c0.1123,0.0498,0.1441,0.09473,0.16119,0.20648
	c0.04291,0.29944,0.15076,0.56165,0.47601,0.66315c0.05518,0.01758,0.10596,0.04199,0.12695,0.10736
	c0.16699,0.53522,0.52002,0.95319,0.85895,1.3819c0.11908,0.14941,0.26318,0.25,0.44818,0.29388
	c0.24512,0.05865,0.49066,0.11725,0.79688,0.1875c-0.62598,0.1817-0.57178,0.71686-0.69086,1.15344
	c-0.37891-0.13684-0.41803-0.1817-0.55914-0.58789c-0.12396-0.35651-0.25977-0.71002-0.35498-1.1319
	c-0.17383,0.26556-0.27002,0.49805-0.33008,0.74609c-0.03271,0.1377-0.09271,0.22559-0.23682,0.2793
	c-0.21002,0.0733-0.33099,0.22845-0.3252,0.48926c0.06006-0.07715,0.1001-0.1416,0.15326-0.19238
	c0.07281-0.06842,0.1709-0.06348,0.2608-0.04688c0.05524,0.00977,0.07611,0.06836,0.0639,0.1192
	c-0.1001,0.41595,0.1192,0.66986,0.43024,0.89056c0.10498,0.07623,0.1817,0.19141,0.27197,0.289
	c0.44482,0.48053,0.88672,0.97565,1.479,1.2774c0.32568,0.16602,0.6001,0.36523,0.854,0.67969
	c-0.39398-0.14545-0.75201-0.27637-1.17328-0.42969c0.75,0.83594,2.9248,0.74414,3.37396,0.01562
	c-0.32227,0.10059-0.61127,0.25586-0.95697,0.30566c0.16211-0.2373,0.3222-0.41699,0.58301-0.51465
	c0.24701-0.08984,0.45599-0.26172,0.66296-0.43164c0.46881-0.3877,0.8399-0.875,1.29303-1.27539
	c0.2334-0.2041,0.38477-0.39838,0.33789-0.71289c-0.0127-0.07812-0.04388-0.18549,0.06348-0.21289
	c0.0918-0.02643,0.2002-0.01953,0.27631,0.06537c0.04303,0.04694,0.07623,0.1026,0.13293,0.18073
	c-0.00201-0.24609-0.09381-0.41412-0.28912-0.47754c-0.19629-0.06549-0.25983-0.19916-0.30078-0.375
	c-0.05273-0.22559-0.14264-0.43256-0.3017-0.64545c-0.0694,0.23627-0.12213,0.4433-0.19049,0.64545
	c-0.07135,0.21191-0.164,0.41705-0.2334,0.62891c-0.0791,0.23834-0.24615,0.3584-0.47955,0.41504
	c-0.039-0.48834-0.07806-0.8808-0.69226-1.18164c0.14551-0.02435,0.2666-0.04486,0.38959-0.0625
	c0.38092-0.05365,0.70898-0.19525,0.94141-0.53125c0.25201-0.36133,0.5127-0.71484,0.67578-1.12891
	c0.04883-0.125,0.11719-0.21289,0.25391-0.24225c0.16803-0.03705,0.23438-0.14246,0.25781-0.31537
	c0.03711-0.26611,0.10938-0.51123,0.4375-0.58978c0.20697-0.05029,0.35938-0.2002,0.375-0.44244
	c0.00287-0.05469-0.00189-0.12799,0.07031-0.14307c0.07416-0.01459,0.0918,0.05518,0.12311,0.10107
	c0.07129,0.1001,0.11908,0.2099,0.29095,0.14893c0.85254-0.30371,1.56354-0.82184,2.2168-1.42871
	C33.28912,22.96869,33.43549,22.81403,33.54492,22.62402z M26.0645,28.916c-0.0567-0.4062-0.043-0.7588-0.0332-1.1074
	c0.0029-0.0723,0.0449-0.166-0.0333-0.209c-0.2265-0.123-0.3847-0.3281-0.5888-0.5107c-0.0484,0.2275-0.166,0.3818-0.333,0.4795
	c-0.1392,0.082-0.147,0.1757-0.1153,0.3095c0.0772,0.3213,0.0992,0.6436,0.0562,0.9834c-0.1021-0.1064-0.0703-0.2431-0.1089-0.3584
	c-0.1182-0.3506-0.4111-0.5732-0.79-0.5879c-0.3721-0.0127-0.459,0.2666-0.563,0.5323c-0.0391,0.0986-0.0772,0.207-0.083,0.3115
	c-0.0113,0.2275-0.023,0.457,0.1518,0.6543c0.4278,0.4853,0.7901,1.0205,1.0679,1.6084c0.1689,0.3584,0.4233,0.6699,0.8237,0.6719
	c0.3887,0.0019,0.6407-0.3028,0.8106-0.6504c0.2422-0.4912,0.498-0.9805,0.872-1.3838c0.4112-0.4463,0.4629-0.9102,0.1846-1.4346
	c-0.1338-0.2519-0.2851-0.3418-0.5625-0.3008c-0.3457,0.0489-0.5781,0.2266-0.6201,0.4707
	C26.1729,28.5527,26.1758,28.7168,26.0645,28.916 M24.5381,27.5801c-0.6802,0.166-1.4883-0.1094-1.874-0.6328
	c-0.1289-0.1739-0.19-0.3653-0.1841-0.5782c0.0029-0.1093,0.021-0.2011,0.1772-0.1367
	C23.022,26.3828,24.3018,27.292,24.5381,27.5801 M26.3828,27.6152c0.6543-0.5488,1.2715-1.0195,1.9629-1.3828
	c0.1719-0.0898,0.1885,0.0586,0.1719,0.1602c-0.0528,0.3457-0.2012,0.6465-0.4727,0.875c-0.1465,0.123-0.3066,0.2168-0.5029,0.25
	C27.1836,27.5801,26.8281,27.6289,26.3828,27.6152 M28.6973,27.6035c0.2617,0.4893,0.2539,0.9434,0.2138,1.3975
	c-0.0107,0.122-0.123,0.1826-0.2519,0.2041c-0.1641,0.0273-0.2608-0.0528-0.3594-0.1651c-0.0947-0.1064-0.0264-0.1845,0.0225-0.2666
	C28.5234,28.4336,28.5977,28.0508,28.6973,27.6035 M22.3208,27.6113c0.0664,0.252,0.1201,0.4473,0.1704,0.6426
	c0.0469,0.1856,0.1226,0.3594,0.2178,0.5273c0.0942,0.1641,0.0278,0.336-0.1528,0.4102c-0.1661,0.0693-0.4131-0.0117-0.4332-0.1738
	C22.0659,28.5566,22.0762,28.0957,22.3208,27.6113 M27.8848,30.0215c-0.0762-0.2168-0.1358-0.4014-0.2578-0.5615
	c-0.0665-0.0889,0.0214-0.1993,0.0957-0.252c0.1084-0.0801,0.2412-0.1289,0.3935-0.2031
	C28.0215,29.3535,28.0898,29.6953,27.8848,30.0215 M23.1489,30.0273c-0.165-0.289-0.2051-0.5566-0.1631-0.9804
	c0.1851,0.0381,0.2862,0.1718,0.3843,0.3144c0.0401,0.0586,0.0459,0.0977,0,0.1524C23.2568,29.6465,23.2109,29.8164,23.1489,30.0273
	 M27.2344,30.6074c0.0742-0.3056,0.1474-0.6054,0.2217-0.9053C27.8232,29.9902,27.7412,30.3418,27.2344,30.6074 M23.562,29.6641
	c0.0249,0.1914,0.0401,0.3369,0.0669,0.4804c0.0259,0.1367,0.0669,0.2696,0.103,0.4082
	C23.2559,30.3105,23.2241,30.1621,23.562,29.6641 M24.0049,30.6768c-0.1421-0.3077-0.2197-0.587-0.2588-0.8936
	C24.1011,30.0928,24.1631,30.2949,24.0049,30.6768 M27.0234,30.6797c-0.25-0.3828,0.1065-0.5615,0.211-0.8125
	C27.2227,30.1465,27.1465,30.4043,27.0234,30.6797 M24.27,30.54c0.0772,0.1592,0.189,0.2891,0.2442,0.4873
	c-0.1763-0.0312-0.3101-0.1054-0.378-0.2187C24.1001,30.7471,24.1631,30.6094,24.27,30.54 M22.8149,29.25
	c0.0083,0.168,0.0152,0.2861,0.021,0.4258c-0.1411-0.041-0.2617-0.1387-0.2758-0.2305C22.542,29.3477,22.7178,29.3555,22.8149,29.25
	 M28.1699,29.709c0.0508-0.166-0.0088-0.291,0.0645-0.4024C28.5078,29.4395,28.5078,29.4395,28.1699,29.709 M26.7383,27.792
	c-0.1426,0.0557-0.2852,0.1123-0.4473,0.1748C26.332,27.6338,26.5684,27.7695,26.7383,27.792 M26.5938,31.001
	c0.038-0.1592,0.0976-0.2725,0.1679-0.3848C26.9229,30.8496,26.9229,30.8496,26.5938,31.001 M24.3252,27.8008
	c0.1489-0.0039,0.3447-0.0938,0.4126,0.167C24.584,27.9062,24.4541,27.8535,24.3252,27.8008"/>
</svg>
