<?xml version="1.0" encoding="utf-8"?>
<!-- Generator: Adobe Illustrator 26.0.1, SVG Export Plug-In . SVG Version: 6.00 Build 0)  -->
<svg version="1.1" id="Layer_1" xmlns="http://www.w3.org/2000/svg" xmlns:xlink="http://www.w3.org/1999/xlink" x="0px" y="0px"
	 viewBox="17.4932 16.7856 16.0537 18.354" style="enable-background:new 17.4932 16.7856 16.0537 18.354;" xml:space="preserve">
<style type="text/css">
	.st0{fill:#27662F;}
	.st1{fill:#FFFFFF;}
</style>
<path class="st0" d="M17.9731,30.8701c-0.185-0.3584-0.1679-0.6924-0.0629-0.9912c0.163-0.4609,0.062-0.8672-0.064-1.3144
	c-0.8091-2.8633-0.2241-5.4307,1.7109-7.6905c0.27-0.3159,0.417-0.6992,0.5591-1.0761c0.273-0.7271,0.7656-1.253,1.416-1.6451
	c0.4898-0.2949,0.982-0.5879,1.482-0.8657c0.6088-0.3403,1.2929-0.436,1.9677-0.4809c1.4947-0.0992,2.9273,0.1547,4.2486,0.9028
	c0.4267,0.2412,0.8047,0.5239,1.0468,0.9648c0.0743,0.1372,0.1543,0.2813,0.2872,0.3721c0.746,0.5112,0.9941,1.3203,1.2666,2.1123
	c0.0459,0.1357,0.0966,0.2607,0.1777,0.3789c1.6494,2.3887,1.9775,4.9492,0.959,7.668c-0.2002,0.5351-0.0655,1.2656,0.3545,1.583
	c0.0781,0.0615,0.2324,0.1142,0.1396,0.2705c-0.084,0.1387-0.206,0.0596-0.3135,0.0342c-0.2929-0.0635-0.5263-0.2393-0.75-0.4268
	c-0.0937-0.0771-0.1367-0.0752-0.207,0.0293c-0.1445,0.2129-0.3027,0.416-0.4609,0.6172c-0.0606,0.0742-0.0567,0.1523-0.0635,0.2344
	c-0.0332,0.3965-0.0654,0.7929-0.1006,1.1894c-0.0117,0.1319-0.0488,0.2696-0.207,0.2569
	c-0.1475-0.0127-0.1504-0.1534-0.1553-0.2725c-0.0107-0.2246-0.0439-0.4434-0.123-0.6826c-0.3155,0.2871-0.6299,0.5556-0.9698,0.79
	c-0.5078,0.3496-1.0381,0.6621-1.6211,0.8633c-0.2714,0.0947-0.4453,0.25-0.5175,0.5147c-0.1094,0.4013-0.4161,0.5869-0.7686,0.7138
	c-0.6533,0.2363-1.334,0.25-2.0171,0.1875c-0.3218-0.0293-0.6401-0.0967-0.9619-0.1289c-0.4751-0.0449-0.7852-0.3037-0.9438-0.7324
	c-0.0972-0.2598-0.2603-0.3789-0.5162-0.4668c-0.9961-0.3457-1.6621-0.7705-2.8159-1.7363
	c-0.1094,0.2949-0.209,0.5898-0.3594,0.8593c-0.1396,0.2481-0.2968,0.4815-0.496,0.6836c-0.0577,0.0567-0.1348,0.1143-0.2208,0.0645
	c-0.0917-0.0527-0.0341-0.1309-0.0102-0.1973c0.2383-0.6172,0.3203-1.2695,0.4072-1.9189c0.0191-0.1475-0.0019-0.2686-0.104-0.3897
	c-0.2588-0.3095-0.4658-0.6601-0.6831-1.0215C18.2891,30.3535,18.145,30.5898,17.9731,30.8701"/>
<path class="st1" d="M28.41022,27.54492c0.07031,0.14258,0.07806,0.3067-0.00391,0.4483
	c-0.17389,0.29388-0.49219,0.32709-0.73743,0.08685c-0.05951-0.05859-0.03217-0.5528,0.04303-0.5899
	c0.18256-0.09369,0.12988,0.13385,0.21967,0.17194c0.10449-0.05859-0.04779-0.24799,0.13684-0.26562
	C28.20898,27.38177,28.34277,27.41699,28.41022,27.54492z M29.21393,28.57709c0.16785-0.74121,0.59265-1.32709,1.10449-1.86029
	c-0.28424,1.15332-0.35944,2.32233-0.38293,3.50391c-0.0097,0.5293-0.17377,1.03522-0.49408,1.48627
	c-0.42383,0.59961-0.97662,1.10754-1.33008,1.76764c0.04785-0.15039,0.09766-0.30469,0.14545-0.45703
	c-0.23529,0.30084-0.40125,0.63281-0.47949,0.99414c-0.08197,0.36719-0.30066,0.56641-0.64551,0.67377
	c-0.26459,0.08209-0.53406,0.13092-0.8056,0.1524c-0.72064,0.05658-1.43994,0.05859-2.15137-0.11127
	c-0.2998-0.07233-0.52203-0.26862-0.6377-0.51965c-0.43604-0.94714-1.1001-1.73035-1.74023-2.5351
	c-0.0459-0.05859-0.09076-0.11719-0.1377-0.17676c-0.34619-0.44244-0.55707-0.91504-0.5083-1.50879
	c0.09131-1.12012-0.20166-2.20703-0.36481-3.36334c0.60602,0.6778,0.75494,1.51373,1.06604,2.27539
	c-0.08502-0.77631-0.2193-1.54486-0.55908-2.24799c-0.11823-0.24219-0.40094-0.38971-0.63483-0.54877
	c-0.28223-0.19342-0.54828-0.4082-0.72998-0.70172c-0.21631-0.34808-0.30914-0.71289-0.09235-1.10303
	c0.15924-0.28809,0.31305-0.58008,0.48291-0.896c-0.26459,0.08594-0.27087-0.0611-0.28656-0.24811
	c-0.07031-0.79974,0.16455-1.49066,0.70996-2.07465c0.25104-0.27002,0.43463-0.54694,0.39404-0.94922
	c-0.06641-0.63672,0.31055-1.10199,0.69489-1.54102c0.39886-0.45801,0.87689-0.84277,1.39398-1.15668
	c0.48187-0.29401,1.04688-0.36823,1.60498-0.39703c1.09674-0.05908,2.1709,0.0849,3.20514,0.45801
	c0.57031,0.20599,1.08197,0.52783,1.539,0.93463c-0.23242-0.0918-0.44531-0.23492-0.7207-0.24274
	c0.43646,0.2597,0.64648,0.68994,0.89648,1.0957c0.11328,0.185,0.30078,0.3291,0.4668,0.479
	c0.32709,0.29541,0.52338,0.6582,0.60938,1.0874c0.02155,0.11279,0.0459,0.23193,0.09863,0.33301
	c0.35248,0.66888,0.28711,1.38092,0.22357,2.0918c-0.0058,0.06201,0.05859,0.19922-0.12299,0.18018
	c-0.06061-0.00739-0.00781,0.07861,0.01764,0.11182c0.20599,0.2807,0.28217,0.61383,0.39447,0.935
	c0.04688,0.13483,0.02832,0.25403-0.03522,0.37994c-0.17957,0.3501-0.42377,0.64545-0.67767,0.94629
	c-0.52252,0.62109-1.19922,1.13867-1.4043,1.98828C29.25983,28.0625,29.1748,28.30469,29.21393,28.57709z M21.75781,29.87701
	c-0.125-0.30859-0.08893-0.66699-0.25983-0.97272c-0.02386-0.04297-0.05219-0.09772-0.10791-0.0791
	c-0.02826,0.00879-0.05115,0.06738-0.05219,0.10449c-0.0127,0.33014-0.01807,0.66211,0.03809,0.99023
	c0.01904,0.1192,0.09283,0.19916,0.22125,0.18945C21.73389,30.09961,21.71478,29.97272,21.75781,29.87701z M21.4248,20.05811
	c0.125,0.18896,0.22797,0.23682,0.43408,0.06787c0.16602-0.13818,0.30914-0.26318,0.35303-0.521
	c-0.03809-0.0791-0.15283-0.11377-0.24902-0.1748c-0.07471-0.04926-0.14801-0.07227-0.22412,0.00494
	c-0.11475,0.11908-0.23199,0.23578-0.32379,0.37689C21.35791,19.90088,21.36517,19.96777,21.4248,20.05811z M21.90088,24.47119
	c-0.16986-0.23627-0.40186-0.34717-0.49896-0.63617c0.4751,0.12787,0.875,0.37689,1.35101,0.3291
	c0.46185-0.04694,0.90625-0.18024,1.39795-0.315c-0.44476,0.44775-0.96387,0.64496-1.50775,0.81787
	c0.26318,0.04492,0.52386,0.06201,0.78369,0.07709c0.08441,0.00494,0.16699,0.00201,0.2373-0.05505
	c0.37976-0.31305,0.81879-0.52881,1.24408-0.77301c0.34961-0.20209,0.34381-0.21191,0.64838,0.07416
	c0.12311-0.33539,0.3584-0.23816,0.5899-0.15228c0.41211,0.1543,0.83789,0.30811,1.14551,0.63232
	c0.3916,0.4126,0.84473,0.25977,1.29779,0.2207c-0.64636-0.05914-1.13666-0.41315-1.60345-0.82574
	c0.11139,0.0318,0.21875,0.06995,0.32819,0.09381c0.74207,0.15619,1.48041,0.185,2.19916-0.12109
	c0.05084-0.02301,0.10742-0.07471,0.15436-0.01172c0.04779,0.06494-0.02936,0.09961-0.0625,0.1416
	c-0.04694,0.06342-0.10162,0.12201-0.18561,0.22021c0.2168-0.05316,0.37799-0.11719,0.50299-0.23779
	c0.19037-0.18207,0.36029-0.39209,0.72357-0.22308c-0.10345-0.17828-0.23541-0.17731-0.33398-0.25104
	c0.22168-0.19916,0.33008-0.43115,0.39062-0.70508c-0.10742,0.021-0.12201,0.10602-0.16315,0.16211
	c-0.24408,0.32758-0.35046,0.3457-0.65906,0.10602c-0.03912-0.03033-0.08405-0.05334-0.12415-0.08301
	c-0.26556-0.2002-0.58099-0.31012-0.87787-0.45319c0.30469,0.01025,0.54877,0.18799,0.83008,0.27588
	c-0.05469-0.07764-0.11719-0.14502-0.18951-0.1958c-0.73425-0.52393-1.86224-0.53223-2.57605,0.31976
	c-0.12024,0.14606-0.24811,0.28815-0.40344,0.40143c-0.1806,0.12988-0.33978,0.07861-0.45306-0.08112
	c-0.0918-0.13226-0.15332-0.2851-0.11029-0.46631c0.06335-0.25189,0.15039-0.48865,0.27045-0.71869
	c0.14355-0.28027,0.29205-0.56006,0.45215-0.83301c-0.4765,0.35504-0.7597,0.85205-1.0351,1.354
	c-0.06641,0.11914-0.08301,0.35114-0.19934,0.33789c-0.16595-0.01996-0.1767-0.25299-0.23578-0.39795
	c-0.19678-0.49512-0.60889-0.76611-1.01508-1.04785c0.15619,0.21686,0.32996,0.41705,0.49506,0.62402
	c0.24121,0.29883,0.25494,0.6416,0.146,0.98883c-0.086,0.2749-0.30811,0.31775-0.5191,0.12396
	c-0.16498-0.15088-0.31879-0.31976-0.50287-0.44391c-0.34082-0.229-0.68213-0.51117-1.13922-0.36615
	c-0.5849,0.18695-1.16498,0.39105-1.62061,0.83008c-0.03998,0.03809-0.07416,0.08588-0.14838,0.06097
	c-0.26373-0.08777-0.40192-0.49121-0.23682-0.72015c0.09521-0.13184,0.19922-0.25684,0.29883-0.3847
	c-0.20264,0.0918-0.33594,0.2558-0.46582,0.4209c-0.25781,0.3291-0.26508,0.4541,0.00592,0.75867
	c0.14398,0.15924,0.24896,0.2901,0.0473,0.4751c-0.05029,0.04401-0.09131,0.11432-0.07715,0.18903
	c0.04785,0.021,0.06982-0.0058,0.0957-0.02393c0.31543-0.2207,0.31104-0.21777,0.61035,0.0332
	C21.40088,24.18408,21.59912,24.354,21.90088,24.47119z M23.9292,25.09277c-0.27832,0.35645-0.5791,0.68451-0.88721,1.00684
	c0.66699-0.45898,1.19482-1.05371,1.646-1.72559c-0.3418,0.23096-0.68408,0.46289-1.03418,0.70215
	C23.75592,25.14502,23.83893,25.0249,23.9292,25.09277z M24.48102,26.24609c0.23779-0.0625,0.52576-0.05267,0.62299-0.18359
	c0.13281-0.18262,0.34082-0.36328,0.32721-0.64551c-0.00739-0.12598,0.05457-0.25592,0.09216-0.41022
	c0.125,0.19,0.11725,0.38721,0.16614,0.56842c0.05847,0.21869,0.20697,0.39941,0.3808,0.50293
	c0.16406,0.09955,0.39362,0.09076,0.62988,0.13666c-0.21191-0.65619-0.6123-1.1557-0.99811-1.66296
	c-0.07031-0.0918-0.16107-0.17291-0.28607-0.04504C24.94922,24.98682,24.66498,25.5625,24.48102,26.24609z M27.99707,26.09961
	c-0.30957-0.375-0.66119-0.71143-0.96185-1.11774c0.09961-0.01068,0.1709-0.01898,0.24207-0.02679
	c-0.38666-0.23926-0.78406-0.4444-1.17175-0.67389C26.70209,24.9248,27.24512,25.62012,27.99707,26.09961z M22.8501,32.02148
	c-0.12109-0.41211-0.21918-0.83008-0.29932-1.25201c-0.07367-0.39246-0.20068-0.77539-0.30469-1.16205l-0.0791,0.01367
	c0.00592,0.12109,0.01422,0.24219,0.02002,0.36328c0.01709,0.3222,0.0708,0.64844,0.03906,0.96582
	c-0.05029,0.48529,0.24615,0.80182,0.4707,1.15918c0.03424,0.05475,0.10114,0.07422,0.15234,0.04492
	C22.90192,32.12598,22.86279,32.06641,22.8501,32.02148z M26.52338,33.67969c-0.10638-0.18951-0.17957-0.44141-0.40326-0.46387
	c-0.42871-0.04102-0.83099,0.1026-1.21533,0.2998C25.4502,33.52728,25.99408,33.46869,26.52338,33.67969z M28.30859,31.49902
	c0.20123-1.05084,0.37299-2.10645,0.59369-3.15533c0.1026-0.48816-0.10541-0.83386-0.3847-1.16888
	c-0.10059-0.11621-0.17969-0.23138-0.20306-0.38672c-0.05469-0.34467-0.36334-0.4834-0.64459-0.27051
	c-0.22852,0.17383-0.45312,0.29694-0.74902,0.25189c-0.05957-0.00964-0.1377,0.00781-0.19037,0.03912
	c-0.27155,0.16602-0.54694,0.28418-0.875,0.18073c-0.04102-0.0127-0.09674,0.01947-0.14551,0.01849
	c-0.09381,0-0.15924,0.17188-0.25793,0.06061c-0.06-0.07233-0.08197-0.1778-0.11908-0.27155
	c-0.02588-0.06836,0.00098-0.15039-0.07318-0.22656c-0.09674,0.1817-0.01575,0.37787-0.07281,0.55859
	c-0.16504-0.04883-0.3252-0.10352-0.49219-0.0459c-0.33105,0.11041-0.63574,0.11908-0.87604-0.2666
	c0.02203,0.20306-0.02881,0.2627-0.17957,0.18158c-0.36041-0.19141-0.65344-0.05457-0.9234,0.19543
	c-0.02985,0.02728-0.0639,0.05267-0.09283,0.08197c-0.104,0.11029-0.16888,0.06543-0.21381-0.05469
	c-0.02197-0.05658-0.03906-0.11719-0.06006-0.18652c-0.11725,0.16113-0.16602,0.32135-0.14404,0.50494
	c0.03369,0.26166,0.04492,0.5293,0.09912,0.789c0.19482,0.95795,0.40668,1.91406,0.60687,2.87109
	c0.1109,0.53516,0.34381,1.02148,0.60992,1.4903c0.08203,0.14447,0.08789,0.25391,0.02588,0.38757
	c-0.02686,0.05963-0.065,0.11633-0.08496,0.17883c-0.06201,0.20306,0.00287,0.29199,0.22217,0.27728
	c0.12109-0.00983,0.16992,0.03522,0.1748,0.14838c0.00189,0.07434-0.00201,0.14954,0.00293,0.22272
	c0.01318,0.19141,0.1123,0.20508,0.24811,0.11133c0.05316-0.039,0.11719-0.08594,0.13617-0.14355
	c0.14111-0.41797,0.45068-0.61139,0.86572-0.67389c0.02539-0.00287,0.05811-0.00677,0.0694-0.02338
	c0.17566-0.27252,0.4458-0.2373,0.71326-0.22949c0.34381,0.01166,0.68561-0.11621,1.03522-0.01373
	c0.38672,0.1153,0.44434,0.09381,0.7002-0.21765c0.16211-0.19635,0.24805-0.42871,0.35254-0.65533
	c0.0274-0.05762,0.02246-0.13477,0.09955-0.16602c0.00104,0.125-0.06439,0.24414-0.00879,0.41602
	C28.16211,32.00391,28.25677,31.75391,28.30859,31.49902z M29.08398,29.34277c-0.07416,0.2373-0.14447,0.47565-0.21289,0.71582
	c-0.14258,0.47949-0.18359,0.97748-0.26172,1.4668c-0.00977,0.0683-0.01556,0.14551,0.05762,0.1748
	c0.08301,0.03418,0.11719-0.0498,0.14752-0.10059c0.11316-0.19238,0.23529-0.39941,0.21088-0.625
	c-0.05078-0.49023,0.03711-0.95703,0.18262-1.41803c0.04401-0.1377,0.08588-0.2793,0.03809-0.43359
	C29.12012,29.16211,29.10938,29.26068,29.08398,29.34277z M28.29492,30.25781c-0.13574,0.53131-0.27734,1.0567-0.50104,1.58197
	c-0.16296-0.23816-0.36908-0.3418-0.62097-0.36707c-0.36432-0.03723-0.29401,0.31335-0.42291,0.48627
	c-0.24799-0.29297-0.24799-0.29297-0.5791-0.07806c-0.36041,0.23041-0.79199,0.19525-1.10889-0.06641
	c-0.14014-0.11633-0.34521-0.12701-0.48584-0.03522c-0.23535,0.15228-0.45215,0.11517-0.68115,0.02338
	c-0.10895-0.04285-0.20123-0.18646-0.33301-0.08978c-0.14014,0.10553-0.104,0.26373-0.06592,0.41412
	c-0.15228-0.1817-0.2041-0.40833-0.26898-0.6192c-0.11334-0.37109-0.18024-0.7558-0.27301-1.13483
	c-0.02728-0.10931-0.01898-0.1601,0.10992-0.18158c0.18005-0.03119,0.33978-0.12891,0.5-0.2168
	c0.49017-0.2627,1.00775-0.36719,1.56299-0.29779c0.33777,0.04388,0.6748,0.03711,1.01556-0.01575
	c0.41602-0.06537,0.82812-0.039,1.20703,0.18854c0.2373,0.14362,0.50391,0.20898,0.7793,0.23627
	C28.23242,30.09772,28.33502,30.10162,28.29492,30.25781z M25.82031,30.10352c0.0235-0.13574-0.12012-0.10742-0.19922-0.10352
	c-0.12109,0.00677-0.05658,0.08893-0.04102,0.14447c0.06055,0.22375,0.11725,0.44635,0.14264,0.71686
	C25.85162,30.58502,25.78131,30.33978,25.82031,30.10352z M21.84912,23.71088c0.27588,0.15735,0.57178,0.20801,0.88477,0.21002
	c0.48389,0.00391,0.91602-0.19092,1.37891-0.34082c-0.0918-0.11426-0.16901-0.21185-0.24902-0.30719
	c-0.71289-0.84167-1.44965-0.62396-2.08154,0.08209C21.65479,23.49707,21.68018,23.61432,21.84912,23.71088z M20.48291,27.16803
	c0.22021,0.67566,0.1333,1.34564,0.00201,2.01746c-0.2207,1.13293-0.47272,2.25793-0.94885,3.31653
	c-0.09515,0.21088-0.20496,0.41602-0.33099,0.61517c0.17194-0.5567,0.30084-1.11719,0.38184-1.69141
	c0.08301-0.586,0.12396-1.17377,0.11621-1.76367c-0.0083-0.58014-0.04681-1.1601-0.08405-1.74023
	c-0.03711-0.586-0.05505-1.17389-0.18988-1.75385c0,0.29285-0.01221,0.58398,0.00293,0.875
	c0.0318,0.62885-0.12695,1.20697-0.48535,1.71478c-0.3858,0.54688-0.6626,1.14447-0.94476,1.75
	c-0.05719-0.30859,0.03796-0.5918,0.11707-0.87891c0.25592-0.92773,0.70172-1.79303,0.8858-2.74408
	c0.164-0.84772,0.31299-1.68805,0.271-2.565c-0.04297-0.87604-0.01807-1.76172,0.30225-2.60504
	c0.0318-0.0849,0.05908-0.17377,0.10309-0.25287c0.31-0.56104,0.55371-1.14893,0.72601-1.76709
	c0.1377-0.49274,0.44775-0.8598,0.85498-1.15771c0.36871-0.27002,0.78271-0.45703,1.18359-0.67822
	c-0.23187,0.21094-0.4668,0.41888-0.69482,0.63519c-0.31586,0.30182-0.54785,0.66315-0.71289,1.06891
	c-0.09619,0.23779-0.08496,0.48883-0.10498,0.73492c-0.01709,0.19427-0.07709,0.35297-0.21832,0.48529
	c-0.02289,0.02301-0.04779,0.0459-0.0708,0.06891c-0.53998,0.51611-0.89398,1.1181-0.80219,1.89496
	c0.06738,0.5708-0.06689,1.09375-0.30762,1.60101c-0.02197,0.04504-0.03711,0.09283-0.05231,0.13971
	c-0.08295,0.27203-0.09265,0.52728,0.07825,0.78223c0.21185,0.3208,0.43597,0.62836,0.72406,0.88226
	c0.08789,0.07825,0.125,0.1524,0.1167,0.2774C20.38177,26.67969,20.40631,26.93359,20.48291,27.16803z M19.86823,27.60352
	c0.00775,0.41211,0.07166,0.80078,0.06879,1.19336C20.16498,28.27148,20.14111,27.78119,19.86823,27.60352z M32.60162,29.80078
	c-0.03131-0.35938-0.1153-0.70117-0.21295-1.04486c-0.10547-0.37109-0.13086-0.75299-0.09766-1.13483
	c0.06451-0.77148,0.05176-1.54492,0.03418-2.31592c-0.00879-0.30127-0.02539-0.60699-0.18073-0.95709
	c0.01965,0.30182,0.04895,0.5318,0.01862,0.76471c-0.11041,0.80713-0.28607,1.6001-0.52051,2.37939
	c-0.10736,0.35352-0.09955,0.68939,0.0625,1.01459c0.22461,0.4483,0.37793,0.9151,0.49512,1.40143
	c0.13379,0.55859,0.52643,0.89648,1.0918,1.08588C32.8125,30.50293,32.63867,30.24408,32.60162,29.80078z M27.81049,27.31049
	c0.15631-0.039,0.38483,0.03522,0.461-0.1015c0.08203-0.14258-0.11719-0.30469-0.13477-0.47656
	c-0.02155-0.1933-0.15234-0.20312-0.289-0.1543c-0.19543,0.07227-0.3067,0.23828-0.33405,0.43066
	c-0.01855,0.12988,0.03223,0.27051,0.1308,0.36621C27.71777,27.34772,27.76172,27.32233,27.81049,27.31049z M29.17969,23.78119
	c0.32623-0.14008,0.3476-0.27631,0.09961-0.51306c-0.13672-0.1333-0.29297-0.24036-0.45221-0.34625
	c-0.35638-0.23676-0.72748-0.23389-1.11621-0.09076c-0.35925,0.13281-0.54486,0.44281-0.78119,0.73376
	c0.31934,0.12994,0.6123,0.24133,0.91309,0.3252C28.30267,24.01611,28.74799,23.9668,29.17969,23.78119z M31.66888,26.6709
	c0.27063-0.86621,0.46204-1.76898,0.25793-2.69482c-0.07721-0.3501-0.1123-0.7041-0.1026-1.06195
	c0.01959-0.76324-0.1308-1.48932-0.37012-2.21735c-0.30371-0.9209-0.92682-1.49365-1.75592-1.90088
	c0.15924,0.27832,0.30475,0.55811,0.55963,0.76123c0.33398,0.26605,0.53607,0.625,0.6875,1.01709
	c0.14447,0.37061,0.16022,0.78265,0.35938,1.13477c0.11719,0.20801,0.16992,0.43024,0.1933,0.66211
	c0.03723,0.33978,0.0625,0.68311-0.00092,1.01813c-0.06549,0.3418,0.0166,0.6347,0.20026,0.91595
	c0.12299,0.1889,0.12787,0.38672,0.02148,0.58881c-0.25299,0.48694-0.55859,0.94-0.87988,1.3833
	c-0.24811,0.34381-0.40735,0.71204-0.39362,1.1524c0.0166,0.55469,0.1709,1.09961,0.15039,1.65619
	c-0.01373,0.37311,0.06348,0.72864,0.20508,1.06842c0.2226,0.53119,0.3476,1.08893,0.45215,1.65039
	c0.05365,0.28613,0.08295,0.57709,0.12988,0.90723c0.08789-0.13379,0.09961-0.24609,0.10736-0.36029
	c0.04114-0.73834,0.01862-1.47955-0.0683-2.211C31.28131,28.96478,31.31049,27.81842,31.66888,26.6709z M24.47223,32.76068
	c0.17175,0.03723,0.19769-0.06146,0.13464-0.23529c-0.03998-0.10736-0.07269-0.21881-0.1059-0.33008
	c-0.04401-0.15228-0.12006-0.23242-0.30078-0.20209c-0.1333,0.0224-0.27728,0-0.38721-0.09674
	c-0.03607-0.02826-0.06592-0.06061-0.10107-0.02246c-0.02393,0.02637-0.04388,0.07129-0.04388,0.1084
	C23.66888,32.35938,24.06299,32.75879,24.47223,32.76068z M23.7002,27.41022c0.05963-0.03723,0.15479-0.09973,0.06299-0.19153
	c-0.146-0.14838-0.55707-0.1601-0.76025-0.0058c0.18506-0.00977,0.30615,0.06439,0.41998,0.16211
	C23.50098,27.43951,23.60791,27.46777,23.7002,27.41022z M23.13623,28.59369c0.20654-0.08588,0.336-0.3125,0.34088-0.58588
	c0.00677-0.44922-0.1402-0.52728-0.34229-0.61719c-0.16602-0.0722-0.27795-0.04694-0.2666,0.16797
	c0.00189,0.02728,0.01459,0.06641-0.04114,0.08203c-0.02728-0.04492-0.05609-0.08984-0.11517-0.18365
	c-0.08984,0.42584,0.02386,0.74811,0.19287,1.0567C22.9502,28.59772,23.02692,28.63867,23.13623,28.59369z M24.88281,32.93158
	c-0.15381,0.08405-0.30371,0.05084-0.45703,0.00793c-0.49561-0.13873-0.53656-0.12109-0.8067,0.30658
	c-0.08685,0.1377-0.05029,0.21783,0.10315,0.19342c0.22797-0.03723,0.24457,0.0957,0.25085,0.2558
	c0.00299,0.06451-0.01801,0.13477,0.09772,0.2149c0.08112-0.60553,0.70508-0.62701,1.06738-0.961
	C25.01709,32.86517,24.94379,32.90039,24.88281,32.93158z M27.13379,31.62793c-0.06061,0.01074-0.11816,0.0401-0.12207,0.1026
	c-0.02344,0.26166-0.16602,0.48236-0.22565,0.73035c-0.06335,0.27545,0.00983,0.37604,0.2998,0.37109
	c0.08893-0.00085,0.15735-0.0351,0.2149-0.10345c0.15039-0.17871,0.26764-0.37109,0.31641-0.60553
	C27.6709,31.85352,27.40631,31.57617,27.13379,31.62793z M25.38092,32.19818c-0.14313-0.00476-0.26813-0.08301-0.35699-0.20209
	c-0.05615-0.07422-0.12115-0.11127-0.20312-0.10162c-0.16803-0.0058-0.24072,0.04895-0.20172,0.22461
	c0.11481,0.50983,0.14703,0.53912,0.65784,0.5235c0.02386-0.00195,0.05121,0.00391,0.0752,0.00189
	c0.14008-0.01459,0.19177-0.10248,0.19281-0.23529C25.5459,32.29303,25.54492,32.20209,25.38092,32.19818z M26.77728,27.33978
	c-0.1601,0.0625-0.17566,0.17389-0.14935,0.31842c0.01654,0.08789,0.02838,0.17767,0.04395,0.28522
	c0.17383-0.08014,0.32611-0.17194,0.4892-0.24225c0.09381-0.03906,0.19635-0.1778,0.09772-0.2793
	C27.13483,27.29688,26.96191,27.26562,26.77728,27.33978z M26.32709,31.93951c-0.0683,0.06537-0.12012,0.15027-0.24207,0.14056
	c-0.2627-0.01758-0.32135,0.14844-0.30963,0.41211c0.00391,0.20898,0.01849,0.2265,0.24408,0.26373
	c0.42395,0.06641,0.75391-0.35162,0.59381-0.76184C26.55267,31.83789,26.44922,31.82233,26.32709,31.93951z M24.3291,28.33197
	c0.19867,0.00592,0.12109-0.17969,0.14697-0.28314c0.0249-0.1015,0.02191-0.21295,0.0249-0.24805
	c0-0.10547-0.00299-0.13867,0.00195-0.17188c0.01318-0.11908,0.01416-0.23444-0.12115-0.29303
	c-0.12885-0.05658-0.23779-0.05066-0.36859,0.03033c-0.3111,0.19238-0.14801,0.44427-0.12396,0.68646
	C23.91803,28.34369,24.14111,28.32617,24.3291,28.33197z M26.72461,27.23242c0.1817-0.04694,0.35651-0.03125,0.52539,0.0567
	c0.12109,0.0625,0.13867-0.0235,0.15228-0.14075c-0.06927-0.05267-0.01166-0.20886-0.14349-0.24017
	c-0.22461-0.05078-0.44238-0.03522-0.62396,0.13483c-0.04401,0.04285-0.07434,0.08398-0.03711,0.14838
	C26.62988,27.24609,26.67188,27.24609,26.72461,27.23242z M26.01367,28.26947c0.26361,0.03711,0.25391,0.11536,0.31641-0.18835
	c0.02734-0.1377,0.05371-0.27454,0.07422-0.3819c-0.00391-0.08203,0.00293-0.1347-0.00983-0.17975
	c-0.06439-0.22357-0.20105-0.3808-0.42969-0.43835c-0.15228-0.03723-0.24597,0.06537-0.32416,0.17957
	c-0.08405,0.125-0.02545,0.25879-0.0127,0.3858C25.65228,27.91309,25.5752,28.20801,26.01367,28.26947z M24.6582,28.05469
	c0.01862,0.10352,0.07281,0.18359,0.18701,0.20312c0.12891,0.02148,0.11377-0.08301,0.1358-0.15619
	c0.03021-0.09381,0.10199-0.14954,0.19189-0.1778c0.08588-0.02734,0.11316-0.08984,0.12299-0.16602
	c0.0293-0.22363-0.12402-0.43359-0.32471-0.44922c-0.20306-0.01367-0.31012,0.11029-0.32227,0.375
	c-0.00195,0.04102,0,0.08203,0,0.19141C24.6499,27.89062,24.646,27.97461,24.6582,28.05469z"/>
</svg>
