<?xml version="1.0" encoding="utf-8"?>
<!-- Generator: Adobe Illustrator 26.0.1, SVG Export Plug-In . SVG Version: 6.00 Build 0)  -->
<svg version="1.1" id="Layer_1" xmlns="http://www.w3.org/2000/svg" xmlns:xlink="http://www.w3.org/1999/xlink" x="0px" y="0px"
	 viewBox="15.2534 21.1782 21.2603 8.7964" style="enable-background:new 15.2534 21.1782 21.2603 8.7964;" xml:space="preserve">
<style type="text/css">
	.st0{fill:#840F34;}
	.st1{fill:#FFFFFF;}
</style>
<path class="st0" d="M36.50098,25.26068h-0.00104c-0.0011-0.00812-0.00287-0.01477-0.00287-0.02136
	c-0.0293-0.1402,0.01074-0.26221-0.04297-0.37024c-0.02051-0.03607-0.06543-0.07025-0.08691-0.10297
	c-0.02539-0.03809-0.02826-0.08301-0.05078-0.12012c-0.02051-0.03082-0.05762-0.05518-0.07812-0.08691
	c-0.01758-0.00287-0.01556-0.00195-0.02637-0.0083H36.0752c-0.0127-0.0069-0.00879-0.0318-0.01862-0.04297
	c-0.0166-0.02393-0.08386-0.05859-0.11127-0.06879h-0.05273c-0.03516-0.0152-0.09668-0.04694-0.13666-0.06012
	c-0.05084-0.01709-0.10364,0.01508-0.14655,0c-0.00562-0.00281-0.01599-0.00757-0.02698-0.01392l0.00061-0.00122
	c-0.0332-0.021-0.08398-0.05566-0.11621-0.07074c-0.00488-0.60504-0.08398-1.1192-0.19733-1.61823
	c-0.02728-0.11383,0.02936-0.21289,0-0.33502c-0.00775-0.03168-0.01355-0.12585-0.0351-0.15466
	c-0.01166-0.00494-0.02148-0.01129-0.03418-0.01709c-0.0166-0.01611-0.0459-0.07434-0.05182-0.09485v-0.07709
	c-0.01556-0.04791-0.06726-0.08887-0.08588-0.13721c-0.02252-0.05707-0.01947-0.104-0.05078-0.14697h-0.0097
	c-0.0293-0.03271-0.0899-0.08301-0.12994-0.10303V21.6001c-0.04498-0.01611-0.08209,0.00879-0.11035-0.01709
	c-0.0058-0.00684,0.00775-0.06299,0.00775-0.09521c-0.0058-0.00677-0.01166-0.01471-0.01746-0.02588
	c-0.0899-0.03613-0.21594,0.01117-0.31061-0.0249c-0.0351-0.01514-0.06152-0.05811-0.09369-0.07812
	c-0.0332-0.0191-0.12311-0.0498-0.1543-0.06006c-0.14075-0.0459-0.60364-0.02783-0.7666-0.00781
	c-0.02454,0.00201-0.08112-0.01709-0.12024-0.00879c-0.09265,0.021-0.22949,0.00879-0.33588,0.00879
	c-0.26953,0-0.55371,0.0069-0.80963,0.00781h-0.46375h-0.05286c-0.0683-0.00092-0.07605-0.04492-0.12109-0.03375
	c-0.05066,0.01184-0.11316,0.05811-0.164,0.0777c-0.1153,0.04541-0.19049,0.03021-0.25586,0.12842
	C31.04303,21.46777,31,21.44818,30.95697,21.43701c-0.08978-0.02393-0.20496,0.01996-0.28406-0.00879
	c-0.04498-0.01611-0.1084-0.04834-0.14563-0.07715c-0.01947-0.0152-0.02631-0.04297-0.05267-0.05225H30.3291
	c-0.10449-0.03174-0.19238-0.09766-0.30182-0.12061c-0.07117,0.04688-0.20697-0.00732-0.30267,0.01758
	c-0.16211,0.04199-0.42969-0.00293-0.58398,0.04199H29.0293c-0.10742,0.0332-0.24219,0.02728-0.36127,0.06934
	c-0.01373,0.00488-0.0332,0.03076-0.04205,0.03564h-0.9541h-0.36328c-0.21088,0-0.49017,0.0293-0.66992-0.01758
	c-0.12695-0.03217-0.30756,0.01562-0.42188-0.01807c-0.6543-0.00293-1.30762-0.00531-1.96088-0.0083h-1.24811
	c-0.08203,0-0.43262-0.01562-0.4726,0.0083h-0.55231c-0.08978,0-0.1748,0.021-0.19684-0.05121
	c-0.11224,0.00189-0.16107,0.03217-0.24017,0.05121c-0.07178,0.01904-0.15967-0.00635-0.22412,0.01807
	c-0.14258,0.05273-0.35986,0.20703-0.54199,0.15479c-0.11176-0.0318-0.23486,0.00494-0.31787-0.05176h-0.48193
	c-0.01807-0.00934-0.021-0.06-0.0332-0.07715c-0.01367-0.0083-0.0318-0.00098-0.0528-0.0083
	c-0.02386-0.0108-0.03998-0.04486-0.06781-0.05176c-0.03229,0.00201-0.06396,0.00488-0.09619,0.00781h-0.396h-1.03217
	c-0.03369,0.00928-0.04199,0.04095-0.06793,0.05225c-0.04486,0.01904-0.0791,0.00781-0.12988,0.02594
	c-0.04688,0.01611-0.0918,0.05811-0.13721,0.07709c-0.04688,0.01898-0.11871,0.0127-0.15479,0.04199
	c-0.01898,0.01813-0.01813,0.05573-0.03424,0.07812c-0.02484,0.03656-0.08588,0.05176-0.10394,0.09467v0.07721
	c-0.02985,0.07269-0.20361,0.30273-0.2749,0.32709v0.00879c-0.01715,0.00391-0.01074-0.00385-0.01715-0.00879
	c-0.02875,0.00104-0.0498,0.00299-0.06879,0.00879c-0.01611,0.04102-0.03076,0.104-0.04297,0.14606v0.13818
	c-0.01324,0.03168-0.04102,0.08691-0.05225,0.12891c-0.00977,0.03809,0.00104,0.0899-0.0166,0.12006
	c0,0.07672-0.05029,0.06995-0.09515,0.09381c-0.00793,0.05524,0.01898,0.06689,0.06879,0.08691
	c-0.01172,0.05219-0.00488,0.11432-0.01758,0.18121c-0.01715,0.0849-0.03711,0.24158-0.06104,0.34369
	c-0.02441,0.1084,0.00592,0.21832,0,0.29199c-0.00238,0.02643-0.01031,0.1001,0,0.12012
	c-0.00238,0.02002-0.00098,0.0249-0.00928,0.03522c-0.02289,0.0141-0.0556,0.00775-0.08594,0.01709
	c-0.04486,0.01459-0.09821,0.04675-0.146,0.06097h-0.05176c-0.09521,0.03864-0.13824,0.13281-0.21533,0.18903
	c-0.05469,0.04095-0.13477,0.04675-0.19781,0.08588c-0.05811,0.03613-0.09906,0.14893-0.13715,0.20599
	c-0.13385,0.00793-0.2417,0.06403-0.36084,0.09479c-0.05231,0.01324-0.0968,0.0174-0.14374,0.02429
	c-0.05328,0.00629-0.10913,0.01672-0.15656,0.04401c-0.04297,0.02594-0.13379,0.1499-0.15479,0.19781
	c-0.01514,0.03613-0.00684,0.06793-0.0249,0.104c-0.08301,0.16309-0.16992,0.43604-0.146,0.61908
	c0.00488,0.05286-0.02832,0.09772-0.00293,0.15533c0.01074,0.02539,0.05273,0.04492,0.06793,0.06927
	c-0.03522,0.05963,0.01801,0.11823-0.00934,0.19733c-0.0069,0.02441-0.03857,0.04791-0.0249,0.09467
	c0.01324,0.04504,0.04834,0.08795,0.06104,0.13873c-0.01813,0.01556-0.03174,0.03711-0.04303,0.06061
	c0.08301,0.07806,0.24524,0.2998,0.34332,0.33588c0.05182,0.00189,0.104,0.00488,0.15479,0.00781
	c0.1308,0.0332,0.29388,0.02539,0.43109,0.02539c0.08209,0,0.2608-0.00592,0.28369,0.00781
	c0.086-0.00189,0.12854-0.00592,0.15436,0.05267c0.03668,0.00201,0.05176,0.00201,0.06989-0.01746
	c0.06879,0,0.1308,0.0517,0.14496,0.09467c0.00684,0.02051-0.01318,0.04779,0,0.06934
	c0.02686,0.06055,0.08795,0.0274,0.11285,0.12109c0.0141,0.03906-0.06305,0.211-0.05286,0.30078c0.00885,0.07233,0,0.2168,0,0.31842
	v0.7226c0,0.12701-0.01898,0.28418,0.00885,0.39648c0.01996,0.07422,0.04095,0.14752,0.06006,0.22357
	c0.0293,0.02252,0.05914,0.04504,0.08691,0.06744C17.22308,29,17.36908,29.15039,17.5249,29.25
	c-0.01068,0.01562-0.02588,0.02338-0.04303,0.0332c0.00494,0.02148,0.00391,0.03522,0.01813,0.04492
	c0.03223,0.00195,0.06403,0.00385,0.09521,0.00775c0.021,0.00781,0.0957,0.06641,0.12061,0.086
	c0.09821-0.00195,0.06738-0.02539,0.11035-0.04297c0.05176-0.01953,0.229,0.07227,0.33594,0.04297
	c0.10107-0.0274,0.28271,0.02832,0.3877,0.06055c0.13922,0.04095,0.30707,0.0293,0.44727,0.05957
	c0.11914,0.02643,0.24701-0.02252,0.32611-0.04297h0.1817c0.03223,0,0.08691-0.00195,0.09521,0h0.04303
	c-0.00592-0.00684-0.01221-0.0166-0.01813-0.02441c0.02393-0.02441,0.03998-0.04883,0.07709-0.06152
	c0.01569-0.00879,0.02789-0.0108,0.04303,0c0.09869-0.00201,0.28711-0.0274,0.31787,0.04303
	c0.05713-0.00403,0.04492-0.02643,0.07812-0.04303h0.17969c0.00537,0,0.08643-0.04486,0.09521-0.05176
	c0.0152-0.01172-0.00494-0.00391,0.00977-0.01764c0.02539-0.02917,0.06201-0.039,0.08545-0.07611h0.01758
	c0.08636,0.15131,0.24811,0.3056,0.40527,0.38672c0.06201,0.0332,0.125,0.03711,0.18799,0.06842
	c0.05475,0.02527,0.12012,0.0683,0.18213,0.08588c0.06982,0.02051,0.14502-0.01471,0.18799-0.02441
	c0.15869,0.00189,0.31689,0.0058,0.47461,0.00781c0.39697,0.08789,0.93799,0.04303,1.40143,0.04303
	c0.20886,0,0.43158-0.00983,0.60297,0.0351c0.0976,0.02637,0.23578-0.00879,0.32672,0.00781
	c0.00531-0.01361,0.01117-0.02832,0.01697-0.04291c0.21002,0,0.40094,0.00391,0.58502,0.04291h0.27393
	c0.1402,0.03125,0.29926,0.01654,0.42969,0.04297h0.35345c0.08112,0.01862,0.19733,0.00592,0.29205,0.01068
	c0.15137,0.00391,0.33496,0.00592,0.46576,0.03235c0.07043,0.0166,0.22864,0.0127,0.2832,0h0.14648
	c0.05084-0.01373,0.06451-0.04303,0.13684-0.04303c0.0957,0,0.23627-0.02441,0.2832,0.01862
	c0.08197,0.00189,0.05951-0.0166,0.08777-0.06158c0.08405-0.05475,0.33405-0.03424,0.47272-0.03424
	c0.15039,0,0.31842-0.00287,0.45612-0.00867c0.10437-0.00201,0.23529,0.0127,0.32611-0.00793
	c0.12799-0.02728,0.25,0.00592,0.35345-0.02527v0.00867h0.00879c-0.01459,0.0235-0.03314,0.03723-0.06049,0.05084
	c0.00494,0.0166,0.00293,0.0166,0.00879,0.02539c0.01276,0.01166,0.16705-0.10352,0.20703-0.11914
	c0.11041-0.00391,0.22357-0.0069,0.33502-0.0108c0.01166,0.0069,0.02539,0.03131,0.04285,0.03522
	c0.04303,0.0127,0.11823-0.00781,0.14655-0.00781c0.04401-0.00195,0.03516,0.05475,0.07806,0.01764
	c0.03912,0.00867,0.04303,0.0332,0.07825,0.04187c0.00775,0.00201,0.26947-0.0517,0.28314-0.05951
	c0.08795,0.00189,0.1308,0,0.16315-0.05365c0.30756,0.04095,0.64551,0.05756,0.92871,0.12109
	c0.11908,0.02728,0.23627,0.01849,0.34467,0.04285c0.1416,0.03235,0.4873-0.01746,0.60248-0.04285
	c0.2373-0.00201,0.47662-0.00592,0.7149-0.00885c0.1181-0.02637,0.24805-0.02637,0.35254-0.05176
	c0.05756-0.00189,0.11426-0.0058,0.17188-0.00781c0.14752-0.03613,0.29779-0.06927,0.43854-0.10352
	c0.17865-0.00977,0.35449-0.01758,0.53314-0.02539c0.06934-0.02051,0.17584-0.04492,0.23145-0.08789
	c0.0459-0.03418,0.06146-0.11029,0.10449-0.14551c0.05762-0.04791,0.13867-0.08301,0.17969-0.14551
	c0.03912-0.05469,0.04102-0.12891,0.07812-0.18951c0.01758-0.03119,0.06549-0.0625,0.07806-0.0957v-0.25775
	c0.03522-0.15723,0.01184-0.42194-0.01947-0.55859c-0.04694-0.22461,0.0625-0.41504,0.0625-0.61914
	c0-0.20117-0.0058-0.4043,0.0332-0.55957c0.00977-0.03711,0.00195-0.07812,0.01758-0.10449
	c0.02051-0.04492,0.15619-0.05371,0.10449-0.1377c-0.0127-0.03021-0.03217-0.03021-0.05182-0.05084h-0.00964v-0.00867
	c0.02338-0.00592,0.03705,0.00867,0.0683,0c0.0752-0.01959,0.19525-0.08789,0.26758-0.1123h0.06842
	c0.1806-0.05182,0.44525-0.17682,0.54285-0.30963c0.02356-0.03217,0.05573-0.12109,0.05963-0.16406
	c-0.00488-0.01764-0.0127-0.03223-0.0166-0.05084c0.00592-0.0332,0.04883-0.07806,0.05957-0.11127v-0.12891
	C36.51758,25.71869,36.51947,25.38568,36.50098,25.26068z"/>
<path class="st1" d="M36.333,25.1689c-0.0205,0.0142-0.0146-0.0039-0.0166-0.017c0.0147,0.0063,0.0088,0.0019,0.0166,0.0092h0.0078
	v0.0078H36.333z M36.2988,25.3159c0.0332-0.0078,0.0664-0.019,0.0772-0.0517c-0.003-0.002-0.0049-0.0035-0.0059-0.0044
	c-0.0039-0.003-0.0049-0.0049-0.0127-0.0127H36.333c-0.0166,0.0136-0.0459,0.018-0.0674,0.0258V25.29
	C36.2773,25.2969,36.2891,25.3062,36.2988,25.3159 M36.29,25.187c0.0069-0.0078,0.003-0.0029,0.0079-0.0181
	c-0.0079-0.0029-0.0166-0.0048-0.0264-0.0078c-0.002,0.0201-0.0059,0.0088,0,0.0259v0.0078
	C36.2871,25.1899,36.2813,25.1938,36.29,25.187 M36.0742,25.3418c0.0108,0.0073,0.0137,0.0073,0.0332,0.0083
	c0.0186-0.0171,0.0576-0.0112,0.086-0.0342c0.0087-0.0078,0.0048-0.0019,0.0097-0.0171c-0.0078-0.0029-0.0176-0.0058-0.0254-0.0088
	c-0.0293,0.0352-0.0742,0.0308-0.1113,0.044v0.0078H36.0742z M36.0234,25.0059c0.0059,0.0083-0.0039,0.0112,0.0088,0.0263
	C36.0449,25.0151,36.0352,25.0171,36.0234,25.0059 M35.6621,26.3398c0.0313-0.0312,0.0781-0.04,0.1016-0.0761h-0.0078v-0.0098
	h-0.0518c-0.0205,0.0176-0.0498,0.0234-0.0859,0.0254c-0.0108,0.0176-0.0186,0.0205-0.0264,0.043h0.0098
	C35.6172,26.334,35.6387,26.3359,35.6621,26.3398 M35.498,24.542c0.0118,0.0078,0.0215,0.0078,0.043,0.0078
	c0.0029-0.0049,0.0069-0.0107,0.0108-0.0156c-0.0196-0.0113-0.0225-0.0191-0.044-0.0264c-0.0098,0.0151-0.0117,0.0132-0.0176,0.0342
	H35.498z M35.2402,24.542v0.0078c0.0147-0.0049,0.0078-0.0019,0.0166-0.0078c0.0069-0.0088,0.0049-0.0029,0.0088-0.0181
	c-0.0078-0.0029-0.0166-0.0049-0.0244-0.0078c-0.0049,0.02-0.0088,0.0088,0,0.0259H35.2402z M35.1201,24.7139
	c0.0029,0.0063,0.0059,0.0122,0.0078,0.018c0.1065,0.0352,0.4082,0.0093,0.542,0.0083c0.0196,0.0108,0.3721,0.0137,0.3965,0
	c0.0068-0.0083,0.002-0.0034,0.0088-0.018c-0.0635-0.0323-0.2012-0.0171-0.292-0.0161c-0.0322-0.0249-0.1084-0.0191-0.1641-0.0181
	c-0.0136,0.0088-0.039,0.0141-0.0693,0.0161C35.4248,24.7139,35.2031,24.6782,35.1201,24.7139 M35.0684,23.4839
	c0.0019-0.2568-0.0039-0.4199-0.0606-0.6279c-0.0254-0.0982-0.0254-0.4068-0.0683-0.4649c-0.0215-0.0122-0.0577,0.001-0.086-0.0093
	c-0.0762-0.0219-0.125-0.0586-0.2246-0.06c-0.041,0.0283-0.1328,0.018-0.1973,0.018h-0.4658c-0.333,0-0.6162,0.0264-0.9629,0.0264
	c-0.2187,0-0.498-0.0273-0.6884,0.0156h-0.1543c-0.0323,0.0083-0.0899,0.023-0.1289,0.0264
	c-0.0665,0.0068-0.1563-0.0142-0.1973,0.0176c-0.044,0.04-0.1192,0.1211-0.1387,0.1802c-0.0215,0.0678,0.0156,0.1411,0.0274,0.1811
	c0.0253,0.1089-0.0079,0.2158,0.0156,0.3272c0.0195,0.0825-0.0117,0.2065,0.0088,0.3007c0.0263,0.1089-0.0108,0.293,0.0185,0.4038
	c0.0489,0.189,0.0078,0.4302,0.002,0.6392c-0.002,0.023-0.002,0.0449-0.002,0.0659c0.0821,0.042,0.2666,0.0181,0.3789,0.0181h0.9024
	c0.0527,0.0322,0.3369,0.0078,0.4209,0.0078c0.1416,0,0.2402,0.0181,0.3877,0.0181h0.2929c0.0577,0.0122,0.127,0.0219,0.1905,0.0229
	c0.0498,0.001,0.0966-0.0039,0.1377-0.0146c0.0576-0.0171,0.1494,0.021,0.1963-0.0083c0.0595-0.0659,0.0761-0.1778,0.1201-0.2578
	c0.0156-0.0303,0.0547-0.064,0.0683-0.0953c0.0537-0.1098,0.0762-0.2197,0.1299-0.3266c0.0205-0.041,0.0596-0.0952,0.0772-0.1382
	V23.4839 M35.0254,27.5957c-0.0078-0.0059-0.0166-0.0117-0.0274-0.0166c-0.0253,0.0635-0.0468,0.1436-0.0507,0.2314h0.0078v0.0098
	c0.0156-0.0058,0.0097-0.0019,0.0176-0.0098C34.9912,27.7402,35.0078,27.668,35.0254,27.5957 M34.9912,28.1973
	c0.0176-0.0244,0.0654-0.043,0.0752-0.0684V27.957c-0.0059-0.0019-0.0166-0.0058-0.0244-0.0078
	c-0.0166,0.043-0.0801,0.2149-0.0693,0.2403v0.0078H34.9912 M34.8457,24.5498c0.0156,0.019,0.0391,0.0181,0.0772,0.0181
	c0.0576-0.1031,0.1591-0.2481,0.1728-0.3789c-0.0205-0.0161-0.0234-0.0371-0.0439-0.0518c-0.0303,0.0557-0.0655,0.1348-0.086,0.189
	c-0.0058,0.0259-0.0127,0.0517-0.0176,0.0776c-0.0224,0.0142-0.0459,0.0283-0.0693,0.043
	C34.8633,24.4668,34.8369,24.5371,34.8457,24.5498 M34.7158,28.9551c0.0127,0.0049,0.0147,0.0058,0.0342,0.0078
	c0.0342-0.0527,0.0811-0.1074,0.1035-0.1709c0.0303-0.082,0.0264-0.1514,0.0508-0.2315c0.0234-0.0654,0.0576-0.1171,0.0625-0.1992
	c-0.0068-0.0039-0.0127-0.0058-0.0176-0.0078c-0.0195,0.0176-0.041,0.0332-0.0605,0.0508c-0.0332,0.0586-0.0293,0.125-0.0528,0.1894
	C34.7959,28.7041,34.7227,28.8184,34.7158,28.9551 M34.6035,22.0732c0.0391,0.0118,0.1045,0.0088,0.1543,0.0088
	c0.0039-0.0049,0.0059-0.0122,0.0098-0.0171c-0.0449-0.0317-0.041-0.0527-0.1309-0.0507c-0.0078-0.0074-0.0068-0.0064-0.0254-0.0103
	C34.5996,22.0322,34.6035,22.0269,34.6035,22.0732 M34.2441,28.9473v0.0078h0.0079c0.0839,0.0586,0.3554-0.0469,0.3701-0.086
	c0.0224-0.0263,0.1064-0.2793,0.1123-0.3281c-0.0059-0.0019-0.0117-0.0039-0.0196-0.0078c-0.041,0.0625-0.1093,0.1094-0.1709,0.1543
	c-0.1044,0.0781-0.1884,0.1875-0.3007,0.2598H34.2441z M34.2598,26.7949c-0.041-0.0234-0.2422-0.0078-0.3086-0.0068
	c-0.2852,0-0.5078,0.0488-0.7676,0.0527c-0.0518-0.0898-0.3262-0.0556-0.4629-0.0527c-0.0518,0.0322-0.2129,0.0098-0.2852,0.0078
	c-0.041,0.0615-0.1025,0.1064-0.1455,0.1641c-0.1132,0.1513-0.2392,0.2724-0.3701,0.4033c-0.084,0.0849-0.1543,0.1865-0.2402,0.2685
	c0,0.1914-0.0176,0.3838-0.0176,0.5928v0.1983c0.041,0.1699,0.0371,0.3876,0.0352,0.5947c0.0078,0.0039,0.0166,0.0205,0.0254,0.0244
	h0.0595c0.0069,0.0127,0.0117,0.0225,0.0176,0.0342c0.0537,0.0576,0.1113,0.1113,0.1631,0.1728
	c0.168-0.0283,0.3711-0.0576,0.5254-0.1103c0.0488-0.0049,0.0976-0.0069,0.1455-0.0108c0.0185-0.0039,0.0781-0.0263,0.0947-0.0351
	c0.041-0.002,0.0801-0.0059,0.1211-0.0078c0.0899-0.0284,0.2246-0.0362,0.3184-0.0616h0.1367
	c0.1435-0.041,0.3437-0.0195,0.4824-0.0605h0.1377c0.3057-0.0977,0.4863-0.3223,0.7051-0.5078
	c0.0469-0.0391,0.1455-0.0801,0.1806-0.1289c0.043-0.1289,0.086-0.2578,0.129-0.3867h-0.0079v-0.0079
	c-0.0156,0.0059-0.0087,0.002-0.0175,0.0079c-0.0293,0.041-0.0625,0.1396-0.1289,0.0859c-0.0098-0.0117-0.0098-0.0283-0.0098-0.0527
	c0.0674-0.0743,0.0478-0.1709,0.0781-0.2911c0.0137-0.0537,0.0371-0.1074,0.0508-0.164v-0.3692
	c0.0234-0.1015,0.0449-0.1855,0.0684-0.2832c0.0273-0.0058,0.039-0.0097,0.0527-0.0254c-0.0215-0.0127-0.0244-0.0166-0.0615-0.0195
	c-0.0244-0.0156-0.1494-0.0205-0.1885-0.0078c-0.0684,0.0215-0.3477,0.125-0.4033,0.1035
	c-0.0059-0.0078-0.0049-0.0078-0.0088-0.0254c0.0351,0,0.0947-0.0088,0.1191-0.0244c0.0088-0.0107,0.0039-0.0029,0.0098-0.0185
	c-0.0078-0.004-0.0322-0.002-0.043-0.0079c-0.0078-0.0156-0.0176-0.0293-0.0263-0.0449H34.2598 M34.2695,29.0762
	c-0.0117-0.0078-0.0107-0.0078-0.0185-0.0196h-0.0244c-0.0313,0.0196-0.1084,0-0.1387,0.0196
	c-0.0606,0.0195-0.1094,0.0761-0.1631,0.1093v0.0098h0.0088c0.0078,0.0078,0.0078,0.0059,0.0254,0.0098
	C34.0586,29.1426,34.1992,29.1641,34.2695,29.0762 M33.3984,29.2734c0.0098,0.0059,0.0088,0.0059,0.0264,0.0059
	c0.044-0.0303,0.1113-0.002,0.1729-0.0244c0.0507-0.0205,0.2109-0.1123,0.2402-0.1533h-0.0088v-0.0108h-0.0244
	c-0.0684,0.0596-0.3164,0.1231-0.4141,0.1641C33.3965,29.2715,33.3926,29.2656,33.3984,29.2734 M33.665,24.7402h1.4014
	c0.0039-0.0083,0.0068-0.018,0.0098-0.0263c-0.0078-0.003-0.0157-0.0059-0.0264-0.0078c-0.0537-0.0459-0.1836,0.0019-0.2656-0.0181
	c-0.0352-0.0068-0.085-0.0342-0.1299-0.0249c-0.0254,0.0049-0.1035,0.02-0.1289,0.0171c-0.0586-0.0073-0.1172-0.0254-0.1885-0.0264
	c-0.0674,0.043-0.2685,0.0342-0.3789,0.0342c-0.208,0-0.3701,0.0181-0.5674,0.0181c-0.1093,0-0.2685-0.022-0.3613,0.0078
	c0.0039,0.0063,0.0059,0.0122,0.0088,0.018c0.0488,0.0161,0.1348,0.0083,0.1982,0.0083H33.665z M32.583,29.2383
	c-0.0517,0.0137-0.1103,0.0019-0.1553,0.0185c0.0059,0.0147,0.002,0.0088,0.0078,0.0166c0.0391,0.0254,0.2305,0.0088,0.293,0.0088
	h0.4141c0.0664-0.0224,0.1435-0.0732,0.207-0.1025c0.0469-0.0254,0.1143-0.0215,0.1455-0.0615
	c-0.0107-0.0069-0.0107-0.0069-0.0166-0.0166h-0.0371c-0.0508,0.0371-0.1435-0.0079-0.2129,0.0166
	c-0.0517,0.0175-0.1426,0.0302-0.1972,0.0439h-0.0958C32.832,29.1973,32.6895,29.2119,32.583,29.2383 M32.2471,29.5488
	c-0.0166-0.0078-0.0166-0.0117-0.0342-0.0166c-0.0098,0.0283-0.0176,0.0303,0.0254,0.0342
	C32.2412,29.5605,32.2441,29.5547,32.2471,29.5488 M32.1367,29.4375c0.0449-0.0293,0.1973-0.0273,0.2735-0.0273l0.0087-0.0235
	c-0.0556-0.0185-0.1533-0.0107-0.2255-0.0107c-0.0215-0.0147-0.0918-0.0078-0.1182-0.0166
	C32.0605,29.3945,32.0723,29.4336,32.1367,29.4375 M31.9551,22.0898c0.0127,0.0054,0.0156,0.0064,0.0332,0.0083
	c0.039-0.0263,0.1269-0.0161,0.1914-0.0161c0.0879,0,0.1738-0.0102,0.2392-0.0258h0.1104c0.0703-0.0201,0.1992-0.025,0.2852-0.0264
	h0.1376c0.3995-0.103,0.9834-0.02,1.4366-0.0518c0.0058-0.0093,0.0117-0.0171,0.0185-0.0249
	c-0.0644-0.0342-0.165-0.0469-0.2158-0.0952c-0.0273-0.0268-0.0371-0.0718-0.0605-0.104c-0.0518-0.0708-0.1348-0.0898-0.2403-0.1108
	c-0.0351,0.021-0.1133,0.0048-0.1543,0.0171c-0.1406,0.041-0.3271,0.0429-0.5175,0.0429h-0.1719
	c-0.083-0.018-0.1699-0.0703-0.292-0.0429c-0.2315,0.0507-0.4151,0.1699-0.7051,0.1718
	C32.0137,21.9082,31.9629,21.9951,31.9551,22.0898 M31.9453,29.4707c0.0039-0.0078,0.0068-0.0166,0.0088-0.0254h-0.0088v-0.0078
	h-0.0254c-0.0039,0.0186-0.0078,0.0078,0,0.0254C31.9277,29.4687,31.9268,29.4678,31.9453,29.4707 M31.791,22.0898
	c0.0098,0.0064,0.0156,0.0064,0.0342,0.0083c0.04-0.0703,0.082-0.1679,0.1045-0.249c-0.0117-0.0083-0.0108-0.0073-0.0176-0.0171
	h-0.0439C31.8477,21.8711,31.7695,22.0449,31.791,22.0898 M32.0059,26.2539c0.1591,0,0.3964-0.0293,0.5234,0h0.207
	c0.086,0.0176,0.1748,0.0098,0.2422,0.0078c0.0938-0.0019,0.1875,0.0215,0.2852,0.0098c0.084-0.0117,0.2207-0.0117,0.3437,0.0078
	c0.0449,0.0078,0.1524-0.0156,0.2237,0c0.1533,0.0352,0.291-0.002,0.455,0.0352h0.1299c0.0928,0.0234,0.2168,0.0468,0.3106,0.0683
	c0.125-0.0039,0.2519-0.0058,0.3789-0.0078c0.0019-0.0088,0.0039-0.0176,0.0078-0.0273c-0.0654-0.0293-0.1406-0.0938-0.1885-0.1456
	c-0.0547,0.0049-0.0752,0.0323-0.1201,0.043h-0.25c-0.2315,0-0.4883-0.0107-0.6455-0.0342
	c-0.0596-0.0097-0.1358,0.002-0.1807-0.0088H33.083h-0.6719c-0.1025,0-0.2373,0.0108-0.3261-0.0087h-0.2256
	c-0.0274-0.0079-0.041-0.0235-0.086-0.0254c-0.0117,0.0234-0.0634,0.0625-0.0507,0.0771
	C31.7754,26.2773,31.9336,26.2539,32.0059,26.2539 M31.8086,29.4629c0.0019-0.0059,0.0039-0.0117,0.0078-0.0195
	c-0.0254-0.0137-0.0449-0.0411-0.0605-0.0664h-0.0254c-0.0166,0.0117-0.0469,0.0175-0.0684,0.0253
	c0.0029,0.0059,0.0059,0.0118,0.0088,0.0176C31.71,29.4414,31.751,29.457,31.8086,29.4629 M31.6523,27.3965
	c0.0215,0.0195,0.0245,0.041,0.0332,0.0703h0.0196c0.0381-0.0625,0.0937-0.1025,0.1465-0.1543
	c0.1035-0.1025,0.2109-0.209,0.3007-0.3281c0.0225-0.0323,0.0616-0.0508,0.0762-0.0938h0.0098
	c0.0088-0.0088-0.0098-0.0088-0.0098-0.0088c-0.0078-0.0068-0.0019-0.0029-0.0166-0.0088c-0.0547,0.0586-0.125,0.1055-0.1904,0.1563
	c-0.0254,0.0176-0.0391,0.0488-0.0596,0.0762c-0.042,0.0537-0.1123,0.1045-0.1631,0.1543
	C31.7539,27.3047,31.6748,27.332,31.6523,27.3965 M31.7129,26.7871c-0.0068,0.0078-0.0147,0.0117-0.0254,0.0176
	c0.0039,0.0078,0.0078,0.0156,0.0098,0.0254c0.0146-0.0098,0.0234-0.0196,0.0351-0.0352
	C31.7266,26.793,31.7188,26.79,31.7129,26.7871 M31.7227,21.4712c-0.0088-0.0034-0.0186-0.0064-0.0274-0.0093
	c-0.0058,0.0132-0.0137,0.0249-0.0244,0.0342c0.0059,0.0161,0.002,0.0078,0.0088,0.0181v0.0078h0.0176
	C31.71,21.501,31.7168,21.5029,31.7227,21.4712 M31.6367,29.2305c0.0156,0.0058,0.0322,0.0078,0.0606,0.0058
	c0.0029-0.0058,0.0058-0.0156,0.0088-0.0244c-0.0225-0.0264-0.0245-0.0537-0.0616-0.0674
	C31.6387,29.166,31.6367,29.1973,31.6367,29.2305 M31.6445,22.0732c0.0147-0.0063,0.0078-0.0024,0.0166-0.0083
	c0.0127-0.018,0.0157-0.0488,0.0166-0.0771c-0.0068-0.0029-0.0156-0.0059-0.0254-0.0098c-0.0136,0.0249-0.0214,0.0298-0.0244,0.0699
	C31.6367,22.0552,31.6387,22.063,31.6445,22.0732 M31.6182,27.2344c0.0146,0.0049,0.0224,0.0068,0.0439,0.0097
	c0.0381-0.0488,0.0947-0.0898,0.1445-0.1289c0.0157-0.0195,0.0293-0.04,0.045-0.0586c0.0468-0.0556,0.1045-0.0947,0.1621-0.1396
	c0.0234-0.0244,0.0468-0.0508,0.0693-0.0762c0.0576-0.0449,0.1631-0.0918,0.1885-0.164h-0.0078V26.667h-0.1133
	c-0.0371,0.0488-0.1025,0.0752-0.1533,0.1123c-0.1338,0.0996-0.2217,0.2676-0.3604,0.3594v0.0097h0.0078v0.0098
	c0.0205-0.0098,0.0391-0.0254,0.0508-0.0195c0.0078,0.0097,0.0059,0.0097,0.0098,0.0263
	C31.6719,27.1797,31.6279,27.1934,31.6182,27.2344 M31.5762,28.9297c0.0146-0.0068,0.0078-0.0029,0.0176-0.0088
	c0.0283-0.043,0.0078-0.3057-0.0176-0.3272C31.5527,28.6445,31.5498,28.8555,31.5762,28.9297 M31.499,22.624
	c-0.0127,0.0078-0.0224,0.0171-0.0361,0.0259l0.0254,0.188c0.1426,0.4702,0.1621,1.1182,0.1621,1.6963
	c0.0185,0.0049,0.041,0.0078,0.0703,0.0078c0.0117-0.021,0.0156-0.0508,0.0176-0.084c0-0.0288,0-0.0601,0-0.0879
	c-0.0586-0.0869,0.0078-0.2549-0.0264-0.3701c-0.0849-0.292-0.0039-0.731-0.0771-1.0322v-0.2237
	c-0.0186-0.0903-0.0215-0.2021-0.042-0.2832c-0.0088-0.0317,0.0029-0.0659-0.0098-0.0869v-0.0078h-0.0674
	c-0.0185,0.0288-0.0254,0.04-0.0254,0.0947C31.502,22.479,31.5117,22.5918,31.499,22.624 M31.584,27.2422
	c0.0049-0.0137,0.0058-0.0137,0.0088-0.0332c-0.0088-0.0039-0.0166-0.0059-0.0264-0.0098c-0.0039,0.0137-0.0059,0.0215-0.0078,0.043
	h0.0078v0.0098C31.5732,27.25,31.5781,27.2461,31.584,27.2422 M31.5586,21.4961v0.0088c0.0156-0.0049,0.0078-0.002,0.0176-0.0088
	c0.0058-0.0083,0.0019-0.002,0.0078-0.0171c-0.0069-0.0019-0.0156-0.0049-0.0254-0.0078
	C31.5566,21.4902,31.5508,21.48,31.5586,21.4961L31.5586,21.4961z M31.5566,28.5684v0.0078
	c0.0079-0.002,0.0137-0.0059,0.0196-0.0078c0.0049-0.0157,0.0068-0.0225,0.0078-0.043c-0.0069-0.0059-0.0156-0.0137-0.0254-0.0186
	c-0.0059,0.0166-0.0078,0.0342-0.0088,0.0616H31.5566z M31.5586,21.7031c0.0059,0.0147,0.0019,0.0078,0.0078,0.0171v0.0088
	c0.0156-0.0059,0.0098-0.0019,0.0176-0.0088c0.0293-0.0073,0.0332-0.0083,0.043-0.0351c0.0136-0.0142,0.0156-0.0162,0.0175-0.042
	h-0.0078v-0.0093h-0.0351C31.5898,21.6592,31.5781,21.6851,31.5586,21.7031 M31.5498,28.3262
	c-0.0049,0.0156-0.0068,0.0273-0.0078,0.0527h0.0078v0.0078h0.0088v-0.0078c0.0098-0.0117,0.0098-0.0215,0.0098-0.043
	C31.5625,28.334,31.5566,28.3301,31.5498,28.3262 M31.5156,21.8398c0.0078,0.0083,0.0078,0.0074,0.0264,0.0083
	c0.0146-0.0161,0.0244-0.0151,0.0332-0.0419c-0.0068-0.003-0.0166-0.0064-0.0254-0.0093
	C31.54,21.8081,31.498,21.8311,31.5156,21.8398 M31.5068,27.9922c0.0254,0.084-0.0019,0.2012,0.0264,0.2832
	c0.0059-0.002,0.0107-0.0059,0.0166-0.0078c0.0127-0.0352,0.0107-0.0918,0.0088-0.1387c-0.041-0.0684,0.0234-0.2578-0.0088-0.3105
	c-0.0098-0.0137-0.0049-0.0098-0.0244-0.0166c-0.0156,0.0166-0.0293,0.0332-0.043,0.0517
	C31.4844,27.8984,31.498,27.959,31.5068,27.9922 M31.4727,27.707v0.0088c0.0156-0.0049,0.0097-0.001,0.0175-0.0088
	c0.0127-0.0117,0.0254-0.0273,0.0332-0.0429h-0.0078v-0.0079h-0.0429c-0.0049,0.0137-0.0069,0.0274-0.0088,0.0508H31.4727z
	 M31.4639,21.6768c0.0068-0.003,0.0127-0.0059,0.0185-0.0079c0.0117-0.0278,0.086-0.1298,0.0674-0.1469
	c-0.0078-0.0059-0.0019-0.003-0.0176-0.0078c-0.0254,0.0337-0.0654,0.0258-0.0761,0.0766
	C31.4707,21.6152,31.4561,21.6499,31.4639,21.6768 M31.4209,26.916c0.0166,0.0176,0.0312,0.0215,0.0596,0.0254
	c0.0039-0.0078,0.0058-0.0176,0.0097-0.0254c0.0069-0.0098,0.0059-0.0137,0.0088-0.0342h-0.0088V26.873h-0.0351
	c-0.0176,0.0157-0.0235,0.0079-0.0342,0.0352h-0.0078C31.4043,26.916,31.4209,26.916,31.4209,26.916 M31.3945,27.1484
	c0.0098,0.0088,0.0157,0.0176,0.0264,0.0245v0.0107h0.0088v-0.0107c0.0098-0.0127,0.0098-0.042,0.0098-0.0674h-0.0098v-0.0078
	h-0.0254C31.4004,27.1113,31.3965,27.124,31.3945,27.1484 M31.293,22.2031v0.0938c0.0088,0.0039,0.0156,0.0063,0.0293,0.0073
	c0.0029,0.001,0.0078,0.001,0.0136,0.002c0.0069-0.0064,0.0274-0.0123,0.0352-0.0181c0.0215-0.0239,0.082-0.1572,0.0684-0.1802
	c-0.0147-0.0117-0.0186-0.0142-0.043-0.0171c-0.0059,0.0064-0.0078,0.0152-0.0137,0.0244
	c-0.0127,0.0288-0.0293,0.0669-0.0478,0.0786c-0.0147,0.0093-0.0342-0.0068-0.043,0.0093H31.293z M31.3535,29.3496v0.0117h0.0078
	v-0.0097c0.127-0.0782,0.0996-0.1993,0.0957-0.3955l-0.0175-0.0088c-0.0118,0.0205-0.0147,0.0205-0.0176,0.0507
	c-0.0235,0.0411-0.0049,0.0997-0.0176,0.1543c-0.0156,0.0723-0.0449,0.1289-0.0605,0.1973H31.3535L31.3535,29.3496z
	 M31.3262,24.4209c0.0146-0.0049,0.0078-0.002,0.0166-0.0078c0.0068-0.0103,0.0068-0.0152,0.0088-0.0352
	c-0.0078-0.0019-0.0176-0.0049-0.0254-0.0088C31.3145,24.3989,31.3125,24.3882,31.3262,24.4209 M31.4043,26.0732
	c0.0312,0.0186,0.0996,0.0303,0.1367,0.0342c0.0029-0.0078,0.0059-0.0176,0.0088-0.0263c0.0088-0.0108,0.0068-0.0127,0.0088-0.0342
	h-0.0088v-0.0078H31.249C31.249,26.0859,31.332,26.0771,31.4043,26.0732 M31.335,22.6411c0.0185,0.063,0.0078,0.146,0.0009,0.1978
	c-0.0068,0.0551,0.0274,0.2622,0.044,0.31c0.0205,0.0698-0.0166,0.1333,0,0.1973c0.0088,0.0386,0.0332,0.1128,0.042,0.147v0.3178
	c0.0547,0.1851,0.0332,0.502,0.0176,0.7139c0.0195,0.0073,0.0468,0.0093,0.0781,0.0093c0.0097,0.0078,0.0215,0.0078,0.0429,0.0088
	c0.0264-0.0762,0.0079-0.21,0.0079-0.3018c-0.0323-0.0513-0.002-0.1391-0.0176-0.206c-0.0235-0.1104-0.0254-0.2281-0.0254-0.3531
	v-0.1723c-0.0098-0.0489-0.0225-0.1128-0.0244-0.1719c-0.0498-0.0239-0.0655-0.0327-0.0615-0.1118
	c-0.0215-0.0323-0.0059-0.0713-0.0176-0.1201c-0.0274-0.1309-0.0196-0.3008-0.0127-0.4581c0.0019-0.0498,0.0049-0.0991,0.0049-0.144
	c-0.0254-0.0117-0.0323-0.0078-0.0606-0.0181c-0.0097-0.019-0.0176-0.0527-0.0264-0.0766h-0.0068h-0.0195
	C31.2754,22.4829,31.3184,22.5811,31.335,22.6411 M31.249,21.9531c0.0225,0.0279,0.0225,0.084,0.0342,0.1201
	c0.0147-0.0053,0.0088-0.0014,0.0166-0.0092c0.0596-0.062,0.1494-0.2798,0.1631-0.378c0-0.0009-0.002-0.0009-0.0029-0.0019
	c-0.0049-0.002-0.0088-0.0049-0.0127-0.0073C31.377,21.7788,31.248,21.7729,31.249,21.9531 M31.2402,28.6191
	c-0.0058-0.0039-0.0117-0.0058-0.0175-0.0078c-0.0127,0.0205-0.0166,0.0293-0.0176,0.0664
	c-0.0196,0.0235-0.042,0.1123-0.0352,0.1309v0.0098c0.0156-0.0059,0.0098-0.002,0.0176-0.0098
	C31.2324,28.7656,31.2422,28.7119,31.2402,28.6191 M31.2061,26.2285c0.0263,0.0293,0.1259,0.0176,0.1806,0.0176
	c0.0098-0.0078,0.0205-0.0078,0.043-0.0098c0.0156-0.0263,0.0391-0.0527,0.0508-0.0859c-0.0078-0.0059-0.0166-0.0117-0.0244-0.0176
	c-0.0538,0.0371-0.1748,0.0137-0.2413,0.0098c-0.0058,0.0166-0.0087,0.039-0.0087,0.0683
	C31.1953,26.2246,31.1992,26.2148,31.2061,26.2285 M31.1895,27.0791c-0.0098-0.0059-0.004-0.0029-0.0196-0.0088
	c0.003,0.0137-0.0019,0.0313,0.0196,0.0176h0.0078v-0.0088H31.1895z M31.1289,27.0107c0,0.0205,0.002,0.0323,0.0254,0.0518v0.0078
	h0.0088v-0.0078c0.0107-0.0137,0.0058-0.0039,0-0.0176C31.1523,27.0195,31.1504,27.0234,31.1289,27.0107 M31.0938,29.1182
	c-0.0059-0.003-0.0108-0.0069-0.0176-0.0088c-0.0274,0.0429-0.0684,0.0761-0.085,0.1299h0.0078v0.0087
	C31.0625,29.2148,31.0996,29.2246,31.0938,29.1182 M30.793,21.6338c0.0195,0.0312,0.0175,0.0742,0.0341,0.103
	c0.0655,0.105,0.1397,0.208,0.1983,0.3272c0.0156-0.0059,0.0078-0.002,0.0176-0.0088c0.0058-0.0093,0.0049-0.0083,0.0088-0.0264
	c-0.0166-0.02-0.0879-0.2139-0.0948-0.2397c-0.0117-0.0411,0.0176-0.0713,0.0088-0.086c-0.0381-0.0522-0.2334-0.166-0.3017-0.1982
	C30.6426,21.5688,30.7568,21.5801,30.793,21.6338 M30.7588,29.2383c0.0088,0.0117,0.0498,0.0566,0.0674,0.0527
	c0.0234-0.0068,0.0371-0.0664,0.0517-0.0859c0.0469-0.0723,0.1065-0.1289,0.1299-0.2246c-0.0088-0.002-0.0166-0.0059-0.0254-0.0078
	c-0.041,0.0771-0.166,0.1875-0.2324,0.248C30.7549,29.2363,30.752,29.2305,30.7588,29.2383 M30.8164,23.5532v0.0078h0.0098
	c0.0039,0.0059,0.0068,0.0108,0.0097,0.0181c0.0137-0.0059,0.0079-0.002,0.0157-0.0093c0.0547-0.0117,0.1132-0.0449,0.1396-0.0859
	c-0.0068-0.0029-0.0127-0.0059-0.0185-0.0088c-0.045,0.0327-0.1094,0.0508-0.1543,0.0781H30.8164z M30.7842,23.8281
	c-0.002,0.0069-0.0069,0.0039-0.001,0.0088c0.0088,0.0068,0.0029,0.0029,0.0186,0.0093c0.0644-0.0483,0.1767-0.0303,0.206-0.1133
	c-0.0088-0.0019-0.0166-0.0049-0.0254-0.0078C30.9268,23.7729,30.8271,23.7671,30.7842,23.8281 M30.7842,23.75
	c0.0693-0.0342,0.2392-0.0591,0.2412-0.1548c-0.0078-0.0034-0.0166-0.0063-0.0264-0.0083c-0.041,0.0581-0.1601,0.104-0.2236,0.1372
	C30.7773,23.7319,30.7813,23.7422,30.7842,23.75 M31.1523,27.3711v-0.0078c0.0079-0.0098,0.0059-0.0078,0.0098-0.0254
	c-0.0361-0.0664-0.0703-0.1328-0.1035-0.1973c-0.0635-0.0722-0.127-0.1445-0.1895-0.2158h-0.0937
	c-0.0039,0.0186-0.0098,0.0088,0,0.0244c0.0215,0.0293,0.0742,0.0166,0.0937,0.0449c-0.0273,0.0079-0.0234,0.0079-0.0341,0.0352
	h0.0078c0.1025,0.1045,0.2334,0.209,0.3037,0.3418H31.1523z M30.8281,27.166c0.0059,0.0176,0.0108,0.0332,0.0176,0.0518
	c0.0566,0.0556,0.1143,0.1093,0.1699,0.164c0.0371,0.0498,0.0694,0.1504,0.1309,0.1729c0.0166-0.0205,0.0234-0.0088,0.0351-0.0186
	h0.0079v-0.0088c-0.1045-0.08-0.1875-0.2128-0.2666-0.3173c-0.0635-0.0821-0.1573-0.1368-0.2149-0.2256h-0.0537
	c-0.0039,0.0195-0.0078,0.0097,0,0.0263C30.7031,27.0723,30.7695,27.1133,30.8281,27.166 M30.6465,27.1572
	c0,0.0537,0.082,0.1104,0.1211,0.1533c0.0937,0.1084,0.1836,0.2374,0.2666,0.3536c0.0303,0.042,0.0508,0.1171,0.1025,0.1377v-0.0079
	c0.0137-0.0097,0.0176-0.0127,0.0264-0.0263c-0.0459-0.0615-0.0615-0.1446-0.0947-0.1973
	C30.9844,27.4375,30.7979,27.2168,30.6465,27.1572 M30.543,29.2129c-0.0098,0.0098,0.0078,0.0078,0.0078,0.0078
	c0.0156,0.0186,0.0195,0.0186,0.0527,0.0186c0.0528-0.0557,0.1211-0.1192,0.1465-0.1973h0.0088
	c0.0107-0.0098-0.0078-0.0078-0.0078-0.0078c-0.0088-0.0088-0.002-0.0049-0.0166-0.0108c-0.0469,0.0625-0.1719,0.1006-0.1826,0.1895
	H30.543z M30.6465,27.1133c0.0039-0.0059,0.0058-0.0098,0.0078-0.0156c-0.0781-0.0547-0.0684-0.0997-0.1895-0.1299
	c-0.0029,0.0205-0.0078,0.0088,0,0.0263C30.498,27.0449,30.5625,27.1133,30.6465,27.1133 M30.707,23.7681
	c0.0059-0.0093,0.003-0.003,0.0069-0.0181c-0.0098-0.0068-0.0088-0.0068-0.0166-0.0171h-0.0254
	c-0.0645,0.0503-0.1787,0.0811-0.2403,0.104c0.0059,0.0152,0.002,0.0083,0.0079,0.0161v0.0098
	C30.4824,23.8491,30.6631,23.7998,30.707,23.7681 M30.4229,23.8628V23.854H30.415c-0.0087-0.0068-0.0029-0.0029-0.0185-0.0088
	c0.0019,0.0127-0.002,0.0308,0.0185,0.0176H30.4229z M30.3809,24.2319c0.0058,0.0074-0.0059,0.0113,0.0078,0.0259
	C30.4023,24.2412,30.3926,24.2432,30.3809,24.2319 M30.3887,23.8789v-0.0078h-0.0078c-0.0098-0.0083-0.003-0.0029-0.0196-0.0093
	c0.002,0.0122-0.0019,0.0303,0.0196,0.0171H30.3887z M30.0117,29.6182H30.002v-0.0088h-0.0254c0,0.0234-0.0118,0.0176,0.0254,0.0254
	c0.0019-0.0059,0.0058-0.0118,0.0097-0.0176V29.6182z M30.0791,24.3789c0.0225-0.0078,0.0557-0.0352,0.0772-0.0439
	c0.0703-0.0249,0.1699-0.0259,0.2138-0.0772c-0.0146-0.0078-0.0127-0.0107-0.0342-0.0166c-0.0498,0.042-0.1377,0.0357-0.206,0.0596
	c-0.1865,0.0683-0.3936,0.1211-0.5752,0.1982c0.0019,0.0059,0.0039,0.0117,0.0078,0.0171c0.0166,0.0059,0.0332,0.0088,0.0605,0.0088
	C29.7461,24.4351,29.9199,24.4351,30.0791,24.3789 M29.8125,26.752c-0.0078,0.0087,0.0078,0.0087,0.0078,0.0087
	c0.0332,0.0323,0.1709,0.1163,0.2168,0.1299h0.1192c0.082,0.0186,0.1816,0.0362,0.2675,0.043
	c0.0059-0.0088,0.0117-0.0166,0.0157-0.0244c-0.0704-0.0274-0.1426-0.0537-0.2129-0.0781c-0.045-0.0127-0.084,0.0019-0.1211-0.0166
	c-0.0391-0.0196-0.0723-0.0713-0.1123-0.0879h-0.1377c-0.0117,0.0097-0.0235,0.0136-0.0352,0.0254H29.8125 M29.5547,26.8125
	c0.0351,0.0107,0.1162,0.0254,0.1543,0.0352c0.0068-0.0088,0.0117-0.0166,0.0176-0.0274c-0.0528-0.0293-0.0879-0.0664-0.1719-0.0674
	c-0.0479,0.0332-0.1641,0.0049-0.2236,0.0264c0.0048,0.0146,0.0009,0.0078,0.0087,0.0156
	C29.3945,26.8301,29.4863,26.7939,29.5547,26.8125 M29.623,24.3789c0.3575-0.1357,0.752-0.25,1.1524-0.3437
	c0.0127-0.0245,0.0244-0.0381,0.0332-0.0694c0.0019-0.0088,0.0059-0.0039,0-0.0088c-0.0078-0.0058-0.0078-0.0049-0.0254-0.0088
	c-0.0488,0.0337-0.1113,0.0259-0.1719,0.0518c-0.1308,0.0562-0.289,0.0991-0.4297,0.146c-0.0537,0.019-0.0927,0.0078-0.1464,0.0259
	c-0.2881,0.0981-0.5977,0.2011-0.8594,0.3271c0.0058,0.0152,0.0019,0.0078,0.0078,0.0171c0.0117,0.0078,0.0215,0.0078,0.043,0.0088
	C29.3125,24.4541,29.5098,24.4219,29.623,24.3789 M29.0215,26.8477c0.1006,0.0214,0.2197,0.0293,0.3183,0.0507h0.087
	c0.3222,0.086,0.6806,0.1377,1.0322,0.1807c0.0019-0.0068,0.0049-0.0166,0.0078-0.0244c-0.0547-0.0352-0.0547-0.086-0.1465-0.086
	c-0.0185-0.0117-0.0488-0.0019-0.0771-0.0097c-0.0762-0.0176-0.1709-0.0254-0.2491-0.043h-0.1035
	c-0.0722-0.0215-0.1767-0.0254-0.2588-0.043h-0.0947c-0.1875-0.0566-0.418-0.0468-0.6191-0.0859
	c-0.0157,0.0098-0.0606,0.0117-0.0782,0.0176c0.0059,0.0156,0.002,0.0078,0.0098,0.0176
	C28.8965,26.8516,28.9541,26.832,29.0215,26.8477 M28.8926,24.4482H28.874c0.0098,0.0059,0.003,0.002,0.0186,0.0079V24.4482z
	 M28.874,24.4561h-0.0166c0.0088,0.0068,0.002,0.0029,0.0166,0.0078V24.4561z M28.8926,24.4561
	c-0.0156-0.0049-0.0088-0.002-0.0186-0.0079h0.0186V24.4561 M28.874,24.4561v0.0078c-0.0146-0.0039-0.0078-0.001-0.0166-0.0078
	H28.874z M26.9473,24.6699c-0.0225,0-0.0401,0-0.0528-0.0078C26.9199,24.6621,26.9355,24.6621,26.9473,24.6699 M25.752,24.7402
	c0.0459,0.0059,0.082-0.0112,0.1406-0.0083c0.1084,0.003,0.2842,0.0171,0.3867,0c0.0879-0.0151,0.2217,0.0074,0.3027,0.0161
	c0.0625,0.0088,0.1465-0.0161,0.2246-0.0161c0.1524,0,0.334,0.0288,0.4629,0c0.1006,0.002,0.2012,0.0049,0.3028,0.0083
	c0.0625-0.0141,0.0996-0.0522,0.1455-0.0771c0.1045-0.0571,0.2383-0.1231,0.3525-0.1553c0.082-0.022,0.1436,0.0181,0.2246,0.0171
	c0.0567,0,0.083-0.0308,0.1387-0.0171c0.0234,0.0064,0.0693,0.0313,0.1035,0.0264c0.1016-0.0152,0.2061-0.0581,0.3184-0.0703v0.0102
	h-0.0176c-0.0137,0.0117-0.0332,0.0171-0.0518,0.0249c0.002,0.0059,0.0059,0.0117,0.0088,0.0171
	c0.0137,0.0049,0.0196,0.0068,0.043,0.0088c0.0234-0.0288,0.0625-0.0391,0.0859-0.0688c-0.0107-0.0069-0.0097-0.0069-0.0195-0.0171
	c0.0781,0.0048,0.1621-0.0508,0.2422-0.0782c0.0547-0.0171,0.0898-0.0058,0.1377-0.0258c0.0976-0.0391,0.1904-0.0992,0.2842-0.1451
	c0.0332-0.018,0.0586-0.0107,0.0947-0.0258c0.1182-0.0523,0.2002-0.0791,0.3174-0.1289c0.0898-0.0391,0.3359-0.0923,0.3613-0.1553
	H30.334v-0.0078c-0.1016,0.0268-0.2119,0.0937-0.3272,0.1279v-0.0078h0.0088c0.0782-0.1152,0.293-0.1602,0.4199-0.2241
	c0-0.0342-0.0019-0.023,0-0.0523c0.1563-0.0747,0.25-0.2119,0.3887-0.2998c0.041-0.0268,0.1797-0.1001,0.1973-0.1391v-0.3687
	c-0.0469-0.0581-0.0059-0.2212-0.0332-0.3013c-0.0078-0.018-0.0342-0.0371-0.0449-0.0507c-0.0391-0.065-0.0664-0.1392-0.1026-0.1993
	c-0.0713-0.1201-0.0908-0.271-0.1631-0.3867c-0.042-0.0674-0.1113-0.1211-0.1543-0.189c-0.0586-0.0961-0.125-0.2333-0.2763-0.2324
	c-0.1231-0.081-0.6358-0.0547-0.8428-0.0429c-0.2773,0.0161-0.5254,0.0429-0.834,0.0429c-0.084,0-0.2012,0.0113-0.2578,0
	c-0.1191-0.0239-0.2852,0.0191-0.4141-0.0088c-0.0586-0.0131-0.1416-0.018-0.2285-0.018c-0.1582,0-0.334,0.018-0.4248,0.0439
	c-0.1474,0.0029-0.2978,0.0059-0.4463,0.0093c-0.1806,0.0327-0.5927,0.0078-0.8691,0.0078
	c-0.5708-0.0029-1.1426-0.0059-1.7109-0.0078c-0.0948-0.021-0.2217-0.0264-0.3189-0.0264h-0.1641
	c-0.1987-0.0439-0.4917-0.0176-0.7397-0.0176c-0.2441-0.0034-0.4912-0.0063-0.7383-0.0092
	c-0.0586-0.0161-0.2998-0.042-0.3706-0.0161c-0.104,0.038-0.2471,0.0693-0.3613,0.103h-0.1367
	c-0.021,0.0063-0.0562,0.0351-0.0782,0.042c-0.0488,0.018-0.1049,0.0093-0.146,0.0351c-0.0791,0.0498-0.1709,0.2222-0.2309,0.3008
	c-0.0889,0.1172-0.232,0.2002-0.3189,0.3194c-0.0952,0.1259-0.1684,0.2729-0.2841,0.3779v0.4038
	c0.0698,0.229,0.0971,0.5249,0.1811,0.7573c0.021,0.0557,0.0147,0.1235,0.044,0.1719c0.0126,0.0249,0.0507,0.0459,0.0678,0.0698
	c0.0591,0.0811,0.0869,0.1821,0.232,0.1802c0.0639,0.041,0.269,0.0498,0.3701,0.0517h0.146c0.1347,0.0391,0.3017,0.042,0.4741,0.042
	h0.2578c0.1431,0.043,0.3149,0.0083,0.48,0.0352c0.0449,0.0068,0.2431-0.0112,0.3032,0.0088c0.1519,0.0522,0.3516,0.022,0.5078,0
	v0.0254c-0.041,0.0029-0.1069,0.0117-0.147,0.0259c0.003,0.0058,0.0069,0.0107,0.0088,0.018
	c0.0591,0.0249,0.126,0.0327,0.189,0.0601c0.0332,0.0137,0.0703,0.0469,0.104,0.0586c0.0381,0.0151,0.062,0.0034,0.103,0.018
	c0.0533,0.0201,0.1031,0.0874,0.1553,0.1114c0.043,0.0219,0.0801,0.0117,0.1289,0.0258c0.0591,0.0191,0.1328,0.0528,0.1968,0.0689
	c0.021,0.0049,0.04,0.0083,0.0591,0.0083c0.083,0,0.1523-0.044,0.208-0.0591h0.3623c0.2256,0,0.4678-0.0039,0.645-0.0342
	C25.5117,24.7129,25.6621,24.728,25.752,24.7402 M28.8066,26.71c-0.0107-0.0069-0.0097-0.0069-0.0175-0.0186h-0.0342
	c-0.0039,0.0205-0.0078,0.0098,0,0.0264c0.0107,0.0088,0.0205,0.0088,0.043,0.0088C28.7998,26.7207,28.8027,26.7158,28.8066,26.71
	 M28.0918,26.2363h0.7432c0.1728,0,0.3974,0.0147,0.542,0c0.0546-0.0058,0.0878,0.0147,0.1367,0.0088
	c0.1045-0.0088,0.2343-0.0205,0.3359,0h0.4317c0.3105,0,0.6054,0.0098,0.8339,0c0.0137-0.0244,0.0176-0.0498,0.0176-0.0947
	c0.0098-0.0137-0.001-0.0391,0.0078-0.0606c0.0078-0.0156,0.0264-0.0175,0.0342-0.0419H31.167v-0.0088
	c-0.1025,0.0019-0.1738-0.0157-0.2578-0.0352v-0.0176c-0.0069-0.0097-0.0069-0.0205-0.0088-0.041
	c0.0332-0.0185,0.082-0.0195,0.1377-0.0185c0.0469,0.041,0.2607,0.0263,0.3525,0.0263c0.1592,0,0.2813-0.0312,0.3965-0.0605h0.4375
	c0.0674-0.0108,0.1797-0.0088,0.25,0c0.0322-0.002,0.0645-0.0059,0.0957-0.0088h0.3692h1.0937h0.6875
	c0.0469,0.0166,0.1172,0.1006,0.1719,0.1299c0.0527,0.0254,0.1426,0.0664,0.1894,0.0859c0.0586,0.0215,0.1114,0.0166,0.1641,0.043
	c0.0664,0.0351,0.1269,0.0937,0.206,0.1211c0.0508-0.0479,0.1163-0.0479,0.1885-0.0782c0.0362-0.0166,0.0332-0.0556,0.0528-0.0693
	c0.0146-0.0107,0.0859-0.0088,0.1093-0.0166c0.0469-0.0146,0.0977-0.0488,0.1407-0.0703v-0.0078
	c-0.0137-0.0039-0.0157-0.0059-0.0352-0.0078c-0.0234,0.0136-0.2412,0.084-0.2676,0.0859v-0.0244
	c0.084-0.0225,0.125-0.0869,0.1885-0.1221c0.0596-0.0322,0.1416-0.0283,0.1641-0.0957c-0.0088-0.0019-0.0166-0.0039-0.0264-0.0078
	c-0.0195-0.0127-0.0869-0.0127-0.1113-0.0176v-0.0341c0.0947-0.0508,0.3564-0.1221,0.4121-0.1885
	c0.0137-0.0137,0.0156-0.0274,0.0185-0.0508c-0.0127-0.0059-0.0146-0.0078-0.0341-0.0107
	c-0.0586,0.0517-0.3067,0.1113-0.4131,0.1132v-0.0088h-0.0088V25.626c0.0937-0.0049,0.1836-0.0694,0.2588-0.1026
	c0.0478-0.0214,0.1259-0.0385,0.1728-0.0522h0.043c0.0205-0.0122,0.0176-0.0444,0.0176-0.0772
	c-0.0118-0.0083-0.0118-0.0068-0.0176-0.017c-0.1172,0.062-0.332,0.1289-0.4902,0.1367v-0.0078h-0.0098v-0.0347
	c0.0234-0.001,0.2441-0.1182,0.25-0.1294c-0.0147-0.0039-0.0205-0.0068-0.043-0.0078c-0.0273,0.0288-0.1338,0.041-0.1816,0.043
	v-0.0181c0.0644-0.0269,0.1269-0.064,0.1894-0.0947c0.0352-0.0162,0.0733-0.0132,0.1035-0.0342
	c0.0069-0.0078,0.003-0.002,0.0088-0.0171c-0.0136-0.0039-0.0205-0.0068-0.0429-0.0078c-0.0157,0.018-0.0264,0.0171-0.0616,0.0171
	v-0.0093h-0.0078c0-0.0249,0-0.0469-0.0097-0.0601c-0.0391-0.0258-0.1153-0.0107-0.1543-0.018l-0.0078-0.0249
	c0.0371-0.0191,0.1367-0.0459,0.1543-0.086c-0.0176-0.0068-0.0411-0.0078-0.0684-0.0078c-0.041,0.0249-0.1406,0-0.1816-0.0102
	c-0.0684-0.0147-0.17,0.0073-0.2403-0.0157c-0.0478-0.0161-0.1074-0.0361-0.1728-0.0263c-0.0869,0.0122-0.1807-0.0049-0.2744,0
	c-0.1143,0.0048-0.2413-0.0078-0.3536,0.0083c-0.0371-0.0035-0.0742-0.0064-0.1113-0.0083
	c-0.0517,0.0073-0.1348,0.0171-0.1973,0.0083c-0.0898-0.0122-0.2226-0.0122-0.3105,0c-0.1094,0.0156-0.2363-0.0254-0.3438-0.0083
	c-0.0957,0.0151-0.2187,0.0083-0.3183,0c-0.1113-0.0098-0.2236,0.0254-0.3369,0.0083c-0.0674-0.0093-0.1446,0.0117-0.2227,0
	c-0.0947-0.0142-0.2197-0.0083-0.3183,0c-0.1143,0.0097-0.2315-0.0161-0.336,0c-0.0205-0.0035-0.039-0.0064-0.0595-0.0083
	c-0.0879,0.0141-0.1963-0.0039-0.2842,0.0083c-0.0205-0.0035-0.0401-0.0064-0.0616-0.0083c-0.2519,0.0351-0.539-0.0308-0.791,0.0083
	c-0.082,0.0127-0.1562-0.0113-0.2314,0c-0.0967,0.0146-0.1846-0.023-0.2842-0.0083c-0.0967,0.0151-0.2217,0.0073-0.3262,0
	c-0.0888-0.0069-0.1767,0.0151-0.2666,0.0083c-0.0459-0.0035-0.1006-0.0161-0.1552-0.0083c-0.087,0.0122-0.1856-0.0127-0.2832,0
	c-0.0977,0.0132-0.2247,0.0132-0.3262,0c-0.086-0.0108-0.2725,0.0083-0.3789,0.0083h-0.9219
	c-0.0088,0.0156-0.0137,0.02-0.0215,0.0356c-0.001,0.002-0.0019,0.0054-0.0039,0.0083c0.0762,0.0381,0.0635,0.27,0.0615,0.3867
	c0.0733,0.024,0.2032,0.0093,0.292,0.0083c0.0567-0.042,0.378-0.0171,0.4825-0.0171h1.3242c1.6836,0,3.4277,0.0328,5.0488,0.0352
	c0.0068,0.0146,0.0098,0.0327,0.0098,0.0586c-0.0069,0.0034-0.0411,0.0034-0.0508,0.0093c-0.0156,0.0097,0,0.0263-0.0117,0.0429
	l-0.1094,0.0694c-0.0567,0.0176-0.0899-0.0225-0.1289-0.0264h-0.2754c-0.0664-0.0146-0.1426-0.0166-0.2246-0.0166
	c-0.002-0.0059-0.0059-0.0117-0.0098-0.0185c0.0283-0.0108,0.0469-0.0206,0.0625-0.042c-0.0097-0.0079-0.0097-0.0079-0.0195-0.0181
	c-0.041,0.0093-0.1758-0.0068-0.2129,0.0093c-0.0039,0.0088-0.0078,0.0166-0.0107,0.0263H33.748
	c-0.2148,0-0.4482,0.0137-0.6191-0.0175c-0.0557-0.0108-0.2197,0.0459-0.2754,0.0341c-0.0127-0.0029-0.0244-0.0312-0.0332-0.0341
	h-0.5615c-0.043,0.0097-0.2481,0.0312-0.3516,0.0078c-0.0439-0.0088-0.1689-0.0279-0.2256-0.0078
	c-0.0742,0.0263-0.207,0.0175-0.3086,0.0175h-0.6035c-0.9326,0-1.9179,0.0313-2.8213-0.0175
	c-0.0107,0.0195-0.0146,0.0195-0.0166,0.0527c0.0752,0.0244,0.2071,0.0078,0.3008,0.0078h0.6446
	c0.0468-0.0293,0.2802-0.0078,0.3535-0.0078h0.9375c1.1748,0,2.2851,0.041,3.4502,0.041v0.0342
	c-0.1045,0.0342-0.4004,0.0088-0.5342,0.0088c-0.0479,0.0293-0.2998,0.0078-0.3779,0.0078
	c-0.1924,0.0068-0.3858,0.0117-0.5772,0.0176H31.751c-0.0528,0.0117-0.1153-0.0049-0.1719,0
	c-0.0762,0.0068-0.1787,0.0078-0.2666,0.0078h-0.8447c-0.0576,0-0.1104,0.0097-0.1455,0.0176h-0.586h-0.2929
	c-0.1416-0.0411-0.3702-0.0176-0.5411-0.0176c-0.3505,0-0.6865-0.0069-1.0078-0.0078c-0.0429,0.0849-0.0175,0.2871-0.0166,0.4062
	c-0.0146,0.0088-0.0097,0.0039-0.0166,0.0254c0.0254,0.0137,0.0557,0.0176,0.1026,0.0156c0.042-0.0156,0.1562,0.0098,0.2314-0.0078
	c0.1973-0.0449,0.4785-0.0254,0.7149-0.0254h0.998c0.1416,0,0.3506-0.0234,0.4639,0c0.2002,0.043,0.4297,0.0332,0.6631,0.0332
	v0.0528c-0.2041-0.002-0.4092-0.0118-0.585,0.0254h-2.6338c-0.0078,0.0136-0.0303,0.0244-0.0166,0.0351
	C27.8633,26.2676,27.9971,26.2363,28.0918,26.2363L28.0918,26.2363z M27.8594,24.7222h0.0088
	c0.0488,0.0307,0.1904,0.0097,0.2578,0.0097h0.6806c0.5801,0,1.1797,0.0083,1.7715,0.0083h0.542
	c0.0987,0,0.2168,0.0069,0.3008-0.0083c0.0029-0.0058,0.0059-0.0117,0.0088-0.018c-0.082-0.0279-0.2266-0.0088-0.3262-0.0078
	c-0.0762-0.0572-0.4306-0.043-0.5762-0.043c-0.4853,0-0.8662-0.001-1.3515,0c-0.0449,0.0278-0.2715,0.0078-0.3438,0.0078
	c-0.2636,0-0.7978-0.042-0.9726,0.043V24.7222z M27.627,25.3848c0.0175,0.0131,0.0546,0.0214,0.0605,0.018
	c0.0244-0.0385,0.0117-0.1098,0.0176-0.1469c-0.0078-0.0059-0.0176-0.0108-0.0254-0.0166
	c-0.0137,0.0229-0.0039,0.0605-0.0186,0.0947C27.6504,25.3608,27.6172,25.353,27.627,25.3848 M27.6445,25.9268
	c0.0186,0.0322,0.043,0.0849,0.086,0.0947c0.0185-0.0098,0.0283,0,0.0429-0.0078c0.0118-0.0078,0.0108-0.0078,0.0186-0.0176
	c-0.0303-0.0195-0.0732-0.0527-0.0859-0.0859c-0.0225-0.0567,0.0127-0.0957-0.0264-0.129
	c-0.0108,0.0206-0.0156,0.0235-0.0166,0.0606C27.6504,25.8574,27.6445,25.9268,27.6445,25.9268 M27.6953,25.4971
	c-0.0078-0.003-0.0156-0.0059-0.0254-0.0093c-0.0107,0.0278-0.0195,0.0259,0.0176,0.0356
	C27.6895,25.5137,27.6914,25.5049,27.6953,25.4971 M27.498,25.5234c-0.0488-0.0263-0.1464-0.0185-0.2246-0.0185h-0.4892
	c-0.0322-0.0181-0.1455,0-0.2071,0h-0.5322h-1.0581c-0.167,0-0.376,0.0244-0.5249-0.0078c-0.144-0.0313-0.3359,0.0107-0.4648-0.0181
	c-0.0479,0.1431-0.0352,0.2671-0.0352,0.4478c0.0694,0.0341,0.2149,0.0166,0.311,0.0166h0.6959h2.5214
	c0.0127-0.0235,0.0166-0.0411,0.0157-0.086C27.543,25.8008,27.5039,25.582,27.498,25.5234 M26.9473,24.6709
	c-0.0118-0.0078-0.0274-0.0078-0.0528-0.0078C26.9082,24.6709,26.9248,24.6709,26.9473,24.6709 M25.752,26.5117
	c0.2119,0.0488,0.5234,0.0176,0.7656,0.0176c0.0898,0,0.2304,0.0137,0.2744-0.0352c-0.0225-0.0136-0.042-0.0175-0.0859-0.0175
	c-0.0411,0.0273-0.2422,0.0097-0.3096,0.0097c-0.2725-0.0039-0.5449-0.0058-0.8174-0.0097
	c-0.0068,0.0078-0.0127,0.0127-0.0244,0.0175v0.0098h0.0098C25.6055,26.5322,25.6934,26.498,25.752,26.5117 M23.9971,25.4111v0.0078
	c0.0219-0.0048,0.0342-0.02,0.0508-0.0249c0.0551-0.0151,0.1279,0.0059,0.1733-0.0092c-0.0264-0.0596-0.022-0.0708-0.104-0.086
	c-0.0332,0.0562-0.1201,0.0342-0.1294,0.1123H23.9971z M24.272,26.2451c0.1489-0.0068,0.2842-0.0088,0.4809-0.0088
	c0.2422,0,0.5181,0.0215,0.7232-0.0254c0.1001-0.0234,0.1909,0.0176,0.2671,0.0254h0.7744h0.5166c0.0566,0,0.1777,0.0137,0.206,0
	c0.0098-0.0078,0.0098-0.0078,0.0176-0.0185c-0.0576-0.0186-0.125-0.0342-0.1728-0.0674c-0.0411-0.0283-0.0694-0.082-0.1104-0.1113
	c-0.0205,0.0449-0.0527,0.081-0.1133,0.0849c-0.0254,0.0117-0.0547-0.0019-0.0937,0c-0.1328,0.0108-0.2774-0.0185-0.4658,0
	c-0.1534,0.0166-0.3018-0.001-0.4893,0c-0.3643,0.003-0.7017,0-1.1016,0c-0.184,0-0.3178,0.0117-0.5,0
	c-0.0219-0.001-0.0859-0.0146-0.1098-0.0088c-0.0191,0.0059-0.0342,0.0352-0.0532,0.043c-0.0699,0.0313-0.1197,0.0127-0.1451,0.0869
	h0.0083c0.0108,0.0078,0.022,0.0078,0.043,0.0078C24.0068,26.2246,24.1748,26.251,24.272,26.2451 M23.8091,24.9722v0.0088h-0.0103
	c0.0054,0.0151,0.001,0.0092,0.0103,0.017c0.0161,0.0191,0.0547,0.0591,0.0757,0.0689c0.059,0.0239,0.1191-0.0059,0.1631,0.043
	c0.0429,0.0463,0.0219,0.1181,0.0961,0.146c0.022-0.024,0.1329-0.0328,0.1719-0.0337c0.0362,0.0888,0.0933,0.06,0.207,0.06h0.5162
	h2.2793v-0.0083h0.0087v-0.0346c0.0538,0.0019,0.0928-0.0035,0.1211-0.0264c0.0264-0.0249,0.0381-0.0557,0.0586-0.0859
	c0.0411-0.0552,0.1172-0.0811,0.1553-0.1368c-0.0703-0.0371-0.2246-0.018-0.3262-0.018h-0.7656h-2.3765H23.8091L23.8091,24.9722z
	 M23.7559,25.7637c-0.0279,0.0449-0.0098,0.1855-0.0079,0.25h0.0079v0.0078c0.0161-0.0039,0.0092-0.002,0.019-0.0078
	c0.022-0.0069,0.0313-0.0157,0.0513-0.0254c0.0029-0.0381-0.0171-0.0664-0.0093-0.0957c0.0073-0.0235,0.043-0.0332,0.0513-0.0508
	c0.0219-0.0459,0.0058-0.1602,0-0.1895c-0.0054-0.0019-0.0113-0.0058-0.0161-0.0097c-0.0152,0.0263-0.0191,0.0488-0.0191,0.0957
	C23.8091,25.7471,23.7822,25.7559,23.7559,25.7637 M23.7549,25.5137v0.0097c0.0493,0.002,0.082,0.0254,0.104,0.0166
	c0.0171-0.0263,0.0112-0.0962,0.0093-0.1372c-0.0152-0.0107-0.0581-0.0288-0.0694-0.0439c-0.0268-0.0327-0.0175-0.0757-0.0508-0.103
	c-0.0229,0.0683-0.0009,0.1723,0,0.2578H23.7549z M19.9282,25.9531c0.0127,0.0293,0.022,0.0821,0.0406,0.1114
	c0.0332,0.0468,0.1743,0.0781,0.2333,0.1113c0.0298,0.0156,0.066,0.0654,0.0938,0.0771h1.48
	c0.0083-0.0146,0.0112-0.0136,0.0171-0.0351c-0.0181-0.0264-0.0049-0.086,0-0.1104c0.2749-0.0312,0.6162-0.0234,0.9292-0.0254
	c0.1157-0.0019,0.271-0.0351,0.396-0.0078c0.0776,0.0156,0.1967-0.0137,0.2846,0.0078c0.0332,0.0078,0.0743,0.0176,0.1294,0.0176
	c0.0078-0.0146,0.0108-0.0146,0.0166-0.0351c-0.1289-0.0665-0.0239-0.2208-0.0698-0.293c-0.019-0.0225-0.0727-0.0186-0.1182-0.0166
	c-0.0488,0.0303-0.3017,0.0088-0.3789,0.0088h-0.9887h-2.4424v0.1631C19.687,25.9268,19.8262,25.9297,19.9282,25.9531
	 M22.1992,26.2549h0.9536c0.0264-0.0225,0.0674-0.0283,0.1031-0.043c0.0029-0.0058,0.0063-0.0117,0.0092-0.0166
	c-0.0781-0.041-0.2529-0.0195-0.3613-0.0195H22.061c-0.0288-0.0186-0.102-0.0078-0.1538-0.0078
	c-0.0234,0.1211,0.1709,0.0859,0.292,0.0859V26.2549z M22.6719,24.7661c0.0293-0.0171,0.1313-0.0083,0.1982-0.0083
	c0.1509-0.0039,0.3047-0.0068,0.4561-0.0098c0.0107-0.019,0.0136-0.019,0.0166-0.0512c-0.0069-0.003-0.0157-0.0059-0.0259-0.0088
	c-0.0679-0.0532-0.273-0.0249-0.3867-0.0249h-1.0323c-0.0107,0.021-0.0209,0.064-0.0087,0.0849
	c0.0317,0.0342,0.1469,0.0181,0.207,0.0181H22.6719z M21.665,27.1572c0.0098,0.0069,0.003,0.003,0.0181,0.0078v-0.0078H21.665z
	 M21.8892,29.5391c0.0039-0.0079,0.0058-0.0176,0.0087-0.0254c-0.0937-0.041-0.1899-0.0948-0.2919-0.1211
	C21.6079,29.4531,21.7778,29.543,21.8892,29.5391 M21.5981,24.5322c0.1031,0,0.2149-0.0073,0.2837-0.0073h1.3243
	c0.0107-0.0181,0.018-0.02,0.0258-0.043h0.0093c0.0039-0.0048,0.001-0.0068-0.0034-0.0068c-0.0029-0.002-0.0059-0.002-0.0059-0.002
	c-0.0371-0.0219-0.0927,0-0.1381,0H22.75h-0.9209c-0.1143-0.0249-0.23-0.0263-0.3613-0.0263
	c-0.0288,0.0332-0.063,0.018-0.1109,0.0351c0.0049,0.0152,0.001,0.0083,0.0083,0.0171
	C21.4038,24.5259,21.4971,24.5322,21.5981,24.5322 M21.21,29.5234c0.019,0.0078,0.0161,0.0118,0.0439,0.0166
	c0.0249-0.0205,0.0899-0.0058,0.1191-0.0244c0.0079-0.0107,0.004-0.0039,0.0098-0.0185c-0.0586-0.0264-0.103-0.0635-0.1548-0.0948
	C21.2119,29.4316,21.209,29.4707,21.21,29.5234 M21.1841,29.1797c-0.0112,0.0469,0.0141,0.1015,0.0171,0.1621
	c0.1279,0.082,0.1997,0.1816,0.4116,0.1816c0.0034-0.0058,0.0073-0.0117,0.0102-0.0175c-0.0961-0.0606-0.1918-0.1289-0.2841-0.1973
	C21.2881,29.2695,21.25,29.2031,21.1841,29.1797 M21.1748,29.3945c-0.0127-0.0146-0.0176-0.0312-0.0327-0.0449
	c-0.0103-0.0059-0.0029-0.0019-0.0191-0.0078c-0.0112,0.0342-0.0078,0.0918-0.0078,0.1387c0.0166,0.0127,0.024,0.0224,0.0337,0.0429
	c0.0161-0.0058,0.0083-0.0019,0.0181-0.0078C21.1821,29.4912,21.1758,29.4316,21.1748,29.3945 M21.2441,24.396
	c0.0059-0.0088,0.0118-0.0181,0.0181-0.0259h-0.0093v-0.0083h-0.104c-0.0029,0.0191-0.0078,0.0093,0,0.0264
	C21.168,24.3999,21.2119,24.397,21.2441,24.396 M21.123,29.2988c0.0088,0.0078,0.0079,0.0059,0.0259,0.0078
	c0.0049-0.0127,0.0069-0.0136,0.0093-0.0332c-0.0234-0.0332-0.0273-0.0937-0.0264-0.1464c-0.0166-0.0098-0.02-0.0176-0.0429-0.0254
	C21.0811,29.1289,21.0991,29.2676,21.123,29.2988 M21.063,24.3789c0.0039-0.0088,0.0068-0.0181,0.0088-0.0259H21.063v-0.0078
	c-0.063,0-0.085-0.0141-0.1382-0.0181C20.9063,24.3828,20.9829,24.3828,21.063,24.3789 M21.0122,27.3291
	c0.0957-0.0576,0.1978-0.1211,0.292-0.1807c0.0508-0.0341,0.1499-0.0449,0.1729-0.1045h-0.0093v-0.0078h-0.0347
	c-0.0268,0.0186-0.0561,0.001-0.0952,0.0166c-0.062,0.0264-0.1211,0.0977-0.1787,0.1309c-0.105,0.0566-0.2061,0.1025-0.3023,0.1621
	c-0.0507,0.0313-0.1508,0.0449-0.1728,0.1035h0.0097c0.0142,0.0215,0.0181,0.0293,0.0523,0.0352
	C20.8179,27.4121,20.9219,27.3838,21.0122,27.3291 M21.6831,27.1562v0.0098c-0.0151-0.0058-0.0083-0.0019-0.0181-0.0098H21.6831z
	 M20.728,27.7139h0.0088v0.0088h0.0181c0.042-0.0518,0.2392-0.168,0.31-0.1875v0.0078h-0.0097
	c-0.0464,0.0468-0.1143,0.0761-0.1533,0.1289c-0.022,0.0302-0.0269,0.0713-0.0518,0.0957c-0.0361,0.0342-0.082,0.0322-0.0952,0.0957
	c0.0239,0.0224,0.0151,0.0742,0.0342,0.1025c0.0088,0.0069,0.0078,0.0049,0.0249,0.0088c0.0141-0.0176,0.021-0.0234,0.0351-0.0176
	c0.0117,0.0137,0.0147,0.0274,0.0171,0.0508c-0.0342,0.0313-0.0532,0.043-0.0522,0.1133c0.0249,0.04-0.0049,0.1172,0.0102,0.1709
	c0.022,0.0889,0.0508,0.2109,0.0767,0.3017c0.0283,0.0997,0.0102,0.1875,0.0429,0.2754c0.0391,0.1016,0.1211,0.1231,0.2061,0.1807
	c0.0659,0.0439,0.1201,0.1299,0.189,0.1709c0.0781,0.0488,0.1582,0.0654,0.2412,0.1045c0.0351,0.0166,0.082,0.0527,0.1211,0.0693
	c0.0488,0.0205,0.0898,0.0205,0.1367,0.043c0.0703,0.0352,0.1572,0.0967,0.2319,0.1191c0.2124,0.0039,0.4243,0.0059,0.6372,0.0098
	c0.21,0.0606,0.5791,0.0244,0.834,0.0244c0.2022,0.0029,0.4028,0.0069,0.6021,0.0088c0.1948,0,0.4028-0.0098,0.5678,0.0264h0.232
	c0.1782,0,0.3691-0.0069,0.5239,0.0263h0.1816c0.127,0.0293,0.2891,0.0147,0.4219,0.043h0.1504
	c0.1924,0.043,0.4199,0.043,0.6543,0.043h0.2832c0.1397-0.0313,0.2773-0.0488,0.4023-0.086
	c0.0567-0.0039,0.1104-0.0058,0.1641-0.0078c0.1592-0.0517,0.3828-0.1582,0.5615-0.164c0.0303,0.0371,0.044,0.0615,0.1202,0.0595
	c0.0556-0.0615,0.2656-0.0429,0.3671-0.0693c0.1231-0.0312,0.2969-0.0293,0.4239-0.0596h0.0761
	c0.0245-0.0107,0.0508-0.0498,0.0782-0.0615c0.0351-0.0156,0.0839,0.0039,0.1289-0.0088c0.0449-0.0176,0.0927-0.0322,0.1386-0.0508
	v0.0079h-0.0097c-0.0235,0.0224-0.0606,0.0439-0.086,0.0615v0.0088h0.0098c0.0049,0.0039,0,0.0117,0.0156,0.0078v-0.0078
	c0.041-0.0108,0.0674-0.0381,0.0879-0.0694c-0.0117-0.0068-0.0097-0.0068-0.0176-0.0176c0.0762,0.002,0.0684-0.038,0.1289-0.0605
	c0.0401,0.0039,0.0801,0.0078,0.1202,0.0098v0.0175c-0.044,0.0235-0.0655,0.0625-0.1045,0.087v0.0078h0.0078v0.0088
	c0.0244-0.0079,0.0615-0.0088,0.0967-0.0088c0.0459-0.0635,0.124-0.1084,0.1806-0.1631c0.0489,0.0117,0.0938,0.0469,0.1367,0.0683
	c-0.0136,0.0235-0.0332,0.0293-0.0234,0.0518v0.0107c0.1465-0.0312,0.2158-0.121,0.3262-0.1992
	c0.123-0.0859,0.2246-0.1963,0.3447-0.2832c0.0361-0.0263,0.0859-0.041,0.1104-0.0771c0.0371-0.0537,0.0605-0.1104,0.0957-0.1631
	c0.0332-0.0498,0.2197-0.251,0.1718-0.3281c-0.0029-0.0069-0.0058-0.0166-0.0088-0.0254h-0.0087v0.0088
	c-0.0723,0.0713-0.125,0.1787-0.1739,0.2744h-0.0078V28.501c0.0645-0.0674,0.0645-0.1807,0.1123-0.2666
	c0.0108-0.0078,0.0205-0.0176,0.0352-0.0254c0.0205-0.0459,0.0058-0.0938,0.0244-0.1387c0.0117-0.0264,0.0449-0.0527,0.0605-0.0762
	c-0.0009-0.0361-0.0175-0.0771-0.0175-0.1289c-0.0127-0.0097-0.0157-0.0136-0.0254-0.0263h-0.0098v0.0088
	c-0.0283,0.0166-0.0781,0.0976-0.0937,0.1289c-0.0079-0.0088-0.0039-0.002-0.0088-0.0176c-0.0323-0.043-0.001-0.0752,0.0088-0.1201
	c-0.0352-0.0284-0.0508-0.084-0.0782-0.1211c-0.0859-0.1162-0.1797-0.2334-0.2666-0.3526c-0.0224-0.0195-0.0459-0.041-0.0693-0.0605
	c-0.0371-0.0479-0.0898-0.1406-0.1455-0.1621c-0.0557-0.0352-0.126-0.0059-0.1983-0.0274
	c-0.1679-0.0488-0.3886-0.0322-0.5585-0.0859c-0.1485-0.0449-0.3458-0.0566-0.4991-0.1045h-0.0967
	c-0.0273-0.0049-0.082-0.0166-0.1093-0.0244h-0.0957c-0.0596-0.0176-0.1641-0.0283-0.2237-0.043h-0.0869
	c-0.3105-0.0918-0.7265-0.0605-1.1015-0.0615c0-0.1143-0.0655-0.1572-0.1114-0.2227c-0.0488,0.0303-0.0869,0.0508-0.1718,0.0518
	h-0.1036c-0.0625,0.0176-0.1416,0.0342-0.2314,0.0342c-0.0127,0.0205-0.0186,0.0303-0.0186,0.0674h-0.1113
	c0-0.045-0.0693-0.0371-0.1387-0.0352c-0.0253-0.0371-0.0996-0.0244-0.164-0.0244c-0.1358,0-0.3936-0.0283-0.5069,0.0098
	c0.0049,0.0166,0.001,0.0087,0.0088,0.0166c0.0586,0.0371,0.166,0,0.2246,0.0351h-0.4746c-0.0586,0.002-0.0996,0.0195-0.1621,0
	c-0.039-0.0127-0.1113-0.0234-0.1543-0.043c-0.0312-0.0146-0.063-0.0488-0.0962-0.0605c-0.0307-0.0029-0.063-0.0059-0.0937-0.0088
	c-0.0264-0.0068-0.0742-0.0283-0.0952-0.0342h-0.2578c-0.0332-0.0088-0.0752-0.0341-0.104-0.0439h-0.1734
	c-0.1426,0-0.3198-0.0332-0.3867,0.0615h-0.0083c-0.0098,0.0098,0.0083,0.0078,0.0083,0.0098
	c0.0488,0.0332,0.1431,0.0254,0.2241,0.0234v0.0195H24.333c-0.0029-0.0019-0.104,0.0059-0.147,0.0079
	c-0.1211,0.0039-0.269,0.0078-0.4028,0.0078c-0.0273,0.0566-0.0312,0.0742-0.1201,0.0703c-0.0313,0.0176-0.0869-0.002-0.1299,0.0078
	c-0.0703,0.0156-0.2944,0.0518-0.3603,0.043c-0.042-0.0059-0.1128-0.0411-0.189-0.0176c-0.1177,0.039-0.2319,0.1289-0.3447,0.1719
	c-0.0811,0.0146-0.1612,0.0293-0.2413,0.0429v-0.0078h0.0103c0.0586-0.0723,0.1939-0.0781,0.249-0.1562
	c-0.0171-0.0039-0.0351-0.0078-0.061-0.0078c-0.0542,0.0351-0.148-0.002-0.2153,0.0253c-0.0088,0.0039-0.0259,0.0293-0.0337,0.0342
	c-0.0952,0.0576-0.1831,0.1172-0.293,0.1533c-0.0371,0.0137-0.1294,0.0508-0.1812,0.0186h0.0171
	c0.0557-0.0635,0.2549-0.1123,0.2837-0.1797c-0.021-0.0088-0.0527-0.0107-0.0849-0.0107c-0.0821,0.0547-0.2007,0.0527-0.2837,0.1045
	c-0.0713,0.0429-0.1382,0.1084-0.2071,0.1533c-0.0581,0.039-0.1191,0.0527-0.1801,0.0859c-0.1182,0.0645-0.2398,0.1465-0.354,0.2158
	c-0.0752,0.0459-0.1529,0.0889-0.2242,0.1289c-0.0268,0.0147-0.0966,0.0372-0.1118,0.0596v0.1123V27.7139z M20.978,27.1484
	c-0.04-0.0146-0.0859-0.0234-0.1362-0.0273c-0.0288,0.0195-0.0767,0.0078-0.0957,0.0176c-0.0181,0.0156-0.0171,0.0185-0.0181,0.0508
	c-0.0151,0.0234-0.0161,0.0673-0.0161,0.1044h0.0083v0.0079c0.0147-0.0059,0.0078,0,0.0166-0.0079
	C20.7891,27.2832,20.9521,27.1875,20.978,27.1484 M20.521,21.9268v0.0083c0.0352-0.0171,0.167-0.1289,0.1802-0.1631h-0.0083v-0.0078
	H20.668c-0.0191,0.0156-0.0391,0.017-0.0772,0.0156c-0.0307,0.0464-0.0669,0.0791-0.0776,0.147H20.521z M21.0542,24.5239
	c0.0068-0.0078,0.0127-0.0171,0.0176-0.0259c-0.0405-0.0161-0.0718-0.0351-0.1206-0.0429c-0.0083,0.0107-0.0293,0.0307-0.042,0.0351
	c-0.0493,0.0147-0.0781-0.019-0.103-0.0273c-0.0811,0.0029-0.1622,0.0073-0.2422,0.0102c-0.0069,0.0127-0.0132,0.0171-0.0259,0.0249
	v0.0088h0.0088c0.0263,0.0264,0.0879,0.0171,0.1391,0.0171H21.0542z M20.5469,28.8437c-0.003,0.0215-0.0049,0.0118,0,0.0342h0.0093
	v-0.0078c0.0078-0.0088,0.0029-0.0019,0.0097-0.0185C20.5591,28.8496,20.5532,28.8477,20.5469,28.8437 M20.4092,27.7852
	c-0.0103,0.039,0.0229,0.0449,0.0249,0.0781c0.0151,0.1152-0.0161,0.2539,0.018,0.3437h0.0167
	c0.0532-0.0683,0.0463-0.0781,0.0434-0.1982c-0.0454-0.0615-0.019-0.2256-0.0342-0.3096h-0.0092v-0.0097h-0.0259
	C20.4341,27.7158,20.415,27.7676,20.4092,27.7852 M20.2031,21.522c0.0059,0.0908,0.1758,0.0429,0.249,0.0259
	c0.004-0.0049,0.0059-0.0108,0.0088-0.0181h-0.0088V21.522H20.2031z M18.9731,29.0068c0.0689-0.0029,0.1368-0.0058,0.21-0.0048
	c0.084-0.0215,0.2041-0.0235,0.292-0.043h0.0859c0.1148-0.0293,0.2632-0.0401,0.396-0.043c0.041-0.0781,0.0528-0.165,0.086-0.2578
	c0.0429-0.123,0.103-0.248,0.146-0.3711c0.0351-0.0996,0.0332-0.1894,0.0688-0.291c0.0332-0.0957,0.0693-0.207,0.1123-0.3027
	c0.022-0.0508,0.0728-0.086,0.085-0.1465c-0.0132-0.0039-0.0132-0.0049-0.0342-0.0088c-0.0308,0.0185-0.064-0.0039-0.103-0.0088
	c0.0039-0.0176,0.0019-0.0156,0.0083-0.0244c0.0346-0.0264,0.0859-0.0362,0.1118-0.0694c0.021-0.0263,0.0249-0.0556,0.0249-0.1044
	c-0.0508-0.0293-0.0547-0.0616-0.0508-0.1456c0.0391-0.0517,0.0347-0.1533,0.0337-0.2421H20.437v-0.0079
	c-0.165,0.0332-0.4502-0.0957-0.5849-0.1376c-0.086-0.0059-0.1729-0.0108-0.2579-0.0167c-0.0351-0.0136-0.0454-0.0634-0.0781-0.0781
	c-0.2163-0.0918-0.4722-0.0771-0.7661-0.0771c-0.1392,0-0.3188-0.0117-0.4292,0.0166h-0.1289
	c-0.0698,0.0156-0.168,0.0263-0.25,0.0263c-0.0669,0-0.166-0.0117-0.207,0.0166c-0.0298,0.0215-0.021,0.0821-0.0337,0.1211
	c-0.0362,0.1016-0.0694,0.2266-0.104,0.3272c-0.003,0.0244-0.0064,0.0517-0.0093,0.0762c-0.063,0.1611-0.1309,0.3466-0.1719,0.5263
	c0.0029,0.0938,0.0049,0.1875,0.0088,0.2832c0.0073,0.0127,0.0361,0.0166,0.043,0.0332v0.0694
	c0.0283,0.1006,0.0473,0.2441,0.0771,0.3437c0.0239,0.0791,0.001,0.1436,0.0259,0.2139c0.021,0.0596,0.0933,0.0976,0.1294,0.1474
	c0.0459,0.0616,0.1309,0.2354,0.2227,0.2393c0.0332,0.0352,0.083,0.0117,0.1401,0.0254c0.0933,0.0254,0.2183,0.0137,0.3169-0.0078
	h0.0942C18.6191,29.0459,18.8252,29.043,18.9731,29.0068 M20.3501,28.6973c0.0137,0.0058,0.0151,0.0214,0.0249,0.0078
	c0.0742-0.0977,0.1001-0.3047,0.1289-0.4473c-0.0068-0.0058-0.0161-0.0107-0.0249-0.0176c-0.0352,0.0371-0.0439,0.0508-0.043,0.1309
	C20.4082,28.416,20.3599,28.6328,20.3501,28.6973 M20.375,24.043c0.0078,0.0029,0.019,0.0058,0.0278,0.0078
	c0.0171-0.021,0.0323-0.021,0.043-0.0508c0.022-0.0371-0.0078-0.0688-0.0176-0.0938c-0.0332-0.0903-0.0571-0.1811-0.06-0.2934
	c-0.0064-0.0029-0.0122-0.0049-0.0181-0.0088C20.3101,23.7212,20.3462,23.9712,20.375,24.043 M20.3408,29.041
	c-0.0039,0.0195-0.0078,0.0098-0.001,0.0254v0.0098c0.0152-0.0059,0.0083-0.001,0.0181-0.0098
	c0.0073-0.0078,0.0039-0.0019,0.0093-0.0176C20.3589,29.0469,20.3491,29.0439,20.3408,29.041 M20.3071,24.5239
	c0.024,0.0171,0.0889,0.0103,0.1289,0.0093c0.003-0.0093,0.0049-0.0171,0.0078-0.0264c-0.0136-0.0097-0.0229-0.019-0.0336-0.0337
	h-0.0523c-0.019,0.0108-0.04,0.022-0.0591,0.0337C20.3032,24.522,20.2988,24.5161,20.3071,24.5239 M20.333,22.5381
	c0.104-0.1699,0.23-0.334,0.3691-0.4732c0.085-0.0859,0.2237-0.1787,0.2667-0.3007H20.96v-0.0093h-0.0249
	c-0.0913,0.0913-0.2022,0.1582-0.3023,0.2412c-0.0366,0.0308-0.0649,0.0908-0.0937,0.1289c-0.021,0.0151-0.0411,0.0288-0.062,0.043
	c-0.002,0.0151-0.0049,0.0278-0.0083,0.0429c-0.042,0.0562-0.1646,0.1192-0.1719,0.2061c0.0141,0.0249,0.0093,0.0937,0.0171,0.1211
	H20.333z M20.2378,29.1523c0.0093,0.0059,0.0073,0.0059,0.0254,0.0098c0.0127-0.0098,0.0288-0.0098,0.0508-0.0098
	c0.0112-0.0185,0.018-0.0205,0.0258-0.0429c-0.0068-0.002-0.0166-0.0059-0.0258-0.0078c-0.0201,0.0214-0.0572,0.0175-0.0762,0.0429
	H20.228C20.2188,29.1523,20.2378,29.1523,20.2378,29.1523 M20.1509,22.9668h0.0083V22.959
	c0.0259-0.0342,0.0156-0.1582-0.0161-0.1719c-0.0161,0.0298-0.0191,0.0689-0.0181,0.1211c0.0078,0.0107,0.0078,0.02,0.0078,0.043
	c0.0073,0.0019,0.0122,0.0049,0.0181,0.0078V22.9668z M20.0889,28.8779v0.0078h0.019c0.0361-0.0537,0.1372-0.0605,0.146-0.0771
	c0.0122-0.0186,0.0083-0.168,0.0171-0.207c0.021-0.0821,0.0649-0.17,0.0688-0.2657c-0.019-0.0136-0.019-0.0136-0.0258-0.0429
	c0.0488-0.0157,0.0771-0.1914,0.019-0.2149c-0.0391,0.1172-0.0498,0.2383-0.0952,0.3535c-0.0518,0.1329-0.1387,0.2793-0.1548,0.4463
	H20.0889z M20.083,29.1699v-0.0078h-0.0088c-0.0093-0.0078-0.0034-0.0039-0.018-0.0098c0.0019,0.0127-0.003,0.0313,0.018,0.0176
	H20.083z M20.0571,22.0381c0.0108-0.0132,0.0059-0.0039,0-0.0171c-0.0083-0.0249-0.0019-0.0151-0.0249-0.0259
	C20.0298,22.0098,20.04,22.061,20.0571,22.0381 M20.04,24.396c0.0108-0.021,0.0142-0.0239,0.0162-0.0601
	c-0.0074-0.0029-0.0152-0.0058-0.0264-0.0088c-0.0088,0.021-0.0239,0.0391-0.0156,0.0518l0.0078,0.0171H20.04z M20.1519,21.8398
	c0.0083-0.0058,0.0019-0.0029,0.017-0.0078c0.0113-0.0219,0.0152-0.0239,0.0171-0.061c0.0078-0.0112,0.0078-0.021,0.0088-0.042
	H20.186v-0.0103c-0.0542,0.0015-0.144,0.0123-0.1718-0.0156v-0.0263c-0.022-0.0088-0.0464-0.0166-0.0674-0.0259
	c-0.001,0.0151,0.0874,0.1782,0.1103,0.1889H20.1519z M19.979,22.4009c0.0151-0.0161,0.0161-0.023,0.0181-0.0518h-0.0093v-0.0093
	h-0.061c-0.0039,0.0201-0.0069,0.0103,0,0.0264c0.0151,0.022,0.0263,0.0337,0.0522,0.043V22.4009z M19.9551,29.4805v-0.0264
	c-0.042,0.0029-0.1079,0.0137-0.1372,0.0342h-0.0191c0.0391,0.0254,0.1133-0.002,0.1553-0.0078H19.9551z M19.8511,24.1631h0.0088
	v-0.0083c0.0341-0.022,0.08-0.0718,0.0952-0.1118c-0.0059-0.003-0.0122-0.0059-0.0191-0.0088
	c-0.0219,0.039-0.059,0.0859-0.0942,0.1118v0.0088h0.0093V24.1631z M19.6699,29.4971c0.0093,0.0058,0.0083,0.0058,0.0259,0.0078
	C19.687,29.499,19.688,29.501,19.6699,29.4971 M19.498,24.4819c0.0049,0.0152,0.001,0.0083,0.0088,0.0171
	c0.0122,0.0069,0.0142,0.0069,0.0352,0.0088c0.0332-0.0288,0.2222-0.0669,0.2842-0.0688c0.0088-0.0181,0.0117-0.0161,0.0166-0.043
	c-0.0157-0.0269,0.0112-0.0781,0-0.0952c-0.0098-0.0049-0.0796-0.0186-0.104-0.0259c-0.0078,0.0161-0.0108,0.0151-0.0157,0.0352
	h0.0079c0.019,0.017,0.0459,0.019,0.06,0.0429h-0.0171c-0.0151,0.0122-0.0551,0.0572-0.062,0.0601
	c-0.0298,0.021-0.0791,0.0029-0.1191,0.0171C19.563,24.4399,19.5313,24.4678,19.498,24.4819 M19.2231,24.542
	c0.0059,0.0151,0.002,0.0078,0.0069,0.0171c0.0112,0.0068,0.0151,0.0068,0.0351,0.0088c0.0318-0.0347,0.1431-0.044,0.2071-0.044
	c0.0049-0.0078,0.0107-0.0161,0.0156-0.0249H19.48v-0.0088h-0.1099C19.3311,24.5181,19.269,24.5239,19.2231,24.542 M19.1279,29.4541
	c0.126,0.0322,0.3042,0.0264,0.4659,0.0264c0.017-0.0323,0.039-0.045,0.0512-0.0782h0.0088
	c0.0103-0.0078-0.0088-0.0078-0.0088-0.0078c-0.0029-0.0058-0.0058-0.0127-0.0078-0.0195h-0.0434
	c-0.0289,0.0234-0.0586,0.0088-0.1036,0.0195c-0.1572,0.0323-0.3774,0.0098-0.5512,0.0078
	c-0.003,0.0059-0.0059,0.0108-0.0088,0.0176h-0.0093c-0.0078,0.0078,0.0093,0.0078,0.0093,0.0078
	C18.9829,29.4609,19.0601,29.4355,19.1279,29.4541 M18.5342,29.2305c0.0029,0.0058,0.0058,0.0117,0.0088,0.0175
	c0.0791,0.0254,0.2148,0.0079,0.3091,0.0079h0.6459c0.0079,0.0078,0.0069,0.0058,0.0249,0.0097
	c0.0181-0.0215,0.0342-0.041,0.0523-0.0605c-0.0073-0.0039-0.0171-0.0059-0.0264-0.0098c-0.0078-0.0039-0.0678,0-0.103,0
	c-0.1357,0-0.3779,0.0293-0.4897-0.0098c-0.0332,0.0215-0.0943,0-0.1382,0.0098C18.731,29.2139,18.6172,29.2031,18.5342,29.2305
	 M19.1968,25.6523h1.5571c0.0352,0.0293,0.1353,0.0166,0.1982,0.0166h0.5157c0.6841,0,1.3374,0.002,2.0044,0
	c0.0058-0.0087,0.0117-0.0166,0.019-0.0263C23.4048,25.5996,23.125,25.625,23,25.626c-0.0518-0.0323-0.272-0.003-0.335,0h-0.8862
	c-1.0869,0-2.1899-0.0166-3.27-0.0186c-0.0049,0.0137-0.0068,0.0156-0.0088,0.0352c0.0542,0.0176,0.146,0.0097,0.2148,0.0097
	H19.1968z M18.0698,21.9268c0.0254,0.0273,0.104,0.018,0.1553,0.017c0.0459-0.0376,0.1367-0.019,0.2061-0.0346
	c0.1767-0.0381,0.3867-0.0264,0.5937-0.0254c0.0073-0.021,0.0064-0.0317,0.0259-0.043c0.043,0.0474,0.1323,0.043,0.2241,0.043h0.498
	c0.0049-0.0137,0.0059-0.0137,0.0093-0.0347c-0.0483-0.0522-0.0654-0.1821-0.0864-0.2583c-0.0986-0.0317-0.271-0.0078-0.3867-0.0078
	H18.457c-0.018-0.0112-0.0561-0.0098-0.0859-0.0088c-0.0142,0.0088-0.0552,0.0088-0.0693,0.0166
	c-0.0669,0.0254-0.2149,0.2613-0.2398,0.336H18.0698z M17.9492,22.1328c0.0479,0.0171,0.1348,0.0093,0.1968,0.0093v-0.0093h0.0078
	c-0.0039-0.0229-0.0117-0.0317,0-0.0508c0.0391-0.0249,0.2393-0.0102,0.3023-0.0088c0.0478-0.0361,0.3159-0.0214,0.4038-0.017
	c0.0903,0.0039,0.2353,0.0209,0.3193,0.0429h0.1626c0.1904,0,0.3281-0.018,0.5161-0.0171c0.0039-0.0141,0.0073-0.021,0.0083-0.0439
	c-0.0703-0.0449-0.166-0.0342-0.2842-0.0342h-0.5669c-0.0493-0.0308-0.353-0.0088-0.438-0.0078
	c-0.0439,0.0298-0.1162,0.0029-0.1811,0.0171c-0.1191,0.0259-0.3062,0.0239-0.4131,0.043
	C17.9688,22.082,17.9551,22.0952,17.9492,22.1328 M17.9668,22.2788c-0.0098-0.0068-0.0098-0.0068-0.0166-0.0181h-0.061
	c-0.0181,0.0411,0.0058,0.0391,0.0688,0.0352C17.9609,22.29,17.9629,22.2852,17.9668,22.2788 M17.8628,21.9268
	c0.0034,0.0083,0.0063,0.017,0.0093,0.0263c0.0161-0.0049,0.0351-0.0083,0.06-0.0093c0.0528-0.0849,0.166-0.2197,0.1978-0.309
	h-0.0088V21.625h-0.0249c-0.0161,0.0161-0.04,0.0249-0.0601,0.0361C18.0361,21.7998,17.9351,21.8599,17.8628,21.9268
	 M17.7422,22.1328v0.0093H17.75c0.0161,0.0171,0.02,0.0161,0.0518,0.0171c0.0102-0.0073,0.0034-0.003,0.018-0.0083
	c0.0152-0.0327,0.0332-0.0581,0.043-0.0947h0.0093c0.0078-0.0083-0.0093-0.0083-0.0093-0.0083
	c-0.0117-0.0098-0.0337-0.0137-0.0508-0.0181c-0.019,0.0312-0.04,0.081-0.0688,0.103H17.7422z M17.7598,22.3052
	c-0.0288-0.0093-0.0699-0.0181-0.0948-0.0264c-0.0078,0.021-0.0171,0.0352-0.0078,0.0523c0.0117,0.0068,0.0279,0.0078,0.0508,0.0078
	c0.0098-0.0069,0.0142-0.0059,0.0352-0.0078C17.749,22.3218,17.7539,22.313,17.7598,22.3052 M17.6821,22.4771v-0.0084h-0.104
	c0,0.0381,0.0327,0.0381,0.0938,0.0342c0.0083-0.0078,0.0132-0.018,0.019-0.0258H17.6821z M17.665,24.4731
	c0.0132,0.0127,0.0191,0.044,0.0362,0.0508h0.2417c0.02,0.0152,0.0761,0.0103,0.1113,0.0103
	c0.0029-0.0073,0.0059-0.0132,0.0088-0.0181h-0.0088v-0.0093C17.959,24.5,17.897,24.4849,17.814,24.4639
	c-0.063-0.0147-0.1128,0.0132-0.1402-0.0337h0.0113c0.0258-0.024,0.0571-0.0274,0.1098-0.0264
	c0.0713,0.0601,0.2202,0.0283,0.3179,0.0601c0.0181,0.0063,0.1572,0.0512,0.1733,0.06c0.003,0.0103,0.0049,0.0181,0.0078,0.0259
	c0.0181-0.0029,0.0352-0.0049,0.0523-0.0078c0.0576-0.001,0.2197-0.0078,0.2827,0.0078c0.1411,0.0361,0.1719-0.0239,0.2759-0.0596
	c0.0703-0.0244,0.1611,0,0.2324-0.0263c0.0376-0.0127,0.1167-0.0279,0.1538-0.0508c0.0069-0.0049,0.0122-0.0322,0.0191-0.0352
	h0.1967c0.044-0.0117,0.0972-0.0361,0.1304-0.06c0.085-0.062,0.1099-0.2071,0.1719-0.292c0.0981-0.1358,0.25-0.211,0.25-0.4478
	c-0.062-0.0801-0.0362-0.4551-0.0259-0.5849c-0.0063-0.003-0.0112-0.0064-0.0171-0.0083v-0.0088h-0.0102v0.0088
	c-0.0191,0.02-0.0328,0.0483-0.0508,0.0683c-0.0152-0.0053-0.0093-0.0024-0.0181-0.0083c-0.02-0.0288-0.0181-0.105-0.0181-0.147
	c0.0533-0.0327,0.0889-0.0917,0.104-0.163c-0.0131-0.0049-0.0141-0.0059-0.0341-0.0078c-0.024,0.0161-0.0708,0.0219-0.1026,0.0258
	c0.002-0.1059-0.0371-0.1538-0.061-0.2241h0.103c0.0127,0.0073,0.065,0.0103,0.0679,0.0083c0.02-0.0151,0.022-0.02,0.0259-0.0522
	c-0.0371-0.0249-0.0738-0.0508-0.1118-0.0767c-0.0142-0.019-0.0201-0.0581-0.043-0.0684h-0.0513
	c-0.082,0.0601-0.3369,0.042-0.4819,0.042h-0.7822c-0.1416,0-0.3179-0.0107-0.4307,0.0181c-0.083,0.02-0.2661-0.001-0.3091,0.0513
	c-0.0571,0.0737-0.0742,0.186-0.1128,0.2759c-0.0532,0.121-0.1304,0.2578-0.1714,0.3872v0.0937
	c-0.018,0.082-0.0127,0.1729-0.0346,0.2661c-0.022,0.1011-0.043,0.209-0.0674,0.294c-0.0279,0.0888,0.0381,0.2827,0.0591,0.3427
	c0.0083,0.0494,0.0171,0.0982,0.0263,0.147C17.542,24.3418,17.6089,24.4111,17.665,24.4731 M17.5361,22.6582
	c0.022,0.0107,0.0249,0.0147,0.0611,0.0166c0.0078-0.0107,0.0166-0.0229,0.0249-0.0347c-0.0249-0.0161-0.0401-0.0361-0.0669-0.0512
	C17.5449,22.6118,17.5391,22.625,17.5361,22.6582 M17.355,27.3711c0,0.0684-0.0069,0.1621,0.0088,0.2148
	c0.0063-0.0019,0.0122-0.0039,0.018-0.0078c0.0474-0.1426,0.086-0.2832,0.1382-0.4121c0.0181-0.0488,0.0049-0.082,0.0249-0.1289
	c0.043-0.1055,0.0869-0.2305,0.1123-0.3457h-0.0093v-0.0078h-0.0517c-0.0371,0.0625-0.0684,0.125-0.1123,0.1816
	c-0.0171,0.0098-0.0337,0.0215-0.0508,0.0332C17.374,26.9824,17.355,27.2246,17.355,27.3711 M17.4341,28.542
	c0.0141-0.0059,0.0068-0.002,0.0171-0.0078c0.0068-0.0108,0.0039-0.002,0.0088-0.0186c-0.0362-0.0586-0.0152-0.1494-0.0518-0.2051
	c-0.0083-0.0087-0.0019-0.0039-0.0171-0.0087C17.3711,28.3574,17.4102,28.4932,17.4341,28.542 M17.3809,28.25
	c0.0073,0.0059-0.0049,0.0107,0.0102,0.0254C17.4038,28.2588,17.394,28.2607,17.3809,28.25 M17.123,26.9336
	c0.0069-0.002,0.0132-0.0059,0.0181-0.0078c0.0039-0.0127,0.0059-0.0215,0.0078-0.043c-0.0141-0.0088-0.0141-0.0107-0.0337-0.0166
	C17.1021,26.8965,17.104,26.8965,17.123,26.9336 M17.0278,26.2529H17.019c-0.0092,0.0078,0.0079,0.0078,0.0079,0.0078
	c0.0483,0.0245,0.1669-0.0136,0.2412-0.0078c0.1191,0.0108,0.3369,0,0.5078,0h1.979c0.0029-0.0078,0.0063-0.0166,0.0093-0.0244
	c-0.0064-0.0078-0.0113-0.0273-0.0181-0.0351c-0.0293-0.0205-0.1079-0.0098-0.1543-0.0098h-0.396h-1.4517
	c-0.041-0.0244-0.1259,0.0019-0.1821-0.0088c-0.0908-0.0146-0.2939-0.0186-0.4219-0.0244
	c-0.0293,0.0586-0.0752,0.0586-0.1123,0.1035V26.2529z M17.021,24.335c0.0039,0.0068-0.0059,0.0112,0.0078,0.0258
	C17.043,24.3437,17.0322,24.3462,17.021,24.335 M17.0029,25.0498c0.2671-0.0029,0.5342-0.0068,0.8013-0.0088h2.0728h0.5942
	c0.0649,0,0.1987,0.0152,0.2319,0c0.02-0.0161,0.0591-0.061,0.0679-0.0859h-0.0088v-0.0093h-3.8794
	C16.8809,25.0049,16.9038,25.0562,17.0029,25.0498 M16.7539,24.2671v0.0078c0.0249-0.0068,0.0469-0.002,0.0772-0.0078
	c0.018-0.0259,0.04-0.0352,0.0517-0.0689H16.874v-0.0083h-0.0249c-0.0371,0.0313-0.0849,0.0279-0.104,0.0772H16.7539z
	 M16.6499,24.2241c0.0103,0.0059,0.0151,0.0059,0.0332,0.0078c0.0591-0.0527,0.2358-0.1367,0.25-0.2148h-0.0083v-0.0083h-0.0249
	c-0.0229,0.0181-0.0527,0.0254-0.0767,0.042c-0.0371,0.041-0.0761,0.081-0.1132,0.1211
	C16.7002,24.1812,16.6279,24.2148,16.6499,24.2241 M16.7358,24.5239c0.043-0.0268,0.1392-0.0171,0.2071-0.0171h0.499
	c0.0029-0.0048,0.0063-0.0117,0.0093-0.0166c-0.0371-0.0283-0.0484-0.0673-0.1031-0.0781
	c-0.0141,0.0259-0.0263,0.0327-0.0429,0.0508c-0.1382,0.0019-0.232-0.0288-0.3452-0.0591c-0.0171,0.0244-0.0371,0.0391-0.0762,0.043
	c-0.04,0.0244-0.1499,0.0083-0.207,0.0083c-0.1455,0-0.2559-0.0122-0.3536,0.0429v0.0088h0.0079
	C16.3628,24.541,16.6592,24.5259,16.7358,24.5239 M17.5449,24.7661H21.77c0.0039-0.0141,0.0059-0.021,0.0078-0.0439
	c-0.0088-0.0132-0.0136-0.0381-0.0249-0.0513c-0.021-0.0127-0.083-0.0171-0.1557-0.0171c-0.1143,0-0.252,0.0093-0.3091,0.0093
	H20.042c-0.0508-0.043-0.229-0.0181-0.311-0.0181c-0.1138-0.001-0.3218-0.0522-0.4219-0.0259
	c-0.064,0.0166-0.1953,0.0508-0.293,0.0259c-0.0122-0.0029-0.042-0.0229-0.0513-0.0259c-0.082-0.0239-0.2236,0.0039-0.2836,0.0181
	c-0.0684,0.0147-0.1592-0.0044-0.2154,0.0078h-0.1977c-0.086,0-0.189,0-0.2491,0.0181c-0.0708,0.02-0.1782-0.0059-0.2412,0.0078
	h-0.5937c-0.3701-0.002-0.7393-0.0049-1.1099-0.0078c-0.0791-0.023-0.2212-0.0361-0.3091-0.044
	c-0.0302,0.044-0.0571,0.063-0.061,0.1387c0.1118,0.0361,0.4248,0.0083,0.5669,0.0083H17.5449z M15.645,25.54
	c-0.0561-0.0009-0.0532-0.0107-0.0781-0.0341c0.0019-0.022,0.0039-0.0288,0.0093-0.043c0.0708,0.019,0.1137,0.0605,0.206,0.0605
	v0.0088h0.0088c-0.0058,0.0078-0.0122,0.0157-0.0171,0.0264C15.7251,25.5586,15.6689,25.5625,15.645,25.54 M15.5142,25.29v0.0098
	h-0.0103c0.0049,0.0151,0.001,0.0093,0.0103,0.0171c0.0708,0.0459,0.2299,0.0459,0.3169,0.0693
	c0.0498,0.0137,0.0752-0.018,0.0947,0.0259c0.0073,0.0127,0.001,0.001,0,0.0259c-0.0327,0.0019-0.0449,0.0019-0.0679,0.0078v0.0083
	h0.0093c0.0249,0.0259,0.0469,0.0308,0.0596,0.0693c-0.0157,0.0137-0.0118,0.0078-0.0176,0.0352
	c0.0229,0.0078,0.0527,0.0078,0.0859,0.0078c0.0108-0.0078,0.0137-0.0059,0.0347-0.0078v0.0342
	c-0.0728,0.0332-0.169,0.0439-0.2837,0.042c-0.0493-0.001-0.0869-0.0127-0.1289,0c0.0068,0.0293,0.02,0.081,0.043,0.0957
	c0.0659,0.039,0.145,0.0273,0.2226,0.0517c0.0313,0.0088,0.0742,0.0323,0.104,0.043c0.0674,0.0205,0.1314,0.0137,0.1382,0.0937
	h-0.0181c-0.084,0.0411-0.3447-0.0712-0.438-0.0859c-0.0029,0.0088-0.0058,0.0186-0.0087,0.0264h-0.0093
	c-0.0078,0.0078,0.0093,0.0078,0.0093,0.0078c0.0146,0.0234,0.0507,0.0586,0.0776,0.0683c0.0293,0.0157,0.0322-0.0195,0.0771-0.0078
	c0.003,0.0059,0.0049,0.0118,0.0083,0.0176c0.0289,0.0049,0.0508-0.0293,0.0948-0.0176c0.0571,0.0157,0.1289,0.0264,0.2148,0.0264
	c0.0073,0.0205,0.0112,0.0391,0.0264,0.0518c0.0366,0.0263,0.0776,0.0156,0.1289,0.0341c0.0469,0.0166,0.124,0.0459,0.1807,0.0616
	c0.0312,0.0039,0.0371-0.0157,0.0522-0.0186h0.1631c0.0688,0,0.1391,0.0391,0.1631,0.0342c0.021-0.0059,0.0268-0.0098,0.0439-0.0176
	c-0.0132-0.0547-0.0083-0.1045,0.043-0.1211c0.0478-0.0371,0.143,0,0.2148-0.0176c0.1729-0.038,0.4043-0.0254,0.6192-0.0254h1.102
	c0.1729,0,0.294-0.0146,0.439,0c0.02,0.002,0.083-0.0087,0.1191-0.0087h0.1216v-0.1631H18.293v-0.0166
	c0.0112-0.0186,0.02-0.045,0.0249-0.0703c0.0249-0.0108,0.0512-0.0225,0.0771-0.0342c0-0.043,0.0059-0.0664,0.0181-0.0947
	c0.0889-0.0303,0.2471-0.0088,0.354-0.0079c0.0508-0.0439,0.2388-0.0166,0.3247-0.0166H19.98h3.4902
	c0.0088-0.0214,0.0098-0.0547,0.0088-0.0864c0.023-0.0469,0.0151-0.2939,0.0181-0.3608c-0.085-0.0562-0.0992-0.1143-0.25-0.1123
	c-0.0352-0.023-0.104,0.0009-0.1553-0.0088c-0.1309-0.0293-0.3159-0.0093-0.4639-0.0093h-1.6167
	c-0.0332,0.042-0.0991,0.0552-0.1201,0.1123h0.0078c0.024,0.0181,0.0469,0.0151,0.0611,0.043c-0.316,0.0908-0.7378,0-1.0918,0.0429
	c-0.313,0.0391-0.981,0-1.4722,0h-0.499c-0.0821,0-0.19,0.0079-0.2588-0.0092h-0.1963c-0.2031,0-0.4639,0.0263-0.6377-0.0166
	c-0.001-0.106-0.0591-0.1192-0.1113-0.1724H16.168c-0.085,0-0.19-0.0107-0.2398,0.0093c0.0069,0.0151,0.001,0.0088,0.0088,0.0171
	c0.0552,0.0327,0.1948,0.0356,0.2578,0.06v0.0176c-0.0718,0.0313-0.31-0.0127-0.4126-0.0176
	c-0.0483-0.0024-0.1343-0.019-0.1552-0.0083c-0.0201,0.0171-0.0181,0.0459-0.0162,0.086c0.0074,0.0029,0.0152,0.0063,0.0254,0.0083
	c0.024,0.0156,0.2886,0.0346,0.335,0.0346v0.0264c-0.0762,0.001-0.1514,0.0347-0.231,0.0259
	c-0.0371-0.0049-0.123-0.0239-0.1391-0.0181c-0.0073,0.0088-0.0049,0.0078-0.0093,0.0259c0.1011,0.0449,0.293,0.064,0.4214,0.0693
	c-0.002,0.0166-0.002,0.0157-0.0083,0.0259c-0.0977,0.063-0.3887-0.0112-0.4888-0.0181H15.5142z"/>
</svg>
