<?xml version="1.0" encoding="utf-8"?>
<!-- Generator: Adobe Illustrator 26.0.1, SVG Export Plug-In . SVG Version: 6.00 Build 0)  -->
<svg version="1.1" id="Layer_1" xmlns="http://www.w3.org/2000/svg" xmlns:xlink="http://www.w3.org/1999/xlink" x="0px" y="0px"
	 viewBox="16.9951 15.9292 17.7588 19.0161" style="enable-background:new 16.9951 15.9292 17.7588 19.0161;" xml:space="preserve">
<style type="text/css">
	.st0{fill:#840F34;}
	.st1{fill:#FFFFFF;}
</style>
<path class="st0" d="M34.69922,30.12207V30.0332c-0.01172-0.00391-0.0224-0.00781-0.0332-0.01172
	c-0.00391-0.01947-0.00781-0.03711-0.01172-0.0567c-0.01562-0.01068-0.0293-0.02136-0.04492-0.0332v-0.05457
	c-0.01166-0.00403-0.02246-0.00879-0.03229-0.01184c-0.01459-0.02148,0.00299-0.05469-0.01257-0.0791
	c-0.01184-0.00287-0.02148-0.00677-0.03229-0.01068V29.7207c-0.01276-0.00781-0.0224-0.0166-0.03424-0.02338v-0.0567
	c-0.00476-0.00781-0.039-0.0097-0.04486-0.02155v-0.06641c-0.01562-0.03705-0.03223-0.12299-0.04883-0.1601
	c-0.02051-0.04486-0.01172-0.0918-0.03418-0.13477c-0.0127-0.02539-0.06354-0.07422-0.07709-0.10059V29.0918
	c-0.01172-0.00391-0.02155-0.00781-0.0332-0.0127v-0.07709c-0.01575-0.0069-0.0293-0.01373-0.0459-0.02148v-0.06744
	c-0.01862-0.01471-0.03711-0.0293-0.05475-0.04401V28.8125c-0.0108-0.02338-0.05566-0.06641-0.06738-0.08978v-0.05469
	c-0.0127-0.0274-0.0625-0.07526-0.07812-0.10162v-0.05762c-0.01569-0.02826-0.07227-0.04877-0.08887-0.07721v-0.04291
	c-0.01459-0.0293-0.06049-0.07227-0.0791-0.10156v-0.04492c-0.01068-0.00391-0.02051-0.00781-0.03119-0.01166v-0.08795
	c-0.0166-0.01367-0.03033-0.02246-0.04504-0.03516V28.0293c-0.0517-0.08398-0.15039-0.16107-0.20105-0.24408
	c-0.0293-0.04889-0.04303-0.11432-0.07825-0.15729c-0.02136-0.02441-0.07214-0.039-0.08978-0.06543v-0.04492
	c-0.01556-0.02246-0.05957-0.04297-0.07721-0.06641c-0.0791-0.1084-0.1543-0.20709-0.23425-0.3125
	c-0.02643-0.03705-0.08301-0.06348-0.11041-0.10059c-0.04883-0.06146-0.08203-0.13379-0.1347-0.18848
	c-0.086-0.09082-0.20123-0.1601-0.2774-0.25879c-0.06842-0.08405-0.125-0.16992-0.20123-0.2431
	c-0.48627-0.48639-1-0.9527-1.4502-1.47272c-0.02631-0.0332-0.08386-0.04492-0.1123-0.0791
	c-0.10535-0.12891-0.22357-0.24072-0.33386-0.36768c-0.02539-0.01514-0.0528-0.0293-0.07819-0.04443
	c-0.43451-0.51758-0.93555-0.98779-1.41602-1.46191c-0.12689-0.125-0.24219-0.26166-0.36719-0.38965
	c-0.05762-0.05811-0.14062-0.10205-0.19043-0.16705c-0.01471-0.01996-0.01471-0.05029-0.03418-0.06726
	c-0.11719-0.11969-0.27539-0.21204-0.37793-0.34583c-0.09076-0.12012-0.22266-0.1972-0.31348-0.31287
	c-0.05859-0.0752-0.125-0.16412-0.19922-0.22223c-0.02148-0.00391-0.03809-0.00781-0.05859-0.01221
	c-0.02338-0.01556-0.0332-0.0611-0.05469-0.0777h-0.04492c-0.02539-0.01611-0.0235-0.05511-0.04401-0.07806
	c-0.02631-0.01514-0.05365-0.02881-0.0791-0.04395v-0.0459c-0.04285-0.06195-0.12195-0.10498-0.16699-0.16699
	c-0.03021-0.04102-0.04291-0.09619-0.07806-0.13428c-0.08203-0.08502-0.21191-0.15771-0.27631-0.2558
	c-0.01959-0.02594-0.01471-0.05328-0.03522-0.07819c-0.03418-0.04205-0.10162-0.06696-0.13281-0.11182
	c-0.07617-0.1001-0.14746-0.20123-0.23541-0.28912c-0.02045-0.02191-0.05945-0.03217-0.07709-0.05609
	c-0.04486-0.06201-0.09961-0.14307-0.15717-0.18988c-0.37799-0.31012-0.73102-0.65479-1.04791-1.02594
	c-0.02002-0.0249-0.09283-0.06787-0.12299-0.09039c-0.00299-0.0097-0.0069-0.02051-0.0108-0.03265
	c-0.01123-0.00391-0.02203-0.00781-0.03424-0.01123c-0.06879-0.09473-0.14105-0.15967-0.23376-0.23389
	c-0.02399-0.021-0.02301-0.05273-0.04401-0.07812c-0.00928-0.0108-0.03522-0.0108-0.04492-0.02301
	c-0.02539-0.03265-0.04401-0.0766-0.07806-0.09955h-0.0332c-0.05182-0.03815-0.07574-0.12115-0.12213-0.16791
	c-0.04877-0.0484-0.125-0.07721-0.16699-0.13434c-0.10602-0.13916-0.2417-0.23877-0.35791-0.36719
	c-0.065-0.07281-0.12891-0.15381-0.19971-0.22272c-0.09717-0.09619-0.19727-0.18988-0.30127-0.2793
	c-0.03613-0.0307-0.05573-0.07855-0.08893-0.11176c-0.04199-0.039-0.1001-0.06689-0.13367-0.11084
	c-0.1485-0.18506-0.31451-0.3584-0.48053-0.52539c-0.125-0.125-0.29688-0.23682-0.39056-0.38971
	c-0.1001,0.00403-0.24323,0.02203-0.27844-0.04388c-0.03558,0.00983-0.05365,0.03473-0.07758,0.04388
	c-0.08838,0.03473-0.35107-0.01306-0.41309-0.02191c-0.07324-0.01215-0.19092,0.03271-0.25629-0.01129h-3.65771
	c-0.03723,0.01624-0.06891,0.08405-0.10114,0.1109c-0.01221,0.00934-0.00977,0.0083-0.0332,0.01221
	c-0.01367,0.05908-0.06396,0.1059-0.08984,0.16699c-0.02106-0.00488-0.02002-0.00287-0.03271-0.01221
	c-0.14111,0-0.15039,0.0932-0.22314,0.15723h-0.00195v0.08893c0.03809,0.00726,0.0401,0.00726,0.07806,0v0.01117h0.0108
	c-0.00098,0.19092-0.00586,0.4248,0,0.61383v0.27826c0.02002,0.01459,0.03711,0.0307,0.05609,0.04492v0.53467
	c-0.00085,0.19922-0.00323,0.41412-0.00629,0.62842c-0.00201,0.13281-0.00287,0.26758-0.00287,0.39893
	c0,0.0957-0.0191,0.2359-0.00885,0.31006c0.01074,0.11182,0.02002,0.25494,0,0.35693
	c0.00293,0.04486,0.00684,0.0899,0.01074,0.13379c-0.03369,0.18701,0.01508,0.34808-0.01074,0.50201
	c-0.00299,0.5722-0.0069,1.146-0.01129,1.7182c0,1.05811-0.02289,2.065-0.02289,3.13379v2.58789v0.75781
	c0,0.13281-0.0108,0.30658,0.02289,0.4024v0.30066c0,0.22937-0.01056,0.50781,0.01868,0.69305
	c0.00269,0.21014,0.00555,0.47607,0.00873,0.68195c0.00104,0.10553,0.00293,0.20715,0.00391,0.31061
	c0.02002,0.0722,0,0.20312,0.021,0.3017c0.00781,0.0332,0.039,0.37415,0.03271,0.3916
	c-0.01068,0.00592-0.021,0.01373-0.03271,0.02051v0.27063c-0.01611,0.1015-0.021,0.25391-0.021,0.38861v0.68066
	c0.0249,0.08398,0.08014,0.2832,0.06689,0.31354c-0.0152,0.0058-0.02881,0.01355-0.04486,0.02148
	c-0.04205,0.07996,0.00189,0.19617-0.021,0.30066c-0.0459,0.19934-0.01221,0.48254-0.01324,0.70221
	c0,0.10449-0.02686,0.30371,0.02203,0.36719c0.0249,0.03613,0.05505,0.03412,0.08929,0.05762
	c0.021,0.03223,0.0127,0.1015,0.03369,0.13281c0.03607,0.02539,0.08502,0.00201,0.13428,0.02252
	c0.05371,0.02435,0.11084,0.08197,0.17773,0.10046c0.10986,0.03131,0.229-0.01947,0.31299-0.02136
	c0.22711-0.00592,0.48291,0.01166,0.7251,0.01166l2.05182-0.00195c0.26697,0,0.62939,0.03516,0.82611-0.04395
	c0.08496-0.00391,0.1709-0.00781,0.25586-0.01166c0.0683-0.02252,0.1123-0.09674,0.16699-0.12213h0.05713
	c0.03711-0.01758,0.08008-0.0625,0.12207-0.0791V31.2207v-0.83691c0-0.0957-0.02301-0.25781,0.0332-0.30078v-0.83691
	c0.02985-0.02539,0.06-0.05267,0.08893-0.07721c0.01611-0.02631-0.00104-0.05756,0.01166-0.0791
	c0.02545-0.04187,0.08203-0.09076,0.10101-0.13367v-0.12213c0.01422-0.0293,0.065-0.06641,0.0791-0.10156v-0.08984
	c0.01324-0.03125,0.07434-0.06641,0.08789-0.10059v-0.11041c0.01611-0.01166,0.03033-0.0224,0.04645-0.0351
	c0.01855-0.03906,0.0069-0.0733,0.03265-0.10938c0.01135-0.01562,0.11334-0.05658,0.13434-0.07812
	c0.06891-0.06836,0.12701-0.16107,0.21191-0.21191c0.08295-0.05176,0.16309-0.08008,0.24469-0.13574
	c0.00629-0.0097,0.0141-0.02051,0.0224-0.03223h0.04401c0.06195-0.04102,0.1167-0.11432,0.17865-0.15527
	c0.01904-0.00391,0.03711-0.00781,0.05713-0.01172c0.15088-0.11029,0.27979-0.18549,0.45612-0.2793
	c0.07367-0.03711,0.15277-0.12689,0.2348-0.1543h0.16901c0.01508-0.0058,0.0542-0.0293,0.06586-0.0332h0.1123
	c0.03912-0.01172,0.0791-0.04492,0.11084-0.05664h0.08887c0.00732-0.01166,0.01422-0.0235,0.021-0.03314h0.0791
	c0.02002-0.00983,0.08893-0.06842,0.11133-0.07825h0.1109c0.07465-0.01556,0.16296-0.01166,0.24609-0.0332
	c0.20886-0.05859,0.46771-0.08978,0.6582-0.16791h0.12109c0.02527-0.00586,0.08588-0.02734,0.1015-0.03314
	c0.04877-0.00305,0.09766-0.00781,0.14447-0.01184c0.09381-0.0224,0.28131-0.05267,0.336-0.12097
	c0.10254,0.0058,0.31934,0.2832,0.39062,0.35541c0.10156,0.10547,0.21881,0.19629,0.32227,0.30078
	c0.20514,0.20697,0.39844,0.42188,0.60352,0.625c0.36029,0.35938,1.24866,1.21204,1.30469,1.2627
	c0.21094,0.19427,0.38873,0.41992,0.6123,0.60248c0.0683,0.0528,0.1084,0.15533,0.1806,0.2002h0.02844
	c0.02625,0.0166,0.02435,0.05371,0.04486,0.07825c0.02539,0.02631,0.07318,0.03998,0.10059,0.06726
	c0.0293,0.0274,0.0722,0.1084,0.1015,0.13379c0.2168,0.18463,0.4024,0.39075,0.60364,0.5899
	c0.03711,0.039,0.07416,0.07611,0.11316,0.1123l0.00098-0.00104c0.14233,0.1413,0.28564,0.27869,0.43268,0.41113
	c0.08008,0.07233,0.1416,0.17682,0.22369,0.24609c0.08301,0.06842,0.37006,0.31061,0.39935,0.40045h0.65234
	c0.04877-0.02155,0.09381-0.11914,0.13275-0.15625c0.125-0.1153,0.26471-0.211,0.3916-0.32227
	c0.0166-0.0166,0.01276-0.05273,0.03235-0.06738c0.02051-0.01465,0.05658,0.00391,0.07806-0.01074
	c0.01953-0.01367,0-0.03619,0.01172-0.0567c0.02148-0.03711,0.10938-0.12109,0.14648-0.14447
	c0.03711-0.02728,0.0752-0.03119,0.09961-0.06842c0.00983-0.01361-0.0069-0.03107,0.00293-0.04291h0.03418
	c0.0957-0.06445,0.16211-0.18561,0.25592-0.25586c0.01849-0.01373,0.04779-0.01562,0.06635-0.0332
	c0.03613-0.03711,0.05951-0.0918,0.10065-0.12305c0.1181-0.08984,0.2392-0.17474,0.3457-0.27734
	c0.0224-0.02051-0.00592-0.0224,0.0166-0.04102c0.08588-0.06641,0.18939-0.12891,0.24408-0.22461h0.0332v-0.07623
	C34.72852,30.13867,34.71002,30.14062,34.69922,30.12207z"/>
<path class="st1" d="M17.6782,34.3223c-0.0093-0.0098-0.0151-0.0118-0.0219-0.0225c0.0078-0.0107,0.0039-0.0029,0.0107-0.0225
	c0.0122,0.0059,0.022,0.0088,0.0332,0.0127C17.6899,34.3252,17.7051,34.3066,17.6782,34.3223 M18.6709,33.1289
	c0.0342,0,0.0562-0.0039,0.0771-0.0107c0.004-0.0225,0.0079-0.045,0.0118-0.0674c-0.0577,0.0078-0.044,0.0283-0.0889,0.0449V33.1289
	 M17.7778,22.4321c-0.0136,0.0171-0.018,0.0088,0,0.022V22.4321 M21.5371,33.7305c0.0337,0,0.0567-0.002,0.0801-0.0098
	c-0.0054-0.0234-0.0034-0.0225-0.0132-0.0352c-0.0039-0.0107-0.0078-0.0214-0.0112-0.0332h-0.0557V33.7305 M30.3711,30.0498h0.0117
	v-0.0322c-0.0234-0.0127-0.0215-0.0166-0.0566-0.0235c-0.0059,0.0176-0.0078,0.0274-0.0117,0.0567
	c0.0185,0.0058,0.0273,0.0078,0.0566,0.0097V30.0498z M30.3369,29.7715c0.0088,0.0185,0.0029,0.0107,0.0127,0.0205
	c0.0098,0.0107,0.002,0.0049,0.0215,0.0127c0.0039-0.0127,0.0078-0.0215,0.0107-0.0332c-0.0244-0.0059-0.0117-0.0117-0.0322,0
	H30.3369z M33.6729,29.3145c-0.0137,0.0175-0.0186,0.0078,0,0.0214V29.3145 M22.1851,28.5664
	c-0.0303-0.0215-0.0303-0.041-0.0669-0.0557v0.0108c-0.0332,0.0351-0.0142,0.0879-0.0122,0.1553
	c0.018,0.0068,0.02,0.0087,0.0459,0.0127C22.1621,28.6484,22.1729,28.6074,22.1851,28.5664 M21.1362,28.1426
	c-0.0034-0.0469-0.0083-0.0498-0.0234-0.0781c-0.0239-0.002-0.0269-0.004-0.044-0.0098v0.0098
	c-0.0087,0.0117-0.0048,0.0039-0.0107,0.0234c0.0127,0.0137,0.023,0.0351,0.0327,0.0547H21.1362 M28.0957,27.3164
	c0.0176-0.0059,0.0098-0.0019,0.0215-0.0098h-0.0215V27.3164 M30.9063,26.8721h-0.045c-0.0019,0.0527-0.0019,0.1191,0.0127,0.1552
	c0.0244-0.0039,0.0264-0.0039,0.044-0.0117c0-0.0498,0.0009-0.1094-0.0117-0.1445V26.8721z M19.9409,26.4141
	c-0.0127,0.0254-0.0459,0.0478-0.0561,0.0664v0.3789c0.062,0.0449,0.0454,0.1377,0.1342,0.1562c0.0581-0.0351,0.229-0.0088,0.2901,0
	c0.0039-0.0107,0.0078-0.0215,0.0107-0.0332C20.1631,26.8887,20.1211,26.4355,19.9409,26.4141 M25.3521,26.5361
	c-0.0689,0.0244-0.1431,0.0791-0.212,0.1123c0.0069,0.0186,0.003,0.0098,0.0108,0.0225c0.0171,0.0107,0.0459,0.0107,0.0791,0.0107
	c0.0429-0.041,0.082-0.0136,0.1548-0.0332c0.1504-0.041,0.334-0.0986,0.5136-0.1025c0.0039-0.0049,0.0079-0.0127,0.0118-0.0205
	c-0.0811-0.043-0.2618-0.0234-0.3789-0.0215C25.479,26.541,25.4268,26.5117,25.3521,26.5361 M20.667,26.3359
	c-0.0078,0.0196-0.0107,0.043-0.0107,0.0782c0.0556,0.0361,0.0097,0.1211,0.0439,0.1777c0.0229,0.0156,0.0727,0.0137,0.1108,0.0137
	c0.0249-0.0352,0.0591-0.0313,0.1011-0.045c0.0181-0.0585,0.0161-0.082,0.0449-0.125
	C20.8691,26.3809,20.8179,26.3359,20.667,26.3359 M20.5112,26.3574h0.0108v-0.0332c-0.0469-0.0381-0.022-0.1015-0.1001-0.1123
	c-0.0098,0.0264-0.0117,0.0615-0.0117,0.1006c0.0419,0.0254,0.038,0.0488,0.101,0.0566V26.3574L20.5112,26.3574z M23.311,26.2695
	c-0.02,0.0293-0.0122,0.0586-0.0341,0.0879c-0.0118,0.0059-0.023,0.0098-0.0337,0.0117c-0.0323,0.0352-0.0762,0.086-0.1001,0.1231
	v0.0332c-0.0303,0.0391-0.0879,0.0781-0.1109,0.1211v0.0469c-0.061,0.0878-0.186,0.1601-0.2011,0.289h0.0107v0.0117h0.0122v-0.0117
	c0.0552-0.0215,0.0581-0.0781,0.1011-0.1113c0.0288-0.0156,0.0591-0.0293,0.0879-0.0449c0.018-0.0196,0.0122-0.0508,0.0341-0.0664
	c0.2471-0.1641,0.3897-0.3897,0.5357-0.6582c0.0464-0.086,0.144-0.1563,0.167-0.2676c-0.061,0.0019-0.2007,0.166-0.2569,0.2246
	C23.459,26.1221,23.3599,26.1953,23.311,26.2695 M24.771,25.9785c-0.0718,0.1133-0.2969,0.2871-0.4131,0.3672
	c-0.251,0.1797-0.477,0.4053-0.7241,0.5918c-0.0899,0.0674-0.3657,0.2812-0.4019,0.377h0.0113
	c0.0117,0.0107,0.0107,0.0087,0.0327,0.0136c0.0693-0.0976,0.1992-0.1699,0.291-0.2461c0.04-0.0341,0.0679-0.0908,0.1123-0.122
	c0.2168-0.1641,0.417-0.3379,0.646-0.4922c0.0239-0.0147,0.042-0.0586,0.0669-0.0752c0.0317-0.0215,0.0679-0.0137,0.1011-0.0352
	c0.02-0.0117,0.0278-0.0674,0.0439-0.0879c0.0347-0.0468,0.2261-0.2177,0.2788-0.2461v-0.0332
	C24.7988,25.9844,24.7969,25.9824,24.771,25.9785 M20.5,26.0137c0.0112-0.0205,0.0132-0.0196,0.0229-0.0459
	c-0.019-0.0049-0.0278-0.0078-0.0571-0.0098v0.0098h-0.0107v0.0234C20.4741,26.002,20.4731,26.0039,20.5,26.0137 M25.1851,25.7773
	c-0.1021,0.0723-0.1802,0.1934-0.2701,0.2774c-0.101,0.1015-0.2182,0.1719-0.3339,0.2578
	c-0.0459,0.0332-0.0689,0.0986-0.1109,0.1328c-0.1201,0.1016-0.2514,0.1856-0.3804,0.2793
	c-0.0659,0.0508-0.1298,0.1191-0.1997,0.166v0.0137h0.0108c0.0112,0.0088,0.0019,0.0039,0.021,0.0098
	c0.063-0.0713,0.2002-0.1055,0.291-0.1553c0.0049-0.0117,0.0093-0.0205,0.0122-0.0322c0.0659-0.0537,0.1899-0.0879,0.2681-0.1358
	c0.0459-0.0263,0.0957-0.0879,0.145-0.1103c0.1557-0.0762,0.3198-0.1328,0.4687-0.2129c0.0889-0.0449,0.3809-0.1387,0.4009-0.2334
	c-0.0127-0.0049-0.0229-0.0108-0.0317-0.0225c0.0766-0.0039,0.0552-0.0371,0.1001-0.0547c0.081-0.0332,0.1113,0.0196,0.1562-0.0449
	c-0.1025-0.043-0.2656-0.0176-0.3803-0.0117C25.332,25.8721,25.208,25.7539,25.1851,25.7773 M20.9688,25.8574
	c-0.0938,0.1211-0.1509,0.0371-0.1446,0.2891c0.086,0.0596,0.126,0.0596,0.2788,0.0556c0.0298-0.0576,0.023-0.1748,0.021-0.2666
	c0.0279-0.0205,0.0298-0.0214,0.0332-0.0673C21.1118,25.8516,21.0322,25.8555,20.9688,25.8574 M21.8501,25.4321
	c0.0347-0.0371,0.0347-0.102,0.0337-0.1792c-0.0176,0-0.0327,0.023-0.0469,0.0572c-0.0327,0.0781-0.0556,0.2172-0.0537,0.2895
	c0.0117,0.0078,0.022,0.0156,0.0337,0.0225C21.8462,25.5742,21.8521,25.5195,21.8501,25.4321 M21.0791,25.3101
	c0.0107,0.0039,0.0239,0.0078,0.0327,0.0107v-0.0107h0.0122v-0.0669c-0.0039-0.001-0.0068-0.002-0.0088-0.002
	c-0.0122-0.0044-0.0053-0.0073-0.0254,0.002C21.0801,25.2578,21.0801,25.2788,21.0791,25.3101 M21.3472,25.231v0.0102v0.001
	c0.0727-0.0029,0.1338,0.0439,0.2119-0.0112c0.0088-0.0108,0.0039-0.003,0.0107-0.022c-0.0586-0.0298-0.104-0.0899-0.1338-0.145
	c-0.0288,0.0112-0.06,0.0122-0.0781,0.0219c-0.0298,0.0259-0.0249,0.0879-0.022,0.1451H21.3472z M21.27,24.9531
	c0.0098,0.0039,0.021,0.0069,0.0332,0.0108v0.0122h0.0108v-0.0122c0.0092-0.0108,0.0048-0.002,0.0112-0.022
	C21.2891,24.9189,21.2822,24.897,21.27,24.9531 M21.4482,24.4839c-0.0503,0.0181-0.1342,0.1001-0.1464,0.1572
	c0.038,0.0288,0.02,0.0698,0.0454,0.1109c0.0097,0.0087,0.0009,0.0029,0.0219,0.0112c0.0508-0.084,0.125-0.1402,0.167-0.2344
	c-0.0073-0.0088-0.0132-0.0249-0.0219-0.0337C21.4932,24.479,21.4639,24.4751,21.4482,24.4839 M22.4741,24.73
	c0.0117,0.0093,0.0108,0.0058,0.0327,0.0112c0.0371-0.0561,0.1211-0.0112,0.1802-0.0444c0.0181-0.0298-0.0058-0.084,0.0112-0.1226
	c0.0347-0.0884,0.147-0.1924,0.1558-0.29c-0.0181-0.0064-0.02-0.0083-0.0459-0.0122c-0.0791,0.1538-0.2881,0.3091-0.3452,0.458
	H22.4741z M21.8379,24.2168c-0.0117-0.0088-0.0108-0.0078-0.0327-0.0107c-0.0923,0.1738-0.1714,0.373-0.2134,0.603
	c0.0723,0.0639,0.0273,0.146,0.167,0.144c0.0122-0.019,0.0391-0.0312,0.0464-0.0439c0.0166-0.0332-0.0044-0.0742,0.0117-0.1001
	c0.0112-0.0083,0.021-0.0161,0.0322-0.023v-0.123c0.0117-0.0069,0.022-0.0152,0.0337-0.021v-0.1133
	c0.0122-0.0278,0.0283-0.022,0.0332-0.0776C21.855,24.4028,21.8789,24.2832,21.8379,24.2168 M25.106,24.2051
	c-0.044-0.0259-0.085-0.0679-0.1119-0.1114h-0.0112v0.0113c-0.041,0.0381-0.0249,0.1919-0.022,0.2671
	c-0.021,0.0249-0.0297,0.0459-0.0341,0.0898c0.0463,0.0191,0.082,0.043,0.122,0.0669c0.0332-0.043,0.0611-0.082,0.0791-0.145
	c-0.0537-0.0176-0.0678-0.0137-0.0669-0.0889C25.103,24.2798,25.106,24.2607,25.106,24.2051 M24.6489,24.0488
	c0.0083-0.0097,0.0142-0.0219,0.022-0.0327c-0.019-0.0112-0.0181-0.0151-0.0439-0.0229v0.0107h-0.0108v0.023
	C24.627,24.0342,24.6372,24.041,24.6489,24.0488 M28.5088,23.793c-0.0088,0.0112-0.0068,0.0112-0.0108,0.0332
	c0.0108,0.0029,0.0215,0.0068,0.0313,0.0107v-0.0107h0.0127V23.793C28.5176,23.7881,28.5293,23.7822,28.5088,23.793
	 M21.4028,23.4468c-0.0219,0.018-0.019,0.0161-0.0239,0.0561h0.0122v0.0113c0.0327-0.001,0.0288-0.0093,0.044,0
	c0.0131,0.019,0.0117,0.0546,0.0117,0.0888c-0.0166,0.023-0.0176,0.0879-0.0117,0.1001c0.0151,0.0098,0.0278,0.0108,0.0561,0.0117
	v0.0332c-0.0801,0.0508-0.0864,0.0918-0.1113,0.2012v0.0996c-0.0137,0.0391-0.0391,0.0772-0.0449,0.1343
	c-0.0039,0.043-0.0279,0.145-0.022,0.1558c0.0141,0.018,0.0078,0.0132,0.0342,0.0229c0.042-0.0776,0.1318-0.1098,0.1777-0.1787
	c0.0972-0.144,0.167-0.2739,0.167-0.5132c-0.02-0.0107-0.019-0.0137-0.043-0.022c-0.0239,0.0391-0.06,0.0362-0.124,0.0333V23.458
	c-0.0127-0.0098-0.0107-0.0088-0.022-0.022C21.479,23.4429,21.4072,23.4438,21.4028,23.4468 M21.749,23.4922
	c0.0288,0.0088,0.0772,0.0107,0.1221,0.0107v-0.0107h0.0117v-0.145c-0.041-0.0191-0.0586-0.0332-0.123-0.0342
	C21.7451,23.356,21.748,23.4321,21.749,23.4922 M22.9761,22.5098c-0.0142,0.0254-0.0191,0.0254-0.023,0.0673h0.0117v0.0108h0.0332
	c0.0049,0.022,0.004,0.021,0.0108,0.0332c0.0132,0.0088,0.0112,0.0068,0.0342,0.0107c0.0058-0.0175,0.0088-0.0258,0.0112-0.0547
	C23.022,22.5532,23.0181,22.5249,22.9761,22.5098 M27.0361,22.4321c0.0059-0.0171,0.0088-0.019,0.0108-0.0449h-0.0332v0.0449
	H27.0361 M21.5151,22.042h0.0118v-0.0342c-0.0308,0-0.0249-0.0117-0.0337,0.0342l0.0219,0.0112V22.042z M33.6719,29.3379
	c-0.0176-0.0147-0.0127-0.0059,0-0.0234V29.3379 M28.9434,27.9414c0.0117,0.0088,0.0019,0.0039,0.0195,0.0107
	c0.0049,0.0118,0.0098,0.0225,0.0137,0.0342c0.0058,0.0078,0.0136,0.0235,0.0205,0.0332c-0.0371,0.0235-0.0752-0.0019-0.1084-0.0117
	c-0.0098-0.0185-0.0039-0.0107-0.0137-0.0215c0.0068-0.0205,0.002-0.0117,0.0137-0.0224
	C28.9043,27.9355,28.9004,27.9434,28.9434,27.9414 M28.5977,27.7539c0.0117-0.0039,0.0224-0.0088,0.0332-0.0117
	c0.0117-0.0078,0.0117-0.0078,0.0332-0.0117c0.0117,0.0937,0.0625,0.1269,0.1015,0.1894h-0.0224
	C28.6836,27.8672,28.6035,27.8613,28.5977,27.7539 M28.0957,27.3066h0.0215c-0.0098,0.0079-0.001,0.0039-0.0215,0.0098V27.3066z
	 M30.918,27.0156c-0.0176,0.0059-0.0196,0.0078-0.045,0.0117c-0.0136-0.0371-0.0136-0.1015-0.0117-0.1543h0.045
	C30.9189,26.9072,30.918,26.9648,30.918,27.0156 M27.6836,26.9727c0.0176-0.0079,0.0195-0.0079,0.0449-0.0118
	c0.0059,0.0176,0.0078,0.0274,0.0117,0.0547h-0.0566V26.9727z M25.7656,24.5972c-0.0185,0.0049-0.0205,0.0068-0.0449,0.0107
	c-0.0068-0.0181-0.0098-0.0278-0.0117-0.0561c0.0078-0.0118,0.0058-0.0108,0.0117-0.0337h0.0449V24.5972z M25.5977,24.5288
	c-0.0166,0.0342-0.1016,0.0772-0.1558,0.0781c-0.0068-0.018-0.0098-0.0278-0.0107-0.0561c0.0459-0.0249,0.0546-0.044,0.1333-0.0449
	C25.5752,24.5161,25.583,24.521,25.5977,24.5288 M25.8535,23.2461c0.0117-0.0103,0.0039-0.0039,0.0225-0.0112
	c0.0244,0.0322,0.0381,0.021,0.0439,0.0781h-0.0781V23.29C25.8408,23.2798,25.8379,23.2661,25.8535,23.2461 M27.0469,22.3872
	c-0.003,0.0249-0.0049,0.0288-0.0117,0.0449h-0.0215v-0.0449H27.0469 M25.251,21.5181c-0.0259,0.06-0.0449,0.0888-0.044,0.188
	c-0.0102,0.019-0.0049,0.0361,0.0108,0.0571c0.0693,0.042,0.1362,0.018,0.1352,0.1328h-0.0122v0.0112
	c-0.1059,0.002-0.2568,0.0078-0.3218,0.0557c-0.0131,0.0181-0.0131,0.0449-0.0131,0.0781c0.042,0.0249,0.0503,0.0733,0.0459,0.1118
	c-0.063,0.021-0.0918,0.0952-0.1455,0.1221c-0.0933,0.0483-0.1343,0.021-0.1431,0.1143c-0.001,0.019-0.002,0.0439-0.001,0.0756
	c0.0366,0.0313,0.0166,0.0684,0.044,0.1123c0.0107,0.003,0.0219,0.0069,0.0317,0.0098v0.0899
	c0.02,0.0444,0.0732,0.1142,0.0913,0.1562v0.0562c0.0098,0.0068,0.021,0.0146,0.0317,0.0229V23
	c0.0049,0.0122,0.0391,0.0151,0.045,0.0239v0.0889c0.0073,0.0122,0.0913,0.189,0.0913,0.189h0.2329V23.291h0.0107
	c-0.0156-0.0532-0.0327-0.0898-0.0327-0.1782c0.0181-0.0068,0.0278-0.0088,0.0571-0.0107c0.107,0.104,0.4659,0.1728,0.4786,0.3461
	c-0.211,0.0347-0.7437,0.1177-0.8028,0.2789c0.0059,0.0029,0.0152,0.0058,0.023,0.0097c0.0361,0.0264,0.1142,0.0322,0.144,0.0571
	c0.082,0.063,0.1441,0.1211,0.2012,0.211c0.0068,0.0112,0.0376,0.0132,0.0449,0.0229c0.0439,0.0601,0.043,0.2173,0.1104,0.2451
	c0.0449-0.0317,0.2128-0.0141,0.246,0.0113c0.0137,0.021,0.0127,0.0639,0.0098,0.1006h-0.0098
	c-0.0566-0.0318-0.0761,0.02-0.1455,0.021c-0.1455,0.0053-0.3159,0.0034-0.4472-0.0098c-0.0049,0.0161-0.0069,0.019-0.0108,0.0439
	c0.0948,0.0503,0.2578,0.2491,0.3125,0.3462v0.2007c0.0157,0.0112,0.0284,0.022,0.045,0.0332
	c0.0214,0.0498,0.0087,0.0899,0.0332,0.1338c0.0937,0.165,0.2656,0.3013,0.414,0.4126c0.0899,0.0693,0.1289,0.1797,0.1983,0.2676
	c0.0127,0.0137,0.0322,0,0.0439,0.0117c0.0234,0.0176,0.0342,0.0625,0.0586,0.0781c0.1406,0.0918,0.2559,0.1895,0.3994,0.2793
	c0.0322,0.0215,0.0576,0.0684,0.0899,0.0889c0.0947,0.0576,0.1689,0.0918,0.2685,0.1455c0.043,0.0225,0.0596,0.0654,0.1231,0.0781
	c0.0312-0.0449,0.0781-0.0234,0.1211-0.0332c0.0039-0.0762,0.041-0.084,0.0566-0.1328c0.0107-0.0351,0.0039-0.0801,0.0107-0.1025
	c0.0362-0.003,0.0362-0.0108,0.0577,0c0.0556,0.0283,0.0595,0.0898,0.0556,0.1797c-0.04,0.0293-0.1318,0.3564-0.1455,0.4248
	c0.0625,0.0429,0.0977,0.1269,0.1455,0.1884c0.0186,0.0245,0.0557,0.0342,0.0791,0.0557c0.002,0.0117,0.0059,0.0215,0.0098,0.0342
	h0.0342v0.0205c0.0361,0.0391,0.0859,0.0644,0.123,0.1016c0.0098,0.0117,0.0078,0.0341,0.0225,0.0449
	c0.0664,0.0527,0.125,0.1162,0.1875,0.1679c0.0176,0.0137,0.0517,0.0157,0.0664,0.0332c0.0117,0.0118,0,0.0342,0.0117,0.045
	c0.0225,0.0195,0.0537,0.0136,0.0781,0.0332c0.0039,0.0117,0.0059,0.0215,0.0108,0.0332c0.0429,0.0332,0.0957,0.0517,0.1338,0.0888
	c0.0214,0.0196,0.0341,0.0606,0.0566,0.0791c0.0527,0.0352,0.0937,0.0518,0.1455,0.0879c0.0693,0.0479,0.1201,0.1436,0.1904,0.1914
	h0.0323c0.082,0.0508,0.1396,0.1475,0.2138,0.211c0.0117,0.0097,0.0449,0.0195,0.0547,0.0322v0.0459
	c0.0137,0.0225,0.0664,0.0527,0.0781,0.0772v0.0673c0.002,0.0088,0.0293,0.0332,0.0332,0.044
	c0.0059,0.0752,0.0137,0.1494,0.0215,0.2226c0.0108,0.0039,0.0215,0.0088,0.0332,0.0127v0.0557
	c0.0117,0.0205,0.0313,0.043,0.0537,0.0654c0.0713,0.0635,0.1846,0.1289,0.2481,0.168c0.0244,0.0166,0.043,0.0635,0.0654,0.0801
	h0.0449c0.0157,0.0175,0.0313,0.0361,0.045,0.0547c0.0683,0.041,0.1484,0.0634,0.2109,0.1113
	c0.0049,0.0117,0.0088,0.0215,0.0127,0.0342h0.0557c0.0283,0.0127,0.0527,0.0615,0.0791,0.0761
	c0.041,0.0264,0.1045,0.0303,0.1455,0.0577c0.0039,0.0097,0.0068,0.0205,0.0107,0.0322c0.0225,0.0039,0.044,0.0088,0.0654,0.0107
	c0.0879,0.0528,0.1885,0.1367,0.2911,0.168c0.0273-0.0781,0.0429-0.1055,0.1562-0.1006c0.0371,0.1123,0.1328,0.2402,0.1113,0.3682
	h-0.0449c-0.0273-0.0342-0.1035-0.0957-0.1445-0.1123v0.0127c-0.0117,0.0146-0.0117,0.0273-0.0127,0.0556
	c0.0342,0.0283,0.0722,0.1065,0.0908,0.1455v0.0664c0.0059,0.0108,0.0391,0.0147,0.0449,0.0215v0.0801
	c0.0098,0.002,0.0205,0.0059,0.0313,0.0098v0.0654c0.0136,0.0264,0.0625,0.0557,0.0791,0.0781
	c0.0244,0.043,0.0312,0.0821,0.0556,0.1231c0.0118,0.0039,0.0215,0.0078,0.0323,0.0117v0.0459
	c0.0576,0.0957,0.1611,0.1738,0.2353,0.2558c0.0215,0.0245,0.044,0.0577,0.0703,0.086c0.0274,0.0273,0.0576,0.0517,0.0967,0.0596
	c0.0772-0.0489,0.1406,0.0556,0.1885,0.0781h0.0791c0.0127,0.0068,0.0576,0.0303,0.0771,0.0439
	c0.127,0.0821,0.2188,0.2168,0.3789,0.2676c0.0157-0.0391,0.0293-0.0742,0.0567-0.1006c0-0.1514-0.0449-0.1396-0.0664-0.2334
	c-0.0078-0.0312,0.0586-0.1972,0.0664-0.2344c-0.25-0.1601-0.4785-0.414-0.7481-0.5468v-0.0323
	c0.127-0.0009,0.1807,0.045,0.2579,0.0772h0.1113c0.0039,0.0117,0.0078,0.0215,0.0117,0.0332h0.0996
	c0.0039,0.0117,0.0098,0.0215,0.0137,0.0332h0.0879c0.0761,0.0293,0.1289,0.0937,0.2334,0.1016
	c0.0351-0.0352,0.0908-0.0899,0.1455-0.1016c0.0088,0.0762,0.0234,0.1758,0,0.2559c-0.0137,0.0546-0.0547,0.1543-0.0332,0.246
	c0.0195,0.0694,0.0566,0.2286,0.0888,0.2911c0.0127,0.0039,0.0225,0.0058,0.0342,0.0117v0.0312
	c0.0147,0.0235,0.0645,0.0362,0.0781,0.0586c0.0098,0.0137,0.0079,0.0664,0.0108,0.0762h0.0322
	c-0.0019,0.0967-0.0381,0.0986-0.043,0.1895c0.043,0.0234,0.1192,0.0937,0.1338,0.1464c-0.0107,0.0176-0.0029,0.0274,0,0.0664
	c0.0137,0.0098,0.0303,0.0215,0.045,0.0332c0.0224-0.0253,0.0302-0.0029,0.0673-0.0234c0.0235-0.0117,0.0996-0.1172,0.1211-0.1328
	h0.0469c0.0879-0.0488,0.1563-0.1309,0.2227-0.2012c0.0468-0.0469,0.1338-0.0615,0.1464-0.1455
	c-0.0263-0.0166-0.0244-0.0166-0.0234-0.0322c0.043-0.0254,0.126,0.0098,0.1787-0.0117c0.0127-0.0059,0.0283-0.0391,0.0459-0.045
	h0.0664c0.0196-0.0058,0.0381-0.0371,0.0547-0.0449h0.0469c0.0254-0.0136,0.0566-0.039,0.0879-0.0683
	c0.0713-0.0684,0.1494-0.1621,0.2002-0.209c0.1455-0.1387,0.3037-0.2598,0.4463-0.4024c0.0664-0.0644,0.164-0.0927,0.1855-0.1953
	c-0.0449-0.0429-0.0068-0.2207-0.0293-0.2949c-0.0137-0.0508-0.1308-0.2461-0.166-0.2891
	c-0.0566-0.0722-0.1543-0.1201-0.2227-0.1796c-0.0234-0.0186-0.0351-0.0606-0.0576-0.0782h-0.0332
	c-0.0967-0.08-0.1689-0.1992-0.2676-0.2783c-0.2978-0.2363-0.7275-0.6601-0.8711-1.0371c-0.0537,0.001-0.1044-0.0029-0.1435-0.0127
	c-0.1016-0.1963-0.3789-0.4092-0.5371-0.5674c-0.0977-0.1006-0.1944-0.2314-0.2774-0.3467
	c-0.0234-0.0302-0.0742-0.0507-0.0996-0.0771c-0.1054-0.1025-0.2031-0.209-0.3047-0.3135c-0.1035-0.1113-0.2968-0.4023-0.456-0.4346
	c-0.0039,0.0108-0.0078,0.0225-0.0117,0.0323c-0.043,0.0722,0.0244,0.2148-0.0108,0.3017
	c-0.0117,0.0078-0.0224,0.0137-0.0332,0.0225v0.0654c-0.0078,0.0166-0.0332,0.043-0.0449,0.0674h-0.0449
	c0.0019-0.1406,0.0049-0.2578,0-0.3809v-0.1328c-0.1465-0.3593-0.3584-0.5664-0.6133-0.8139
	c-0.0332-0.0318-0.0527-0.0826-0.0889-0.1109c-0.0742-0.0591-0.1591-0.103-0.2236-0.1679c-0.0723-0.0718-0.2832-0.355-0.3789-0.3682
	c-0.0215,0.02-0.1055,0.0952-0.1231,0.0781c-0.0566-0.0488-0.0664-0.1499-0.1103-0.2119c-0.0635-0.0889-0.1865-0.1518-0.2686-0.2231
	c-0.0351-0.0308-0.0195-0.065-0.0449-0.1119c-0.0205-0.0351-0.0625-0.0239-0.1006-0.0439c-0.0771-0.04-0.1494-0.1543-0.2236-0.2119
	c-0.0937-0.0742-0.1758-0.2612-0.3242-0.2681c-0.0117-0.0083-0.0098-0.0063-0.0322-0.0112v-0.044
	c0.0419-0.018,0.0673-0.0249,0.0781-0.0791c-0.0293-0.02-0.0479-0.06-0.0674-0.0878c-0.0459,0.017-0.2402-0.0669-0.3008-0.1119
	c-0.0039-0.0122-0.0078-0.0219-0.0117-0.0341c-0.2754-0.149-0.4414-0.4068-0.625-0.647c-0.0234-0.0322-0.0117-0.063-0.0332-0.1001
	c-0.0176-0.0117-0.0361-0.022-0.0566-0.0337c-0.043-0.0693-0.0694-0.1763-0.1329-0.2222v-0.0122
	c-0.0127-0.0107-0.0117,0.0113-0.0127,0.0122c-0.0068,0.0108-0.0058,0.0098-0.0097,0.0327
	c0.0205,0.0171,0.0137,0.0103,0.0224,0.0445c-0.0195,0.0078-0.0117,0.0019-0.0224,0.0117
	c-0.0186-0.0068-0.0108-0.0029-0.0225-0.0117c-0.0351-0.021-0.0517-0.0342-0.0566-0.0894h0.0664
	c0.0058-0.0176,0.0078-0.0268,0.0117-0.0556c-0.0898-0.0581-0.1738-0.2491-0.2353-0.3453c-0.0381-0.0639-0.1143-0.1157-0.167-0.1679
	c-0.085-0.085-0.17-0.1748-0.2442-0.2671c-0.0293-0.0362-0.0801-0.0567-0.1113-0.0899c-0.0576-0.0571-0.1641-0.2158-0.2461-0.2338
	c-0.0508,0.0678-0.1797,0.0097-0.2783,0.0327c-0.0244,0.0063-0.0635,0.039-0.0899,0.0449h-0.2109
	c-0.0264,0.0561-0.085,0.084-0.1572,0.0893h-0.0889c-0.0029,0.0118-0.0073,0.023-0.0112,0.0337
	C25.3042,21.5151,25.2632,21.5142,25.251,21.5181 M23.835,21.5508c-0.0201,0.0073-0.0352,0.0093-0.0679,0.0112l-0.0552,0.0669v0.022
	c-0.082,0.0532-0.1499,0.1303-0.2007,0.2119c-0.019,0.0303-0.0122,0.063-0.0332,0.0893c-0.042,0.0489-0.1098,0.0547-0.1352,0.1231
	h0.0112c0.0161,0.0176,0.0078,0.0117,0.0342,0.0229c0.0527-0.038,0.186,0.021,0.2119,0.0547
	c0.0088,0.0132,0.0068,0.0113,0.0107,0.0342c-0.0459,0.0088-0.039,0.0317-0.0659,0.0449h-0.1787
	c-0.0073,0.0103-0.0151,0.022-0.0224,0.0332c-0.0557,0.0039-0.1109,0.0078-0.167,0.0108c-0.0108,0.0171-0.0157,0.021-0.0337,0.0332
	c0.02,0.1147-0.0201,0.3198-0.0342,0.4238c0.2231,0.146,0.3711,0.377,0.5151,0.6021c0.0078,0.0151,0.0332,0.0122,0.0449,0.0219
	c0.0249,0.0288,0.0323,0.0713,0.0552,0.1011c0.0117,0.0039,0.023,0.0068,0.0337,0.0107c0.044,0.0572,0.0654,0.1353,0.1104,0.1915
	c0.0459,0.0527,0.1176,0.0927,0.1689,0.144c0.0947,0.0967,0.2227,0.2617,0.3789,0.2895c0.0239-0.0278,0.0259-0.0175,0.0659-0.0107
	c0.0313-0.0581,0.024-0.1758,0.022-0.2681c0.0562-0.0258,0.019-0.081,0.0449-0.1337c0.0122-0.0074,0.021-0.0152,0.0332-0.021
	v-0.0904c0.0118-0.0078,0.021-0.0146,0.0332-0.0219c0.0318-0.0757,0.1397-0.482,0.0899-0.6138
	c-0.002-0.0059-0.0313-0.0249-0.0342-0.0332V22.812c-0.0151-0.0122-0.0288-0.0229-0.0439-0.0342
	c-0.003-0.0229-0.0069-0.0449-0.0118-0.0669c-0.0254-0.0478-0.0703-0.0717-0.0771-0.145c0.0747-0.04,0.1089-0.103,0.125-0.1919
	c0.0088-0.0561,0.0098-0.122,0.0078-0.1992c-0.0469-0.0317-0.0269-0.0478-0.0557-0.0996c-0.018-0.0322-0.1811-0.1943-0.2124-0.2124
	c-0.0229-0.0127-0.209-0.0816-0.2129-0.0889v-0.1108c0.0249-0.0191,0.0279-0.0283,0.0342-0.0669h-0.0112V21.584
	c-0.0479,0.02-0.0469,0.0351-0.1108,0.022c-0.0069-0.0469-0.0142-0.0962-0.021-0.1441l-0.2461,0.0342V21.5508 M21.5928,21.6289
	c-0.0088,0.0029-0.0147,0.0068-0.021,0.0112c-0.0078,0.021-0.0108,0.044-0.0108,0.0777c0.0498,0.062,0.0171,0.2031,0.065,0.2671
	c0.0122,0.0092,0.0019,0.0044,0.0229,0.0122v-0.0122h0.0113c0.0029-0.086,0.0317-0.126,0.0327-0.2217
	C21.6362,21.7261,21.6172,21.7002,21.5928,21.6289 M21.2798,21.1382c-0.0269,0.06-0.062,0.0727-0.0659,0.1557
	c0.0512,0.0191,0.0683,0.0162,0.0674,0.0889c0.0966,0.0933,0.0566,0.4712,0.2016,0.502c0.0171-0.0508,0.0112-0.1416,0.0103-0.2119
	c0.0219-0.022,0.02-0.0689,0.0219-0.1221c0.045,0.0044,0.044,0.0112,0.0767,0.0224c0.0332-0.0561,0.0645-0.0771,0.0791-0.1313
	l-0.0557-0.0137h-0.0444C21.5542,21.3848,21.3271,21.147,21.2798,21.1382 M23.7681,21.563c0.0317-0.002,0.0468-0.0059,0.0678-0.0112
	v-0.0557h-0.0561C23.7769,21.5181,23.772,21.54,23.7681,21.563 M21.0781,21.3838v0.0112h0.0108v-0.0112
	c0.0092-0.0108,0.0039-0.0029,0.0132-0.023c-0.0171,0.0035-0.0401-0.0039-0.023,0.023H21.0781z M25.5684,21.2671
	c-0.0137,0.0107-0.0303,0.0249-0.0508,0.0381c0.0078,0.02,0.0019,0.0107,0.0117,0.0219c0.0088,0.0269,0.0049,0.0191,0.0225,0.0337
	c0.0068-0.0097,0.0127-0.019,0.0205-0.0278c0.0205-0.0278,0.041-0.0518,0.0586-0.083
	C25.6035,21.2471,25.5869,21.2549,25.5684,21.2671 M23.623,19.0972c-0.0229-0.0044-0.0209-0.002-0.0341-0.0113
	c-0.0098-0.0161-0.0098-0.0361-0.0098-0.0669h0.0439V19.0972z M23.0972,18.2051v-0.0332c-0.0601-0.042-0.0874-0.125-0.1451-0.168
	c-0.1059-0.0781-0.2089-0.1548-0.3022-0.2451c-0.0107-0.0117-0.0078-0.0357-0.021-0.0449c-0.0449-0.0279-0.085-0.0357-0.124-0.0669
	c-0.0518-0.044-0.1099-0.1172-0.189-0.1338c-0.019,0.0537-0.0117,0.1509-0.0107,0.2236c-0.063,0.0293-0.0132,0.0943-0.0342,0.167
	c-0.0059,0.021-0.0381,0.041-0.0449,0.0552v0.1562c-0.0083,0.0318-0.0459,0.0708-0.0552,0.1006v0.167
	c-0.002,0.0054-0.0308,0.0264-0.0337,0.0342v0.2339c-0.0102,0.0332-0.0312,0.0429-0.0332,0.1011
	c-0.0029,0.0917-0.0181,0.2348,0.0332,0.2778c0.0278,0.0171,0.0596,0.0054,0.0786,0.0332c0.044,0.0727-0.0288,0.1059-0.0449,0.146
	v0.1001c-0.0117,0.0078-0.022,0.0151-0.0337,0.022v0.1899c-0.0112,0.0078-0.021,0.0151-0.0332,0.022v0.3242
	c-0.0078,0.0298-0.0371,0.0757-0.0449,0.0996v0.0561v0.4239c0.0058,0.0122,0.04,0.0141,0.0449,0.0219
	c0.0308,0.0503,0.0332,0.2564,0.0332,0.3355c0.0191,0.0098,0.0298,0.0366,0.0449,0.0449h0.0567v0.022
	c0.0254,0.021,0.0644,0.04,0.0893,0.0547v0.0122h0.0782c0.0048,0.0019,0.2666,0.145,0.2666,0.145
	c0.018,0.023,0.0312,0.0991,0.0341,0.1108l0.022,0.0113c0.0288-0.0259,0.0762-0.0239,0.1348-0.022
	c-0.0059,0.0747-0.0318,0.0791-0.0337,0.168c0.0429,0.0259,0.0898,0.0908,0.1338,0.1108h0.167
	c0.1372,0.0581,0.1782,0.063,0.1782,0.2461l0.125,0.0889c0.0581-0.083,0.1279-0.1797,0.2441-0.19
	c0.0098,0.0103,0.0186,0.0152,0.0337,0.022l0.0552-0.0659c0.0039-0.023,0.0078-0.0449,0.0127-0.0669h0.0552l0.2461-0.0342
	c0.0927,0,0.1528,0.001,0.2109,0.0342c0.0059,0.0098,0.0142,0.022,0.022,0.0327h0.0771c0.0191,0.0064,0.0381,0.0381,0.0581,0.0444
	h0.1446c0.0034,0.0118,0.0063,0.023,0.0102,0.0337h0.124c0.0049,0.0113,0.0142,0.022,0.022,0.0332h0.0352
	c0.0107-0.0019,0.145-0.1582,0.1669-0.1782c0.0308-0.0288,0.0611-0.021,0.1011-0.0439c0.0147-0.0098,0.0269-0.0459,0.0449-0.0572
	c0.0528-0.0317,0.0938-0.0366,0.1558-0.0669c0.0313-0.0151,0.0869-0.0629,0.1221-0.0771h0.0781
	c0.0308-0.0137,0.0615-0.0347,0.0928-0.0527c0.0312-0.0181,0.0644-0.0342,0.1074-0.0371c0.0137,0.0131,0.0273,0.0239,0.0459,0.0332
	c0.0107-0.023,0.0146-0.0201,0.0205-0.0552c-0.0352-0.0318-0.1025-0.0542-0.1338-0.0889v-0.0342
	c-0.0264-0.019-0.0517-0.0371-0.0781-0.0561c-0.0186-0.0259-0.0137-0.0479-0.0327-0.0767c-0.0332-0.0512-0.1031-0.0942-0.1353-0.146
	c-0.2007-0.333-0.3359-0.7129-0.6347-0.9482c-0.108-0.085-0.4722-0.147-0.48-0.3008c0.0561-0.021,0.04-0.0513,0.0327-0.1123
	c-0.0869-0.0498-0.1099-0.1436-0.1768-0.2119c-0.186-0.1787-0.3642-0.3657-0.5468-0.5459c-0.0953-0.0908-0.167-0.2559-0.3472-0.2569
	c-0.0171-0.0283-0.041-0.0473-0.0562-0.0781c0.0371-0.0122,0.0352-0.0161,0.0342-0.0332c-0.0171-0.0107-0.0361-0.0107-0.0669-0.0107
	H23.0972z M22.105,21.4731c-0.0059,0.0079-0.0391,0.0079-0.0449,0.023v0.3896c0.0708,0.0342,0.164,0.0484,0.2461,0.1001
	c0.1826,0.1192,0.3188,0.3423,0.6127,0.3462c0.0562-0.08,0.148-0.1401,0.2232-0.2011c0.061-0.0479,0.103-0.1319,0.1567-0.19
	c0.0103-0.0039,0.021-0.0058,0.0332-0.0097V21.897c0.0171-0.023,0.0601-0.043,0.0791-0.0659
	c0.0059-0.0113,0.0147-0.023,0.022-0.0342l-0.125-0.0889v0.0332h-0.021c-0.0303,0.0186-0.1362,0.0278-0.167,0.0327
	c0.0049-0.0307,0.0137-0.0307,0-0.0561c-0.0141-0.0078-0.02-0.0078-0.0449-0.0108c-0.0322,0.0362-0.0723,0.0718-0.1353,0.0782
	c-0.0141-0.0323-0.2168-0.1631-0.2558-0.2002c-0.0733-0.0699-0.1279-0.1519-0.188-0.2339c-0.0161-0.0083-0.0313-0.0161-0.0449-0.023
	c-0.0132-0.0151-0.0064-0.0459-0.022-0.0561h-0.0684c-0.0029-0.0113-0.0058-0.022-0.0097-0.0327
	c-0.0161-0.0044-0.0303-0.0083-0.0449-0.0122c-0.0542-0.0513-0.0694-0.146-0.1563-0.167v0.0107h-0.0117
	C22.1392,21.147,22.1338,21.4331,22.105,21.4731 M21.9048,20.792c0.0083,0.0039,0.0151,0.0078,0.021,0.0112V20.792h0.0112v-0.0889
	C21.8979,20.7031,21.9019,20.7251,21.9048,20.792 M21.916,20.6699h0.0122v-0.0678c-0.0722-0.0289-0.081,0.0551-0.0122,0.0791
	V20.6699z M21.626,20.2461h-0.0108v0.0107c-0.0283,0.0381-0.0654,0.1841-0.0664,0.2461c0.0552,0.021,0.0684,0.0293,0.0664,0.1123
	c-0.042,0.0279-0.1943,0.253-0.2002,0.3106c-0.0361,0.0752,0.063,0.1513,0.0889,0.2012c0.02,0.04,0.0239,0.1069,0.0449,0.145
	c0.0264,0.0522,0.0611,0.0708,0.0664,0.1562l0.0557,0.0137c0.0073-0.0249,0.0112-0.0571,0.0112-0.103
	c0.0489-0.0747,0.003-0.1739,0.0337-0.2788c0.0313-0.107,0.0542-0.3433,0.0552-0.4683c0-0.0679,0.0278-0.1387,0.022-0.1558
	c-0.021-0.0141-0.085-0.018-0.1109-0.0229c-0.0063-0.0161-0.0429-0.145-0.0561-0.1563V20.2461z M20.9009,20.5908
	c-0.0098-0.0039-0.023-0.0078-0.0318-0.0107v-0.0113l-0.0473-0.0058c-0.003,0.042-0.0459,0.0679-0.0537,0.1069
	c-0.0103,0.0532,0.0869,0.23,0.123,0.2451c0.0181-0.0322,0.0171-0.039,0.0659-0.0449v0.0117h0.0118
	c-0.004,0.0913,0.0122,0.2325,0.0761,0.2564V21.126c0.0591-0.02,0.0733-0.0728,0.1123-0.1099
	c0.0308-0.0303,0.1148-0.0532,0.1338-0.0903v-0.3677c-0.043-0.0303-0.0469-0.0762-0.0449-0.1499h-0.188
	C21.0142,20.4702,20.9648,20.5298,20.9009,20.5908 M21.8389,19.9668v0.0112h-0.0108c0.0069,0.02,0.002,0.0113,0.0108,0.022
	c0.021,0.0259,0.0263,0.0371,0.0674,0.0449c0.0078-0.0137,0.0078-0.0127,0.0205-0.0229v-0.0327
	c-0.0328-0.0171-0.0357-0.0171-0.0889-0.0225H21.8389z M23.5781,19.019c0,0.0308,0,0.0508,0.0117,0.0669
	c0.0123,0.0093,0.0103,0.0069,0.0332,0.0113V19.019H23.5781z M21.5259,18.4829v-0.0107c0.0122-0.0161,0.0161-0.0332,0.022-0.0562
	c-0.0088-0.0112-0.004-0.0029-0.0108-0.0229h-0.0449v0.0898H21.5259z M21.4819,16.3521v0.0107h-0.0107v0.0229
	c0.0107,0.0074,0.021,0.0152,0.0327,0.0225c0.0073-0.0112,0.0132-0.0225,0.021-0.0332c-0.019-0.0107-0.0181-0.0142-0.0439-0.0229
	H21.4819z M17.666,34.2793c0.0108,0.0019,0.023,0.0059,0.0322,0.0088c-0.0073,0.0351,0.0059,0.0166-0.0224,0.0322
	c-0.0069-0.0078-0.0127-0.0117-0.021-0.0205C17.6641,34.2891,17.6592,34.2979,17.666,34.2793 M21.6152,33.7207
	c-0.0214,0.0078-0.0444,0.0098-0.0791,0.0117v-0.0781h0.0547c0.0044,0.0107,0.0083,0.0205,0.0132,0.0332
	C21.6118,33.6992,21.6099,33.6982,21.6152,33.7207 M21.75,31.1094v0.0566h-0.1001c-0.0039-0.0293-0.0088-0.0605-0.0127-0.0898
	c0.0649,0.0039,0.0576,0.0234,0.1118,0.0332H21.75z M20.0542,28.9453c0.0098,0.0117,0.019,0.0156,0.0337,0.0234v0.0665
	c-0.0371,0.0175-0.044,0.0293-0.1001,0.0332c-0.0068-0.0176-0.0078-0.0196-0.0127-0.045c0.0137-0.0166,0.019-0.0488,0.0327-0.0664
	C20.0229,28.9492,20.0288,28.9492,20.0542,28.9453 M21.0688,28.0547c0.0162,0.0058,0.0191,0.0078,0.043,0.0098
	c0.0152,0.0283,0.0191,0.0312,0.022,0.0781h-0.044c-0.0097-0.0196-0.019-0.041-0.0336-0.0547
	c0.0078-0.0195,0.0029-0.0108,0.0126-0.0234V28.0547 M21.4912,18.4829v-0.0898h0.0449c0.0059,0.02,0.002,0.0117,0.0108,0.0229
	c-0.0039,0.023-0.0088,0.0401-0.022,0.0552v0.0117H21.4912z M20.3428,16.3643c0.0244-0.0162,0.0224-0.0191,0.0674-0.0225
	c-0.0162,0.0171-0.045,0.0322-0.0674,0.0454V16.3643 M18.313,16.3418c0.0259,0.0034,0.0278,0.0054,0.0449,0.0112
	c-0.0151,0.0088-0.02,0.0088-0.0449,0.0113V16.3418 M18.415,16.1489c-0.1049,0-0.2129,0.003-0.31,0.003
	c-0.0142,0.0293-0.021,0.0874-0.0342,0.123h-0.0327V16.208c-0.0171-0.0059-0.0283-0.0088-0.0552-0.0112
	c-0.0371,0.0493-0.1079,0.0512-0.1558,0.0893c-0.0473,0.0371-0.0458,0.1118-0.0791,0.1451
	c-0.0332,0.0346-0.1459,0.0581-0.1782,0.1118c-0.0039,0.0258-0.0088,0.0522-0.0117,0.0781
	c-0.0142,0.0268-0.064,0.0708-0.0771,0.1011v0.0659c-0.0132,0.0039-0.022,0.0068-0.0342,0.0107
	c-0.0738,0.146,0.1533,0.395,0.0561,0.5474c-0.02,0.043-0.041,0.0317-0.0439,0.0996c0.062,0.0732-0.0049,0.2573,0.022,0.3682
	c0.021,0.0932,0.0551,0.205,0.0771,0.3012v0.2007c0.0361,0.1641,0.1021,0.4141-0.0122,0.5581
	c-0.0127,0.0088-0.0181,0.0088-0.0439,0.0117c-0.004-0.0117-0.0079-0.0229-0.0108-0.0336c-0.06-0.0933-0.021-0.3179-0.1011-0.3912
	v-0.0097h-0.0122v0.0097c-0.0151,0.0249-0.019,0.0679-0.019,0.1172c0,0.065,0.0083,0.1377,0.0083,0.1841v0.771
	c0,0.8086,0.022,1.4727,0.022,2.3857c0.0029,0.7359,0.0068,1.4732,0.0107,2.209c0,0.377-0.0488,0.8633,0.0332,1.1822v0.4018
	c0.0039,0.1748,0.0088,0.3506,0.0117,0.5244c0.0083,0.0332,0.0523,0.1055,0.0342,0.1563c-0.0112,0.0254-0.0498,0.0303-0.0571,0.0664
	c0.0151,0.0303,0.0473,0.0771,0.0571,0.1015v0.2793c0,0.1778-0.0171,0.2618-0.0459,0.3907v0.2334
	c-0.0161,0.0498-0.0332,0.0634-0.0332,0.1562c-0.001,0.7969-0.021,1.5371-0.0288,2.2891c-0.002,0.2129-0.0039,0.4277-0.0039,0.6455
	c0.0107,0.0039,0.022,0.0058,0.0327,0.0098c0.0513-0.084,0.1699-0.2227,0.2681-0.2559v0.0117
	c0.0278,0.0127,0.0068-0.0058,0.0229,0.0215c-0.0239,0.0361,0.0083,0.1084-0.0127,0.1553c-0.0112,0.0068-0.021,0.0146-0.0322,0.0224
	v0.1328c-0.0068,0.0166-0.0391,0.0332-0.0459,0.0459v0.168c-0.0073,0.0166-0.0361,0.0488-0.0439,0.0772v0.1787
	c-0.0054,0.0107-0.0411,0.0449-0.045,0.0556v0.2461c-0.0034,0.0098-0.0302,0.0381-0.0322,0.044v0.3467
	c-0.0049,0.0146-0.0298,0.0537-0.0342,0.0664c-0.0156,0.0507-0.0029,0.1406-0.0117,0.1777v0.3359
	c-0.0342,0.127-0.0552,0.377-0.0371,0.5713c0.0039,0.0615,0.0132,0.1192,0.0259,0.1651c0.001,0.0078,0.0219,0.2558,0.0219,0.2558
	c-0.0048,0.0254-0.0439,0.0938-0.0219,0.1465c0.0083,0.0176,0.0473,0.0332,0.0571,0.0547v0.1113
	c0.0151,0.0606,0.0591,0.1153,0.0772,0.1797c0.0297,0.0996-0.023,0.2832,0.0117,0.3672c0.0112,0.0068,0.0219,0.0137,0.0322,0.0215
	c0.042,0.0918,0.0269,0.1904,0.0781,0.2783c0.0108,0.0146,0.084,0.0723,0.1016,0.0781h0.1001
	c0.143,0.0781,0.2939,0.0615,0.5132,0.0655c0.1069,0.0039,0.1128,0.0205,0.1899,0.0449h0.4351
	c0.0879,0.0215,0.1787,0.0312,0.2729,0.0312c0.0889,0,0.1792-0.0097,0.273-0.0312h0.5678h0.3804
	c0.0718-0.0264,0.0488-0.043,0.1787-0.0449h0.4131c0.0249-0.0079,0.0571-0.0538,0.0889-0.0655
	c0.0669-0.0224,0.2402-0.0244,0.2783-0.0654c0.0469-0.0635-0.0064-0.1787,0.022-0.2686c0.0088-0.0263,0.0278-0.0371,0.0327-0.0781
	h0.1679c-0.0029,0.0371-0.0209,0.0596-0.0117,0.0674C21.6992,34.29,21.728,34.29,21.7588,34.29v-0.0107h0.0132
	c-0.0098-0.0293-0.0269-0.0361-0.0327-0.0566c-0.0225-0.0596,0.0048-0.1524-0.0122-0.2012
	c-0.0459,0.0019-0.0611,0.0058-0.0772-0.0225c-0.041-0.0576,0.0352-0.1709,0.0772-0.1885c0.0229-0.0136,0.0971-0.0136,0.122-0.0214
	c-0.0693-0.1055-0.0132-0.1036-0.0439-0.2344c-0.022-0.0918-0.064-0.2754-0.0332-0.4121c0.0122-0.0518,0.0312-0.1114,0.0332-0.1797
	c0.0029-0.166,0.0078-0.334,0.0117-0.502c0.0361-0.1172,0.0693-0.5214,0.021-0.6679h-0.021
	c-0.0137,0.0234-0.0327,0.0742-0.0581,0.0888c-0.0137,0.0108-0.0259,0.0108-0.0547,0.0108
	c-0.0352-0.0742-0.0762-0.1211-0.0552-0.2227c0.0562-0.0156,0.1812-0.0566,0.2232-0.0781c0.0278-0.0449,0.0107-0.168,0.0107-0.2344
	v-0.5898c0.0181-0.0274,0.0132-0.0918,0.0112-0.1348h-0.0112v-0.0117h-0.022c-0.06,0.1074-0.1108,0.25-0.1787,0.3555
	c-0.0249-0.0196-0.0132-0.0235-0.0561-0.0313c-0.0108,0.0215-0.0152,0.0293-0.0342,0.0449v0.0313
	c-0.0449,0.0078-0.0459,0.0185-0.0996,0.0224c-0.0274,0.043-0.0664,0.0635-0.0772,0.1231h-0.0449
	c-0.0029-0.0391-0.0112-0.0479,0-0.0654c0.0381-0.1192,0.1499-0.17,0.1997-0.2686c0.023-0.0488,0.0122-0.0967,0.0342-0.1455
	c0.0259-0.0664,0.0918-0.1504,0.1108-0.2246c0.0113-0.0449-0.039-0.0449-0.0219-0.0996c0.0092-0.0313,0.0351-0.0332,0.0449-0.0781
	c-0.043-0.0215-0.0869-0.0391-0.1118-0.0782c0.0288-0.0039,0.061-0.0078,0.0898-0.0117c0.0161,0.0508,0.0122,0.0723,0.0772,0.0781
	c0.0219-0.0371,0.0551-0.0781,0.0669-0.1211c-0.0039-0.0918-0.0069-0.1796-0.0118-0.2695v-0.6914v-0.2685
	c0.0049-0.0206,0.0289-0.0323,0.0337-0.045c0.0093-0.0263,0.022-0.4013,0.022-0.4013c-0.0127-0.0528-0.1079-0.2129-0.0889-0.2774
	c0.0083-0.0351,0.0533-0.1055,0.066-0.1347c0.038-0.0938-0.0157-0.4786-0.0337-0.5352v-0.4688
	c-0.0113-0.0058-0.022-0.0156-0.0323-0.0214c-0.0039-0.1162-0.0087-0.2325-0.0117-0.3457
	c-0.0024-0.0059-0.0303-0.0254-0.0332-0.0332v-0.2344c-0.0019-0.0059-0.0307-0.0254-0.0332-0.0332v-0.168
	c-0.0049-0.0117-0.04-0.0332-0.0449-0.0449c-0.021-0.041,0.0093-0.1065-0.0117-0.1563c-0.0152-0.0371-0.062-0.1211-0.0772-0.1552
	c-0.0249-0.0577-0.0151-0.1065-0.0298-0.1377c-0.0102-0.0254-0.0371-0.0391-0.104-0.041c-0.0351,0.0634-0.1401,0.0742-0.1674,0.1337
	v0.212c-0.0596,0.0468-0.0118,0.1347-0.045,0.2109c-0.0058,0.0146-0.0376,0.0361-0.0449,0.0566v0.1231
	c-0.0049,0.0117-0.0381,0.0273-0.0439,0.0449v0.1104c-0.0108,0.0058-0.022,0.0146-0.0342,0.0205v0.1025
	c-0.0947,0.2334-0.1817,0.4873-0.2778,0.7236v0.2461c0.0122,0.0039,0.021,0.0078,0.0332,0.0117v0.1231
	c0.0068,0.0156,0.039,0.0303,0.0459,0.0449v0.0762c0.02,0.0488,0.0717,0.1289,0.0888,0.1797v0.0781
	c0.0113,0.0059,0.021,0.0146,0.0323,0.0205v0.291c-0.0113,0.0039-0.021,0.0069-0.0323,0.0108v0.0791
	c-0.0268,0.0576-0.082,0.0537-0.0888,0.1455c0.0507,0.082,0.0297,0.1914,0.0551,0.3008c0.0337,0.1425,0.083,0.3222,0.0889,0.4785
	h-0.0103v0.0117h-0.0229c-0.0029-0.0059-0.0068-0.0137-0.0107-0.0215c-0.024-0.0352-0.0039-0.0723-0.023-0.123
	c-0.0342-0.0938-0.0693-0.2325-0.1001-0.336c-0.0332-0.1074-0.0122-0.2031-0.0439-0.3008
	c-0.2911,0.0762-0.4121,0.2579-0.5923,0.4356c-0.167,0.1699-0.3589,0.334-0.502,0.5254c-0.0639,0.0859-0.268,0.3808-0.3559,0.4121
	v-0.0117c-0.0098-0.0137-0.0088-0.0186-0.0117-0.045c0.0937-0.0976,0.1445-0.2187,0.2226-0.3339
	c0.0933-0.1368,0.2241-0.2481,0.3242-0.3789c0.0689-0.0918,0.2149-0.1543,0.2559-0.2686c-0.041-0.041,0.0019-0.0859,0.022-0.123
	c0.0561-0.1026,0.1211-0.2803,0.2461-0.3018c0.0097,0.0088,0.0019,0.0049,0.0219,0.0127c0.0342-0.0469,0.106-0.0859,0.1338-0.1348
	v-0.0459c0.0064-0.0136,0.0371-0.0195,0.044-0.0322v-0.0576c0.0122-0.0039,0.0234-0.0127,0.0332-0.0205
	c0.0039-0.0342,0.0078-0.0674,0.0112-0.1006c0.0068-0.0117,0.04-0.0283,0.0459-0.0449v-0.168
	c0.0107-0.0332,0.0288-0.0527,0.0327-0.1104c-0.3608-0.207-0.5249-0.9755-1.0488-0.9794c-0.0039-0.3389-0.002-0.6954,0.0561-0.961
	c0.0689-0.0156,0.104-0.0635,0.1558-0.0888H20.02c0.0098-0.0059,0.0122-0.0391,0.021-0.045h0.0669
	c0.0762-0.039,0.1602-0.1162,0.2329-0.1552c0.0264-0.004,0.0542-0.0079,0.0781-0.0118c0.004-0.0117,0.0079-0.0214,0.0123-0.0341
	h0.0776c0.042-0.0166,0.104-0.0635,0.146-0.0772h0.0654c0.083-0.0371,0.1738-0.0859,0.2686-0.0781
	c0.0341-0.0615,0.083-0.1143,0.0893-0.2017c-0.0019-0.001-0.0029-0.0019-0.0049-0.0049c-0.0512-0.0361-0.0102-0.125-0.0053-0.207
	l-0.023-0.0107c-0.0171-0.0171-0.0049,0.0078-0.021-0.0113c-0.0097-0.0127-0.0097-0.018-0.0127-0.0439
	c0.1138-0.1152,0.0948-0.2979,0.146-0.48c0.0508-0.186,0.084-0.417,0.1328-0.602c0.0039-0.0572,0.0079-0.1119,0.0118-0.167
	c0.0332-0.1211,0.0434-0.2388,0.0561-0.4029c0.0039-0.0219,0.0083-0.0439,0.0122-0.0669c-0.0083-0.0302-0.0303-0.0503-0.0342-0.1001
	h0.045c0.021,0.0591,0.1049,0.128,0.1792,0.1338c0.018-0.0507,0.0117-0.143,0.0107-0.2119c-0.0127-0.0093-0.0117-0.0093-0.022-0.022
	c-0.0468,0.0298-0.0786,0.0459-0.145,0.0332V23.022c0.0513-0.024,0.0191-0.0391,0.0332-0.1001
	c0.0381-0.1709-0.0132-0.4097,0.021-0.5567c-0.0342-0.0283-0.1709-0.228-0.188-0.268c0.0039-0.0493,0.0078-0.0972,0.0113-0.1451
	c0.0039-0.1-0.0015-0.206-0.0445-0.29c-0.0166-0.0112-0.0298-0.0229-0.0449-0.0332c-0.0327-0.0527-0.0356-0.102-0.0669-0.1567
	c-0.0532-0.0933-0.147-0.1831-0.2012-0.2793c-0.1079-0.1988-0.2036-0.4107-0.289-0.6241c-0.024-0.062-0.0098-0.1147-0.0337-0.1787
	c-0.0479-0.1211-0.146-0.3623-0.1221-0.5019c0.0112-0.0044,0.022-0.0073,0.0332-0.0112v0.0112h0.0117
	c0.001,0.1528,0.084,0.333,0.1343,0.457c0.0239,0.065,0.0078,0.1279,0.0449,0.1787c0.0108,0.0083,0.0098,0.0059,0.0327,0.0113
	c0.0181-0.023,0.0303-0.0362,0.066-0.045c0.0044,0.0118,0.0073,0.023,0.0112,0.0337c0.0078,0.0142,0.0112,0.0269,0.0102,0.0391
	l0.0469,0.0058h0.0098c0.0303-0.0459,0.082-0.0698,0.1123-0.1118c0.0796-0.1098,0.1489-0.2348,0.2226-0.3462
	c0.0601-0.0859,0.0601-0.1748,0.168-0.2109c-0.0137,0.0894-0.0708,0.1191-0.1108,0.1772c-0.084,0.1231-0.1411,0.2291-0.2119,0.3311
	h0.1879v-0.0073c0.0879-0.0259,0.2198-0.0767,0.2691-0.145c0.0278-0.043,0.0117-0.0889,0.0327-0.1451
	c0.0454-0.1157,0.1294-0.2251,0.1343-0.3789h0.0571c0.0049,0.0181,0.0078,0.0269,0.0108,0.0562
	c-0.024,0.02-0.022,0.0317-0.022,0.0781c0.0112,0.0039,0.022,0.0068,0.0322,0.0108c0.0176-0.0391,0.044-0.0552,0.064-0.0791
	c0.0117-0.0127,0.0219-0.0298,0.0249-0.0547c-0.0313-0.022-0.041-0.0371-0.044-0.0894c0.044-0.019,0.0699,0.0024,0.0777-0.0669
	c-0.0987-0.0679-0.1216-0.3608-0.2569-0.3789c-0.0171,0.0322-0.0117,0.0361-0.0561,0.044c-0.0308-0.044-0.0659-0.0552-0.0777-0.1231
	c0.0098-0.0107,0.0039-0.0029,0.0108-0.022c0.022-0.0068,0.0449-0.0141,0.0669-0.0219v-0.19
	c0.0122-0.0039,0.021-0.0068,0.0342-0.0102v-0.1787c0.0112-0.0079,0.021-0.0152,0.0322-0.022
	c0.0039-0.0571,0.0088-0.1123,0.0127-0.167c0.0102-0.0039,0.021-0.0083,0.0322-0.0122v-0.1338
	c0.0098-0.0313,0.0469-0.061,0.0571-0.0899v-0.1333c0.0108-0.0068,0.0196-0.0151,0.0327-0.0219v-0.1558
	c0.0113-0.0083,0.021-0.0151,0.0333-0.0234v-0.1226c0.0078-0.0273,0.0366-0.0571,0.0439-0.0781v-0.189
	c0.0117-0.0039,0.0229-0.0083,0.0337-0.0122v-0.1997c0.061-0.2124,0.125-0.6802,0.0444-0.8921
	c-0.019-0.0112-0.018-0.0141-0.0444-0.0229c-0.0889,0.1206-0.1509-0.0313-0.145,0.2236h-0.0117
	c-0.0601-0.0508-0.1343-0.0308-0.2242-0.0566c-0.1118-0.0313-0.166-0.1094-0.3237-0.1114
	c-0.0283,0.0352-0.0791,0.0552-0.1094,0.0894h-0.0127V16.564c-0.0713-0.0259-0.0791-0.1109-0.1001-0.1558
	c-0.0229-0.019-0.0522-0.0293-0.0888-0.0332c-0.0054,0.0142-0.0122,0.0332-0.023,0.0449c-0.0884-0.126-0.3213-0.1577-0.5342-0.1567
	v0.0107h-0.0131c0,0.1602-0.1021,0.189-0.1099,0.3233h-0.0781c-0.0181,0.0366-0.0147,0.04-0.0669,0.0449
	c-0.002-0.1489,0.063-0.2241,0.0781-0.3462c-0.021-0.0147-0.0352-0.0566-0.0562-0.0669h-0.6577
	c-0.0874-0.0688-0.2583-0.001-0.3911-0.0332C18.853,16.1562,18.6338,16.1489,18.415,16.1489 M18.6699,33.0957
	c0.0459-0.0176,0.0322-0.0352,0.0889-0.0449c-0.0039,0.0215-0.0068,0.0449-0.0108,0.0664c-0.02,0.0078-0.0429,0.0117-0.0781,0.0127
	V33.0957 M19.127,29.2695c-0.0079-0.0127-0.0079-0.0195-0.0108-0.0449c0.0479-0.0195,0.0317-0.0391,0.0996-0.0449
	c0.0122,0.0098,0.003,0.0058,0.023,0.0117v0.0332c-0.0396,0.0098-0.0669,0.0313-0.0899,0.0576
	C19.1299,29.2734,19.1392,29.2793,19.127,29.2695 M18.7271,28.6562v-0.0214h0.0209v0.0214H18.7271z M19.0708,28.0977v-0.0782h0.0444
	v0.0117h0.0108c-0.003,0.0235-0.0078,0.0411-0.021,0.0567v0.0098h-0.0332H19.0708z M20.2539,24.3511
	c-0.0098-0.0171-0.0107-0.0381-0.0107-0.0669h0.0107V24.272h0.0342c0,0.0381-0.0029,0.0669-0.0122,0.0898
	C20.2568,24.355,20.2661,24.3599,20.2539,24.3511 M18.7139,22.9902c0.0429-0.0151,0.0341-0.0332,0.0791-0.0444v0.0674
	c-0.0269,0.0137-0.0318,0.02-0.0791,0.022V22.9902 M17.7778,22.4541c-0.018-0.0142-0.0136-0.0039,0-0.022V22.4541 M17.9902,21.0601
	v-0.044h0.044v0.044H17.9902z M18.2788,19.375c0.0293-0.02,0.0332-0.041,0.0664-0.0562c0.0078,0.0191,0.0108,0.0274,0.0127,0.0562
	c-0.0171,0.0122-0.0107,0.0122-0.0337,0.022c-0.0132,0.0092-0.02,0.0092-0.0454,0.0112V19.375 M17.7891,19.252
	c0.0068-0.0201,0.0019-0.0098,0.0097-0.022c0.0171-0.0279,0.0152-0.02,0.0572-0.022c0.0068,0.0191,0.0102,0.0352,0.0112,0.0659
	C17.8252,19.272,17.8159,19.2651,17.7891,19.252 M19.7188,16.7988c-0.0108-0.0088-0.004-0.0049-0.022-0.0107v-0.0332h0.0781
	c-0.0029,0.0229-0.0029,0.021-0.0117,0.0332C19.751,16.7969,19.7451,16.7969,19.7188,16.7988 M21.1909,16.208v0.0107h0.0112
	c0.0381,0.0523,0.1709,0.1241,0.2339,0.1456c0.0039-0.0122,0.0078-0.0225,0.0122-0.0342c-0.0234-0.0259-0.0302-0.0562-0.0561-0.0781
	c-0.0269-0.0171-0.1763-0.0572-0.1802-0.0552C21.2061,16.2002,21.1992,16.2041,21.1909,16.208L21.1909,16.208z M20.6011,16.1631
	h-0.0122c0.0073,0.021,0.0009,0.0107,0.0122,0.022c0.0141,0.0117,0.0361,0.0117,0.0659,0.0117
	c0.0039-0.0117,0.0059-0.022,0.0122-0.0337c-0.022-0.0069-0.0444-0.0103-0.0781-0.0112V16.1631z"/>
</svg>
