<?xml version="1.0" encoding="utf-8"?>
<!-- Generator: Adobe Illustrator 26.0.1, SVG Export Plug-In . SVG Version: 6.00 Build 0)  -->
<svg version="1.1" id="Layer_1" xmlns="http://www.w3.org/2000/svg" xmlns:xlink="http://www.w3.org/1999/xlink" x="0px" y="0px"
	 viewBox="14.0063 17.7227 47.1656 15.4668" style="enable-background:new 14.0063 17.7227 47.1656 15.4668;" xml:space="preserve">
<style type="text/css">
	.st0{fill:#840F34;}
	.st1{fill:#FFFFFF;}
</style>
<path class="st0" d="M61.16412,27.25983c-0.0528-0.1524-0.0332-0.42584-0.0332-0.62994v-1.06146h0.00085V25.4209
	c0-0.08893,0.0274-0.24609,0.0166-0.30658c-0.02136-0.1485,0.02155-0.40631,0-0.54742c-0.02338-0.16211,0.00391-0.34381,0-0.51709
	c-0.00189-0.2207-0.02045-0.46973,0-0.67682c0.00885-0.08588,0.00592-0.27777-0.0166-0.33777
	c0.07233-0.396-0.02435-0.9234,0.0166-1.27539v-1.4986c0-0.20026,0.0498-0.55426,0-0.71045
	c-0.0722-0.23486-0.36908-0.32275-0.4668-0.54785c-0.01746-0.03711-0.09076-0.26172-0.07996-0.29004
	c0.02136-0.06891,0.1123-0.16211,0.03217-0.25879c-0.01758-0.13428-0.125-0.14502-0.21088-0.20898
	c-0.0694-0.05133-0.10449-0.18701-0.1778-0.22614c-0.16992-0.08978-0.11719,0.03619-0.22754-0.16107
	c-0.35345-0.00684-0.80176-0.03174-1.3194-0.03174c-0.28217,0-0.63959,0.039-0.8877-0.01709
	c-0.21088-0.04486-0.50189,0.0058-0.69427-0.0152c-0.06439-0.00781-0.12402,0.02692-0.19141,0.0152
	c-0.20898-0.03131-0.48932,0.00104-0.69427-0.0152c-0.13281-0.01068-0.30573,0.0191-0.41803,0.0152
	c-0.02252,0-0.11041-0.02789-0.12891-0.03217h-1.5c-0.25781,0-0.5918-0.021-0.77441,0.04926
	c-0.48236-0.12207-1.24896-0.13135-1.75879-0.01709c-0.20117,0.0459-0.36908-0.00928-0.54688,0.04883
	c-0.04303,0.01318-0.17194,0.09131-0.19434,0.09717c-0.04401,0.0097-0.14935-0.05518-0.20996-0.04785
	c-0.04694,0.00385-0.28119,0.04297-0.40332,0.01465c-0.03711-0.00879-0.16498-0.03906-0.22559-0.01465
	c-0.01562,0.00488-0.06439,0.05756-0.0791,0.06396h-0.30762c-0.19922,0-0.39362,0.01562-0.56451-0.0332
	c-0.05457-0.01611-0.2168-0.0498-0.28998-0.04791c-0.13959,0.00391-0.29102,0.0069-0.44531,0.0069
	c-0.41986,0.00293-0.88086-0.00586-1.2959-0.0069c-0.16406,0-0.46088-0.0932-0.64447-0.03217
	c-0.07233,0.02301-0.1485,0.10687-0.211,0.12988c-0.12659,0.04327-0.29791-0.04132-0.38593,0.03088
	c-0.03717-0.00269-0.04504-0.00183-0.06427-0.01575c-0.01276-0.02295,0.02637-0.0708,0-0.11285
	c-0.03125-0.04828-0.08014,0.021-0.06445-0.08099c-0.12207,0.00104-0.14258-0.00586-0.22559-0.03217h-0.40326
	c-0.32135,0-0.69446,0.01117-0.96686-0.03082c-0.0127-0.00287-0.1026,0.02881-0.11328,0.03082H43.6543h-1.30658H38.2041
	c-0.22412,0-0.40619,0.00916-0.58203,0.04926h-0.14496c-0.01233,0.00684-0.0152,0.05664-0.03333,0.0639h-0.5307
	c-0.10596,0.01715-0.354,0.04401-0.51709,0.08112c-0.13092,0.02979-0.71191,0.03271-0.78912-0.01611
	c-0.04974-0.01996-0.04486-0.03418-0.06488-0.08105c-0.21088-0.04102-0.35791,0.06396-0.55518,0.04297
	c-0.01904-0.00201-0.03662-0.00488-0.05762-0.00977c-0.29199-0.0683-0.76117-0.0473-0.9834-0.08105h-0.354
	c-0.00592-0.01605-0.01172-0.03229-0.0166-0.04926h-0.58008c-0.24902,0.07611-0.70514,0.05811-0.95209,0.0332
	c-0.25-0.02594-0.4942,0-0.70905,0c-0.09717,0-0.27301-0.02405-0.33887,0.01605c-0.0932,0.00391-0.1142,0.0058-0.1123-0.04926
	H28.0918c-0.13971-0.00403-0.24457-0.04791-0.41888-0.04791c-0.15002,0.00592-0.30084,0.01117-0.45068,0.01709
	c-0.0484-0.01031-0.16901-0.03522-0.24225-0.01709c-0.22119,0.05518-0.51605,0.02777-0.75775,0.08112
	c-0.28711,0.06195-0.6333,0.08105-0.98932,0.08685c-0.36914,0.00494-0.75189-0.0069-1.10992-0.0069h-1.06287
	c-0.18121,0-0.41223-0.01709-0.56403,0.01611c-0.13721,0.02979-0.32129-0.01019-0.43597,0.01569
	c-0.15631,0.0351-0.47119-0.03705-0.56403,0.06494c-0.07318-0.00189-0.08978-0.0097-0.12891-0.03271
	c0.01459-0.04199,0.01562-0.04199,0.04779-0.06403c-0.2309-0.17426-1.00867-0.1142-1.41888-0.1142h-3.58008h-0.9668
	c-0.10199,0.00189-0.20215,0.02295-0.26019,0.01715c-0.1319-0.01422-0.18701,0.03809-0.27203-0.04791
	c-0.21088,0.04401-0.26807,0.229-0.5332,0.2251v0.0166h-0.0166c0.0166,0.08636,0.05664,0.07416,0.12988,0.09619
	c-0.02826,0.1709-0.15088,0.26709-0.22607,0.38818c-0.09717,0.15381-0.14697,0.35059-0.19287,0.54694
	c-0.0542,0.2251,0.08685,0.5,0.01569,0.67767c-0.02893,0.07422-0.13379,0.18988-0.06403,0.32233
	c0.021,0.01605,0.0434,0.03265,0.06403,0.04779v0.59821c0.01306,0.05457,0.00342,0.17566,0.03217,0.24066
	c0.01801,0.04004,0.08881,0.08301,0.08099,0.16211c-0.06195,0.59619,0.04791,1.37988,0.04791,2.01508v1.30621
	c-0.0127,0.0517-0.05371,0.14703-0.06396,0.19379c-0.01172,0.0498,0.06201,0.48492,0.08008,0.56403
	c0.04883,0.22021-0.0542,0.4165,0,0.61279c0.02289,0.08691,0.0752,0.16888,0.09619,0.25879v0.5166
	c0,0.15131,0.00391,0.30951,0.0058,0.4668c0,0.2558-0.00781,0.50684-0.05316,0.7099
	c-0.03461,0.15045-0.02002,0.94342,0.0152,1.06061c0.0249,0.08405,0.08881,0.16602,0.11316,0.25781v0.67682v0.7099
	c-0.11029,0.4707-0.22308,1.13867-0.16211,1.58008c0.0191,0.13184-0.039,0.33588,0.01575,0.48444
	c0.00726,0.01947,0.185,0.36224,0.1933,0.36908c0.03369,0.00592,0.06586,0.01172,0.09869,0.01758
	c0.09418,0.04102,0.27527,0.16211,0.33832,0.24219h0.0318c-0.01575-0.04297-0.01575-0.04297-0.04895-0.06549
	c0.0108-0.02826,0.00201-0.01459,0.01715-0.03217c0.02789-0.0332,0.11475,0.08398,0.16064,0.09766h0.30713h1.43701
	c0.06299,0.02155,0.13428,0.06354,0.20898,0.08014c0.01611-0.03522,0.021-0.05774,0.04932-0.08014
	c0.04199-0.03418,0.1358,0.01361,0.20996,0c0.28271-0.04688,0.79785,0,1.14404,0c1.211,0,2.36176,0.00494,3.51556,0
	c-0.01556-0.04889-0.0307-0.09766-0.04877-0.14545c0.0191-0.01373,0.0191-0.01184,0.0332-0.03235
	c0.09167,0.02051,0.18671,0.03613,0.28424,0.04889l-0.00055,0.00391c0.74316,0.10541,1.65918,0.04785,2.47217,0.04785
	c1.62891-0.00684,3.25781-0.01074,4.88672-0.0166c3.92432,0,7.90527-0.01764,11.80469-0.02734v-0.00195
	c1.38916-0.00195,2.76501-0.00391,4.125-0.00391h5.91803c0.25781,0,0.54871,0.01178,0.82416,0.01367
	C52.50488,33,52.73828,33,52.94141,32.98438c0.04877-0.00385,0.09772-0.00586,0.14752-0.00586
	c0.23779,0,0.453,0.03265,0.612-0.07391c0.04456,0.0672,0.10138,0.1178,0.14185,0.1911
	c0.2431,0.0293,0.53119,0.02539,0.8056,0.02051c0.08405-0.00104,0.16614-0.00293,0.24609-0.00293h1.83795
	c0.58209,0,1.30756,0.0683,1.80756-0.04877c0.12994-0.0293,0.30963,0.0058,0.42004-0.01569v-0.00177
	c0.10059,0.00574,0.20123,0.0116,0.30365,0.01746c0.0097,0.01556,0.02051,0.03119,0.02936,0.04877
	c0.14648,0.05859,0.80469-0.02246,0.90228-0.04877c0.15631-0.03912,0.30859,0.0166,0.4375-0.03033
	c0.20508-0.07806,0.2793-0.28027,0.4668-0.37109c-0.00391-0.06146-0.03912-0.09467-0.0332-0.13086
	c0.01471-0.07812,0.11517-0.16016,0.08197-0.3056c-0.05658-0.23151,0.04895-0.62311-0.01746-0.92004
	c-0.0274-0.12976-0.01764-0.64636,0.01746-0.80658v-0.51758c-0.0058-0.39655-0.0097-0.79492-0.01746-1.19141
	c0-0.18939-0.00793-0.42584,0.0332-0.56439c0.0293-0.09772-0.0332-0.3399-0.0332-0.48254
	C61.13092,27.61908,61.18549,27.32617,61.16412,27.25983z"/>
<path class="st1" d="M19.14111,22.39008c-0.05133,0.09674-0.05914,0.19781-0.12793,0.27405
	c0.00189,0.03998,0.00189,0.05896,0.01562,0.07996v0.01575l-0.17969,0.01215c-0.02832-0.02979-0.05609-0.0611-0.07812-0.0918
	c-0.0708-0.09619-0.12787-0.20605-0.22607-0.27539c0.00391-0.01471,0.01129-0.0318,0.01605-0.04791
	c0.21393-0.0918,0.44495-0.05267,0.64514-0.19379c0.04187,0.00391,0.05511,0.00781,0.08099,0.01709
	C19.24408,22.24799,19.17822,22.3208,19.14111,22.39008z M19.43311,21.88818c0.05182-0.0401,0.10889-0.12109,0.14398-0.17731
	h-0.01611c-0.01508-0.0127-0.00385-0.00476-0.03217-0.01508c-0.07269,0.07617-0.23492,0.08539-0.33789,0.12842
	c-0.1347,0.05566-0.2998,0.1358-0.43701,0.19391c-0.05811,0.0249-0.1377,0.01306-0.19293,0.04779
	c-0.05505,0.03418-0.08875,0.10791-0.14496,0.14496v0.01715h0.01709c0.01611,0.01215,0.01367,0.00775,0.04791,0.0152
	c0.0639-0.07233,0.17719-0.0694,0.27289-0.11334c0.16992-0.07568,0.35498-0.17578,0.5332-0.2417
	C19.34912,21.86621,19.40192,21.90277,19.43311,21.88818z M18.22223,22.25983c-0.01135-0.00494-0.02203-0.0108-0.03235-0.01575
	c-0.06,0.06012-0.14197,0.09381-0.20886,0.14514c-0.0611,0.04486-0.09723,0.11755-0.16223,0.16058v0.01611h0.0152v0.01709
	C17.96777,22.51611,18.14209,22.38281,18.22223,22.25983z M21.78607,27.61432h0.01373v0.01556
	c0.0293-0.00977,0.01611-0.00195,0.0332-0.01556c0.01318-0.0166,0.0108-0.01471,0.01709-0.04791
	c-0.01117-0.00592-0.02197-0.00983-0.03223-0.0166C21.80322,27.57812,21.79883,27.57617,21.78607,27.61432z M21.78809,26.74323
	c-0.03906-0.0274-0.09131-0.15045-0.11517-0.16211h-0.1441c-0.06488-0.02063-0.10199-0.08209-0.16058-0.11334
	c-0.00745,0.03711-0.01611,0.01855,0,0.0498c0.0517,0.14655,0.18988,0.2265,0.27289,0.33795
	c0.05176,0.07025,0.08887,0.16394,0.13177,0.24219c0.15094,0.00189,0.16309-0.01764,0.35413-0.01764
	c0.0141-0.02826,0.01996-0.0274,0.03119-0.06445c-0.06738-0.04102-0.08502-0.11725-0.14398-0.1601
	C21.94287,26.80469,21.85889,26.79199,21.78809,26.74323z M60.64838,27.58301c-0.03119,0.15137-0.06335,0.57129,0.01575,0.69238
	v0.20898c-0.00781,0.02051-0.16803,0.26074-0.19342,0.29102v0.0332c0.03711-0.01367,0.03607-0.01758,0.06451-0.0332v0.0166h0.0166
	c-0.0752,0.12299-0.14551,0.24799-0.2276,0.37109c-0.02155,0.03223-0.10944,0.10059-0.0957,0.16211l0.11127,0.14349
	c-0.00476,0.13684-0.08685,0.23151-0.12891,0.3399c-0.09467,0.25189-0.19525,0.47852-0.3125,0.68848
	c-0.0722,0.12891-0.14838,0.25391-0.2334,0.375c-0.03796,0.05273-0.1123,0.09186-0.14551,0.14551
	c-0.09564,0.14941-0.06635,0.38861-0.22748,0.4668c-0.06537,0.0351-0.12109,0.01361-0.17871,0.05084
	c-0.09961,0.06439-0.1983,0.17767-0.32025,0.2265c-0.0498,0.00977-0.09772,0.02051-0.14655,0.03131
	c-0.18646,0.11517-0.37311,0.27148-0.56451,0.38666c-0.2226,0.13483-0.43158,0.16602-0.5625,0.38672h-1.0976
	c-0.11328,0-0.3399-0.03223-0.41895,0.01862c-0.16791-0.00793-0.15723-0.18274-0.27441-0.24225
	c-0.125-0.06738-0.414-0.19049-0.48242-0.29095c-0.06451-0.09381-0.08588-0.19244-0.14648-0.2901
	c-0.00983-0.01849-0.05469-0.0459-0.06354-0.0625c-0.03314-0.0722-0.01849-0.17194-0.06335-0.22852
	c-0.0293-0.02051-0.14655-0.00488-0.22565-0.03119c-0.06158-0.02148-0.16205-0.08014-0.2276-0.11334
	c-0.0058-0.00977-0.01068-0.02148-0.01556-0.03125c0.02539-0.0097,0.03809-0.01373,0.08112-0.01764
	c-0.0069-0.03119-0.00391-0.03119-0.0166-0.04675c-0.01862-0.05084-0.04114-0.07233-0.08014-0.09875
	c-0.02051,0.05371-0.01758,0.17682-0.04877,0.22565c-0.01184,0.01556,0,0.00586-0.0166,0
	c-0.02252-0.01465-0.02844-0.0293-0.04889-0.04694c0.00391-0.08386,0.02045-0.22748-0.03223-0.25781
	c-0.03912-0.00879-0.02728,0.01184-0.08112,0.03033c-0.01068-0.01849-0.01746-0.0332-0.03015-0.04694
	c0.0058-0.04974,0.00775-0.05554,0.03015-0.08197c0.00879-0.01068,0.06451,0.02051,0.08112,0.01862h0.03223
	c-0.00781-0.11139-0.05762-0.1582,0.0166-0.211c0-0.20312,0.04095-0.50494-0.0166-0.6767
	c-0.06152,0.00391-0.07324,0.01459-0.1123,0.03119c-0.04102-0.12988-0.0166-0.3877-0.0166-0.61328v-1.24121
	c0-0.1416,0.03711-0.58881-0.0166-0.6767c-0.00189-0.04114-0.0058-0.09381-0.0058-0.14551
	c0-0.06744,0.00781-0.13483,0.03711-0.16223c0.01556-0.02051,0.11908,0.05182,0.16205,0.06549
	c0.01562-0.01465,0.00293-0.0069,0.03125-0.0166c0.00879-0.04297,0.01569-0.07227,0.01758-0.12885
	c-0.07623-0.06842-0.14648-0.16614-0.22662-0.22662c-0.07117-0.05371-0.14447-0.07233-0.19427-0.14551
	c-0.09473,0.00391-0.16888,0.03613-0.20898,0.0957c-0.10065-0.02051-0.30762-0.21478-0.37012-0.28912
	c-0.04102,0.00201-0.05963,0.00201-0.08203,0.01471c-0.05566,0.02643-0.07416,0.08984-0.09564,0.14655
	c-0.37213-0.00592-0.74225-0.00983-1.11334-0.01575c-0.11719,0-0.35352-0.0351-0.43561,0.01575h-0.9834
	c-0.1084,0-0.2998,0.02539-0.35345-0.03131h-0.0166v-0.01562c0.12305-0.11328,0.24609-0.22852,0.37006-0.3399
	c-0.00287-0.03711-0.00287-0.04486-0.0166-0.06342c0.0293-0.1358,0.1543-0.16595,0.19342-0.29095
	c0.00201-0.02643-0.04883-0.06744-0.06348-0.1123c-0.02832-0.08209,0.00775-0.211,0.0166-0.27454
	c0.03906-0.01459,0.05469-0.01459,0.0957,0c0.00977-0.02435,0.0127-0.02631,0.01758-0.06537
	c-0.06641-0.00189-0.07422-0.01068-0.11328-0.03119c0.04688-0.18561,0.07227-0.39752,0.14648-0.5816
	c0.0332-0.08063,0.11517-0.18359,0.14447-0.27393c0.03619-0.104-0.02435-0.15088,0-0.25677
	c0.00201-0.01129,0.00592-0.0191,0.00983-0.0293c0.02148-0.06793,0.06061-0.1377,0.07031-0.21289
	c-0.16211-0.02594-0.24805-0.1958-0.36914-0.2749c-0.07227-0.04401-0.14746-0.0401-0.2276-0.08014
	c-0.164-0.08398-0.36029-0.1958-0.53217-0.27386c-0.98834-0.4541-1.8808-0.98981-2.72461-1.58112
	c-0.16602-0.11572-0.33398-0.2041-0.5-0.32178c-0.13092-0.0932-0.24323-0.229-0.37012-0.32324
	c-0.07031-0.05078-0.1582-0.07568-0.20996-0.1441h-0.01764c-0.01361-0.01068,0.03131-0.03168,0.03229-0.03265V21.1499
	c-0.0733,0.02393-0.13867,0.08398-0.20898,0.11328c-0.11432,0.04694-0.23932,0.0376-0.32129,0.11279
	c-0.24609,0.21924-0.41022,0.49023-0.71088,0.66113c0.00775,0.03271,0.00391,0.03076,0.01746,0.04791
	c-0.01746,0.09619-0.1601,0.29199-0.24207,0.3222c-0.07233,0.02686-0.14459,0.00879-0.19342,0.03265
	c0.00189,0.0752,0.00391,0.08301,0.04694,0.11334c-0.02051,0.12158-0.18854,0.27197-0.28912,0.32275
	c-0.02252-0.00195-0.07812-0.06195-0.12891-0.0332h-0.0332c-0.00983,0.04541-0.02637,0.10455,0,0.14655
	c-0.02539,0.125-0.16602,0.19281-0.24017,0.27289c-0.15631,0.1626-0.30475,0.33502-0.45123,0.50592
	c-0.04791,0.05707-0.09961,0.11365-0.14648,0.1709c-0.04102,0.05029-0.12109,0.0791-0.16211,0.12885
	c-0.21289,0.27191-0.50201,0.48633-0.70898,0.7583c-0.13672,0.18164-0.29694,0.32275-0.4502,0.48395
	c-0.0166,0.02679-0.03223,0.0542-0.0498,0.08099c-0.26373,0.24756-0.53613,0.49951-0.75781,0.79047
	c-0.16211,0.21289-0.41602,0.37109-0.56348,0.5957c-0.19244-0.00391-0.46973-0.03607-0.62891-0.01556
	c-0.06354,0.00775-0.16113,0.02539-0.24121,0.01556c-0.09283-0.01166-0.22168-0.02826-0.32233-0.01556
	c-0.17767,0.02148-0.42566,0.02148-0.5976,0c-0.05469,0.00586-0.10736,0.01166-0.16107,0.01556
	c-0.19629-0.02051-0.44629,0.0166-0.64563-0.01556h-4.7085c-1.12299,0-2.66156-0.0224-3.37097,0.01556
	c-0.18463,0.0108-0.3418-0.02435-0.5,0c-0.09869,0.0166-0.16803-0.0097-0.24084-0.01556
	c-0.16595-0.01562-0.41888,0.01556-0.61316,0.01556c-1.41461,0-2.88092,0.0166-4.32092,0.0166
	c-0.414,0.00592-0.82806,0.0127-1.24207,0.0166c-0.1568,0.00201-0.3028,0.086-0.4668,0.03229
	c-0.17004-0.05469-0.31305-0.2002-0.46783-0.27435c-0.09326-0.04303-0.18018-0.0332-0.27441-0.08014
	c-0.07959-0.03711-0.1568-0.15039-0.24066-0.1778c-0.09094-0.02728-0.09924,0.0625-0.17731,0.01764
	c-0.23969-0.13861-0.37061-0.41113-0.53271-0.62793c-0.12109-0.16412-0.32031-0.2832-0.43597-0.45221
	c-0.06995-0.10297-0.10699-0.20496-0.17834-0.30707c-0.07166-0.10504-0.18799-0.19684-0.25677-0.30609
	c-0.06879-0.10791-0.10602-0.21594-0.1792-0.32281c-0.12061-0.17822-0.28082-0.354-0.40277-0.53223
	c-0.16315-0.23877-0.28625-0.48389-0.45123-0.72559c-0.06689-0.09808-0.16058-0.18597-0.24371-0.27728l0.18073-0.01184
	c0.1084-0.03998,0.10687-0.164,0.16022-0.2583c0.0722-0.13177,0.19275-0.2348,0.25775-0.37689
	c0.12109,0.00189,0.2973,0.01904,0.37109-0.03076c0.08844,0.00098,0.19635,0.00391,0.2583-0.01715
	c-0.00439-0.03705-0.0083-0.04095-0.01709-0.06384c-0.16595-0.00592-0.33105-0.01135-0.49896-0.01715v-0.0152h-0.01709
	c0.0141-0.08197,0.10394-0.23578,0.12988-0.28998c0.0639-0.07861,0.1601-0.0459,0.27289-0.08063
	c0.17719-0.05609,0.41602-0.10449,0.59723-0.16107h0.1142c0.52588-0.16699,1.07959-0.30908,1.56299-0.51709
	c0.2417-0.104,0.47559-0.14209,0.69287-0.25879c-0.01709-0.04834-0.0332-0.04645-0.04791-0.09625
	c0.41803-0.16394,0.84381-0.30609,1.2569-0.48285c0-0.04102,0.00391-0.06-0.00488-0.07422l0.00287-0.00006
	c-0.00494-0.00677-0.01508-0.01416-0.02826-0.02191c-0.07959-0.0307-0.25488,0.08105-0.33789,0.11224
	c-0.28998,0.11194-0.63281,0.1709-0.91992,0.27405c-0.39801,0.14496-0.81787,0.24255-1.20898,0.37061
	c-0.104,0.0351-0.17682,0.01306-0.2749,0.04926c-0.41602,0.1499-0.82812,0.32373-1.24017,0.48395
	c-0.33014,0.12689-0.646,0.20898-0.93701,0.35394c-0.08893,0.04492-0.18512,0.05322-0.2569,0.11285
	c-0.05524,0-0.09619-0.00391-0.12891-0.01575c0.00879-0.05029,0.00201-0.039,0.03076-0.06488
	c0-0.07709-0.00775-0.10107-0.03076-0.14398c-0.18799,0.01068-0.23389,0.1806-0.37213,0.2417
	c-0.0351,0.0141-0.07318,0-0.09711,0.01611c-0.13275,0.19714-0.37885,0.33789-0.59564,0.49896
	c-0.17731,0.13092-0.33215,0.31488-0.51715,0.43512c-0.36426,0.24066-0.75391,0.414-1.1123,0.66296
	c-0.16895,0.11584-0.31586,0.29504-0.48389,0.41803c-0.16986,0.12598-0.41211,0.20801-0.56299,0.35498
	c-0.03369-0.00586-0.03168-0.00391-0.04883-0.01611c-0.01318-0.00977-0.00385-0.06689-0.03229-0.09717v-0.01562h-0.0166
	c-0.05811,0.20074-0.13226,0.29004-0.35437,0.354c-0.01672,0.01373-0.00403,0.00684-0.03082,0.0166
	c-0.0332-0.09766,0.02979-0.29401-0.01807-0.40277c-0.021-0.01709-0.04291-0.0318-0.0639-0.04791
	c-0.04199-0.104,0.07416-0.1582,0.0639-0.24219c0,0-0.039-0.71869,0-0.82269c0.01807-0.04645,0.04688-0.05621,0.04889-0.14514
	c0.00427-0.20886-0.02301-0.74115,0.08099-0.82318c-0.00488-0.12598-0.02588-0.31689,0.04828-0.37012
	c0.02985-0.01471,0.01184-0.0069,0.04889,0c0.06494-0.20166,0.02393-0.59766-0.01709-0.79095v-0.5957
	c-0.00488-0.17834-0.0108-0.35504-0.01709-0.5332c0.07812-0.32574,0.17432-0.5899,0.43604-0.72614v0.01709h0.01605
	c-0.01508,0.10693-0.104,0.40924-0.1601,0.48431v0.04791h0.01709c0.01514-0.06488,0.04004-0.10791,0.06305-0.16107
	c0.039-0.01611,0.125-0.0249,0.16205-0.04791c0.06592-0.09235,0.0639-0.30713,0.11182-0.40332
	c0.04199,0.00342,0.05609,0.00629,0.08014,0.01508c-0.01715,0.11725-0.05573,0.24323,0.01709,0.3399v0.03125
	c0.0351,0.0069,0.10297,0.01605,0.12891,0.03265c0.03705-0.00476,0.04095-0.00677,0.0639-0.01556
	c-0.01074-0.06592-0.03461-0.08405-0.08105-0.11334c-0.00098-0.07269-0.0127-0.1958,0.01715-0.2417
	c0.00629-0.05707,0.00189-0.0542,0.0332-0.08099c0.35394-0.00488,0.70898-0.01117,1.06299-0.0152
	c0.49207-0.1181,1.18787-0.0498,1.75781-0.0498h0.61316c0.09381-0.02539,0.23102-0.03119,0.33789-0.0639
	c0.04895-0.01416,0.11633-0.06586,0.16211-0.08008c0.31213-0.00641,0.62311-0.01117,0.93512-0.01709
	c0.16992-0.05078,0.47272-0.13379,0.71088-0.08099c0.18903,0.04388,0.45172,0.03711,0.64514,0.08099h0.23969
	c0.23389,0.05518,0.59619,0.14111,0.87311,0.08112c0.14398-0.03235,0.38721,0.05267,0.49799-0.01624h0.01709v-0.03271
	c-0.11719,0.00305-0.37012,0.03674-0.45117-0.01508c-0.0127-0.01709-0.0058-0.00488-0.01715-0.0332
	c0.21735-0.0708,0.80621-0.01172,1.08215-0.01508c0.24408-0.00391,0.51117-0.06165,0.7251-0.11279
	c0.10876-0.02692,0.17377,0.0332,0.2251,0.04779c0.08978,0.02637,0.18695-0.0376,0.2597-0.04779
	c-0.021-0.03625-0.04291-0.03522-0.07965-0.04895c-0.01605-0.039-0.0332-0.08099-0.05115-0.11316
	c0.01996-0.01373,0.01996-0.0127,0.0332-0.0318c0.021,0,0.04285-0.00104,0.06488-0.00104
	c0.23682-0.0083,0.55267-0.0459,0.74066,0.0166c-0.0058,0.01624-0.00964,0.03235-0.01654,0.04944
	c-0.0874,0.01508-0.17822,0.03265-0.32135,0.0307c0.05133,0.03516,0.14124,0.0152,0.20905,0.03217
	c0.04095,0.01184,0.12305,0.0401,0.16016,0.04889h0.29102c0.08789,0.03711,0.1001,0.0791,0.22699,0.06494
	c0.0127,0.0191,0.01184,0.01807,0.03082,0.03217c-0.0957,0.13379-0.3208,0.15192-0.41992,0.2901h-0.01611v0.01611
	c0.22314-0.03607,0.35205-0.16498,0.54932-0.21002v0.0166h0.01562c-0.06299,0.18414-0.31793,0.21832-0.48291,0.30621
	c-0.18512,0.1001-0.37598,0.23193-0.58099,0.32269c-0.146,0.06641-0.28571,0.06451-0.43414,0.12854
	c-0.08398,0.03656-0.18799,0.09857-0.29297,0.11371c-0.01367,0.03906-0.02979,0.08105-0.04688,0.11328
	c-0.13281,0.05182-0.271,0.09668-0.40283,0.14447c0.00983,0.05029,0.00293,0.03912,0.03168,0.06451
	c-0.021,0.0498-0.07568,0.06793-0.12885,0.07959c-0.0097,0.02832-0.00391,0.01611-0.01715,0.0332
	c0.00543,0.05322,0.01135,0.06,0.02545,0.08398h-0.00049c0.00177,0.00427,0.0036,0.00726,0.00537,0.01221
	c0.22998-0.0083,0.42767-0.1441,0.59772-0.22607c0.22308-0.10791,0.44135-0.14789,0.6601-0.2583
	c0.19525-0.0957,0.40625-0.23492,0.61328-0.30573c0.06403-0.00629,0.12988-0.01117,0.19287-0.01697
	c0.15094-0.04694,0.39111-0.12213,0.54883-0.1441c0.07812-0.01123,0.31299,0.06891,0.45117,0.03217
	c0.50781-0.13806,1.14301-0.22406,1.62891-0.40326c0.17194-0.06403,0.54883,0.0083,0.69293-0.09674
	c0.03607-0.01996,0.03406-0.04199,0.04828-0.08099c0.11963-0.04736,0.31488,0.0127,0.46783-0.03217
	c0.03119-0.00879,0.06097-0.05719,0.08197-0.06403c0.24512-0.00586,0.49323-0.01117,0.74023-0.01709
	c0.50299-0.11279,1.13666-0.0957,1.7417-0.0957c0.30328,0,0.64105,0,0.91895-0.01611
	c0.11914-0.00726,0.33405,0.03461,0.41895-0.01709h0.03217c-0.00287-0.04102-0.00677-0.05518-0.01508-0.08008
	c-0.51813,0.00201-0.93604-0.03271-1.45312-0.03271c-0.13086,0-0.52979,0.03473-0.6109-0.01508
	c-0.0141-0.01715-0.00677-0.00494-0.01801-0.0332c0.23291-0.07574,0.78033-0.01575,1.09814-0.01575
	c0.51996,0,1.18896-0.0434,1.71777,0.00592c0.13818,0.01172,0.26508,0.02979,0.37842,0.05811
	c0.12891,0.03168,0.271,0.0249,0.37061,0.04883h0.2583c0.021,0.02686,0.04297,0.0542,0.065,0.08105
	c0.1377,0.06104,0.52386-0.03131,0.61176-0.04926c0.09235-0.01764,0.23834,0.03217,0.30609,0.04926
	c0.25201,0.06104,0.53815-0.04926,0.71002,0.08099h0.64551c0.02051-0.0141,0.05267-0.10785,0.06451-0.13025
	c0.51361,0,0.89636-0.05286,1.32117,0c0.1944,0.02435,0.3858-0.02301,0.56354,0c0.05859,0.0083,0.13867-0.01373,0.1778-0.01575
	c0.20306-0.01019,0.5351-0.01117,0.70886,0.01575c0.4375,0.0683,0.961-0.06403,1.35553,0
	c0.25977,0.04199,0.47662-0.03864,0.67767-0.01575c0.18665,0.02203,0.3692-0.00391,0.56451,0
	c0.1543,0.00391,0.35944,0.02014,0.49902,0c0.1778-0.02539,0.30371,0.0401,0.46881,0.01575
	c0.14545-0.01965,0.37988-0.01575,0.5166,0c0.11127-0.00983,0.22559-0.02203,0.33789-0.0318
	c0.07416,0.02197,0.15619,0.03705,0.24207,0.04785c0.26471,0.03613,0.58014,0.0332,0.8877,0.0332h0.51575
	c0.14545,0.04303,0.36804,0.08984,0.5166,0.12891c0.18939,0.0498,0.39447,0.01709,0.53119,0.11279
	c0.12695-0.01556,0.14258-0.08209,0.12891-0.19391c-0.1015-0.04779-0.20312-0.09705-0.30664-0.14496
	c-0.01367-0.01709-0.00488-0.00391-0.01556-0.03271c0.07416-0.02539,0.19037-0.03522,0.31335-0.03522
	c0.15533,0,0.31744,0.01624,0.41125,0.03522c0.11127,0.02393,0.23035-0.01813,0.30658,0.03271
	c0.1192,0.0152,0.08008,0.0943,0.17767,0.12787c0.12701,0.08209,0.4024,0.01624,0.5498,0
	c0.37109-0.03796,0.6817-0.0957,1.11041-0.0957h0.32233c0.25,0.04694,0.71869,0.01575,1.04877,0.01575
	c0.87109,0,1.63092-0.04303,2.30469,0.16107h0.37305c0.20709,0.07031,0.43848,0.33301,0.66016,0.43597
	c-0.00586,0.01611-0.0108,0.03235-0.01556,0.04791c-0.34961-0.02777-0.49811-0.29688-0.91901-0.28961v0.04791
	c0.1192,0.05713,0.27246,0.06689,0.40326,0.12994c0.0459,0.021,0.0957,0.08789,0.14362,0.11176
	c0.0791,0.03809,0.16602,0.03033,0.22754,0.08014c0.16205,0.00726,0.12988,0.01019,0.19336-0.08014v-0.01471
	c0.24121,0.08112,0.48444,0.25983,0.6933,0.3877c0.16223,0.09821,0.33014,0.14905,0.49908,0.24121
	c0.18262,0.09924,0.35645,0.23199,0.53223,0.33893c0.27539,0.16797,0.64551,0.21729,0.87109,0.43512h0.09668
	c-0.00879-0.04303-0.02246-0.06012,0-0.09723c0.1181-0.05267,0.3623,0.09229,0.46771,0.13037
	c0.11432,0.04004,0.30084-0.00098,0.42004,0.04785c0.15125,0.06299,0.18359,0.19678,0.27338,0.32275
	c0.10938,0.15131,0.22559,0.16113,0.30658,0.37012c0.31842,0.06104,0.33704,0.30029,0.54889,0.45123
	c-0.00586,0.10785-0.01166,0.21576-0.0166,0.32269c0.01074,0.03217,0.06934,0.06836,0.08002,0.09717v0.37109
	c-0.03796,0.70599,0.0069,1.66211,0.16119,2.25781c0.08789,0.33398-0.11127,0.46088-0.0957,0.7251h0.01562v0.01611
	c0.06061-0.01123,0.06842-0.02203,0.09668-0.06403c0.0556,0.0191,0.07129,0.05084,0.09674,0.09674
	c0.04675-0.0127,0.05756-0.0166,0.07996-0.04883c0.04303,0.00391,0.05475,0.00684,0.08209,0.01611
	c0.03424,0.08789,0.04883,0.1748,0.04883,0.26031c0,0.24408-0.11908,0.47546-0.19427,0.6748v0.38855
	c0,0.32031,0.03015,0.64752,0.0166,0.91901C60.72272,27.56049,60.68549,27.57233,60.64838,27.58301z M14.78711,22.16309
	c0.00391,0.13281,0.00977,0.3208-0.04932,0.40283c-0.00201-0.11774-0.02692-0.25879,0-0.40283
	c-0.02692,0.14502-0.00391,0.28613,0,0.40283C14.79688,22.48492,14.79102,22.2959,14.78711,22.16309z M22.78522,20.59912
	c-0.09534,0.10498-0.34039,0.09668-0.56299,0.1778c-0.52405,0.1889-1.08301,0.33929-1.58014,0.53217
	c0.00391,0.01074,0.00879,0.021,0.01709,0.03174c0.01373,0.00641,0.0307,0.01129,0.04694,0.01605
	c0.08777-0.08685,0.51166-0.13379,0.66211-0.19379c0.47699-0.18799,1.11078-0.40527,1.48187-0.53217v-0.01471h-0.01611v-0.01709
	H22.78522z M21.75391,27.29102c-0.00983,0.08789-0.30078,0.25201-0.38568,0.2735c0.00189,0.06726,0.0127,0.08588,0.0307,0.12891
	c0.07617,0.03119,0.08209,0.0293,0.146,0.06537c-0.00189,0.07031-0.02203,0.10449-0.03174,0.14551
	c-0.03516,0.14062,0,0.39258,0,0.58008v1.289c0,0.2403,0.04694,0.75391,0,0.92004c-0.16595,0.6084-0.5191,1.14246-0.854,1.5976
	c-0.09326,0.125-0.2984,0.13867-0.38818,0.2735h-2.354c-0.30707,0-0.74219,0.08386-0.95221-0.04889H16.1748
	c-0.03082-0.01465-0.04199-0.06744-0.06403-0.09674c-0.08386-0.1084-0.22797-0.21088-0.354-0.27441
	c-0.0127-0.07605,0.00641-0.23035-0.04877-0.30756c-0.02881-0.039-0.1059-0.03223-0.16113-0.1123h-0.01556
	c0.03461,0.1416,0.125,0.2207,0.16156,0.3399h0.01514v0.01556h-0.01514c-0.01367,0.01562-0.10394-0.03705-0.12885-0.0625
	c-0.06604,0.0058-0.06403,0.01764-0.11285,0.03125c-0.01025,0.02734-0.00439,0.01569-0.01807,0.03125
	c0.01367,0.10352,0.07471,0.16602,0.146,0.21094c-0.01123,0.0274-0.00293,0.01556-0.01508,0.03131
	c-0.05524,0.02045-0.26422-0.07434-0.32385-0.11334c-0.00439-0.19336-0.05707-0.39648-0.09619-0.5625
	c-0.02881-0.12109,0.03912-0.29297-0.01697-0.38867c-0.01709-0.00391-0.0318-0.00983-0.04791-0.0166
	c-0.01611-0.04779,0.06592-0.09863,0.03082-0.16113c-0.00391-0.00977-0.0567-0.01959-0.06305-0.03125
	c-0.02979-0.05084-0.01709-0.16602-0.01709-0.24023h-0.01556c-0.10699,0.43463-0.01221,1.04883,0.12891,1.36908h-0.01715v0.01575
	c-0.0332-0.00592-0.02979-0.00391-0.04785-0.01575c-0.09814-0.0332-0.08105-0.0976-0.12994-0.17767
	c-0.02826-0.04688-0.0932-0.12701-0.1123-0.17682c-0.0249-0.0625-0.02289-0.3584-0.01801-0.40326
	c0.00732-0.0293,0.0332-0.1015,0.01801-0.17871c-0.04095-0.21191-0.01801-0.45209-0.01801-0.74121
	c0-0.41803-0.02686-0.8418,0.04932-1.16022c0.0307-0.125,0.00781-0.26166,0.03271-0.37109v-0.35437
	c-0.00592-0.21594-0.00983-0.43073-0.01709-0.64563c-0.04779-0.1972-0.104-0.41791-0.12891-0.62891h-0.03168
	c0,0.21881-0.03131,0.39264-0.03131,0.62891c0,0.0899,0.021,0.24811-0.01709,0.3067c-0.0166,0.0127-0.00494,0.00684-0.03174,0.0166
	c-0.03906-0.1123-0.06592-0.33008-0.04932-0.43646c0.00635-0.02643,0.04205-0.08606,0.03125-0.12891
	c-0.02783-0.12109-0.07812-0.23053-0.0791-0.40344c0-0.08685-0.0249-0.21765-0.0249-0.32318
	c0-0.05182,0.00586-0.09772,0.0249-0.12701c0.01025-0.01361,0.00098-0.0058,0.01807,0
	c0.08203,0.07043,0.06793,0.36719,0.06299,0.51569h0.01801c-0.00189-0.15234-0.03119-0.7793,0.0318-0.83984v-0.01465h0.01709
	c0.00391,0.01074,0.01123,0.02051,0.01514,0.03033c0.04199,0.06927-0.01514,0.5058,0.03217,0.62891
	c0.01184,0.00677,0.02106,0.01166,0.03271,0.01746c0.01129-0.01947,0.01813-0.0332,0.03333-0.04877
	c-0.00543-0.08203-0.01233-0.1709,0.0307-0.20898V26.9375h0.01611c0.02789,0.04688,0.04688,0.06049,0.04889,0.14447
	c0.05896-0.09265,0.01801-0.79877-0.01709-0.88855c0.12109-0.11334,0.17328-0.30084,0.28998-0.41803
	c0.01807-0.01367,0.00641-0.00592,0.0332-0.0166c0.03418,0.10742,0.04102,0.3916,0.04791,0.5
	c0.00629,0.09283-0.02203,0.24219,0.01697,0.30573v0.0332h0.01709c0.00494-0.0108,0.00983-0.02155,0.0152-0.0332
	c0.01172-0.01862-0.021-0.24609-0.0152-0.30573c0.03912-0.01172,0.0401-0.01172,0.08014,0
	c0.00195-0.2002,0.03619-0.52246-0.06494-0.62891c0.02393-0.1358,0.1308-0.211,0.19385-0.30566
	c0.104-0.1582,0.16797-0.3291,0.27386-0.48444c0.05524-0.07996,0.15094-0.14886,0.20898-0.22546
	c0.14514-0.19543,0.24036-0.41412,0.38824-0.61334c0.0401-0.0542,0.12207-0.08685,0.17676-0.12799
	c0.1709-0.12891,0.34131-0.27191,0.51611-0.4043c0.08203-0.05951,0.12109-0.18549,0.19379-0.25781
	c0.086-0.08588,0.19244-0.15076,0.2901-0.2251c0.1601-0.12061,0.28711-0.30066,0.45111-0.41986
	c0.1109-0.08014,0.2901-0.08099,0.40192-0.16113c0.12299,0.0434,0.18799,0.19244,0.25928,0.29004
	c0.104,0.14496,0.25494,0.26996,0.354,0.42035c0.08203,0.12164,0.12891,0.24762,0.20905,0.36975
	c0.17566,0.26215,0.39056,0.51306,0.56488,0.77386c0.09381,0.14014,0.1817,0.2793,0.271,0.41699
	c0.146,0.23041,0.29102,0.45703,0.45508,0.6792c0.08063,0.11084,0.20905,0.19971,0.29102,0.30713
	c0.17188,0.23047,0.32281,0.51471,0.56403,0.67682v0.0166H21.3501c-0.021,0.01068-0.05219-0.00391-0.08008-0.03235
	c-0.04102,0.00494-0.05524,0.00879-0.08014,0.0166c0.0083,0.20325,0.31793,0.60364,0.4361,0.72662
	c-0.0069,0.03131-0.00488,0.03131-0.01605,0.04877c-0.08215,0.05573-0.19,0.02155-0.29114,0.06451
	c-0.03357,0.01373-0.07172,0.06049-0.11182,0.08014c0.00201,0.04095,0.00592,0.05469,0.01715,0.07996
	c0.0791-0.01166,0.354-0.08588,0.41797-0.12891C21.71777,27.22662,21.70801,27.25391,21.75391,27.29102z M15.02979,26.80658
	c-0.0166,0.03424-0.0069,0.10449-0.0166,0.12891h-0.0152v-0.04877c0.01703-0.02637,0.02039-0.08032,0.02075-0.13641
	c-0.00061,0.05609-0.00421,0.10992-0.02167,0.13538v0.05182h0.01715C15.02393,26.91211,15.01422,26.84277,15.02979,26.80658z
	 M15.51422,31.64648c-0.0083-0.04877-0.00934-0.05469-0.0332-0.08197c0.02289,0.02631,0.0249,0.0332,0.03217,0.07996h-0.0152
	v0.00201H15.51422z M15.10992,25.0332c-0.06689,0.09961-0.3208,0.25-0.354,0.32281v0.45258
	c0.02631,0.00781,0.05029,0.01172,0.09619,0.01562c0.06976,0.01471,0.23969-0.28815,0.28998-0.37109
	c0.06299-0.1059,0.17383-0.20514,0.24072-0.30713c0.1123-0.16412,0.19427-0.32721,0.30811-0.48389
	c0.06299-0.08502,0.15088-0.14313,0.20898-0.24219h-0.01508v-0.01514h-0.03271C15.8042,24.479,15.70801,24.5,15.65918,24.56592
	c-0.01605,0.0484-0.0332,0.09619-0.04926,0.14496c-0.0957,0.146-0.2569,0.25781-0.354,0.40344h-0.08209V25.0498
	C15.1499,25.04102,15.14789,25.03912,15.10992,25.0332z M14.70697,25.74323c-0.01117-0.00494-0.02185-0.0108-0.03314-0.01471
	c-0.02393,0.05566-0.03174,0.11517-0.0307,0.20898c0.02679,0.01172,0.02875,0.04303,0.04675,0.01562
	C14.7168,25.91412,14.70898,25.80859,14.70697,25.74323z M17.68988,22.69482c-0.01605-0.00494-0.0307-0.0097-0.04779-0.01562
	c-0.03418,0.0498-0.07806,0.08301-0.12891,0.11279v0.01611h0.01562c0.0191,0.01172,0.01508,0.00977,0.05029,0.01709
	C17.62207,22.77979,17.66699,22.76318,17.68988,22.69482z M22.33893,30.3125c0.0293,0.01862,0.05896,0.0293,0.0932,0.03711
	c0.09918,0.02441,0.21777,0.01862,0.32568,0.04297c0.29297,0.0722,0.6441,0.08795,0.93506,0.16211h0.1792
	c0.29102,0.07129,0.62201,0.05469,0.93506,0.12891c0.2818,0.06738,0.63275,0.04694,0.91998,0.1123
	c0.12396,0.03027,0.3042-0.01068,0.38568,0c0.31738,0.0459,0.71832,0.0166,1.06543,0.0166h1.98285h2.70905
	c0.50586,0,1.17871,0.02338,1.4361-0.0166c0.12689-0.01862,0.35791-0.00287,0.43396,0
	c0.05286,0.00391,0.19391-0.02051,0.2417-0.03223c0.08014-0.01758,0.21002,0.00781,0.24225,0
	c0.12006-0.02148,0.29688-0.03125,0.41986-0.04785c0.02789-0.00391,0.13733,0.02051,0.17682,0.0166
	c0.56403-0.06152,1.39209-0.01465,1.87109,0.09668h0.32318c0.3291,0,0.7027-0.06842,0.9986,0h0.25781
	c0.17584,0.04102,0.38873,0.04883,0.54883,0.09668h0.19336c0.16602,0.05084,0.3515,0.13672,0.5,0.19434
	c0.03815,0.0166,0.33405,0.0528,0.35455,0.04791c0.02045-0.00305,0.08386-0.02936,0.12885-0.01764
	c0.06744,0.02051,0.12305,0.09863,0.17773,0.11523c0.03711,0.00977,0.08008-0.01764,0.11328-0.01764
	c0.13281,0.00403,0.2373,0.0293,0.37109,0.01764c0,0,0.125-0.01855,0.14551-0.01764
	c0.39062,0.04199,0.89062-0.00189,1.33789,0.01764c0.0097-0.01764,0.02051-0.0332,0.03223-0.04883
	c-0.01068-0.00592-0.02252-0.01172-0.03223-0.01758c-0.17865-0.12305-0.34375-0.04303-0.58209-0.0957
	c-0.22852-0.05371-0.36707-0.12689-0.61127-0.17969c-0.01172-0.03711-0.00391-0.0722-0.01562-0.09674
	c-0.04297-0.03217-0.09668-0.03711-0.12891-0.08002c0.00983-0.00586,0.02051-0.0127,0.03033-0.01654
	c0.09656-0.06744,0.31146,0.00189,0.41986-0.06354c0.0127-0.0166,0.00684-0.00592,0.0166-0.0332
	c-0.12891-0.04297-0.3584-0.01758-0.5166-0.01556c-0.05957-0.03522-0.16797-0.0108-0.24121-0.03235
	c-0.12305-0.03796-0.2627-0.11316-0.3877-0.14636h-0.40137c-0.11133-0.03333-0.22662-0.10651-0.32422-0.14459
	c-0.0957-0.039-0.24609-0.0293-0.33789-0.04785c-0.00781-0.02435-0.01068-0.02838-0.0166-0.06549h0.0166v-0.01556
	c0.12109-0.00781,0.31152-0.05273,0.45117-0.01764c0.05664,0.01575,0.10931,0.0498,0.17773,0.06555
	c0.0332-0.04791,0.08008-0.06744,0.11328-0.1123c-0.16022-0.0498-0.3916-0.06061-0.58197-0.06641
	c-0.12994-0.00201-0.27155,0.02338-0.32233-0.0625c-0.01172-0.01959-0.01172-0.0274-0.01556-0.06451
	c0.31049-0.16803,0.79199-0.01373,1.12885,0c0.0058-0.00983,0.01172-0.02252,0.01562-0.0332
	c-0.16211-0.08691-0.2832-0.18951-0.40228-0.32233c-0.24609,0.00201-0.54504,0.01373-0.74133-0.03119
	c-0.21478-0.05078-0.49506,0.0224-0.69226-0.01758c-0.01184-0.0293-0.0166-0.0625-0.01764-0.11328
	c0.14655-0.04102,0.3847-0.03125,0.58014-0.03125c0.0791-0.05078,0.32318-0.01855,0.4375-0.0166
	c0.00391-0.0166,0.01068-0.03229,0.01459-0.04785h-0.01459V29.2793c-0.13684-0.00391-0.59381-0.10449-0.6778-0.16211
	c-0.02051-0.03711-0.04492-0.0752-0.06543-0.1123c-0.05957-0.03027-0.21967-0.00586-0.27338-0.0166v-0.06445
	c0.18939-0.0625,0.51849-0.01764,0.74207-0.01562c0.0332,0.02539,0.06744,0.03131,0.12903,0.03131
	c0.01068-0.0166,0.02051-0.03131,0.0332-0.04694c-0.08112-0.06146-0.07129-0.10156-0.2276-0.09869
	c-0.07812-0.05371-0.20514-0.00677-0.3222-0.03217c-0.27539-0.05664-0.79553-0.0332-1.09723-0.03119
	c-0.00488,0.01068-0.01221,0.02045-0.01605,0.03119h-0.01715v0.01758h0.01715c0.04974,0.03119,0.50385,0.04883,0.61328,0.04688
	v0.0332h-0.24219c-0.10211,0.0683-0.30524,0.04883-0.4693,0.04883c-0.44873,0-0.71484-0.03119-1.04785-0.11328
	C36.1582,28.76758,36,28.79883,35.90088,28.7793c-0.00977-0.02832-0.00299-0.01562-0.01465-0.0332v-0.03131h0.01465v-0.01746
	c0.12305,0,0.22119-0.05865,0.32324-0.03131c0.17865,0.0498,0.37311,0.10938,0.58008,0.11328
	c0.00879-0.02539,0.01068-0.02728,0.0166-0.06451c-0.0249-0.02728-0.02692-0.08197-0.04791-0.11316
	c-0.04779-0.03131-0.18311-0.01764-0.25867-0.0166c-0.0733,0.04675-0.28235,0.0166-0.38629,0.0166
	c-0.26416,0-0.84186,0.05066-1.04883-0.0166c-0.08203-0.02643-0.22607-0.06555-0.1792-0.20905
	c0.04932-0.14545,0.34027-0.1709,0.48389-0.22559c0.1391-0.05469,0.29639-0.12109,0.45209-0.16211
	c0.13635-0.03711,0.23102-0.00775,0.354-0.04877c0.1153-0.03723,0.25391-0.10059,0.37024-0.12903
	c0.01166-0.00189,0.02289-0.0058,0.03607-0.00781l-0.00085-0.00415c0.09412-0.01367,0.20062-0.00494,0.26648-0.02515
	c0.09906-0.02826,0.5,0.01862,0.55029,0.0498c0.0108,0.0166,0.00879,0.01471,0.01471,0.04694
	c-0.01471,0.0069-0.03082,0.0108-0.04791,0.0166c-0.12891,0.07617-0.54388-0.01172-0.71002,0.03217
	c-0.17767,0.06165-0.35486,0.1192-0.53168,0.17883c-0.11823,0.01556-0.23529,0.03119-0.354,0.04877
	c-0.21533,0.06152-0.42432,0.14453-0.646,0.22461c0.01068,0.0293,0.00488,0.01459,0.0166,0.0332
	c0.06641,0.04102,0.24219,0.01562,0.33838,0.01562h0.83978c0.28522,0,0.46686,0.0069,0.67395,0.08105h0.51697
	c0.37903,0,0.74078,0.0332,1.08063,0.0332c0.16595,0,0.6944,0.08984,0.75781,0.06354
	c0.08209-0.07233,0.09869-0.2998,0.09668-0.45123c-0.06152-0.02148-0.16992-0.01758-0.25781-0.0166
	c-0.12988,0.0556-0.43262-0.02435-0.62988-0.03217c0.00781-0.0332,0.00488-0.03131,0.01758-0.04889
	c0.0752-0.06445,0.23242-0.0097,0.35553-0.03125c0.14551-0.02826,0.38275-0.03516,0.57996-0.0332
	c0.0528-0.086,0.12891-0.16797,0.16022-0.27246c-0.20508-0.06934-0.80078-0.01849-1.06348-0.01849
	c-0.03424-0.02252-0.06934-0.00592-0.11334-0.03033c-0.02045-0.0332-0.04388-0.06537-0.06537-0.09668
	c-0.13959-0.00592-0.27728-0.01172-0.41803-0.0166c-0.27728-0.0459-1.01215-0.05371-1.43549,0
	c-0.17578,0.02051-0.42578-0.03223-0.53168,0v0.01471h0.01459c0.07709,0.04486,0.40039-0.03522,0.51813,0.01556
	c0.03809,0.0097,0.0351,0.01562,0.06384,0.03125v0.0166h-0.01654c-0.01416,0.01654-0.04102,0.02637-0.07324,0.03229l0.00122,0.00592
	c-0.09094,0.01465-0.2301,0.00085-0.30933-0.00012c-0.12891,0.0791-0.69476,0.0293-0.90381,0.0293
	C35,27.69818,34.66022,27.71393,34.31879,27.71393h-0.40277c-0.0332-0.00696-0.0722-0.01471-0.1098-0.02051l-0.01129,0.05365
	c0.02686,0.00494,0.05029,0.0097,0.07416,0.0166c0.31213,0.07422,0.54791,0.21094,0.854,0.289v0.0332h-0.0332
	c-0.3208-0.23035-1.164-0.0976-1.69189-0.0976h-0.75781c-0.15619,0.03119-0.51709-0.01166-0.77435,0.03119
	c-0.14795,0.02643-0.44092,0.03235-0.62994,0.06555c-0.09369,0.0166-0.29486-0.03235-0.435,0
	c-0.2749,0.06146-0.66309,0.0166-0.96777,0.0166h-1.96729c-0.67975,0-1.64502,0.03217-2.0957-0.0166
	c-0.18994-0.02051-0.46533,0.02435-0.61334,0h-0.51801c-0.53564-0.11823-1.00977,0.08301-1.35394,0.22748
	c-0.15192,0.05957-0.50494,0.08978-0.51764,0.27148c-0.04541,0.07031-0.03027,0.19531-0.03027,0.27344
	c0.20898,0.07227,0.57721,0.01855,0.82129,0.01758c0.03168-0.02338,0.10498-0.01947,0.16162-0.01758
	c0.00635-0.01562,0.01215-0.03223,0.01605-0.04883c-0.03998-0.02539-0.06299-0.04492-0.08099-0.0957
	c0.0293-0.00977,0.05225-0.01556,0.09814-0.01758c0.065,0.09668,0.26605,0.11328,0.40289,0.12891h0.1933
	c0.41357,0.14355,1.19775-0.04883,1.65967,0.0498h0.37109c0.53613,0.13965,1.2251,0.05365,1.75781,0.19238
	c0.15143,0.04102,0.36823,0,0.48444,0.0332c0.22455,0.00592,0.45068,0.00977,0.67566,0.01556
	c0.24908,0.06451,0.58313,0.02051,0.85602,0.08215h0.48291c0.16595,0.04779,0.39941,0.04095,0.58008,0.07996h0.24219
	c0.15869,0.04504,0.43414-0.02051,0.62891,0.03131c0.31,0.08203,0.79199,0.03033,1.1601,0.03119v0.0332
	c0.01373,0.01764,0.01184,0.01569,0.01813,0.04791c-0.104,0.05371-0.31641,0.03223-0.46924,0.03223h-1.01605
	c-0.10602-0.06445-0.40381-0.01562-0.54895-0.01562c-0.07605-0.00201-0.11615-0.02148-0.16107-0.0332
	c-0.14502-0.03809-0.35498,0.01172-0.48389-0.01758h-0.54694c-0.34705-0.0849-0.80811-0.02051-1.146-0.11133h-0.46716
	c-0.0957-0.02637-0.30811-0.02338-0.4209-0.04877h-0.2251c-0.16071-0.04694-0.38684-0.04114-0.56305-0.08014h-0.30804
	c-0.03571-0.00781-0.39606-0.06738-0.41901-0.06451c-0.14264,0.02155-0.44482,0.08691-0.62891,0.03235
	c-0.1601-0.04791-0.3808-0.0498-0.59814-0.0498c-0.34277-0.00403-0.68695-0.00983-1.02979-0.01569
	c-0.0791-0.01764-0.30267-0.0498-0.40381-0.01562c-0.0943,0.0332-0.27386,0.04688-0.40326,0.04791
	c-0.2149,0.00189-0.60602,0.05756-0.69189-0.08014V29H22.3208v0.01758c-0.03271,0.02734-0.03082,0.0332-0.03271,0.0957
	c-0.04486,0.06641-0.03516,0.16602-0.03131,0.29102c0.01611,0.00592,0.03131,0.00983,0.04944,0.01562
	c0.03357,0.0235,0.1167,0.01758,0.17566,0.01758c-0.03705,0.22559-0.21289,0.0332-0.2417,0.24219h0.01764v0.02051
	c0.05621-0.00201,0.04297-0.00879,0.08112,0c0.0083,0.02441,0.01019,0.02643,0.01605,0.06543
	c-0.06396,0.08008-0.17676,0.35345-0.17676,0.5C22.229,30.29688,22.24219,30.3125,22.33893,30.3125z M40.02338,28.0332
	c0.0498,0.04297,0.0293,0.11908,0.06555,0.17767c0.11719,0.12109,0.28119,0.18951,0.41888,0.28912
	c0.11621,0.08588,0.2207,0.24609,0.38666,0.27539c0.07135-0.08008,0.19446-0.10736,0.25983-0.19531
	c0.10553-0.13867,0.20703-0.28125,0.32031-0.41797c0.06537-0.07812,0.16986-0.08789,0.19427-0.20898
	c-0.07709-0.05273-0.1181-0.15332-0.19226-0.2099c-0.2442-0.18274-0.53131-0.36725-0.8067-0.50201
	c-0.04883,0.0733-0.23242,0.19427-0.25781,0.25977c-0.00983,0.02051,0.00592,0.11035,0,0.14349
	C40.25201,27.73053,40.02539,27.79303,40.02338,28.0332z M44.71777,23.93701c-0.1026-0.07422-0.22559-0.09521-0.33887-0.16211
	c-0.08978-0.05182-0.16602-0.14313-0.28998-0.16058c-0.07526,0.11957-0.18854,0.20648-0.2901,0.30267
	c-0.0332,0.03223-0.0683,0.06403-0.0957,0.1001c-0.26361,0.31104-0.57715,0.5766-0.82422,0.90381
	c-0.10553,0.13922-0.43073,0.3623-0.46582,0.53223c0.08594,0.05756,0.14551,0.1582,0.20898,0.24219
	c0.13086,0.17377,0.3291,0.3125,0.48346,0.4668c0.05756,0.05859,0.07025,0.13092,0.1601,0.16107h0.00195v-0.0166
	c0.1015-0.0957,0.17383-0.20697,0.25781-0.3222c0.12299-0.16595,0.32812-0.28516,0.45123-0.4502
	c0.289-0.38428,0.60046-0.74506,0.93646-1.08105c0.0918-0.09625,0.18652-0.1933,0.27832-0.289l-0.00055-0.00055
	c0.04236-0.0434,0.08295-0.08691,0.12366-0.12836c0.02441-0.0274,0.12097-0.12903,0.09656-0.146
	c-0.10449-0.34131-0.41205-0.41412-0.70898-0.56403c-0.07507-0.03912-0.1181-0.10297-0.21088-0.12939
	c-0.0683,0.104-0.21393,0.16699-0.25684,0.28998h0.0166c0.10455,0.10114,0.30762,0.11633,0.45111,0.17731
	c0.15729,0.06793,0.28912,0.17871,0.40143,0.29102v0.12854C44.92267,24.19366,44.85681,24.03564,44.71777,23.93701z
	 M39.12109,28.90228c0,0.07233,0.12988,0.0567,0.24219,0.0498c0.0058-0.01068,0.01074-0.0224,0.01562-0.03217h-0.01562v-0.01764
	H39.12109z M37.00983,28.71088c-0.00781,0.03619-0.01575,0.01764,0,0.04791c0.0351,0.0224,0.11719,0.01849,0.17719,0.0166
	c0.01117-0.0166,0.01996-0.03217,0.0318-0.04877h-0.01569v-0.01575H37.00983z M45.15039,22.88922
	c-0.0733-0.05029-0.08588-0.13721-0.19238-0.16119c-0.06543,0.10205-0.21478,0.18115-0.24121,0.30719
	c0.15918,0.07269,0.32031,0.16498,0.4668,0.2417c0.07812,0.039,0.16022,0.04926,0.22662,0.09607
	c0.0918,0.065,0.10925,0.2041,0.1933,0.27399c0.01471,0.00494,0.00391,0.01324,0.01471,0
	c0.05066-0.08295,0.03217-0.19879,0.08197-0.27399c0.11823-0.18109,0.3418-0.29291,0.41992-0.51611
	c-0.02734-0.0141-0.06354-0.01166-0.09863-0.03168c-0.06061-0.03522-0.086-0.15137-0.14447-0.19342
	c-0.1543-0.11176-0.3692-0.20496-0.48444-0.35486H45.3291c-0.05182,0.1001-0.1543,0.15228-0.17871,0.27386
	c0.07422,0.04199,0.11328,0.1181,0.17871,0.16113c0.1416,0.09229,0.32812,0.08789,0.41797,0.2251
	c0.02832,0.03607,0.03223,0.0791,0.03223,0.146c-0.05078,0.02777-0.07721,0.04492-0.16107,0.04791
	C45.49707,23.01422,45.29388,22.98779,45.15039,22.88922z M48.8457,23.45312c0.00983,0.09766,0.06061,0.14795,0.04688,0.2417
	c-0.00586,0.05615-0.06146,0.10596-0.08008,0.14496c-0.02643,0.06403-0.03711,0.25934-0.03522,0.43512
	c0.00494,0.14313,0.01764,0.27301,0.03522,0.30621c0.02539,0.04388,0.08789,0.06677,0.13092,0.09808
	c0.04095,0.04791,0.08386,0.0957,0.12891,0.14398c0.10535,0.0777,0.33197,0.17584,0.38666,0.28961v0.11432
	c0.01373,0.04779,0.039,0.1059,0.06439,0.16107c0.04504,0.10504,0.1192,0.39111,0.06354,0.58051
	c-0.08203,0.2774-0.40723,0.54498-0.6142,0.77539c-0.0293,0.03131-0.0567,0.06451-0.08014,0.0957
	c-0.42969,0.56842-0.95508,1.06061-1.38666,1.62891c-0.13971,0.13483-0.2793,0.27063-0.41901,0.4043
	c-0.06152,0.06653-0.10449,0.13483-0.1601,0.20898c-0.06061,0.05286-0.11823,0.10553-0.17883,0.16022
	c-0.03406,0.04694-0.04681,0.11523-0.0976,0.14453c-0.0625,0.03906-0.10651,0.04095-0.16022,0.08008
	c-0.08789,0.06738-0.12689,0.18549-0.24219,0.22852c-0.03119,0.0127-0.32507-0.13672-0.37006-0.17773
	c-0.20111,0.02051-0.32611,0.17584-0.46771,0.25781c-0.03522,0.00781-0.07043,0.0166-0.10364,0.02344
	c-0.0351,0.00977-0.07025,0.01758-0.10541,0.02435c-0.08398,0.02844-0.18555,0.08502-0.2735,0.1123
	c-0.2265,0.07129-0.50287,0.05383-0.71088-0.0166c-0.08502-0.02826-0.25677-0.1416-0.40228-0.09656
	c-0.1817,0.05365-0.4707,0.4267-0.62903,0.54779c-0.0166,0.01166-0.00391,0.00586-0.0332,0.01556
	c-0.12006-0.1181-0.30457-0.17566-0.44916-0.2724c-0.37793-0.25-0.78424-0.4942-1.14655-0.75775
	c-0.15228-0.11145-0.34467-0.2149-0.45105-0.37115c-0.01373-0.0166-0.00592-0.00385-0.0166-0.03125
	c0.09656-0.09375,0.18054-0.21295,0.28998-0.29102c0.0957-0.06842,0.19922-0.10742,0.28998-0.17773
	c0.1416-0.10736,0.18274-0.29095,0.43665-0.29095c-0.01764-0.0235-0.02356-0.03131-0.04895-0.04694
	c0.0293-0.08197,0.10651-0.10938,0.14551-0.17871c0.03033-0.0567,0.02844-0.11035,0.06354-0.16119
	c0.03906-0.02728,0.0752-0.05365,0.11328-0.07996c0.11432-0.1543,0.18158-0.32434,0.28998-0.48444
	c0.0694-0.09961,0.18665-0.17767,0.25879-0.2735c0.05084-0.06641,0.19141-0.29291,0.25781-0.3222
	c0.04504-0.02148,0.14362-0.00391,0.1778-0.01556c0.00879-0.04694-0.00977-0.1416,0-0.1778
	c0.02155-0.0849,0.23242-0.24615,0.289-0.3222c0.2149-0.2832,0.48151-0.50885,0.69543-0.79199
	c0.04095-0.03711,0.08386-0.07385,0.12891-0.11182c0.289-0.38434,0.6084-0.74713,0.93646-1.10413
	c0.25-0.27386,0.50684-0.54291,0.75684-0.81488c0.07617-0.08301,0.10736-0.19922,0.1778-0.29102
	c0.05457-0.0752,0.15326-0.1333,0.20886-0.20898c0.05084-0.07031,0.06354-0.15533,0.1123-0.2251
	c0.09479-0.13379,0.23834-0.23291,0.3233-0.37213c0.56641,0.16119,0.90619,0.53131,1.35352,0.80621
	c0.10742,0.06689,0.53912,0.2558,0.58008,0.33893C48.95312,23.37299,48.87299,23.43597,48.8457,23.45312z M23.30322,27.74323
	c0.00879,0.0127-0.01019,0.02045,0.01556,0.04779C23.34619,27.75983,23.32422,27.76367,23.30322,27.74323z M22.75293,28.04791
	h-0.01514v0.01849h0.01514c0.01605,0.01172,0.00488,0.00391,0.03314,0.01556c0.13196-0.08789,0.30475-0.08588,0.46686-0.14648
	c0.18506-0.06537,0.39697-0.1543,0.56299-0.24207c0.10211-0.05084,0.26605-0.07043,0.30811-0.17584h-0.01514V27.5h-0.09906
	c-0.0459,0.0332-0.13971,0.01562-0.19391,0.04883c-0.0249,0.03705-0.05273,0.0752-0.08014,0.11328
	c-0.0918,0.06451-0.3139,0.1524-0.41791,0.19141c-0.06989,0.00586-0.14105,0.0127-0.20898,0.01758
	C22.979,27.91211,22.82422,27.94342,22.75293,28.04791z M22.18903,31.13092h0.00189c0.35791-0.07043,0.84326-0.0498,1.27197-0.0498
	c0.21631,0,0.49512-0.0166,0.66113,0.0332h0.27295c0.17621,0.03796,0.43311,0.0224,0.59814,0.0791h0.40186
	c0.20905,0.04779,0.43604,0.05267,0.64606,0.09857h7.01508c0.91602,0,1.86481-0.01862,2.75781-0.01862
	c0.06787,0,0.14697,0.00201,0.22797,0.00201c0.3609,0.00684,0.80334,0.0127,0.93323-0.08197h0.01611v-0.01575
	c-0.24121-0.11127-0.5191-0.06439-0.80524-0.12885h-0.22711c-0.435-0.10541-1.22797-0.11725-1.69275-0.01764
	c-0.17291,0.03912-0.38824-0.0058-0.51611,0.01764c-0.15094,0.02734-0.37903-0.02155-0.54889,0.01569
	c-0.28424,0.0625-0.68414,0.0166-1,0.0166h-4.38525h-1.16156c-0.1861,0-0.42242,0.01849-0.58209-0.0166h-0.354
	c-0.43414-0.09772-0.94141-0.07819-1.35504-0.17584h-0.1601c-0.25586-0.07025-0.55127-0.05859-0.82227-0.13086
	c-0.32184-0.08301-0.66888-0.15039-0.99658-0.21869c-0.06104-0.01373-0.12115-0.0235-0.18213-0.03815
	c-0.04303,0.08203-0.03418,0.24225-0.03223,0.37109c0.01715,0.03711-0.00195,0.21191,0.01715,0.24225V31.13092z M21.31787,31.9043
	h0.01611v0.01562h0.01709V31.9043c0.05524-0.03522,0.12201-0.09381,0.14502-0.16211c0.0249-0.04102,0.00189-0.16602,0.01611-0.24219
	c-0.01611-0.00592-0.03223-0.00983-0.04932-0.01758C21.39893,31.5957,21.33893,31.75,21.31787,31.9043z M23.43213,27.69342
	c0.0069,0.01459-0.01123,0.02136,0.01605,0.0498C23.4751,27.71088,23.45312,27.71393,23.43213,27.69342z M23.41412,27.75983
	v-0.01575h-0.01624c-0.01508-0.01355-0.00391-0.0058-0.03168-0.01746c0.00287,0.02539-0.00629,0.05658,0.03168,0.0332H23.41412z
	 M25.06012,27.82422c0.08978-0.01764,0.21576,0.00391,0.33685,0.00287c0.31781-0.01257,0.63623,0.01471,0.95111-0.01849
	c0.1001-0.00879,0.18713,0.03912,0.32184,0.01849c0.11719-0.02051,0.29095,0.01569,0.40326,0
	c0.1626-0.02441,0.375,0.00104,0.5498-0.01849c0.03333-0.00201,0.08209,0.02441,0.12701,0.01849
	c0.23102-0.03119,0.53223-0.01849,0.79102-0.01849h1.38721c0.97369,0,1.65967-0.0957,2.67676-0.0957
	c0.375,0,0.84619-0.0293,1.18701,0.03223l0.00983-0.0556c-0.1817-0.03522-0.3877-0.05774-0.56689-0.05859h-1.41901
	c-0.22699,0-0.5141,0.02631-0.7099-0.0166h-0.4668c-0.0611-0.01862-0.14905-0.07825-0.19342-0.09674h-3.19189h-1.22699
	c-0.1709,0-0.40393-0.01367-0.48389,0c-0.24811-0.00586-0.4942-0.01166-0.74225-0.01556
	c-0.03076,0.0097-0.07959,0.06439-0.11176,0.07996c-0.18701,0.08301-0.35315,0.12012-0.51715,0.20905v0.01556h0.01801
	c0.02692,0.03235,0.021,0.0274,0.08112,0.0332C24.40479,27.75677,24.86719,27.85742,25.06012,27.82422z M14.83588,32.54791h-0.08099
	c-0.03809,0.10248,0.14502,0.30762,0.32324,0.3056c0.01465-0.02734,0.0191-0.02539,0.03076-0.0625
	c-0.11279-0.05664-0.20898-0.13873-0.27301-0.24219V32.54791z M56.21478,18.37402c0.00983,0.01318-0.0097,0.021,0.01575,0.04785
	C56.25879,18.39111,56.23633,18.39502,56.21478,18.37402z M57.45697,18.42188c0.00592-0.01465,0.00983-0.03076,0.01575-0.04785
	c-0.04791-0.01715-0.0957-0.0332-0.14459-0.04785c-0.02155,0.03271-0.0332,0.03662-0.04883,0.08105h0.0166
	C57.32617,18.42822,57.40039,18.4248,57.45697,18.42188z M60.43951,31.04883h0.0166v-0.0166
	c0.0127-0.01465,0.0058-0.00494,0.0166-0.03125c-0.01184-0.00391-0.02252-0.0108-0.0332-0.0166
	C60.43359,31.02338,60.42969,31.00983,60.43951,31.04883z M56.32812,18.31012c0.00879,0.01166-0.0097,0.01996,0.01569,0.04779
	C56.37207,18.32709,56.34961,18.33008,56.32812,18.31012z M56.2959,18.37402h0.0166v-0.01611h-0.0166
	c-0.0166-0.0127-0.00488-0.00488-0.03223-0.01611C56.26758,18.36621,56.25781,18.3999,56.2959,18.37402z M56.94141,18.93799
	c0.12701,0.07709,0.33789,0.04694,0.49811,0.09723c0.1582,0.04779,0.3515,0.10199,0.50189,0.16058v0.04932
	c-0.15332,0.00098-0.2334-0.04932-0.33978-0.08099c-0.09772-0.00494-0.19244-0.01135-0.28912-0.01715
	c-0.16602-0.04889-0.37891-0.09515-0.58197-0.11176c-0.02252,0.03558-0.12115,0.17377-0.1123,0.1767
	c0.13379,0.12311,0.3349,0.1651,0.5,0.2583c0.06726,0.03857,0.1416,0.12158,0.2099,0.16071
	c0.2168,0.125,0.43945,0.2182,0.67578,0.32318c0.04297,0.01813,0.10547,0.08588,0.14648,0.09668
	c0.0351,0.00934,0.08978-0.03369,0.14551-0.0166c0.03418,0.01074,0.08203,0.06982,0.1123,0.08099h0.19342
	c0.07806,0.02405,0.2002,0.08301,0.27338,0.11285c0.02148,0.00879,0.41888,0.04785,0.41888,0.04785
	c0.02063-0.00299,0.03912-0.0498,0.09869-0.03076c0.03223,0.00977,0.05273,0.06787,0.08014,0.08008h0.16107
	c0.09283,0.03271,0.09283,0.07672,0.25879,0.08099c0.01373-0.02917,0.01849-0.02826,0.03033-0.06537
	c0.00677-0.01562,0.01257-0.0058,0-0.01562c-0.06158-0.08197-0.16803-0.05707-0.17682-0.19342
	c0.03613-0.021,0.03613-0.02679,0.09668-0.03265c0.01074,0.00879,0.00293,0.02386,0.03223,0.01605v-0.01605
	c0.01367-0.021,0.01562-0.039,0.01758-0.08099c-0.10345-0.06305-0.22559-0.25745-0.29095-0.28912
	c-0.08405-0.04199-0.17194-0.021-0.25885-0.04883c-0.14935-0.04926-0.32129-0.12207-0.4834-0.16119
	c-0.086-0.021-0.20508-0.00287-0.2735-0.01697v-0.0152h-0.01746v-0.06494c0.14935-0.01709,0.3125-0.04889,0.4834,0
	c0.13367,0.03711,0.26068,0.1181,0.4209,0.12793c0.039-0.05658,0.10046-0.06201,0.14447-0.11182
	c-0.14838-0.0752-0.3125-0.09821-0.48438-0.16107c-0.24799-0.09283-0.52539-0.18903-0.789-0.27399
	c-0.086-0.00586-0.17291-0.01074-0.25879-0.01715c-0.10651-0.0307-0.27252-0.05267-0.3858-0.08099h-0.12891
	c-0.26953-0.0816-0.67383-0.2027-0.98444-0.20898v0.01709h-0.01556v0.03119C56.74707,18.86823,56.59772,18.94482,56.94141,18.93799z
	 M57.89258,18.39008c0.05664,0.01715,0.39062-0.0752,0.41992-0.09705h0.0166v-0.01611
	c-0.14941-0.09674-0.48138-0.06689-0.72748-0.065c-0.02844,0.0152-0.0166,0.00677-0.06354,0
	C57.54492,18.26318,57.7793,18.35498,57.89258,18.39008z M57.19818,18.24512h-0.0166V18.229h-0.06439
	c-0.01947,0.02588-0.0332,0.0332-0.0625,0.04791v0.0332c0.0332,0.01801,0.02728,0.02185,0.08014,0.0307
	C57.16022,18.30322,57.18158,18.29388,57.19818,18.24512z M60.23053,21.06689c0.05078,0.03223,0.08197,0.0752,0.14447,0.09619
	c0.02338-0.04102,0.04883-0.07806,0.06451-0.12891c-0.01862-0.01318-0.0166-0.01318-0.03131-0.03217h-0.04883
	c-0.02539,0.01611-0.10156,0.02289-0.12885,0.03217V21.06689z M60.73053,23.77588c0.02728-0.00977,0.01556-0.00391,0.03314-0.01605
	c0.01172-0.0166,0.0058-0.00391,0.01562-0.03271c-0.02539-0.02789-0.01562-0.19293-0.01562-0.32233v-0.854
	c-0.04974-0.03467-0.05566-0.08887-0.11328-0.11377c-0.03906,0.11481,0.0127,0.23779,0.01562,0.35498
	C60.67767,23.146,60.65918,23.53711,60.73053,23.77588z M21.09277,32.19342c-0.0166-0.01184-0.00488-0.00592-0.0318-0.0166
	c-0.06976,0.125-0.16986,0.28998-0.27386,0.3877c0.0108,0.03711,0.01611,0.0351,0.03168,0.06439
	c0.08313-0.00592,0.21643,0.01556,0.35413,0.01556c0.01117-0.02826,0.01508-0.05078,0.01697-0.09656
	c-0.03265-0.05469,0.0152-0.1026,0.03235-0.16119C21.09082,32.3125,21.16211,32.30469,21.09277,32.19342z M58.9082,18.4209
	c0.13483,0.03711,0.30078,0.1001,0.44922,0.11328c0.00586-0.0152,0.01166-0.03217,0.0166-0.0484
	c-0.19434-0.09656-0.29694-0.20801-0.6123-0.20886c-0.0332,0.05707-0.07031,0.07996-0.12793,0.11316v0.01471h0.01459
	C58.71088,18.44189,58.8252,18.3999,58.9082,18.4209z M60.03711,18.98578c0.00879,0.01422-0.00983,0.021,0.01556,0.04944
	C60.08112,19.00293,60.05859,19.00677,60.03711,18.98578z M59.63379,18.88922c0.02539,0.01697,0.06641,0.01697,0.11328,0.01556
	c0.00494-0.00977,0.0097-0.021,0.0166-0.03076c-0.0166-0.0058-0.03314-0.01221-0.04889-0.01715
	c-0.02136-0.0141-0.04095-0.01508-0.08099-0.01605C59.62701,18.87701,59.61908,18.85791,59.63379,18.88922z M59.64838,18.35791
	c0.18359,0.12701,0.3194,0.35211,0.55084,0.41901v-0.01624c0.01471-0.02289,0.01471-0.0517,0.01471-0.09656
	c-0.05963-0.05914-0.09674-0.15631-0.16125-0.21002c-0.03705-0.03119-0.09955-0.04102-0.12885-0.08008
	c-0.0332-0.04395-0.03125-0.16791-0.08002-0.19385h-0.24219c-0.03912,0.02191-0.11145,0.00885-0.16211,0
	C59.44342,18.27393,59.56451,18.29883,59.64838,18.35791z M59.79492,20.6958c0.04297,0.0542,0.11426,0.08008,0.16119,0.12939
	c0.1084-0.01117,0.21576-0.021,0.32318-0.03217c0.00879-0.0249,0.01068-0.02692,0.01562-0.06403
	c-0.02155-0.02289-0.0332-0.05219-0.04883-0.08112h-0.45117C59.78809,20.68408,59.7793,20.66498,59.79492,20.6958z
	 M14.48187,19.24512c0.05811-0.06,0.09924-0.1889,0.11194-0.29004c-0.05774-0.0191-0.14069-0.03619-0.19293-0.04889
	c-0.0191,0.03668-0.02686,0.03668-0.0318,0.09674c-0.0293,0.04297-0.01898,0.15625-0.01697,0.2251
	c0.01898,0.0152,0.01801,0.01416,0.03271,0.03265C14.42188,19.25,14.45801,19.25677,14.48187,19.24512z M14.93213,18.63177h0.03265
	c0.13922-0.16986,0.25403-0.07465,0.33844-0.37195h-0.01611v-0.01575h-0.06403c-0.08826,0.13293-0.25,0.20172-0.30609,0.37109
	h0.01514V18.63177z M14.59381,32.25781c-0.04694-0.0683-0.04889-0.1582-0.11194-0.20898
	c-0.01605-0.01361-0.00476-0.00684-0.03265-0.0166c-0.01324,0.0401,0.00586,0.14069-0.01514,0.1944
	c-0.01416,0.03015-0.03711,0.02045-0.05127,0.07996c0.05029,0.05084,0.09521,0.0957,0.146,0.14459
	c0.02832-0.00977,0.01611-0.00195,0.0332-0.01569c0.01318-0.0166,0.00586-0.00391,0.01611-0.0332
	c-0.03223-0.02136-0.03223-0.01947-0.04834-0.0625C14.57617,32.31451,14.58112,32.32031,14.59381,32.25781z M14.73877,18.25983
	H14.771c0.01611-0.02051,0.03418-0.04205,0.04779-0.06403H14.8042v-0.01562h-0.05029
	c-0.01373,0.02881-0.01898,0.02679-0.03168,0.0639h0.01654V18.25983z M16.36823,32.74219c0,0,0.02185-0.01758,0.02966-0.06451
	c-0.00867-0.0058-0.01996-0.01068-0.02966-0.01556C16.35687,32.68951,16.31403,32.72272,16.36823,32.74219z M55.24799,18.37402
	c0.04504,0.02686,0.08398,0.09717,0.12903,0.12891c0.22461,0.15729,0.4668,0.30615,0.70886,0.43506
	c0.05859,0.03223,0.33795,0.16309,0.33795,0.16211c0.03705-0.04388,0.07025-0.11517,0.08209-0.17719
	c-0.08014-0.0528-0.10944-0.16309-0.19342-0.21002c-0.06738-0.03906-0.28711-0.0899-0.32233-0.14502
	c-0.01355-0.01166-0.01746-0.01996-0.03217-0.03265c0.0166-0.04199,0.03217-0.086,0.04877-0.12799
	c-0.09369-0.06934-0.06146-0.17432-0.22748-0.17725c-0.03223,0.01904-0.05267,0.00391-0.1123,0
	c-0.06348,0.04004-0.48541,0.02203-0.54688,0.01514c-0.00684,0.0108-0.0127,0.02197-0.01849,0.03265h-0.01575v0.01611h0.01575
	C55.14648,18.33789,55.18951,18.33789,55.24799,18.37402z M15.31982,32.66211c-0.02002,0.03522-0.02679,0.03522-0.03174,0.0957
	c0.04199,0.01556,0.11084,0.01758,0.17584,0.01556c0.01215-0.01556,0.02185-0.03015,0.03314-0.04675
	c-0.02826-0.01764-0.02686-0.02155-0.06586-0.03522C15.40192,32.66992,15.375,32.66602,15.31982,32.66211z M50.94141,24.33978
	c-0.2207-0.1059-0.45898-0.2417-0.67773-0.33777c-0.18848-0.08502-0.34766-0.12024-0.53125-0.21002
	c-0.14264-0.0708-0.29291-0.20117-0.4502-0.25781c-0.04395,0.10303-0.0498,0.23584-0.09674,0.35504
	c-0.0351,0.08099-0.20496,0.2226-0.20496,0.38367c0,0.04199,0.0127,0.08704,0.04285,0.1319
	c0.06165,0.17139,0.52643,0.40039,0.66022,0.58014c0.04303,0.05811,0.12109,0.14685,0.14648,0.20886
	c0.05859,0.15631,0,0.29742,0.04785,0.4361h0.01465v-0.0166c0.10352-0.06738,0.18555-0.19141,0.2597-0.28906
	c0.07434-0.07031,0.14954-0.14014,0.22565-0.21045c0.11035-0.11176,0.21185-0.24268,0.30566-0.37054
	c0.07233-0.09723,0.20312-0.20612,0.24609-0.34332C50.93549,24.37988,50.93951,24.35992,50.94141,24.33978z M23.07709,18.32617
	h0.77301c0.12598,0,0.29199,0.01904,0.35498-0.04926c-0.01605-0.00494-0.0332-0.0108-0.04785-0.01624
	c-0.07611-0.04675-0.29443-0.01556-0.40332-0.01556h-1.01611c-0.00781,0.03711-0.01471,0.01807,0.00098,0.04791
	C22.80908,18.34082,22.96289,18.32617,23.07709,18.32617z M15.81982,18.50293h0.03125
	c0.04291-0.04883,0.08594-0.09674,0.12891-0.14502h-0.01605v-0.01709h-0.04895c-0.03406,0.03809-0.0752,0.0791-0.11176,0.11328
	c0.00977,0.02777,0.00195,0.01611,0.0166,0.03271V18.50293z M22.5918,18.55182h-0.01562v-0.0166h-0.04926
	c0,0.04486-0.01709,0.03461,0.04926,0.04779C22.58112,18.57318,22.58588,18.56201,22.5918,18.55182z M25.28522,18.229v-0.01709
	h0.01556V18.1958c-0.021-0.00983-0.04297-0.021-0.06396-0.03168C25.23578,18.20697,25.22412,18.20612,25.28522,18.229z
	 M17.03223,18.53522h0.83887c0.29303,0,0.60693,0.00287,0.83789-0.06403c0.30609-0.00641,0.61182-0.01221,0.91803-0.01709
	c0.09906-0.02832,0.32416-0.11328,0.46918-0.06403c0.04303,0.01471,0.15179,0.05475,0.2417,0.03082
	c0.12891-0.03271,0.29492-0.04688,0.48291-0.04791c0.00629-0.01611,0.01221-0.03217,0.01611-0.04779H20.8208v-0.01611
	c-0.11469-0.00586-0.20703-0.04688-0.30658-0.065c-0.05334-0.0083-0.10504,0.00983-0.14514,0.01575
	c-0.0849,0.01215-0.1333-0.01373-0.22699-0.01575c-0.16022-0.00189-0.24811,0.02789-0.38617,0.01575
	c-0.5249-0.04303-1.03284,0.00439-1.646-0.01575c-0.03082,0.0191-0.08215,0-0.12891,0.01575
	c-0.07379,0.02728-0.17194,0.10199-0.25793,0.13025c-0.1391,0.04205-0.29828,0.04504-0.41791,0.08112
	c-0.21136,0.06104-0.44916-0.04199-0.61139,0.01459c0.01031,0.02844,0.00201,0.01624,0.0152,0.0332
	C16.77002,18.55811,16.93988,18.53522,17.03223,18.53522z M16.18988,18.4209c0.03424-0.03912,0.04889-0.00781,0.09723-0.04791
	c0.01172-0.01508,0.00592-0.00391,0.01611-0.03217c-0.01611-0.00494-0.0332-0.0097-0.04834-0.01562
	c-0.03906,0.02203-0.07568,0.04303-0.11279,0.06488v0.01611h0.01514C16.17291,18.41888,16.16211,18.41107,16.18988,18.4209z
	 M57.02148,18.42188c0.0058-0.01465,0.01074-0.03076,0.01562-0.04785h-0.01562v-0.01611H56.9082
	C56.87701,18.43018,56.9043,18.43018,57.02148,18.42188z M52.99017,32.74219c-0.0351,0.0351-0.06049,0.04102-0.08099,0.0957h0.0166
	c0.03119,0.01953,0.09369,0.02728,0.1601,0.02728c0.086,0,0.1817-0.00964,0.24121-0.01166
	c0.00592-0.0166,0.01184-0.0293,0.01862-0.04694c-0.0293-0.01947-0.04688-0.0351-0.06641-0.06439H52.99017z M53.37701,32.14648
	h-0.04889c-0.039,0.04694-0.09375,0.04694-0.11914,0.10254c-0.00391,0.0069-0.00781,0.0166-0.00977,0.02637
	c0.07617,0.0683,0.0127,0.16992,0.13477,0.18939c0.00781,0.00201,0.01764,0.00299,0.02734,0.00391
	c0.03705-0.07031,0.03516-0.19141,0.03125-0.30762h-0.01556V32.14648z M52.73242,32.14648h-0.125h-0.1015
	c-0.00793,0.02344-0.00983,0.02539-0.01575,0.0625c0.05475,0.01953,0.1485,0.01953,0.22565,0.01764
	c0.0166-0.02844,0.02051-0.02643,0.0332-0.06354h-0.0166V32.14648z M53.3125,27.72662
	c0.04492,0.0293,0.13092,0.04285,0.19342,0.04877c0.0097-0.02338,0.01166-0.0274,0.01746-0.06537
	c-0.06049-0.03815-0.11908-0.0752-0.17767-0.1123C53.3252,27.64258,53.29883,27.69342,53.3125,27.72662z M53.05658,31.79199v-0.0166
	h-0.01849c-0.00391-0.0166-0.0108-0.03217-0.01471-0.04877c-0.24017-0.00983-0.41205-0.11725-0.5976-0.16211h-0.28906
	c-0.39349-0.11432-0.95123-0.07623-1.45312-0.08014c-0.06842,0.04291-0.25391,0.0166-0.35352,0.0166h-0.87311
	c-0.86127,0-1.69818,0.02631-2.59369,0.03125c-0.10736,0.00195-0.2149,0.00195-0.32416,0.00195
	c-0.08405,0.16791-0.2774,0.2724-0.33795,0.4502h0.01562c0.02539,0.0293,0.01373,0.02155,0.06451,0.0332
	c0.04681-0.02435,0.09369,0,0.17767,0c0.02539,0,0.05469-0.00195,0.08203-0.00195c0.14447-0.00195,0.30176,0,0.41797-0.01562
	c0.0752-0.00879,0.1181,0.03607,0.2265,0.01758c0.1192-0.02148,0.28723,0,0.41803,0
	c0.38477-0.00391,0.78131,0.02155,1.16211-0.01758c0.02826-0.00201,0.12305,0.01758,0.1778,0.01758
	c0.38177,0,0.61707,0.05951,0.95105,0.08014c0.16412,0.0097,0.42871,0.05066,0.54895-0.0332
	c0.03119-0.03522,0.03119-0.07233,0.07996-0.09674c0.08795-0.06549,0.3399-0.03027,0.4834-0.03027h1.27252
	c0.02338-0.04102,0.05267-0.06641,0.08008-0.09961c0.08014,0.00189,0.164,0.00488,0.24805,0.0058
	C52.77539,31.84369,52.93951,31.83301,53.05658,31.79199z M53.3125,28.61328c0,0.05371,0.06842,0.13672,0.14551,0.16211v-0.01758
	c0.0127-0.01764,0.0127-0.02539,0.0166-0.06439c-0.01953-0.0166-0.02728-0.03131-0.0498-0.04694
	C53.40039,28.62891,53.3457,28.62012,53.3125,28.61328z M53.49017,27.98438c0.0293-0.02539,0.02545-0.0235,0.03131-0.08008
	c-0.07617-0.04877-0.13971-0.07422-0.25781-0.09772C53.26367,27.8457,53.44342,28.00983,53.49017,27.98438z M45.63672,32.40228
	v0.0332c0.0332,0.01764,0.0293,0.0235,0.08105,0.03229c0.02631-0.01569,0.11621,0.00092,0.1709,0.00092
	c0.00781,0,0.01361,0,0.02155-0.00092c0.20697-0.03027,0.48816,0,0.80658,0c0.00983-0.02435,0.01172-0.02826,0.01758-0.06549
	c-0.01959-0.02728-0.00586-0.04486-0.01758-0.0625c-0.03522-0.02338-0.10547-0.02338-0.17188-0.02136
	c-0.04291,0-0.08594,0.00476-0.1181,0.00476c-0.22565-0.00677-0.4502-0.01068-0.67883-0.0166
	C45.71777,32.34277,45.67969,32.37891,45.63672,32.40228z M60.61823,28.69342c0.02826-0.03033,0.00476-0.0274-0.0166-0.04694
	C60.61133,28.66022,60.5918,28.66699,60.61823,28.69342z M50.7168,25.72852c0.00983,0.01166-0.00983,0.01947,0.01562,0.04688
	C50.75983,25.74512,50.73828,25.74799,50.7168,25.72852z M60.58398,28.69342h-0.01758
	c-0.01373,0.03119-0.01849,0.02728-0.03033,0.06537h0.0166v0.0166h0.01575v-0.0166c0.01459-0.01556,0.0058-0.00488,0.0166-0.03217
	v0.00189h0.0166v-0.0166h-0.01764V28.69342z M45.99219,29.9707h-0.01556c-0.04303-0.0293-0.11725,0.00391-0.1778-0.01758
	c-0.03711-0.01172-0.06641-0.04883-0.11133-0.0625c-0.07617,0.09375-0.19531,0.12006-0.32233,0.1524
	c-0.04285,0.01166-0.08789,0.02338-0.12885,0.03998c-0.08002,0.02637-0.19434,0.08588-0.27545,0.11041
	c-0.12787,0.04291-0.76166,0.04877-0.88666,0c-0.03613-0.01184-0.05084-0.04694-0.0976-0.0625
	c-0.04114,0.04877-0.0918,0.04291-0.14465,0.07996c-0.06049,0.0625-0.11908,0.12891-0.17969,0.19342
	c-0.0683,0.03711-0.13861,0.07422-0.20886,0.11133v0.03229c0.24408,0.1416,0.48627,0.27631,0.74207,0.42078
	c0.13483,0.07623,0.27643,0.22662,0.45123,0.25793h0.00195v-0.01575h0.01562v-0.04877
	c0.16412-0.02148,0.24017,0.01172,0.30658,0.12988h0.01575v-0.01862c0.23529-0.18256,0.39056-0.49408,0.56439-0.7392
	C45.67969,30.33978,45.86328,30.16888,45.99219,29.9707z M51.74707,32.74121c-0.086,0.05267-0.3194,0-0.45117,0h-1.22559h-3.35449
	h-0.82715h-0.3653c-0.05267,0.0498-0.12891,0.02637-0.20886,0.01556v0.0166H45.2959c0.01068,0.02844,0.00391,0.01471,0.01862,0.0332
	c0.0957,0.06549,0.32611,0.0166,0.51556,0.0166h1.33594c1.68951,0,3.461-0.03119,5.09766,0.03033
	c0.01361-0.0351,0.02936-0.06641,0.04681-0.09674C52.1709,32.71002,51.91888,32.73932,51.74707,32.74121z M45.29688,32.41992
	c-0.0918-0.0097-0.25-0.18555-0.2735-0.2597c-0.0918-0.13873,0.04895-0.53619,0.14551-0.5625
	c-0.01166-0.03723-0.0166-0.03723-0.03021-0.06354c0.01361-0.01471,0.03021-0.0293,0.04681-0.04486
	c0.11041-0.10944,0.22864-0.24811,0.30774-0.375h0.03217v0.0166c0.01764,0.01556,0.00189,0.03998-0.01862,0.0625v0.0498
	c0.24225-0.16022,0.41211-0.42682,0.6153-0.62891c0.40131-0.40344,0.81934-0.77252,1.19244-1.21002
	c0.0332-0.03809,0.09656-0.05658,0.12689-0.09772c0.1543-0.19525,0.34857-0.33978,0.51862-0.51459
	c0.24207-0.25098,0.46478-0.52637,0.6767-0.80762c0.0733-0.09766,0.18945-0.16986,0.27435-0.25775
	c0.125-0.12701,0.22955-0.27545,0.33795-0.41803c0.04486-0.05859,0.09869-0.10938,0.15326-0.16211
	c0.05573-0.0528,0.11139-0.10345,0.1543-0.16211c0.02051-0.02826,0.02051-0.07227,0.04694-0.09766
	c0.10449-0.09082,0.22949-0.1875,0.30756-0.3056c0.01575,0.0058,0.03033,0.0097,0.04895,0.0166
	C49.89648,26.76947,49.70612,26.86719,49.60553,27c-0.16803,0.22461-0.34875,0.4209-0.5166,0.64648
	c-0.09186,0.08014-0.18463,0.1601-0.27441,0.24023c-0.11432,0.1875-0.2442,0.31537-0.37109,0.48438
	c-0.0528,0.04779-0.10754,0.09668-0.16119,0.14648c-0.25885,0.3418-0.63574,0.67773-0.95026,0.9668
	c-0.1308,0.12115-0.31049,0.33984-0.41986,0.48242c-0.18359,0.16803-0.36523,0.33301-0.54779,0.5
	c-0.36041,0.36029-0.6944,0.74799-1.06549,1.09772c0.00195,0.06146-0.02155,0.03119,0.03314,0.06342
	c-0.01556,0.04297-0.01556,0.04297-0.04877,0.06348v0.0332c0.16498-0.0332,0.42188-0.34283,0.51758-0.46783
	c0.11725-0.15906,0.30664-0.26849,0.4668-0.3877c0.05951-0.0625,0.11725-0.12891,0.17773-0.19427
	c0.11719-0.11029,0.23627-0.22559,0.35449-0.33789c0.06842,0.01471,0.05573,0.0332,0.09857,0.06537
	c-0.0166,0.07043-0.08789,0.13873-0.14545,0.16223H46.6543v0.01459c-0.06537,0.05267-0.1123,0.13959-0.17767,0.19427
	c-0.05084,0.04303-0.19342,0.12701-0.22461,0.17584v0.12988c-0.03723,0.07709-0.29504,0.25879-0.37109,0.32129
	c-0.05084,0.04102-0.06061,0.12689-0.09772,0.17871c-0.10553,0.14941-0.26373,0.29297-0.35553,0.4502
	c-0.0351,0.0625-0.00775,0.19342-0.04675,0.25879c-0.02155,0.0517-0.01471,0.04388-0.08209,0.0498
	c0.00977,0.02344,0.01166,0.02539,0.01758,0.0625h-0.01758v0.01953H45.29688z M45.24091,31.50568
	c-0.00128-0.0011-0.00238-0.00183-0.00543-0.0047h-0.0011C45.23901,31.50452,45.23932,31.50452,45.24091,31.50568z
	 M45.28131,31.48438c0.02338-0.01758,0.03119-0.02435,0.04877-0.04889c0.0097-0.02338,0.02155-0.0058,0-0.0332
	c0.01953,0.0274,0.0097,0.00983,0,0.0332c-0.01758,0.0235-0.02533,0.03223-0.04779,0.04688
	C45.28198,31.48334,45.28162,31.4834,45.28131,31.48438z M53.55469,32.85352c0.02728-0.0293,0.0058-0.02539-0.01556-0.04694
	C53.54688,32.82031,53.52728,32.82709,53.55469,32.85352z M55.03809,32.24408c-0.0401-0.0097-0.26862,0.19342-0.37109-0.01556
	c-0.05078-0.08014,0.02051-0.13574-0.0166-0.22754c-0.01758-0.04486-0.0899-0.09869-0.11328-0.14545
	c-0.04694-0.10455-0.03223-0.29694-0.11133-0.37115c-0.04785,0.08881-0.03516,0.26562-0.0332,0.40234
	c0.04102,0.06738,0.01849,0.27826,0.0332,0.35547c0.25,0.11133,0.47461,0.24609,0.789,0.289
	c0.01764-0.02051,0.03229-0.04291,0.04889-0.06049C55.21002,32.43549,55.07422,32.25391,55.03809,32.24408z M59.16498,31.88672
	c-0.02435,0.01758-0.10248,0.01556-0.12891,0.0332c-0.06146,0.01959-0.06146,0.03125-0.06335,0.11328h0.01556v0.01562
	c0.08984-0.039,0.17584-0.0683,0.2265-0.14453h-0.0166C59.18158,31.89062,59.19342,31.89648,59.16498,31.88672z M60.15039,30.93549
	c0.04883-0.05457,0.06439-0.16986,0.06439-0.2724c-0.0166-0.00586-0.0332-0.0127-0.04877-0.0166
	c-0.04694,0.10059-0.12891,0.18262-0.17773,0.2724c-0.10449,0.1944-0.1582,0.3916-0.25775,0.58209
	c-0.05286,0.09863-0.13281,0.20215-0.16211,0.32135c-0.04114,0.18158,0.1084,0.28119,0.11316,0.46765
	c-0.04291,0.0166-0.02728,0.03619-0.04779,0.0498h-0.14551c-0.02826,0.01184-0.06348,0.06842-0.0957,0.08014
	c-0.0694,0.02148-0.11719-0.02545-0.14648-0.03125c-0.10162-0.03125-0.22662,0.01361-0.28912,0.03125
	c-0.01746,0.0274-0.01947,0.0274-0.03314,0.06445h0.01758v0.01764c0.08008-0.01569,0.24811-0.00879,0.39648-0.0127
	c0.11621-0.00299,0.2207-0.0108,0.26373-0.03723c0.23035-0.08881,0.2793-0.45209,0.37109-0.6933
	c0.07996-0.20801,0.22461-0.42767,0.25781-0.67682C60.16888,31.0498,60.15228,31.03223,60.15039,30.93549z M59.39258,32.74219
	h-0.04877c-0.10449,0.06439-0.41614,0.00189-0.54889,0.04779v0.0166h0.01556c0.02252,0.01373,0.07819,0.02051,0.14954,0.02252
	c0.15326,0.00592,0.37299-0.01068,0.43256-0.02252c0.0058-0.0166,0.0097-0.0332,0.0166-0.04877h-0.0166V32.74219z M59.4082,32.08112
	c-0.02643-0.0332-0.03027-0.07043-0.06439-0.09674c-0.04993,0.0722-0.21289,0.22852-0.1778,0.3222
	c0.0293,0.01959,0.0918,0.01764,0.14648,0.0166C59.36517,32.24323,59.4082,32.22852,59.4082,32.08112z M60.19818,30.54883
	c0.0127-0.01465,0.00592-0.00494,0.01575-0.0332c-0.01575-0.00391-0.03235-0.0097-0.04791-0.01562
	c-0.00494,0.02148-0.00781,0.02338-0.00781,0.02728c0,0.00494,0.00201,0.00879,0.00781,0.02155v0.01569
	C60.19342,30.55469,60.18158,30.5625,60.19818,30.54883z M53.60162,27.33978h-0.08014c-0.00781,0.03723-0.01556,0.01764,0,0.04889
	c0.02155,0.01361,0.04102,0.01361,0.08014,0.01562c0.0058-0.01562,0.01166-0.03223,0.01746-0.04688h-0.01746V27.33978z
	 M60.375,32.24323c-0.01562-0.0069-0.03119-0.0108-0.04791-0.0166c-0.01068,0.03705-0.02051,0.07416-0.03217,0.1123h0.01758v0.0166
	C60.35742,32.32709,60.37012,32.31641,60.375,32.24323z M60.375,32.69342c-0.02148,0.039-0.0293,0.04486-0.03223,0.11127
	c0.02545,0.00983,0.02832,0.01172,0.06543,0.01764c0.01471-0.02844,0.01862-0.0274,0.03131-0.06451
	c-0.00983-0.01172-0.02063-0.0351-0.03131-0.04779C60.39062,32.69733,60.40228,32.7041,60.375,32.69342z M53.73053,28.17767
	c0.04877,0.0274,0.0918,0.0625,0.14648,0.08215v-0.0166c0.04102-0.06744-0.0069-0.1983,0.01556-0.28912
	c0.04291-0.16803,0.08014-0.27643,0.08014-0.51862V27.4209c-0.02539-0.02252-0.05383-0.04388-0.08014-0.06537
	c-0.02637,0.04486-0.04095,0.04095-0.04877,0.11316c0.04102,0.0625,0.04877,0.24811,0.0332,0.3233
	C53.67682,27.86908,53.7207,27.91022,53.73053,28.17767z M43.97461,32.74219h-1.13483h-0.79675h-0.37311
	c-0.09283,0.05664-0.32422,0.01562-0.41992,0.04883v0.01556h0.01758c0.02734,0.01764,0.07422,0.02155,0.12891,0.02155
	c0.05664,0,0.11523-0.00391,0.1601-0.00391H42.25h2.61133c0.00586-0.01172,0.01166-0.02344,0.01758-0.0332
	c-0.01758-0.0058-0.0332-0.01172-0.04883-0.01764C44.72852,32.69733,44.16309,32.74219,43.97461,32.74219z M53.84381,32.79102
	h-0.00104v0.01556h0.01855c0.01367,0.00793,0.03516,0.01373,0.05859,0.01959c0.07806,0.0097,0.19629,0,0.26367-0.00195
	c0.00592-0.01172,0.00983-0.02344,0.0166-0.0332c-0.06348-0.02155-0.125-0.039-0.17682-0.06439
	C53.97852,32.76947,53.91211,32.76947,53.84381,32.79102z M53.7793,31.01758c0-0.53125-0.00201-1.02246,0.09668-1.46777v-0.32129
	c0-0.24219,0.00104-0.50983,0.0166-0.72754c-0.04095-0.02246-0.0625-0.0459-0.11127-0.06348
	c-0.02539,0.06927-0.04303,0.17188-0.0528,0.27832c-0.00781,0.11719-0.00391,0.23828,0.01947,0.33398v0.85449
	c-0.00092,0.76373-0.2226,1.70898,0,2.35449v0.00104h0.01373v-0.0166c0.02826-0.0498,0.01758-0.23645,0.01758-0.35455V31.01758z
	 M54.19922,32.54883h-0.04883c-0.0166,0.05469-0.03131,0.0567,0.04883,0.0625c0.00586-0.01562,0.0108-0.02936,0.01556-0.04681
	h-0.01556V32.54883z M54.40918,32.80078v0.0058c0.06152,0.02155,0.14349,0.0274,0.23529,0.0274
	c0.11041,0,0.23151-0.00977,0.32825-0.00977c0.0058-0.01172,0.01166-0.02344,0.01746-0.0332
	c-0.16785-0.05469-0.3808-0.07623-0.54877-0.0976C54.4209,32.73242,54.41211,32.73932,54.40918,32.80078z M47.63672,32.41992
	c-0.0293-0.01562-0.0293-0.01953-0.06439-0.03125c-0.01764,0.01172-0.06061,0.02155-0.08014,0.03125v0.01556h0.01459
	c0.03235,0.0293,0.0498,0.03033,0.1123,0.03229C47.625,32.45117,47.62988,32.43549,47.63672,32.41992z M53.10352,29.96869
	c-0.02539,0.0401-0.00189,0.10553,0.02539,0.1651c0.01947,0.04199,0.04297,0.08099,0.05469,0.1084v0.00104h0.01562v-0.0166
	c0.01166-0.01764,0.00977-0.01471,0.0166-0.04895c-0.06354-0.07806-0.00494-0.27148-0.0791-0.33789
	C53.11328,29.87988,53.10553,29.89648,53.10352,29.96869z M46.18549,21.77588c-0.06927-0.05811-0.08777-0.1709-0.16211-0.22607
	c-0.10345,0.11719-0.45496,0.39008-0.48236,0.53217c0.13281,0.08502,0.5293,0.354,0.61127,0.46783
	c0.03522,0.04828,0.04303,0.11621,0.06451,0.17731H46.25c0.14258-0.22418,0.31451-0.44592,0.4668-0.66119
	c-0.08691-0.05273-0.17291-0.16992-0.25781-0.20905C46.34961,21.80518,46.26367,21.8418,46.18549,21.77588z M53.08301,29.63177
	c0.00977,0,0.01471,0,0.02051-0.00385c0.0332-0.04883,0.01758-0.19244,0.01471-0.2724
	c-0.08691-0.09485-0.1358-0.25201-0.1358-0.41602l-0.11334,0.0058c0,0.06146-0.02338,0.12891-0.04095,0.1524
	c-0.04102,0.04291-0.10742,0.06726-0.16113,0.0976c0.05182,0.11517,0.14551,0.31061,0.24219,0.3858
	C52.94342,29.60742,53.03912,29.63281,53.08301,29.63177z M50.02148,27.58197c-0.03711-0.02148-0.06738-0.01166-0.11127-0.03314
	c-0.02643,0.08685-0.01575,0.0625,0.11127,0.06445c0.0058-0.00977,0.01172-0.02148,0.01764-0.03131H50.02148z M52.40918,29.72662
	c0.00494-0.01764,0.01074-0.03131,0.0166-0.04694c-0.0293-0.01758-0.0274-0.02148-0.06641-0.0332
	c-0.01367,0.0166-0.03619,0.02539-0.05756,0.03711c-0.0069,0.00391-0.01471,0.00781-0.02252,0.01172
	c0.01172,0.0274,0.00391,0.01367,0.01758,0.03131c0.01953,0.01459,0.039,0.0166,0.08014,0.0166
	C52.39447,29.73053,52.38092,29.73633,52.40918,29.72662z M41.33112,30.83789c0.00085,0.07422,0.12585,0.11328,0.24207,0.11328
	c0.00983-0.01569,0.01959-0.03125,0.03235-0.04688h-0.01764v-0.01562C41.48438,30.87891,41.45312,30.8418,41.33112,30.83789z
	 M49.2168,26.98633v-0.01764c0.04492-0.02728,0.08502-0.0683,0.1123-0.11127h-0.01459
	c-0.0166-0.01373-0.00592-0.0058-0.03229-0.01764c-0.00494,0.00592-0.00885,0.01373-0.01276,0.01764
	c-0.03119,0.03705-0.06537,0.0567-0.08398,0.11127h0.0166v0.01764H49.2168z M49.7168,27.56451
	c-0.02338,0.05371-0.03711,0.0498,0.03223,0.06641c0.03906-0.03522,0.06348-0.0166,0.09668-0.03131h0.01562v-0.0166H49.8457
	v-0.01849C49.78809,27.57422,49.78711,27.57031,49.7168,27.56451z M52.39258,27.56451h-0.51556
	c-0.00104,0.01849,0,0.04102,0.00476,0.06146c0.02051,0.10065,0.09674,0.22565,0.13971,0.30951
	c0.1601,0.31061,0.25391,0.62311,0.61334,0.72662h0.00189v-0.01953c0.01166-0.01758,0.00977-0.01556,0.01758-0.04889
	c-0.06348-0.08386-0.0625-0.27338-0.01758-0.36908c0.00977,0.00391,0.02051,0.00977,0.03131,0.01471
	c0.02539,0.07709,0.00488,0.21088,0.03217,0.28998c0.02252,0.07031,0.0459,0.17682,0.08203,0.25879
	c0.01367,0.03424,0.06738,0.06152,0.0791,0.09674c0.0069,0.01947,0.00879,0.03705,0.00879,0.05859l0.1123-0.00592
	c0-0.06451,0.00775-0.13483,0.0235-0.19733c0.01166-0.04486,0-0.09369,0.00287-0.13464
	c0.00104-0.01575,0.00684-0.02936,0.01459-0.04303c0.02252-0.03522,0.08215-0.04303,0.11334-0.08008
	c-0.1582-0.10449-0.19531-0.2724-0.30762-0.41992c-0.06152-0.08197-0.21582-0.12299-0.28998-0.19141
	c0.0058-0.07806,0.0293-0.08197,0.04779-0.14648C52.52148,27.66992,52.45801,27.61823,52.39258,27.56451z M53.26367,27.01758
	c-0.00586,0.03711-0.01465,0.01764,0,0.04883c0.03021,0.02051,0.09375,0.01862,0.14551,0.0166
	c0.01172-0.0166,0.0224-0.0332,0.03223-0.04883h-0.01562v-0.0166H53.26367z M50.47662,27.77539
	c-0.1416,0.04303-0.2666,0.01764-0.38873,0.06439c0.00983,0.0274,0.00391,0.01575,0.01764,0.0332
	c0.17969,0.1153,0.51166,0.00592,0.72559,0.04694v0.1123h-0.0166v0.01569c-0.29504,0.01257-0.67004,0.0498-0.95123,0.12891
	c-0.0957,0.02826-0.2442-0.00201-0.32227,0.0166c-0.18549,0.04675-0.40039-0.01373-0.43549,0.17767h0.01654v0.01758
	c0.50293-0.01569,0.95605,0.13281,1.32135,0.27344c0.13177,0.0498,0.32416,0.03906,0.35449,0.19342H50.7793v0.01746
	c-0.53711-0.1601-1.15039-0.2793-1.85352-0.29102c-0.07617,0.13281-0.2207,0.24036-0.2735,0.38672h0.0166
	c0.06354,0.03723,0.17682-0.00677,0.25793,0.01569c0.2959,0.08795,0.69525,0.07422,0.98425,0.16211
	c0.09485,0.02734,0.17291,0,0.24121,0.04883h-0.03119c-0.06927,0.03711-0.3623,0.0332-0.51758,0.03131
	c-0.3623-0.00201-0.7373-0.05963-1.12891-0.06354c-0.05273,0.08398-0.14349,0.14551-0.1767,0.24121h0.0166
	c0.07611,0.05658,0.20496,0.00293,0.3222,0.0332c0.2149,0.05469,0.4942,0.0625,0.79095,0.06049h0.94635h1.82715
	c0.00885-0.02338,0.01172-0.02527,0.0166-0.0625c-0.11224-0.16986,0.09473-0.31439,0.11334-0.41986
	c-0.03912-0.05084-0.04303-0.12305-0.08014-0.17773c-0.03418-0.0274-0.06549-0.05469-0.09869-0.08197
	c-0.03217-0.07043,0.03723-0.05774-0.01556-0.11145c-0.11914-0.06927-0.22754,0.00391-0.22754-0.19238
	c0.06152-0.03119,0.1142-0.0517,0.12994-0.12891c-0.08301-0.07611-0.19342-0.38568-0.24225-0.5
	c-0.01959-0.04388-0.0274-0.10925-0.04785-0.164c-0.01465-0.04297-0.03424-0.08008-0.06354-0.09467h-0.80658
	c-0.03912,0.02051-0.11328,0.00189-0.16113,0.0166v0.0166h0.0166c0.0351,0.01746,0.10944-0.00201,0.14551,0.01556
	c0.00879,0.0058,0.02051,0.01172,0.03033,0.01764v0.0625C50.75781,27.69342,50.59961,27.73828,50.47662,27.77539z
	 M53.18359,32.06451c-0.04297,0.06342-0.09668,0.05457-0.17871,0.07996c0.00391,0.01172,0.00684,0.0166,0.00684,0.01862
	c0.00195,0.00494,0.00195,0.00494,0.00977,0.01459c0.0293,0.02643,0.04102,0.02844,0.09674,0.03131
	c0.0517-0.04688,0.10248-0.0528,0.12885-0.12787h-0.01654v-0.0166H53.18359z M43.8125,31.19342
	c0.01172,0.01355-0.00781,0.02136,0.01758,0.04877C43.85742,31.21088,43.83502,31.21393,43.8125,31.19342z M53.00488,30.50098
	c-0.0401-0.10059-0.05566-0.25195-0.11426-0.34668c-0.0127-0.02338-0.02734-0.04297-0.04681-0.05658
	c-0.10162-0.08014-0.24811,0-0.41803-0.04889c-0.07806-0.02155-0.1582-0.07611-0.24219-0.09766h-0.67767
	c-0.25-0.05859-0.47174-0.11139-0.78912-0.11139c-0.06641-0.10046-0.19342-0.11707-0.3457-0.11707
	c-0.0752,0-0.1543,0.00391-0.23627,0.00391h-1.49811c-0.07422-0.04694-0.47363-0.01764-0.5976-0.01764
	c-0.11823,0.23834-0.34772,0.3808-0.5,0.58203c-0.12213,0.16016-0.23444,0.31836-0.35553,0.48236
	c-0.08398,0.1153-0.31738,0.3194-0.33789,0.46881h0.01758v0.0166c0.22852-0.02051,0.49805-0.03418,0.69141,0
	c0.16803,0.02832,0.23529-0.03027,0.37109-0.01471c0.3847,0.03912,1.06055,0.03131,1.62891,0.03131
	c0.5918,0.0058,1.18359,0.01172,1.77441,0.01764c0.21582,0.06439,0.52643,0.05859,0.74121,0.11127h0.27539
	c0.04102,0.0127,0.14941,0.0127,0.20898,0.0332c0.08789,0.0293,0.12891,0.08978,0.25781,0.09772
	c0.04883-0.05469,0.10248-0.1153,0.19238-0.13092c0.0224,0.02148,0.06543,0.02728,0.08099,0.05078
	c0.04694,0.06439,0.01764,0.09082,0.11334,0.11133v-0.0166h0.01758c0.00983-0.1123,0.09369-0.22272,0.0625-0.33789
	C53.2207,30.98053,53.09772,30.72662,53.00488,30.50098z M53.19922,27.79102c0.01758,0.01166,0.01556,0.00977,0.04688,0.01556
	c0.00684-0.01068,0.01068-0.02136,0.01758-0.0332c-0.0293-0.01355-0.02734-0.01947-0.06445-0.03015
	C53.19141,27.7793,53.18359,27.75983,53.19922,27.79102z M40.16888,32.41992c0.00494,0.0235-0.00476,0.0567,0.0332,0.03125v0.00092
	h0.01672v-0.0166h-0.01672C40.18549,32.42188,40.19733,32.42969,40.16888,32.41992z M40.46002,32.46777
	c0.02826-0.03027,0.00391-0.02826-0.0166-0.04785C40.45312,32.43158,40.43359,32.43951,40.46002,32.46777z M40.05658,32.46777
	c0.0274-0.03027,0.00592-0.02826-0.01556-0.04785C40.0498,32.43158,40.03223,32.43951,40.05658,32.46777z M40.60553,32.46777
	c0.02728-0.03027,0.00385-0.02826-0.0166-0.04785C40.59961,32.43158,40.58008,32.43951,40.60553,32.46777z M41.39447,32.46777
	c0.0957-0.04395,0.42004,0.00885,0.65045,0.00885c0.04688,0,0.0918-0.00201,0.12695-0.00983
	c0.1582-0.02338,0.40234-0.01471,0.56445,0c0.03314,0.00592,0.06836,0.00592,0.10547,0.00592
	c0.10553,0,0.21478-0.0108,0.29688-0.02155c0.04291-0.00385,0.125,0.02155,0.19244,0.0166c0.17181-0.0127,0.39349-0.00195,0.59656,0
	c0.01184-0.0166,0.02051-0.03229,0.03235-0.04785c-0.04791-0.03815-0.09674-0.07623-0.14551-0.11334
	c-0.82819-0.0058-1.65533-0.01068-2.48254-0.0166h-0.01746c-0.04114,0.08301-0.09381,0.09283-0.1778,0.12994
	c0.00586,0.00977,0.01166,0.02148,0.01556,0.03125C41.21088,32.47272,41.3125,32.46869,41.39447,32.46777z M39.89648,32.4209
	c0.00189,0.02252-0.00586,0.05573,0.03119,0.03119h0.01575v-0.0166h-0.01575C39.91022,32.42188,39.92291,32.42969,39.89648,32.4209z
	 M42.18549,25.62988c-0.09369,0.1416-0.33386,0.28613-0.38666,0.43463c0.31445,0.1933,0.54688,0.43549,0.80469,0.67871h0.00201
	v0.16107l0.04095,0.04102c0.02344-0.02539,0.04883-0.04883,0.07129-0.07324c0.10254-0.10059,0.28815-0.21289,0.34082-0.35449
	c-0.09082-0.06061-0.14362-0.16205-0.22748-0.22455c-0.19049-0.14655-0.4873-0.44531-0.59674-0.66315H42.18549z M41.44342,32.03418
	c0.6347-0.00488,1.26849-0.0108,1.9043-0.01471c0.00391-0.01849,0.0097-0.03314,0.01361-0.0517
	c-0.23633-0.09955-0.41016-0.33398-0.64355-0.43359h-0.29095c-0.07129-0.00879-0.17682-0.00879-0.28815-0.00879
	c-0.1319,0.00189-0.2735,0.00879-0.38867,0.00879h-2.38672c-0.01367,0.04883-0.01367,0.12891-0.04877,0.15924
	c-0.06354,0.04877-0.21289,0.0351-0.32129,0.03119c-0.2959-0.00983-0.59283-0.01953-0.8877-0.03119
	c-0.0899-0.02454-0.1983-0.086-0.28961-0.11145c-0.09082-0.02539-0.20215,0.01965-0.2749-0.01746
	c-0.01123-0.01569-0.021-0.03033-0.03223-0.04889c-0.48291-0.00391-0.96777-0.0097-1.44971-0.01465h-0.01605
	c-0.31403,0-0.73004-0.01855-0.95325,0.08014v0.0166h0.01709c0.06305,0.03711,0.12701-0.01959,0.19293,0
	c0.01422,0.00189,0.04102,0.04486,0.04932,0.04675h0.146l0.0318,0.0332c0.13617,0.04102,0.29291-0.0058,0.4043,0.03235v0.01459
	h-0.01813c-0.01996,0.01367-0.0752,0.02441-0.09619,0.03217c0.01221,0.04791,0.021,0.04114,0.03119,0.09875h-0.03119
	c-0.06097,0.04095-0.22998,0.05756-0.34668,0.04486l-0.00018,0.00183c-0.04437-0.0058-0.08289-0.01355-0.10382-0.02924
	c-0.02728-0.03406-0.05524-0.06641-0.08203-0.0976c-0.0274-0.00977-0.16211-0.0274-0.17816-0.03131
	c-0.2359-0.0058-0.47321-0.01166-0.70905-0.01746c-0.11475-0.0235-0.30518-0.00983-0.41986,0H32.9458h-2.03271
	c-0.35889,0-0.78516,0.0351-1.09619-0.0293h-0.4668c-0.28027,0-0.68988-0.01965-0.93597-0.08215h-0.75781
	c-0.21344-0.04877-0.53912,0.02155-0.79114-0.03119c-0.2251-0.05078-0.47119-0.05078-0.69226-0.09961h-0.46783
	c-0.37311-0.0567-0.86615,0.0224-1.22607-0.04688c-0.01422-0.04492-0.00592-0.07233-0.01709-0.11328
	c-0.13483-0.00104-0.31879-0.0351-0.43604-0.06354h-0.61279c-0.38086,0-0.85498-0.00677-1.20898-0.04779
	c-0.02002,0.03711-0.0293,0.04492-0.03119,0.11133c0.04187,0.1153,0.00189,0.57806,0,0.74219
	c0.05609,0.0293,0.14008,0.0332,0.24207,0.0332c0.0611,0.07422,0.14313,0.04877,0.24225,0.0957
	c0.05756,0.0293,0.18457,0.10938,0.22455,0.16022c0.02454,0.03314,0.01135,0.09467,0.0484,0.11316h0.48291
	c0.08014-0.0332,0.25189,0.01569,0.40381,0c0.18988-0.01947,0.41803,0.01373,0.59808,0.00201
	c0.00592,0,0.0108-0.00201,0.01624-0.00201c0.26898-0.02338,0.58978,0.02252,0.86957-0.0166
	c0.18799-0.02527,0.42529,0.05084,0.6123,0.0166c0.32568-0.05951,0.75684-0.0166,1.11279-0.0166h2.17621h2.03284
	c0.55505-0.20886,1.29095-0.14349,1.91785-0.289c0.21545-0.00586,0.43024-0.0108,0.64606-0.0166
	c0.45795-0.05859,0.97406,0.04883,1.43695-0.01758c0.06744-0.00983,0.13922-0.00189,0.20709,0.00781l0.02502-0.21442
	l-0.02307,0.21637c0.06299,0.00781,0.12305,0.01562,0.1792,0.00781c0.1778-0.02051,0.36816,0.01562,0.56299,0
	c0.48486-0.03217,0.94781,0.00391,1.41986-0.01556c0.16022-0.00592,0.3941,0.01746,0.54944,0
	c0.21478-0.0235,0.39447,0.03607,0.62891,0c0.06641-0.00885,0.0976,0.03217,0.1933,0.01556c0.18066-0.02637,0.6084-0.0293,0.78906,0
	c0.09375,0.0166,0.12689-0.02051,0.1933-0.01556c0.16901,0.01166,0.39075-0.0069,0.56451,0.01556
	c0.07233,0.01074,0.30762-0.07416,0.38672-0.0957c0.12396-0.03516,0.28711-0.0069,0.4209-0.0069
	C41.37299,32.04388,41.41107,32.04199,41.44342,32.03418z M40.18549,28.91992c-0.0058,0.03705-0.01459,0.01758,0,0.04877
	c0.0528,0.07233,0.28522,0.25983,0.37109,0.28912v-0.01459c0.0567-0.03625,0.07825-0.05371,0.08209-0.14551
	c-0.0567-0.05084-0.13666-0.1153-0.17865-0.1778H40.18549z M40.00781,28.61328c0.02148,0.02734,0.01166,0.01764,0.04877,0.0332
	v-0.01556c0.01184-0.01959,0.00983-0.0166,0.01764-0.04895h-0.01764v-0.01746h-0.04877
	C40.00201,28.60162,39.99323,28.58398,40.00781,28.61328z M24.42682,32.73633c-0.06793,0.00299-0.1319,0.00586-0.19,0.00586h-1.3877
	c-0.125-0.05267-0.37402,0.04492-0.5639-0.01556c-0.01709,0.01166-0.0152,0.0097-0.0484,0.01556
	c-0.021,0.0332-0.03369,0.03711-0.04779,0.08099h0.01605c0.01801,0.0108,0.01611,0.00879,0.04883,0.0166
	c0.08789-0.05457,0.59619-0.0332,0.74219-0.0332h1.85303c0.01166-0.01746,0.021-0.0332,0.03265-0.0498
	C24.76508,32.7207,24.58893,32.72852,24.42682,32.73633z M41.10553,26.80658c-0.07623,0.07721-0.20325,0.15039-0.24225,0.25793
	c0.28119,0.16211,0.82422,0.42957,0.9668,0.70886h0.0332c0.10944-0.17175,0.2998-0.2597,0.41895-0.41785
	c0.11035-0.14655,0.23535-0.28131,0.36224-0.41211l-0.04095-0.03912c-0.04492,0.02539-0.08984,0.0332-0.17584,0.0332
	c-0.05658-0.07129-0.164-0.09857-0.2265-0.16211c-0.14648-0.14648-0.375-0.48627-0.59564-0.5332
	C41.48633,26.42969,41.26367,26.64838,41.10553,26.80658z M37.99219,31.09961c-0.021-0.0166-0.0401-0.0166-0.08008-0.01849
	c-0.00934,0.02441-0.01123,0.02826-0.01611,0.06537c0.1001,0.0332,0.27588,0.01764,0.40192,0.0166
	c0.00391-0.0108,0.01068-0.02246,0.0166-0.0332C38.24219,31.09082,38.11133,31.09772,37.99219,31.09961z M37.71881,31.19342
	c0.01697-0.0332,0.02338-0.02844,0.03217-0.08014c-0.0191-0.01367-0.0191-0.01367-0.03217-0.03217h-0.29059
	C37.43018,31.1748,37.56689,31.2002,37.71881,31.19342z"/>
</svg>
